G75*
G70*
%OFA0B0*%
%FSLAX24Y24*%
%IPPOS*%
%LPD*%
%AMOC8*
5,1,8,0,0,1.08239X$1,22.5*
%
%ADD10R,0.0472X0.0117*%
%ADD11R,0.0945X0.0945*%
%ADD12R,0.0217X0.0472*%
%ADD13R,0.0472X0.0315*%
%ADD14R,0.0630X0.0157*%
%ADD15R,0.0315X0.0472*%
D10*
X007977Y005630D03*
X007977Y005827D03*
X007977Y006024D03*
X007977Y006221D03*
X007977Y006418D03*
X007977Y006614D03*
X007977Y006811D03*
X007977Y007008D03*
X007977Y007205D03*
X007977Y007402D03*
X007977Y007599D03*
X007977Y007796D03*
X007977Y007992D03*
X007977Y008189D03*
X007977Y008386D03*
X007977Y008583D03*
X007977Y008780D03*
X007977Y008977D03*
X007977Y009174D03*
X007977Y009370D03*
X007977Y009567D03*
X007977Y009764D03*
X007977Y009961D03*
X007977Y010158D03*
X007977Y010355D03*
X007977Y010551D03*
X007977Y010748D03*
X007977Y010945D03*
X007977Y011142D03*
X007977Y011339D03*
X007977Y011536D03*
X007977Y011733D03*
X007977Y011929D03*
X007977Y012126D03*
X007977Y012323D03*
X007977Y012520D03*
X007977Y012717D03*
X007977Y012914D03*
X007977Y013111D03*
X007977Y013307D03*
X007977Y013504D03*
X007977Y013701D03*
X007977Y013898D03*
X007977Y014095D03*
X007977Y014292D03*
X007977Y014489D03*
X007977Y014685D03*
X007977Y014882D03*
X007977Y015079D03*
X007977Y015276D03*
D11*
X009040Y016103D03*
X009040Y004803D03*
D12*
X005219Y005691D03*
X004845Y005691D03*
X004471Y005691D03*
X004471Y006715D03*
X005219Y006715D03*
D13*
X003595Y005849D03*
X003595Y006557D03*
X006095Y006557D03*
X006095Y005849D03*
X006845Y014349D03*
X006845Y015057D03*
D14*
X006256Y010221D03*
X006256Y009965D03*
X006256Y009709D03*
X006256Y009453D03*
X006256Y009197D03*
X006256Y008941D03*
X006256Y008685D03*
X003933Y008685D03*
X003933Y008941D03*
X003933Y009197D03*
X003933Y009453D03*
X003933Y009709D03*
X003933Y009965D03*
X003933Y010221D03*
D15*
X003990Y011203D03*
X004699Y011203D03*
X005490Y011203D03*
X006199Y011203D03*
M02*
