G75*
G70*
%OFA0B0*%
%FSLAX24Y24*%
%IPPOS*%
%LPD*%
%AMOC8*
5,1,8,0,0,1.08239X$1,22.5*
%
%ADD10C,0.0000*%
%ADD11C,0.0160*%
%ADD12C,0.0080*%
%ADD13C,0.0060*%
D10*
X000148Y001394D02*
X000148Y017953D01*
X010595Y017953D01*
X010595Y002953D01*
X003041Y002953D01*
X003002Y002951D01*
X002964Y002945D01*
X002927Y002936D01*
X002890Y002923D01*
X002855Y002906D01*
X002822Y002887D01*
X002791Y002864D01*
X002762Y002838D01*
X002736Y002809D01*
X002713Y002778D01*
X002694Y002745D01*
X002677Y002710D01*
X002664Y002673D01*
X002655Y002636D01*
X002649Y002598D01*
X002647Y002559D01*
X002648Y002559D02*
X002648Y001394D01*
X000748Y001394D02*
X000750Y001444D01*
X000756Y001494D01*
X000766Y001544D01*
X000779Y001592D01*
X000796Y001640D01*
X000817Y001686D01*
X000841Y001730D01*
X000869Y001772D01*
X000900Y001812D01*
X000934Y001849D01*
X000971Y001884D01*
X001010Y001915D01*
X001051Y001944D01*
X001095Y001969D01*
X001141Y001991D01*
X001188Y002009D01*
X001236Y002023D01*
X001285Y002034D01*
X001335Y002041D01*
X001385Y002044D01*
X001436Y002043D01*
X001486Y002038D01*
X001536Y002029D01*
X001584Y002017D01*
X001632Y002000D01*
X001678Y001980D01*
X001723Y001957D01*
X001766Y001930D01*
X001806Y001900D01*
X001844Y001867D01*
X001879Y001831D01*
X001912Y001792D01*
X001941Y001751D01*
X001967Y001708D01*
X001990Y001663D01*
X002009Y001616D01*
X002024Y001568D01*
X002036Y001519D01*
X002044Y001469D01*
X002048Y001419D01*
X002048Y001369D01*
X002044Y001319D01*
X002036Y001269D01*
X002024Y001220D01*
X002009Y001172D01*
X001990Y001125D01*
X001967Y001080D01*
X001941Y001037D01*
X001912Y000996D01*
X001879Y000957D01*
X001844Y000921D01*
X001806Y000888D01*
X001766Y000858D01*
X001723Y000831D01*
X001678Y000808D01*
X001632Y000788D01*
X001584Y000771D01*
X001536Y000759D01*
X001486Y000750D01*
X001436Y000745D01*
X001385Y000744D01*
X001335Y000747D01*
X001285Y000754D01*
X001236Y000765D01*
X001188Y000779D01*
X001141Y000797D01*
X001095Y000819D01*
X001051Y000844D01*
X001010Y000873D01*
X000971Y000904D01*
X000934Y000939D01*
X000900Y000976D01*
X000869Y001016D01*
X000841Y001058D01*
X000817Y001102D01*
X000796Y001148D01*
X000779Y001196D01*
X000766Y001244D01*
X000756Y001294D01*
X000750Y001344D01*
X000748Y001394D01*
X001398Y000144D02*
X001466Y000146D01*
X001533Y000151D01*
X001600Y000160D01*
X001667Y000173D01*
X001732Y000190D01*
X001797Y000209D01*
X001861Y000233D01*
X001923Y000260D01*
X001984Y000290D01*
X002042Y000323D01*
X002099Y000359D01*
X002154Y000399D01*
X002207Y000441D01*
X002258Y000487D01*
X002305Y000534D01*
X002351Y000585D01*
X002393Y000638D01*
X002433Y000693D01*
X002469Y000750D01*
X002502Y000808D01*
X002532Y000869D01*
X002559Y000931D01*
X002583Y000995D01*
X002602Y001060D01*
X002619Y001125D01*
X002632Y001192D01*
X002641Y001259D01*
X002646Y001326D01*
X002648Y001394D01*
X001398Y000144D02*
X001330Y000146D01*
X001263Y000151D01*
X001196Y000160D01*
X001129Y000173D01*
X001064Y000190D01*
X000999Y000209D01*
X000935Y000233D01*
X000873Y000260D01*
X000812Y000290D01*
X000754Y000323D01*
X000697Y000359D01*
X000642Y000399D01*
X000589Y000441D01*
X000538Y000487D01*
X000491Y000534D01*
X000445Y000585D01*
X000403Y000638D01*
X000363Y000693D01*
X000327Y000750D01*
X000294Y000808D01*
X000264Y000869D01*
X000237Y000931D01*
X000213Y000995D01*
X000194Y001060D01*
X000177Y001125D01*
X000164Y001192D01*
X000155Y001259D01*
X000150Y001326D01*
X000148Y001394D01*
D11*
X006765Y017453D02*
X006767Y017470D01*
X006772Y017487D01*
X006781Y017501D01*
X006793Y017514D01*
X006808Y017524D01*
X006824Y017530D01*
X006841Y017533D01*
X006858Y017532D01*
X006875Y017527D01*
X006890Y017519D01*
X006903Y017508D01*
X006914Y017494D01*
X006921Y017479D01*
X006925Y017462D01*
X006925Y017444D01*
X006921Y017427D01*
X006914Y017412D01*
X006903Y017398D01*
X006890Y017387D01*
X006875Y017379D01*
X006858Y017374D01*
X006841Y017373D01*
X006824Y017376D01*
X006808Y017382D01*
X006793Y017392D01*
X006781Y017405D01*
X006772Y017419D01*
X006767Y017436D01*
X006765Y017453D01*
D12*
X006079Y010526D02*
X005291Y010526D01*
X005292Y010526D02*
X005290Y010499D01*
X005285Y010473D01*
X005276Y010448D01*
X005263Y010424D01*
X005248Y010402D01*
X005229Y010382D01*
X005209Y010365D01*
X005186Y010351D01*
X005161Y010340D01*
X005135Y010333D01*
X005108Y010329D01*
X005082Y010329D01*
X005055Y010333D01*
X005029Y010340D01*
X005004Y010351D01*
X004981Y010365D01*
X004961Y010382D01*
X004942Y010402D01*
X004927Y010424D01*
X004914Y010448D01*
X004905Y010473D01*
X004900Y010499D01*
X004898Y010526D01*
X004110Y010526D01*
X004110Y010447D01*
X004110Y008459D02*
X004110Y008380D01*
X006079Y008380D01*
X006079Y008459D01*
X006079Y010447D02*
X006079Y010526D01*
D13*
X006608Y014585D02*
X006608Y014821D01*
X007081Y014821D02*
X007081Y014585D01*
M02*
