G75*
G70*
%OFA0B0*%
%FSLAX24Y24*%
%IPPOS*%
%LPD*%
%AMOC8*
5,1,8,0,0,1.08239X$1,22.5*
%
%ADD10OC8,0.0640*%
%ADD11C,0.0080*%
%ADD12C,0.0436*%
%ADD13C,0.0100*%
%ADD14C,0.0160*%
D10*
X006629Y009703D03*
X007629Y009703D03*
X008629Y009703D03*
X008629Y010703D03*
X007629Y010703D03*
X006629Y010703D03*
X006437Y018203D03*
X007437Y018203D03*
X007437Y019203D03*
X006437Y019203D03*
X005437Y019203D03*
X005437Y018203D03*
D11*
X002277Y021663D02*
X002277Y004343D01*
X017737Y004343D01*
X017737Y012503D01*
X021860Y012503D01*
X022077Y012719D01*
X022077Y013130D01*
X021164Y014043D01*
X017636Y014043D01*
X017623Y014011D01*
X017528Y013916D01*
X017404Y013865D01*
X017269Y013865D01*
X017145Y013916D01*
X017050Y014011D01*
X016999Y014136D01*
X016999Y014270D01*
X017050Y014394D01*
X017145Y014489D01*
X017269Y014541D01*
X017404Y014541D01*
X017528Y014489D01*
X017623Y014394D01*
X017636Y014363D01*
X021297Y014363D01*
X021390Y014269D01*
X022397Y013263D01*
X022397Y013130D01*
X022397Y012587D01*
X022313Y012503D01*
X022777Y012503D01*
X022777Y016537D01*
X018928Y020385D01*
X018878Y020365D01*
X018743Y020365D01*
X018619Y020416D01*
X018524Y020511D01*
X018473Y020636D01*
X018473Y020770D01*
X018524Y020894D01*
X018619Y020989D01*
X018743Y021041D01*
X018878Y021041D01*
X019002Y020989D01*
X019097Y020894D01*
X019149Y020770D01*
X019149Y020636D01*
X019143Y020622D01*
X022977Y016789D01*
X022977Y017437D01*
X020035Y020378D01*
X020004Y020365D01*
X019869Y020365D01*
X019745Y020416D01*
X019650Y020511D01*
X019599Y020636D01*
X019599Y020770D01*
X019650Y020894D01*
X019745Y020989D01*
X019869Y021041D01*
X020004Y021041D01*
X020128Y020989D01*
X020223Y020894D01*
X020275Y020770D01*
X020275Y020636D01*
X020262Y020604D01*
X023297Y017569D01*
X023297Y017437D01*
X023297Y012503D01*
X024677Y012503D01*
X024677Y018937D01*
X023235Y020378D01*
X023204Y020365D01*
X023069Y020365D01*
X022945Y020416D01*
X022850Y020511D01*
X022799Y020636D01*
X022799Y020770D01*
X022850Y020894D01*
X022945Y020989D01*
X023069Y021041D01*
X023204Y021041D01*
X023328Y020989D01*
X023423Y020894D01*
X023475Y020770D01*
X023475Y020636D01*
X023462Y020604D01*
X024877Y019189D01*
X024877Y020063D01*
X024561Y020378D01*
X024530Y020365D01*
X024395Y020365D01*
X024271Y020416D01*
X024176Y020511D01*
X024125Y020636D01*
X024125Y020770D01*
X024176Y020894D01*
X024271Y020989D01*
X024395Y021041D01*
X024530Y021041D01*
X024654Y020989D01*
X024749Y020894D01*
X024801Y020770D01*
X024801Y020636D01*
X024788Y020604D01*
X025197Y020195D01*
X025197Y020063D01*
X025197Y012503D01*
X028397Y012503D01*
X028397Y021663D01*
X002277Y021663D01*
X002277Y021639D02*
X013047Y021639D01*
X013070Y021663D02*
X012977Y021569D01*
X009035Y017628D01*
X009004Y017641D01*
X008869Y017641D01*
X008745Y017589D01*
X008650Y017494D01*
X008599Y017370D01*
X008599Y017236D01*
X008650Y017111D01*
X008745Y017016D01*
X008869Y016965D01*
X009004Y016965D01*
X009128Y017016D01*
X009223Y017111D01*
X009275Y017236D01*
X009275Y017370D01*
X009262Y017402D01*
X013203Y021343D01*
X014774Y021343D01*
X020050Y021343D01*
X023412Y017982D01*
X023399Y017950D01*
X023399Y017816D01*
X023450Y017691D01*
X023545Y017596D01*
X023669Y017545D01*
X023804Y017545D01*
X023928Y017596D01*
X024023Y017691D01*
X024075Y017816D01*
X024075Y017950D01*
X024023Y018074D01*
X023928Y018169D01*
X023804Y018221D01*
X023669Y018221D01*
X023638Y018208D01*
X020183Y021663D01*
X020050Y021663D01*
X014774Y021663D01*
X013070Y021663D01*
X012969Y021561D02*
X002277Y021561D01*
X002277Y021482D02*
X012890Y021482D01*
X012811Y021404D02*
X002277Y021404D01*
X002277Y021325D02*
X012733Y021325D01*
X012654Y021247D02*
X002277Y021247D01*
X002277Y021168D02*
X003320Y021168D01*
X003380Y021193D02*
X003089Y021073D01*
X002867Y020850D01*
X002747Y020560D01*
X002747Y020246D01*
X002867Y019955D01*
X003089Y019733D01*
X003380Y019613D01*
X003694Y019613D01*
X003984Y019733D01*
X004206Y019955D01*
X004327Y020246D01*
X004327Y020560D01*
X004206Y020850D01*
X003984Y021073D01*
X003694Y021193D01*
X003380Y021193D01*
X003131Y021090D02*
X002277Y021090D01*
X002277Y021011D02*
X003028Y021011D01*
X002949Y020933D02*
X002277Y020933D01*
X002277Y020854D02*
X002871Y020854D01*
X002836Y020775D02*
X002277Y020775D01*
X002277Y020697D02*
X002803Y020697D01*
X002771Y020618D02*
X002277Y020618D01*
X002277Y020540D02*
X002747Y020540D01*
X002747Y020461D02*
X002277Y020461D01*
X002277Y020383D02*
X002747Y020383D01*
X002747Y020304D02*
X002277Y020304D01*
X002277Y020226D02*
X002755Y020226D01*
X002787Y020147D02*
X002277Y020147D01*
X002277Y020069D02*
X002820Y020069D01*
X002853Y019990D02*
X002277Y019990D01*
X002277Y019911D02*
X002911Y019911D01*
X002989Y019833D02*
X002277Y019833D01*
X002277Y019754D02*
X003068Y019754D01*
X003227Y019676D02*
X002277Y019676D01*
X002277Y019597D02*
X005209Y019597D01*
X005254Y019643D02*
X004997Y019385D01*
X004997Y019021D01*
X005254Y018763D01*
X005619Y018763D01*
X005877Y019021D01*
X005877Y019385D01*
X005619Y019643D01*
X005254Y019643D01*
X005130Y019519D02*
X002277Y019519D01*
X002277Y019440D02*
X005052Y019440D01*
X004997Y019362D02*
X002277Y019362D01*
X002277Y019283D02*
X004997Y019283D01*
X004997Y019205D02*
X002277Y019205D01*
X002277Y019126D02*
X004997Y019126D01*
X004997Y019048D02*
X002277Y019048D01*
X002277Y018969D02*
X005048Y018969D01*
X005127Y018890D02*
X002277Y018890D01*
X002277Y018812D02*
X005205Y018812D01*
X005246Y018663D02*
X004977Y018393D01*
X004977Y018243D01*
X005396Y018243D01*
X005396Y018163D01*
X004977Y018163D01*
X004977Y018012D01*
X005246Y017743D01*
X005397Y017743D01*
X005397Y018163D01*
X005477Y018163D01*
X005477Y018243D01*
X005897Y018243D01*
X005897Y018393D01*
X005627Y018663D01*
X005477Y018663D01*
X005477Y018243D01*
X005397Y018243D01*
X005397Y018663D01*
X005246Y018663D01*
X005238Y018655D02*
X002277Y018655D01*
X002277Y018733D02*
X010141Y018733D01*
X010062Y018655D02*
X005635Y018655D01*
X005714Y018576D02*
X006188Y018576D01*
X006254Y018643D02*
X005997Y018385D01*
X005997Y018021D01*
X006254Y017763D01*
X006619Y017763D01*
X006877Y018021D01*
X006877Y018385D01*
X006619Y018643D01*
X006254Y018643D01*
X006254Y018763D02*
X006619Y018763D01*
X006877Y019021D01*
X006877Y019385D01*
X006619Y019643D01*
X006254Y019643D01*
X005997Y019385D01*
X005997Y019021D01*
X006254Y018763D01*
X006205Y018812D02*
X005668Y018812D01*
X005746Y018890D02*
X006127Y018890D01*
X006048Y018969D02*
X005825Y018969D01*
X005877Y019048D02*
X005997Y019048D01*
X005997Y019126D02*
X005877Y019126D01*
X005877Y019205D02*
X005997Y019205D01*
X005997Y019283D02*
X005877Y019283D01*
X005877Y019362D02*
X005997Y019362D01*
X006052Y019440D02*
X005821Y019440D01*
X005743Y019519D02*
X006130Y019519D01*
X006209Y019597D02*
X005664Y019597D01*
X006664Y019597D02*
X007209Y019597D01*
X007254Y019643D02*
X006997Y019385D01*
X006997Y019021D01*
X007254Y018763D01*
X007619Y018763D01*
X007877Y019021D01*
X007877Y019385D01*
X007619Y019643D01*
X007254Y019643D01*
X007130Y019519D02*
X006743Y019519D01*
X006821Y019440D02*
X007052Y019440D01*
X006997Y019362D02*
X006877Y019362D01*
X006877Y019283D02*
X006997Y019283D01*
X006997Y019205D02*
X006877Y019205D01*
X006877Y019126D02*
X006997Y019126D01*
X006997Y019048D02*
X006877Y019048D01*
X006825Y018969D02*
X007048Y018969D01*
X007127Y018890D02*
X006746Y018890D01*
X006668Y018812D02*
X007205Y018812D01*
X007254Y018643D02*
X006997Y018385D01*
X006997Y018021D01*
X007254Y017763D01*
X007619Y017763D01*
X007877Y018021D01*
X007877Y018385D01*
X007619Y018643D01*
X007254Y018643D01*
X007188Y018576D02*
X006685Y018576D01*
X006764Y018498D02*
X007109Y018498D01*
X007031Y018419D02*
X006843Y018419D01*
X006877Y018341D02*
X006997Y018341D01*
X006997Y018262D02*
X006877Y018262D01*
X006877Y018184D02*
X006997Y018184D01*
X006997Y018105D02*
X006877Y018105D01*
X006877Y018026D02*
X006997Y018026D01*
X007069Y017948D02*
X006804Y017948D01*
X006725Y017869D02*
X007148Y017869D01*
X007226Y017791D02*
X006647Y017791D01*
X006226Y017791D02*
X005675Y017791D01*
X005627Y017743D02*
X005897Y018012D01*
X005897Y018163D01*
X005477Y018163D01*
X005477Y017743D01*
X005627Y017743D01*
X005477Y017791D02*
X005397Y017791D01*
X005397Y017869D02*
X005477Y017869D01*
X005477Y017948D02*
X005397Y017948D01*
X005397Y018026D02*
X005477Y018026D01*
X005477Y018105D02*
X005397Y018105D01*
X005396Y018184D02*
X002277Y018184D01*
X002277Y018262D02*
X004977Y018262D01*
X004977Y018341D02*
X002277Y018341D01*
X002277Y018419D02*
X005003Y018419D01*
X005081Y018498D02*
X002277Y018498D01*
X002277Y018576D02*
X005160Y018576D01*
X005397Y018576D02*
X005477Y018576D01*
X005477Y018498D02*
X005397Y018498D01*
X005397Y018419D02*
X005477Y018419D01*
X005477Y018341D02*
X005397Y018341D01*
X005397Y018262D02*
X005477Y018262D01*
X005477Y018184D02*
X005997Y018184D01*
X005997Y018262D02*
X005897Y018262D01*
X005897Y018341D02*
X005997Y018341D01*
X006031Y018419D02*
X005871Y018419D01*
X005792Y018498D02*
X006109Y018498D01*
X005997Y018105D02*
X005897Y018105D01*
X005897Y018026D02*
X005997Y018026D01*
X006069Y017948D02*
X005832Y017948D01*
X005754Y017869D02*
X006148Y017869D01*
X005198Y017791D02*
X002277Y017791D01*
X002277Y017869D02*
X005120Y017869D01*
X005041Y017948D02*
X002277Y017948D01*
X002277Y018026D02*
X004977Y018026D01*
X004977Y018105D02*
X002277Y018105D01*
X002277Y017712D02*
X009120Y017712D01*
X009041Y017634D02*
X009021Y017634D01*
X008852Y017634D02*
X002277Y017634D01*
X002277Y017555D02*
X008711Y017555D01*
X008643Y017477D02*
X002277Y017477D01*
X002277Y017398D02*
X008610Y017398D01*
X008599Y017320D02*
X002277Y017320D01*
X002277Y017241D02*
X008599Y017241D01*
X008629Y017162D02*
X002277Y017162D01*
X002277Y017084D02*
X008677Y017084D01*
X008771Y017005D02*
X002277Y017005D01*
X002277Y016927D02*
X010334Y016927D01*
X010256Y016848D02*
X002277Y016848D01*
X002277Y016770D02*
X010177Y016770D01*
X010099Y016691D02*
X002277Y016691D01*
X002277Y016613D02*
X010020Y016613D01*
X009942Y016534D02*
X002277Y016534D01*
X002277Y016456D02*
X009863Y016456D01*
X009785Y016377D02*
X002277Y016377D01*
X002277Y016299D02*
X009706Y016299D01*
X009628Y016220D02*
X002277Y016220D01*
X002277Y016141D02*
X009549Y016141D01*
X009471Y016063D02*
X007755Y016063D01*
X007728Y016089D02*
X007604Y016141D01*
X007469Y016141D01*
X007345Y016089D01*
X007250Y015994D01*
X007237Y015963D01*
X006586Y015963D01*
X006573Y015994D01*
X006478Y016089D01*
X006354Y016141D01*
X006219Y016141D01*
X006095Y016089D01*
X006000Y015994D01*
X005949Y015870D01*
X005949Y015736D01*
X006000Y015611D01*
X006095Y015516D01*
X006127Y015503D01*
X006127Y013969D01*
X005177Y013019D01*
X005177Y012887D01*
X005177Y011418D01*
X005270Y011324D01*
X006051Y010543D01*
X006184Y010543D01*
X006189Y010543D01*
X006189Y010521D01*
X006447Y010263D01*
X006811Y010263D01*
X007069Y010521D01*
X007069Y010885D01*
X006811Y011143D01*
X006447Y011143D01*
X006189Y010885D01*
X006189Y010863D01*
X006184Y010863D01*
X005497Y011550D01*
X005497Y012887D01*
X006353Y013743D01*
X006447Y013837D01*
X006447Y015503D01*
X006478Y015516D01*
X006573Y015611D01*
X006586Y015643D01*
X007237Y015643D01*
X007250Y015611D01*
X007345Y015516D01*
X007469Y015465D01*
X007604Y015465D01*
X007728Y015516D01*
X007823Y015611D01*
X007875Y015736D01*
X007875Y015870D01*
X007823Y015994D01*
X007728Y016089D01*
X007827Y015984D02*
X009392Y015984D01*
X009313Y015906D02*
X007860Y015906D01*
X007875Y015827D02*
X009235Y015827D01*
X009156Y015749D02*
X007875Y015749D01*
X007848Y015670D02*
X009078Y015670D01*
X008999Y015592D02*
X007804Y015592D01*
X007721Y015513D02*
X008921Y015513D01*
X008842Y015435D02*
X006447Y015435D01*
X006447Y015356D02*
X008764Y015356D01*
X008685Y015277D02*
X006447Y015277D01*
X006447Y015199D02*
X008607Y015199D01*
X008528Y015120D02*
X006447Y015120D01*
X006447Y015042D02*
X008449Y015042D01*
X008371Y014963D02*
X006447Y014963D01*
X006447Y014885D02*
X008292Y014885D01*
X008214Y014806D02*
X006447Y014806D01*
X006447Y014728D02*
X008135Y014728D01*
X008057Y014649D02*
X006447Y014649D01*
X006447Y014571D02*
X007978Y014571D01*
X007900Y014492D02*
X006447Y014492D01*
X006447Y014413D02*
X007821Y014413D01*
X007743Y014335D02*
X006447Y014335D01*
X006447Y014256D02*
X007664Y014256D01*
X007585Y014178D02*
X006447Y014178D01*
X006447Y014099D02*
X007507Y014099D01*
X007428Y014021D02*
X006447Y014021D01*
X006447Y013942D02*
X007350Y013942D01*
X007271Y013864D02*
X006447Y013864D01*
X006395Y013785D02*
X007193Y013785D01*
X007114Y013707D02*
X006317Y013707D01*
X006238Y013628D02*
X007036Y013628D01*
X006957Y013549D02*
X006160Y013549D01*
X006081Y013471D02*
X006879Y013471D01*
X006800Y013392D02*
X006003Y013392D01*
X005924Y013314D02*
X006721Y013314D01*
X006643Y013235D02*
X005845Y013235D01*
X005767Y013157D02*
X006564Y013157D01*
X006486Y013078D02*
X005688Y013078D01*
X005610Y013000D02*
X006407Y013000D01*
X006329Y012921D02*
X005531Y012921D01*
X005497Y012843D02*
X006250Y012843D01*
X006172Y012764D02*
X005497Y012764D01*
X005497Y012686D02*
X005741Y012686D01*
X005745Y012689D02*
X005650Y012594D01*
X005599Y012470D01*
X005599Y012336D01*
X005650Y012211D01*
X005745Y012116D01*
X005777Y012103D01*
X005777Y011661D01*
X005870Y011567D01*
X006295Y011143D01*
X006427Y011143D01*
X008870Y011143D01*
X011477Y008537D01*
X011477Y006718D01*
X011570Y006624D01*
X012351Y005843D01*
X012484Y005843D01*
X012757Y005843D01*
X012770Y005811D01*
X012865Y005716D01*
X012989Y005665D01*
X013124Y005665D01*
X013248Y005716D01*
X013343Y005811D01*
X013395Y005936D01*
X013395Y006070D01*
X013343Y006194D01*
X013248Y006289D01*
X013124Y006341D01*
X012989Y006341D01*
X012865Y006289D01*
X012770Y006194D01*
X012757Y006163D01*
X012484Y006163D01*
X011797Y006850D01*
X011797Y008496D01*
X012277Y008016D01*
X012277Y007002D01*
X012245Y006989D01*
X012150Y006894D01*
X012099Y006770D01*
X012099Y006636D01*
X012150Y006511D01*
X012245Y006416D01*
X012369Y006365D01*
X012504Y006365D01*
X012628Y006416D01*
X012723Y006511D01*
X012775Y006636D01*
X012775Y006770D01*
X012723Y006894D01*
X012628Y006989D01*
X012597Y007002D01*
X012597Y008016D01*
X012597Y008149D01*
X009176Y011569D01*
X009083Y011663D01*
X006626Y011663D01*
X006551Y011739D01*
X006623Y011811D01*
X006637Y011844D01*
X006650Y011811D01*
X006745Y011716D01*
X006869Y011665D01*
X007004Y011665D01*
X007128Y011716D01*
X007223Y011811D01*
X007237Y011844D01*
X007250Y011811D01*
X007345Y011716D01*
X007469Y011665D01*
X007604Y011665D01*
X007728Y011716D01*
X007823Y011811D01*
X007836Y011843D01*
X009289Y011843D01*
X010189Y010943D01*
X010322Y010943D01*
X016303Y010943D01*
X016397Y011037D01*
X017138Y011778D01*
X017169Y011765D01*
X017304Y011765D01*
X017428Y011816D01*
X017523Y011911D01*
X017575Y012036D01*
X017575Y012170D01*
X017523Y012294D01*
X017428Y012389D01*
X017304Y012441D01*
X017169Y012441D01*
X017045Y012389D01*
X016950Y012294D01*
X016899Y012170D01*
X016899Y012036D01*
X016912Y012004D01*
X016170Y011263D01*
X010322Y011263D01*
X009422Y012163D01*
X009289Y012163D01*
X007836Y012163D01*
X007823Y012194D01*
X007728Y012289D01*
X007604Y012341D01*
X007501Y012341D01*
X007503Y012343D01*
X013803Y012343D01*
X013838Y012378D01*
X013869Y012365D01*
X014004Y012365D01*
X014128Y012416D01*
X014223Y012511D01*
X014275Y012636D01*
X014275Y012770D01*
X014223Y012894D01*
X014128Y012989D01*
X014004Y013041D01*
X013869Y013041D01*
X013745Y012989D01*
X013650Y012894D01*
X013599Y012770D01*
X013599Y012663D01*
X007503Y012663D01*
X007370Y012663D01*
X007035Y012328D01*
X007004Y012341D01*
X006869Y012341D01*
X006745Y012289D01*
X006650Y012194D01*
X006637Y012162D01*
X006623Y012194D01*
X006528Y012289D01*
X006497Y012303D01*
X006497Y012358D01*
X012881Y018743D01*
X015337Y018743D01*
X015350Y018711D01*
X015445Y018616D01*
X015569Y018565D01*
X015704Y018565D01*
X015828Y018616D01*
X015923Y018711D01*
X015975Y018836D01*
X015975Y018970D01*
X015923Y019094D01*
X015828Y019189D01*
X015704Y019241D01*
X015569Y019241D01*
X015445Y019189D01*
X015350Y019094D01*
X015337Y019063D01*
X012923Y019063D01*
X013303Y019443D01*
X014937Y019443D01*
X014950Y019411D01*
X015045Y019316D01*
X015169Y019265D01*
X015304Y019265D01*
X015428Y019316D01*
X015523Y019411D01*
X015575Y019536D01*
X015575Y019670D01*
X015523Y019794D01*
X015428Y019889D01*
X015304Y019941D01*
X015169Y019941D01*
X015045Y019889D01*
X014950Y019794D01*
X014937Y019763D01*
X013170Y019763D01*
X013077Y019669D01*
X006106Y012699D01*
X006004Y012741D01*
X005869Y012741D01*
X005745Y012689D01*
X005663Y012607D02*
X005497Y012607D01*
X005497Y012528D02*
X005623Y012528D01*
X005599Y012450D02*
X005497Y012450D01*
X005497Y012371D02*
X005599Y012371D01*
X005616Y012293D02*
X005497Y012293D01*
X005497Y012214D02*
X005649Y012214D01*
X005726Y012136D02*
X005497Y012136D01*
X005497Y012057D02*
X005777Y012057D01*
X005777Y011979D02*
X005497Y011979D01*
X005497Y011900D02*
X005777Y011900D01*
X005777Y011822D02*
X005497Y011822D01*
X005497Y011743D02*
X005777Y011743D01*
X005777Y011664D02*
X005497Y011664D01*
X005497Y011586D02*
X005852Y011586D01*
X005930Y011507D02*
X005539Y011507D01*
X005618Y011429D02*
X006009Y011429D01*
X006087Y011350D02*
X005696Y011350D01*
X005775Y011272D02*
X006166Y011272D01*
X006244Y011193D02*
X005854Y011193D01*
X005932Y011115D02*
X006418Y011115D01*
X006340Y011036D02*
X006011Y011036D01*
X006089Y010958D02*
X006261Y010958D01*
X006189Y010879D02*
X006168Y010879D01*
X006118Y010703D02*
X005337Y011484D01*
X005337Y012953D01*
X006287Y013903D01*
X006287Y015803D01*
X007537Y015803D01*
X007319Y016063D02*
X006505Y016063D01*
X006577Y015984D02*
X007246Y015984D01*
X007270Y015592D02*
X006554Y015592D01*
X006471Y015513D02*
X007353Y015513D01*
X006127Y015435D02*
X002277Y015435D01*
X002277Y015513D02*
X006103Y015513D01*
X006020Y015592D02*
X002277Y015592D01*
X002277Y015670D02*
X005976Y015670D01*
X005949Y015749D02*
X002277Y015749D01*
X002277Y015827D02*
X005949Y015827D01*
X005963Y015906D02*
X002277Y015906D01*
X002277Y015984D02*
X005996Y015984D01*
X006069Y016063D02*
X002277Y016063D01*
X002277Y015356D02*
X006127Y015356D01*
X006127Y015277D02*
X002277Y015277D01*
X002277Y015199D02*
X006127Y015199D01*
X006127Y015120D02*
X002277Y015120D01*
X002277Y015042D02*
X006127Y015042D01*
X006127Y014963D02*
X002277Y014963D01*
X002277Y014885D02*
X006127Y014885D01*
X006127Y014806D02*
X002277Y014806D01*
X002277Y014728D02*
X006127Y014728D01*
X006127Y014649D02*
X002277Y014649D01*
X002277Y014571D02*
X006127Y014571D01*
X006127Y014492D02*
X002277Y014492D01*
X002277Y014413D02*
X006127Y014413D01*
X006127Y014335D02*
X002277Y014335D01*
X002277Y014256D02*
X006127Y014256D01*
X006127Y014178D02*
X002277Y014178D01*
X002277Y014099D02*
X004695Y014099D01*
X004671Y014089D02*
X004576Y013994D01*
X004525Y013870D01*
X004525Y013736D01*
X004576Y013611D01*
X004663Y013525D01*
X004663Y008968D01*
X004780Y008851D01*
X004911Y008720D01*
X004911Y007681D01*
X004824Y007594D01*
X004773Y007470D01*
X004773Y007336D01*
X004824Y007211D01*
X004919Y007116D01*
X005043Y007065D01*
X005178Y007065D01*
X005302Y007116D01*
X005397Y007211D01*
X005449Y007336D01*
X005449Y007470D01*
X005397Y007594D01*
X005311Y007681D01*
X005311Y008603D01*
X007021Y008603D01*
X007107Y008516D01*
X007232Y008465D01*
X007366Y008465D01*
X007490Y008516D01*
X007577Y008603D01*
X007869Y008603D01*
X007880Y008594D01*
X007950Y008603D01*
X008020Y008603D01*
X008030Y008613D01*
X008045Y008615D01*
X008087Y008671D01*
X008137Y008720D01*
X008137Y008735D01*
X008543Y009263D01*
X008811Y009263D01*
X009069Y009521D01*
X009069Y009885D01*
X008911Y010043D01*
X008937Y010043D01*
X008950Y010011D01*
X009045Y009916D01*
X009169Y009865D01*
X009304Y009865D01*
X009428Y009916D01*
X009523Y010011D01*
X009575Y010136D01*
X009575Y010270D01*
X009523Y010394D01*
X009428Y010489D01*
X009304Y010541D01*
X009169Y010541D01*
X009045Y010489D01*
X008950Y010394D01*
X008937Y010363D01*
X008911Y010363D01*
X009069Y010521D01*
X009069Y010885D01*
X008811Y011143D01*
X008447Y011143D01*
X008189Y010885D01*
X008189Y010521D01*
X008347Y010363D01*
X008195Y010363D01*
X008053Y010505D01*
X008069Y010521D01*
X008069Y010885D01*
X007811Y011143D01*
X007447Y011143D01*
X007189Y010885D01*
X007189Y010521D01*
X007447Y010263D01*
X007811Y010263D01*
X007827Y010279D01*
X008063Y010043D01*
X008195Y010043D01*
X008347Y010043D01*
X008189Y009885D01*
X008189Y009521D01*
X008216Y009494D01*
X007838Y009003D01*
X007577Y009003D01*
X007490Y009089D01*
X007366Y009141D01*
X007232Y009141D01*
X007107Y009089D01*
X007021Y009003D01*
X005194Y009003D01*
X005063Y009134D01*
X005063Y013525D01*
X005149Y013611D01*
X005201Y013736D01*
X005201Y013870D01*
X005149Y013994D01*
X005054Y014089D01*
X004930Y014141D01*
X004795Y014141D01*
X004671Y014089D01*
X004602Y014021D02*
X002277Y014021D01*
X002277Y013942D02*
X004554Y013942D01*
X004525Y013864D02*
X002277Y013864D01*
X002277Y013785D02*
X004525Y013785D01*
X004537Y013707D02*
X002277Y013707D01*
X002277Y013628D02*
X004569Y013628D01*
X004638Y013549D02*
X002277Y013549D01*
X002277Y013471D02*
X004663Y013471D01*
X004663Y013392D02*
X002277Y013392D01*
X002277Y013314D02*
X004663Y013314D01*
X004663Y013235D02*
X002277Y013235D01*
X002277Y013157D02*
X004663Y013157D01*
X004663Y013078D02*
X002277Y013078D01*
X002277Y013000D02*
X004663Y013000D01*
X004663Y012921D02*
X002277Y012921D01*
X002277Y012843D02*
X004663Y012843D01*
X004663Y012764D02*
X002277Y012764D01*
X002277Y012686D02*
X004663Y012686D01*
X004663Y012607D02*
X002277Y012607D01*
X002277Y012528D02*
X004663Y012528D01*
X004663Y012450D02*
X002277Y012450D01*
X002277Y012371D02*
X004663Y012371D01*
X004663Y012293D02*
X002277Y012293D01*
X002277Y012214D02*
X004663Y012214D01*
X004663Y012136D02*
X002277Y012136D01*
X002277Y012057D02*
X004663Y012057D01*
X004663Y011979D02*
X002277Y011979D01*
X002277Y011900D02*
X004663Y011900D01*
X004663Y011822D02*
X002277Y011822D01*
X002277Y011743D02*
X004663Y011743D01*
X004663Y011664D02*
X002277Y011664D01*
X002277Y011586D02*
X004663Y011586D01*
X004663Y011507D02*
X002277Y011507D01*
X002277Y011429D02*
X004663Y011429D01*
X004663Y011350D02*
X002277Y011350D01*
X002277Y011272D02*
X004663Y011272D01*
X004663Y011193D02*
X002277Y011193D01*
X002277Y011115D02*
X004663Y011115D01*
X004663Y011036D02*
X002277Y011036D01*
X002277Y010958D02*
X004663Y010958D01*
X004663Y010879D02*
X002277Y010879D01*
X002277Y010800D02*
X004663Y010800D01*
X004663Y010722D02*
X002277Y010722D01*
X002277Y010643D02*
X004663Y010643D01*
X004663Y010565D02*
X002277Y010565D01*
X002277Y010486D02*
X004663Y010486D01*
X004663Y010408D02*
X002277Y010408D01*
X002277Y010329D02*
X004663Y010329D01*
X004663Y010251D02*
X002277Y010251D01*
X002277Y010172D02*
X004663Y010172D01*
X004663Y010094D02*
X002277Y010094D01*
X002277Y010015D02*
X004663Y010015D01*
X004663Y009936D02*
X002277Y009936D01*
X002277Y009858D02*
X004663Y009858D01*
X004663Y009779D02*
X002277Y009779D01*
X002277Y009701D02*
X004663Y009701D01*
X004663Y009622D02*
X002277Y009622D01*
X002277Y009544D02*
X004663Y009544D01*
X004663Y009465D02*
X002277Y009465D01*
X002277Y009387D02*
X004663Y009387D01*
X004663Y009308D02*
X002277Y009308D01*
X002277Y009230D02*
X004663Y009230D01*
X004663Y009151D02*
X002277Y009151D01*
X002277Y009073D02*
X004663Y009073D01*
X004663Y008994D02*
X002277Y008994D01*
X002277Y008915D02*
X004715Y008915D01*
X004794Y008837D02*
X002277Y008837D01*
X002277Y008758D02*
X004872Y008758D01*
X004911Y008680D02*
X002277Y008680D01*
X002277Y008601D02*
X004911Y008601D01*
X004911Y008523D02*
X002277Y008523D01*
X002277Y008444D02*
X004911Y008444D01*
X004911Y008366D02*
X002277Y008366D01*
X002277Y008287D02*
X004911Y008287D01*
X004911Y008209D02*
X002277Y008209D01*
X002277Y008130D02*
X004911Y008130D01*
X004911Y008051D02*
X002277Y008051D01*
X002277Y007973D02*
X004911Y007973D01*
X004911Y007894D02*
X002277Y007894D01*
X002277Y007816D02*
X004911Y007816D01*
X004911Y007737D02*
X002277Y007737D01*
X002277Y007659D02*
X004889Y007659D01*
X004818Y007580D02*
X002277Y007580D01*
X002277Y007502D02*
X004786Y007502D01*
X004773Y007423D02*
X002277Y007423D01*
X002277Y007345D02*
X004773Y007345D01*
X004801Y007266D02*
X002277Y007266D01*
X002277Y007187D02*
X004848Y007187D01*
X004937Y007109D02*
X002277Y007109D01*
X002277Y007030D02*
X011477Y007030D01*
X011477Y006952D02*
X002277Y006952D01*
X002277Y006873D02*
X011477Y006873D01*
X011477Y006795D02*
X002277Y006795D01*
X002277Y006716D02*
X011478Y006716D01*
X011557Y006638D02*
X002277Y006638D01*
X002277Y006559D02*
X011635Y006559D01*
X011714Y006481D02*
X002277Y006481D01*
X002277Y006402D02*
X009776Y006402D01*
X009745Y006389D02*
X009650Y006294D01*
X009599Y006170D01*
X009599Y006036D01*
X009650Y005911D01*
X009745Y005816D01*
X009869Y005765D01*
X010004Y005765D01*
X010128Y005816D01*
X010223Y005911D01*
X010275Y006036D01*
X010275Y006170D01*
X010223Y006294D01*
X010128Y006389D01*
X010004Y006441D01*
X009869Y006441D01*
X009745Y006389D01*
X009679Y006324D02*
X003861Y006324D01*
X003984Y006273D02*
X003694Y006393D01*
X003380Y006393D01*
X003089Y006273D01*
X002867Y006050D01*
X002747Y005760D01*
X002747Y005446D01*
X002867Y005155D01*
X003089Y004933D01*
X003380Y004813D01*
X003694Y004813D01*
X003984Y004933D01*
X004206Y005155D01*
X004327Y005446D01*
X004327Y005760D01*
X004206Y006050D01*
X003984Y006273D01*
X004012Y006245D02*
X009630Y006245D01*
X009599Y006166D02*
X004090Y006166D01*
X004169Y006088D02*
X009599Y006088D01*
X009609Y006009D02*
X004223Y006009D01*
X004256Y005931D02*
X009642Y005931D01*
X009709Y005852D02*
X004288Y005852D01*
X004321Y005774D02*
X009848Y005774D01*
X010026Y005774D02*
X012808Y005774D01*
X012916Y005695D02*
X004327Y005695D01*
X004327Y005617D02*
X014055Y005617D01*
X014055Y005616D02*
X014179Y005565D01*
X014314Y005565D01*
X014438Y005616D01*
X014533Y005711D01*
X014585Y005836D01*
X014585Y005958D01*
X015137Y006510D01*
X015137Y006676D01*
X015137Y010051D01*
X015223Y010137D01*
X015275Y010262D01*
X015275Y010396D01*
X015223Y010520D01*
X015128Y010615D01*
X015004Y010667D01*
X014869Y010667D01*
X014745Y010615D01*
X014659Y010529D01*
X011615Y010529D01*
X011528Y010615D01*
X011404Y010667D01*
X011269Y010667D01*
X011145Y010615D01*
X011050Y010520D01*
X010999Y010396D01*
X010999Y010262D01*
X011050Y010137D01*
X011145Y010042D01*
X011269Y009991D01*
X011404Y009991D01*
X011528Y010042D01*
X011615Y010129D01*
X014659Y010129D01*
X014737Y010051D01*
X014737Y006676D01*
X014302Y006241D01*
X014179Y006241D01*
X014055Y006189D01*
X013960Y006094D01*
X013909Y005970D01*
X013909Y005836D01*
X013960Y005711D01*
X014055Y005616D01*
X013976Y005695D02*
X013197Y005695D01*
X013306Y005774D02*
X013934Y005774D01*
X013909Y005852D02*
X013360Y005852D01*
X013393Y005931D02*
X013909Y005931D01*
X013925Y006009D02*
X013395Y006009D01*
X013387Y006088D02*
X013957Y006088D01*
X014032Y006166D02*
X013355Y006166D01*
X013293Y006245D02*
X014306Y006245D01*
X014385Y006324D02*
X013166Y006324D01*
X012947Y006324D02*
X012323Y006324D01*
X012279Y006402D02*
X012245Y006402D01*
X012181Y006481D02*
X012166Y006481D01*
X012130Y006559D02*
X012088Y006559D01*
X012099Y006638D02*
X012009Y006638D01*
X011931Y006716D02*
X012099Y006716D01*
X012109Y006795D02*
X011852Y006795D01*
X011797Y006873D02*
X012141Y006873D01*
X012208Y006952D02*
X011797Y006952D01*
X011797Y007030D02*
X012277Y007030D01*
X012277Y007109D02*
X011797Y007109D01*
X011797Y007187D02*
X012277Y007187D01*
X012277Y007266D02*
X011797Y007266D01*
X011797Y007345D02*
X012277Y007345D01*
X012277Y007423D02*
X011797Y007423D01*
X011797Y007502D02*
X012277Y007502D01*
X012277Y007580D02*
X011797Y007580D01*
X011797Y007659D02*
X012277Y007659D01*
X012277Y007737D02*
X011797Y007737D01*
X011797Y007816D02*
X012277Y007816D01*
X012277Y007894D02*
X011797Y007894D01*
X011797Y007973D02*
X012277Y007973D01*
X012242Y008051D02*
X011797Y008051D01*
X011797Y008130D02*
X012163Y008130D01*
X012084Y008209D02*
X011797Y008209D01*
X011797Y008287D02*
X012006Y008287D01*
X011927Y008366D02*
X011797Y008366D01*
X011797Y008444D02*
X011849Y008444D01*
X011637Y008603D02*
X008937Y011303D01*
X006361Y011303D01*
X005937Y011727D01*
X005937Y012403D01*
X006037Y012403D01*
X013237Y019603D01*
X015237Y019603D01*
X015575Y019597D02*
X016035Y019597D01*
X016037Y019596D02*
X016037Y017081D01*
X014978Y015941D01*
X014869Y015941D01*
X014745Y015889D01*
X014659Y015803D01*
X013615Y015803D01*
X013528Y015889D01*
X013404Y015941D01*
X013269Y015941D01*
X013145Y015889D01*
X013050Y015794D01*
X012999Y015670D01*
X010847Y015670D01*
X010828Y015689D02*
X010923Y015594D01*
X010975Y015470D01*
X010975Y015336D01*
X010923Y015211D01*
X010828Y015116D01*
X010797Y015103D01*
X010797Y014069D01*
X011388Y013478D01*
X011419Y013491D01*
X011554Y013491D01*
X011678Y013439D01*
X011773Y013344D01*
X011825Y013220D01*
X011825Y013086D01*
X011773Y012961D01*
X011678Y012866D01*
X011554Y012815D01*
X011419Y012815D01*
X011295Y012866D01*
X011200Y012961D01*
X011149Y013086D01*
X011149Y013220D01*
X011162Y013252D01*
X010477Y013937D01*
X010477Y014069D01*
X010477Y015103D01*
X010445Y015116D01*
X010350Y015211D01*
X010299Y015336D01*
X010299Y015470D01*
X010350Y015594D01*
X010445Y015689D01*
X010569Y015741D01*
X010704Y015741D01*
X010828Y015689D01*
X010924Y015592D02*
X012999Y015592D01*
X012999Y015536D02*
X013050Y015411D01*
X013145Y015316D01*
X013269Y015265D01*
X013404Y015265D01*
X013528Y015316D01*
X013615Y015403D01*
X014659Y015403D01*
X014745Y015316D01*
X014869Y015265D01*
X015004Y015265D01*
X015128Y015316D01*
X015223Y015411D01*
X015275Y015536D01*
X015275Y015670D01*
X015274Y015672D01*
X016380Y016864D01*
X016437Y016920D01*
X016437Y016924D01*
X016440Y016927D01*
X016437Y017006D01*
X016437Y019596D01*
X016437Y019761D01*
X015912Y020286D01*
X015795Y020403D01*
X014315Y020403D01*
X014228Y020489D01*
X014104Y020541D01*
X013969Y020541D01*
X013845Y020489D01*
X013750Y020394D01*
X013699Y020270D01*
X013699Y020136D01*
X013750Y020011D01*
X013845Y019916D01*
X013969Y019865D01*
X014104Y019865D01*
X014228Y019916D01*
X014315Y020003D01*
X015630Y020003D01*
X016037Y019596D01*
X016037Y019519D02*
X015568Y019519D01*
X015535Y019440D02*
X016037Y019440D01*
X016037Y019362D02*
X015474Y019362D01*
X015348Y019283D02*
X016037Y019283D01*
X016037Y019205D02*
X015792Y019205D01*
X015892Y019126D02*
X016037Y019126D01*
X016037Y019048D02*
X015943Y019048D01*
X015975Y018969D02*
X016037Y018969D01*
X016037Y018890D02*
X015975Y018890D01*
X015965Y018812D02*
X016037Y018812D01*
X016037Y018733D02*
X015932Y018733D01*
X015867Y018655D02*
X016037Y018655D01*
X016037Y018576D02*
X015732Y018576D01*
X015542Y018576D02*
X012715Y018576D01*
X012793Y018655D02*
X015407Y018655D01*
X015341Y018733D02*
X012872Y018733D01*
X012815Y018903D02*
X006337Y012424D01*
X006337Y012003D01*
X006337Y011726D01*
X006560Y011503D01*
X009016Y011503D01*
X012437Y008083D01*
X012437Y006703D01*
X012775Y006716D02*
X014737Y006716D01*
X014737Y006795D02*
X012765Y006795D01*
X012732Y006873D02*
X014737Y006873D01*
X014737Y006952D02*
X012666Y006952D01*
X012597Y007030D02*
X014737Y007030D01*
X014737Y007109D02*
X012597Y007109D01*
X012597Y007187D02*
X014737Y007187D01*
X014737Y007266D02*
X012597Y007266D01*
X012597Y007345D02*
X014737Y007345D01*
X014737Y007423D02*
X012597Y007423D01*
X012597Y007502D02*
X014737Y007502D01*
X014737Y007580D02*
X012597Y007580D01*
X012597Y007659D02*
X014737Y007659D01*
X014737Y007737D02*
X012597Y007737D01*
X012597Y007816D02*
X014737Y007816D01*
X014737Y007894D02*
X012597Y007894D01*
X012597Y007973D02*
X014737Y007973D01*
X014737Y008051D02*
X012597Y008051D01*
X012597Y008130D02*
X014737Y008130D01*
X014737Y008209D02*
X012537Y008209D01*
X012458Y008287D02*
X014737Y008287D01*
X014737Y008366D02*
X012380Y008366D01*
X012301Y008444D02*
X014737Y008444D01*
X014737Y008523D02*
X012223Y008523D01*
X012144Y008601D02*
X012381Y008601D01*
X012345Y008616D02*
X012469Y008565D01*
X012604Y008565D01*
X012728Y008616D01*
X012823Y008711D01*
X012836Y008743D01*
X013870Y008743D01*
X014003Y008743D01*
X014238Y008978D01*
X014269Y008965D01*
X014404Y008965D01*
X014528Y009016D01*
X014623Y009111D01*
X014675Y009236D01*
X014675Y009370D01*
X014623Y009494D01*
X014528Y009589D01*
X014404Y009641D01*
X014269Y009641D01*
X014145Y009589D01*
X014050Y009494D01*
X013999Y009370D01*
X013999Y009236D01*
X014012Y009204D01*
X013870Y009063D01*
X012836Y009063D01*
X012823Y009094D01*
X012728Y009189D01*
X012604Y009241D01*
X012469Y009241D01*
X012345Y009189D01*
X012250Y009094D01*
X012199Y008970D01*
X012199Y008836D01*
X012250Y008711D01*
X012345Y008616D01*
X012282Y008680D02*
X012066Y008680D01*
X011987Y008758D02*
X012231Y008758D01*
X012199Y008837D02*
X011909Y008837D01*
X011830Y008915D02*
X012199Y008915D01*
X012209Y008994D02*
X011752Y008994D01*
X011673Y009073D02*
X012241Y009073D01*
X012307Y009151D02*
X011594Y009151D01*
X011516Y009230D02*
X012442Y009230D01*
X012469Y009265D02*
X012604Y009265D01*
X012728Y009316D01*
X012823Y009411D01*
X012836Y009443D01*
X013327Y009443D01*
X013340Y009411D01*
X013435Y009316D01*
X013559Y009265D01*
X013694Y009265D01*
X013818Y009316D01*
X013913Y009411D01*
X013965Y009536D01*
X013965Y009670D01*
X013913Y009794D01*
X013818Y009889D01*
X013694Y009941D01*
X013559Y009941D01*
X013435Y009889D01*
X013340Y009794D01*
X013327Y009763D01*
X012836Y009763D01*
X012823Y009794D01*
X012728Y009889D01*
X012604Y009941D01*
X012469Y009941D01*
X012345Y009889D01*
X012250Y009794D01*
X012199Y009670D01*
X012199Y009536D01*
X012250Y009411D01*
X012345Y009316D01*
X012469Y009265D01*
X012365Y009308D02*
X011437Y009308D01*
X011359Y009387D02*
X012275Y009387D01*
X012228Y009465D02*
X011280Y009465D01*
X011202Y009544D02*
X012199Y009544D01*
X012199Y009622D02*
X011123Y009622D01*
X011045Y009701D02*
X012211Y009701D01*
X012244Y009779D02*
X010966Y009779D01*
X010888Y009858D02*
X012314Y009858D01*
X012459Y009936D02*
X010809Y009936D01*
X010730Y010015D02*
X011211Y010015D01*
X011094Y010094D02*
X010652Y010094D01*
X010573Y010172D02*
X011036Y010172D01*
X011003Y010251D02*
X010495Y010251D01*
X010416Y010329D02*
X010999Y010329D01*
X011003Y010408D02*
X010338Y010408D01*
X010259Y010486D02*
X011036Y010486D01*
X011095Y010565D02*
X010181Y010565D01*
X010102Y010643D02*
X011213Y010643D01*
X011461Y010643D02*
X014813Y010643D01*
X014695Y010565D02*
X011579Y010565D01*
X011580Y010094D02*
X014694Y010094D01*
X014737Y010015D02*
X011463Y010015D01*
X010705Y009308D02*
X008856Y009308D01*
X008935Y009387D02*
X010627Y009387D01*
X010548Y009465D02*
X009013Y009465D01*
X009069Y009544D02*
X010469Y009544D01*
X010391Y009622D02*
X009069Y009622D01*
X009069Y009701D02*
X010312Y009701D01*
X010234Y009779D02*
X009069Y009779D01*
X009069Y009858D02*
X010155Y009858D01*
X010077Y009936D02*
X009449Y009936D01*
X009525Y010015D02*
X009998Y010015D01*
X009920Y010094D02*
X009557Y010094D01*
X009575Y010172D02*
X009841Y010172D01*
X009763Y010251D02*
X009575Y010251D01*
X009550Y010329D02*
X009684Y010329D01*
X009605Y010408D02*
X009510Y010408D01*
X009527Y010486D02*
X009431Y010486D01*
X009448Y010565D02*
X009069Y010565D01*
X009069Y010643D02*
X009370Y010643D01*
X009291Y010722D02*
X009069Y010722D01*
X009069Y010800D02*
X009213Y010800D01*
X009134Y010879D02*
X009069Y010879D01*
X009056Y010958D02*
X008996Y010958D01*
X008977Y011036D02*
X008918Y011036D01*
X008899Y011115D02*
X008839Y011115D01*
X009317Y011429D02*
X009703Y011429D01*
X009625Y011507D02*
X009238Y011507D01*
X009160Y011586D02*
X009546Y011586D01*
X009468Y011664D02*
X006625Y011664D01*
X006555Y011743D02*
X006718Y011743D01*
X006646Y011822D02*
X006628Y011822D01*
X006937Y012003D02*
X007437Y012503D01*
X013737Y012503D01*
X013937Y012703D01*
X014245Y012843D02*
X014905Y012843D01*
X014984Y012921D02*
X014196Y012921D01*
X014104Y013000D02*
X015062Y013000D01*
X015141Y013078D02*
X011822Y013078D01*
X011825Y013157D02*
X015219Y013157D01*
X015298Y013235D02*
X011818Y013235D01*
X011786Y013314D02*
X015376Y013314D01*
X015455Y013392D02*
X011725Y013392D01*
X011602Y013471D02*
X015534Y013471D01*
X015612Y013549D02*
X011316Y013549D01*
X011238Y013628D02*
X015691Y013628D01*
X015769Y013707D02*
X011159Y013707D01*
X011081Y013785D02*
X011528Y013785D01*
X011570Y013743D02*
X015590Y013743D01*
X015723Y013743D01*
X016223Y014243D01*
X019538Y017558D01*
X019569Y017545D01*
X019704Y017545D01*
X019828Y017596D01*
X019923Y017691D01*
X019975Y017816D01*
X019975Y017950D01*
X019923Y018074D01*
X019828Y018169D01*
X019704Y018221D01*
X019569Y018221D01*
X019445Y018169D01*
X019350Y018074D01*
X019299Y017950D01*
X019299Y017816D01*
X019312Y017784D01*
X015997Y014469D01*
X015590Y014063D01*
X011703Y014063D01*
X011462Y014304D01*
X011475Y014336D01*
X011475Y014470D01*
X011423Y014594D01*
X011328Y014689D01*
X011204Y014741D01*
X011069Y014741D01*
X010945Y014689D01*
X010850Y014594D01*
X010799Y014470D01*
X010799Y014336D01*
X010850Y014211D01*
X010945Y014116D01*
X011069Y014065D01*
X011204Y014065D01*
X011235Y014078D01*
X011477Y013837D01*
X011477Y013837D01*
X011570Y013743D01*
X011450Y013864D02*
X011002Y013864D01*
X010924Y013942D02*
X011371Y013942D01*
X011293Y014021D02*
X010845Y014021D01*
X010797Y014099D02*
X010986Y014099D01*
X010884Y014178D02*
X010797Y014178D01*
X010797Y014256D02*
X010831Y014256D01*
X010799Y014335D02*
X010797Y014335D01*
X010797Y014413D02*
X010799Y014413D01*
X010797Y014492D02*
X010808Y014492D01*
X010797Y014571D02*
X010840Y014571D01*
X010797Y014649D02*
X010905Y014649D01*
X010797Y014728D02*
X011037Y014728D01*
X011236Y014728D02*
X011943Y014728D01*
X011950Y014711D02*
X012045Y014616D01*
X012169Y014565D01*
X012304Y014565D01*
X012428Y014616D01*
X012523Y014711D01*
X012536Y014743D01*
X013237Y014743D01*
X013250Y014711D01*
X013345Y014616D01*
X013469Y014565D01*
X013604Y014565D01*
X013728Y014616D01*
X013823Y014711D01*
X013875Y014836D01*
X013875Y014970D01*
X013823Y015094D01*
X013728Y015189D01*
X013604Y015241D01*
X013469Y015241D01*
X013345Y015189D01*
X013250Y015094D01*
X013237Y015063D01*
X012536Y015063D01*
X012523Y015094D01*
X012428Y015189D01*
X012304Y015241D01*
X012169Y015241D01*
X012045Y015189D01*
X011950Y015094D01*
X011899Y014970D01*
X011899Y014836D01*
X011950Y014711D01*
X012012Y014649D02*
X011369Y014649D01*
X011433Y014571D02*
X012155Y014571D01*
X012318Y014571D02*
X013455Y014571D01*
X013312Y014649D02*
X012461Y014649D01*
X012530Y014728D02*
X013243Y014728D01*
X013537Y014903D02*
X012237Y014903D01*
X011928Y015042D02*
X010797Y015042D01*
X010797Y014963D02*
X011899Y014963D01*
X011899Y014885D02*
X010797Y014885D01*
X010797Y014806D02*
X011911Y014806D01*
X011976Y015120D02*
X010832Y015120D01*
X010911Y015199D02*
X012068Y015199D01*
X012405Y015199D02*
X013368Y015199D01*
X013435Y015277D02*
X014839Y015277D01*
X014705Y015356D02*
X013568Y015356D01*
X013705Y015199D02*
X016727Y015199D01*
X016805Y015277D02*
X015035Y015277D01*
X015168Y015356D02*
X016884Y015356D01*
X016962Y015435D02*
X015233Y015435D01*
X015265Y015513D02*
X017041Y015513D01*
X017119Y015592D02*
X015275Y015592D01*
X015275Y015670D02*
X017198Y015670D01*
X017276Y015749D02*
X015345Y015749D01*
X015418Y015827D02*
X017355Y015827D01*
X017433Y015906D02*
X015491Y015906D01*
X015564Y015984D02*
X017512Y015984D01*
X017591Y016063D02*
X015637Y016063D01*
X015710Y016141D02*
X017669Y016141D01*
X017748Y016220D02*
X015783Y016220D01*
X015856Y016299D02*
X017826Y016299D01*
X017905Y016377D02*
X015928Y016377D01*
X016001Y016456D02*
X017983Y016456D01*
X018062Y016534D02*
X016074Y016534D01*
X016147Y016613D02*
X018140Y016613D01*
X018219Y016691D02*
X016220Y016691D01*
X016293Y016770D02*
X018297Y016770D01*
X018376Y016848D02*
X016366Y016848D01*
X016439Y016927D02*
X018454Y016927D01*
X018533Y017005D02*
X016437Y017005D01*
X016437Y017084D02*
X018612Y017084D01*
X018690Y017162D02*
X016437Y017162D01*
X016437Y017241D02*
X018769Y017241D01*
X018847Y017320D02*
X016437Y017320D01*
X016437Y017398D02*
X018926Y017398D01*
X019004Y017477D02*
X016437Y017477D01*
X016437Y017555D02*
X019083Y017555D01*
X019161Y017634D02*
X016437Y017634D01*
X016437Y017712D02*
X019240Y017712D01*
X019309Y017791D02*
X016437Y017791D01*
X016437Y017869D02*
X019299Y017869D01*
X019299Y017948D02*
X016437Y017948D01*
X016437Y018026D02*
X019330Y018026D01*
X019381Y018105D02*
X016437Y018105D01*
X016437Y018184D02*
X019479Y018184D01*
X019794Y018184D02*
X021130Y018184D01*
X021051Y018262D02*
X016437Y018262D01*
X016437Y018341D02*
X020973Y018341D01*
X020894Y018419D02*
X016437Y018419D01*
X016437Y018498D02*
X020816Y018498D01*
X020737Y018576D02*
X016437Y018576D01*
X016437Y018655D02*
X020658Y018655D01*
X020580Y018733D02*
X016437Y018733D01*
X016437Y018812D02*
X020501Y018812D01*
X020423Y018890D02*
X016437Y018890D01*
X016437Y018969D02*
X020344Y018969D01*
X020266Y019048D02*
X016437Y019048D01*
X016437Y019126D02*
X020187Y019126D01*
X020109Y019205D02*
X016437Y019205D01*
X016437Y019283D02*
X020030Y019283D01*
X019952Y019362D02*
X016437Y019362D01*
X016437Y019440D02*
X019873Y019440D01*
X019794Y019519D02*
X016437Y019519D01*
X016437Y019597D02*
X019716Y019597D01*
X019637Y019676D02*
X016437Y019676D01*
X016437Y019754D02*
X019559Y019754D01*
X019480Y019833D02*
X016365Y019833D01*
X016287Y019911D02*
X019402Y019911D01*
X019323Y019990D02*
X016208Y019990D01*
X016129Y020069D02*
X019245Y020069D01*
X019166Y020147D02*
X016051Y020147D01*
X015972Y020226D02*
X019088Y020226D01*
X019009Y020304D02*
X015894Y020304D01*
X015815Y020383D02*
X018700Y020383D01*
X018574Y020461D02*
X014256Y020461D01*
X014107Y020540D02*
X018512Y020540D01*
X018480Y020618D02*
X012478Y020618D01*
X012400Y020540D02*
X013967Y020540D01*
X013817Y020461D02*
X012321Y020461D01*
X012243Y020383D02*
X013745Y020383D01*
X013713Y020304D02*
X012164Y020304D01*
X012086Y020226D02*
X013699Y020226D01*
X013699Y020147D02*
X012007Y020147D01*
X011929Y020069D02*
X013726Y020069D01*
X013771Y019990D02*
X011850Y019990D01*
X011772Y019911D02*
X013856Y019911D01*
X014217Y019911D02*
X015098Y019911D01*
X014989Y019833D02*
X011693Y019833D01*
X011614Y019754D02*
X013162Y019754D01*
X013083Y019676D02*
X011536Y019676D01*
X011457Y019597D02*
X013005Y019597D01*
X012926Y019519D02*
X011379Y019519D01*
X011300Y019440D02*
X012848Y019440D01*
X012769Y019362D02*
X011222Y019362D01*
X011143Y019283D02*
X012691Y019283D01*
X012612Y019205D02*
X011065Y019205D01*
X010986Y019126D02*
X012534Y019126D01*
X012455Y019048D02*
X010908Y019048D01*
X010829Y018969D02*
X012377Y018969D01*
X012298Y018890D02*
X010751Y018890D01*
X010672Y018812D02*
X012220Y018812D01*
X012141Y018733D02*
X010593Y018733D01*
X010515Y018655D02*
X012062Y018655D01*
X011984Y018576D02*
X010436Y018576D01*
X010358Y018498D02*
X011905Y018498D01*
X011827Y018419D02*
X010279Y018419D01*
X010201Y018341D02*
X011748Y018341D01*
X011670Y018262D02*
X010122Y018262D01*
X010044Y018184D02*
X011591Y018184D01*
X011513Y018105D02*
X009965Y018105D01*
X009887Y018026D02*
X011434Y018026D01*
X011356Y017948D02*
X009808Y017948D01*
X009729Y017869D02*
X011277Y017869D01*
X011198Y017791D02*
X009651Y017791D01*
X009572Y017712D02*
X011120Y017712D01*
X011041Y017634D02*
X009494Y017634D01*
X009415Y017555D02*
X010963Y017555D01*
X010884Y017477D02*
X009337Y017477D01*
X009263Y017398D02*
X010806Y017398D01*
X010727Y017320D02*
X009275Y017320D01*
X009275Y017241D02*
X010649Y017241D01*
X010570Y017162D02*
X009244Y017162D01*
X009196Y017084D02*
X010492Y017084D01*
X010413Y017005D02*
X009102Y017005D01*
X008937Y017303D02*
X013137Y021503D01*
X014707Y021503D01*
X020117Y021503D01*
X023737Y017883D01*
X024075Y017869D02*
X024677Y017869D01*
X024677Y017791D02*
X024064Y017791D01*
X024032Y017712D02*
X024677Y017712D01*
X024677Y017634D02*
X023966Y017634D01*
X023829Y017555D02*
X024677Y017555D01*
X024677Y017477D02*
X023297Y017477D01*
X023297Y017555D02*
X023644Y017555D01*
X023508Y017634D02*
X023232Y017634D01*
X023153Y017712D02*
X023441Y017712D01*
X023409Y017791D02*
X023075Y017791D01*
X022996Y017869D02*
X023399Y017869D01*
X023399Y017948D02*
X022918Y017948D01*
X022839Y018026D02*
X023367Y018026D01*
X023288Y018105D02*
X022761Y018105D01*
X022682Y018184D02*
X023210Y018184D01*
X023131Y018262D02*
X022604Y018262D01*
X022525Y018341D02*
X023053Y018341D01*
X022974Y018419D02*
X022447Y018419D01*
X022368Y018498D02*
X022896Y018498D01*
X022817Y018576D02*
X022289Y018576D01*
X022211Y018655D02*
X022738Y018655D01*
X022660Y018733D02*
X022132Y018733D01*
X022054Y018812D02*
X022581Y018812D01*
X022503Y018890D02*
X021975Y018890D01*
X021897Y018969D02*
X022424Y018969D01*
X022346Y019048D02*
X021818Y019048D01*
X021740Y019126D02*
X022267Y019126D01*
X022189Y019205D02*
X021661Y019205D01*
X021583Y019283D02*
X022110Y019283D01*
X022032Y019362D02*
X021504Y019362D01*
X021426Y019440D02*
X021953Y019440D01*
X021874Y019519D02*
X021347Y019519D01*
X021268Y019597D02*
X021796Y019597D01*
X021717Y019676D02*
X021190Y019676D01*
X021111Y019754D02*
X021639Y019754D01*
X021560Y019833D02*
X021033Y019833D01*
X020954Y019911D02*
X021482Y019911D01*
X021403Y019990D02*
X020876Y019990D01*
X020797Y020069D02*
X021325Y020069D01*
X021246Y020147D02*
X020719Y020147D01*
X020640Y020226D02*
X021168Y020226D01*
X021089Y020304D02*
X020562Y020304D01*
X020483Y020383D02*
X021010Y020383D01*
X020932Y020461D02*
X020404Y020461D01*
X020326Y020540D02*
X020853Y020540D01*
X020775Y020618D02*
X020268Y020618D01*
X020275Y020697D02*
X020696Y020697D01*
X020618Y020775D02*
X020273Y020775D01*
X020240Y020854D02*
X020539Y020854D01*
X020461Y020933D02*
X020185Y020933D01*
X020076Y021011D02*
X020382Y021011D01*
X020304Y021090D02*
X012950Y021090D01*
X013028Y021168D02*
X020225Y021168D01*
X020146Y021247D02*
X013107Y021247D01*
X013185Y021325D02*
X020068Y021325D01*
X020285Y021561D02*
X028397Y021561D01*
X028397Y021639D02*
X020206Y021639D01*
X020363Y021482D02*
X028397Y021482D01*
X028397Y021404D02*
X020442Y021404D01*
X020520Y021325D02*
X028397Y021325D01*
X028397Y021247D02*
X020599Y021247D01*
X020678Y021168D02*
X026920Y021168D01*
X026980Y021193D02*
X026689Y021073D01*
X026467Y020850D01*
X026347Y020560D01*
X026347Y020246D01*
X026467Y019955D01*
X026689Y019733D01*
X026980Y019613D01*
X027294Y019613D01*
X027584Y019733D01*
X027806Y019955D01*
X027927Y020246D01*
X027927Y020560D01*
X027806Y020850D01*
X027584Y021073D01*
X027294Y021193D01*
X026980Y021193D01*
X026731Y021090D02*
X020756Y021090D01*
X020835Y021011D02*
X022997Y021011D01*
X022888Y020933D02*
X020913Y020933D01*
X020992Y020854D02*
X022833Y020854D01*
X022801Y020775D02*
X021070Y020775D01*
X021149Y020697D02*
X022799Y020697D01*
X022806Y020618D02*
X021227Y020618D01*
X021306Y020540D02*
X022838Y020540D01*
X022900Y020461D02*
X021384Y020461D01*
X021463Y020383D02*
X023026Y020383D01*
X023309Y020304D02*
X021542Y020304D01*
X021620Y020226D02*
X023388Y020226D01*
X023466Y020147D02*
X021699Y020147D01*
X021777Y020069D02*
X023545Y020069D01*
X023623Y019990D02*
X021856Y019990D01*
X021934Y019911D02*
X023702Y019911D01*
X023780Y019833D02*
X022013Y019833D01*
X022091Y019754D02*
X023859Y019754D01*
X023937Y019676D02*
X022170Y019676D01*
X022248Y019597D02*
X024016Y019597D01*
X024094Y019519D02*
X022327Y019519D01*
X022406Y019440D02*
X024173Y019440D01*
X024252Y019362D02*
X022484Y019362D01*
X022563Y019283D02*
X024330Y019283D01*
X024409Y019205D02*
X022641Y019205D01*
X022720Y019126D02*
X024487Y019126D01*
X024566Y019048D02*
X022798Y019048D01*
X022877Y018969D02*
X024644Y018969D01*
X024677Y018890D02*
X022955Y018890D01*
X023034Y018812D02*
X024677Y018812D01*
X024677Y018733D02*
X023112Y018733D01*
X023191Y018655D02*
X024677Y018655D01*
X024677Y018576D02*
X023269Y018576D01*
X023348Y018498D02*
X024677Y018498D01*
X024677Y018419D02*
X023427Y018419D01*
X023505Y018341D02*
X024677Y018341D01*
X024677Y018262D02*
X023584Y018262D01*
X023894Y018184D02*
X024677Y018184D01*
X024677Y018105D02*
X023993Y018105D01*
X024043Y018026D02*
X024677Y018026D01*
X024677Y017948D02*
X024075Y017948D01*
X024677Y017398D02*
X023297Y017398D01*
X023297Y017320D02*
X024677Y017320D01*
X024677Y017241D02*
X023297Y017241D01*
X023297Y017162D02*
X024677Y017162D01*
X024677Y017084D02*
X023297Y017084D01*
X023297Y017005D02*
X024677Y017005D01*
X024677Y016927D02*
X023297Y016927D01*
X023297Y016848D02*
X024677Y016848D01*
X024677Y016770D02*
X023297Y016770D01*
X023297Y016691D02*
X024677Y016691D01*
X024677Y016613D02*
X023297Y016613D01*
X023297Y016534D02*
X024677Y016534D01*
X024677Y016456D02*
X023297Y016456D01*
X023297Y016377D02*
X024677Y016377D01*
X024677Y016299D02*
X023297Y016299D01*
X023297Y016220D02*
X024677Y016220D01*
X024677Y016141D02*
X023297Y016141D01*
X023297Y016063D02*
X024677Y016063D01*
X024677Y015984D02*
X023297Y015984D01*
X023297Y015906D02*
X024677Y015906D01*
X024677Y015827D02*
X023297Y015827D01*
X023297Y015749D02*
X024677Y015749D01*
X024677Y015670D02*
X023297Y015670D01*
X023297Y015592D02*
X024677Y015592D01*
X024677Y015513D02*
X023297Y015513D01*
X023297Y015435D02*
X024677Y015435D01*
X024677Y015356D02*
X023297Y015356D01*
X023297Y015277D02*
X024677Y015277D01*
X024677Y015199D02*
X023297Y015199D01*
X023297Y015120D02*
X024677Y015120D01*
X024677Y015042D02*
X023297Y015042D01*
X023297Y014963D02*
X024677Y014963D01*
X024677Y014885D02*
X023297Y014885D01*
X023297Y014806D02*
X024677Y014806D01*
X024677Y014728D02*
X023297Y014728D01*
X023297Y014649D02*
X024677Y014649D01*
X024677Y014571D02*
X023297Y014571D01*
X023297Y014492D02*
X024677Y014492D01*
X024677Y014413D02*
X023297Y014413D01*
X023297Y014335D02*
X024677Y014335D01*
X024677Y014256D02*
X023297Y014256D01*
X023297Y014178D02*
X024677Y014178D01*
X024677Y014099D02*
X023297Y014099D01*
X023297Y014021D02*
X024677Y014021D01*
X024677Y013942D02*
X023297Y013942D01*
X023297Y013864D02*
X024677Y013864D01*
X024677Y013785D02*
X023297Y013785D01*
X023297Y013707D02*
X024677Y013707D01*
X024677Y013628D02*
X023297Y013628D01*
X023297Y013549D02*
X024677Y013549D01*
X024677Y013471D02*
X023297Y013471D01*
X023297Y013392D02*
X024677Y013392D01*
X024677Y013314D02*
X023297Y013314D01*
X023297Y013235D02*
X024677Y013235D01*
X024677Y013157D02*
X023297Y013157D01*
X023297Y013078D02*
X024677Y013078D01*
X024677Y013000D02*
X023297Y013000D01*
X023297Y012921D02*
X024677Y012921D01*
X024677Y012843D02*
X023297Y012843D01*
X023297Y012764D02*
X024677Y012764D01*
X024677Y012686D02*
X023297Y012686D01*
X023297Y012607D02*
X024677Y012607D01*
X024677Y012528D02*
X023297Y012528D01*
X022777Y012528D02*
X022339Y012528D01*
X022397Y012607D02*
X022777Y012607D01*
X022777Y012686D02*
X022397Y012686D01*
X022397Y012764D02*
X022777Y012764D01*
X022777Y012843D02*
X022397Y012843D01*
X022397Y012921D02*
X022777Y012921D01*
X022777Y013000D02*
X022397Y013000D01*
X022397Y013078D02*
X022777Y013078D01*
X022777Y013157D02*
X022397Y013157D01*
X022397Y013235D02*
X022777Y013235D01*
X022777Y013314D02*
X022346Y013314D01*
X022267Y013392D02*
X022777Y013392D01*
X022777Y013471D02*
X022189Y013471D01*
X022110Y013549D02*
X022777Y013549D01*
X022777Y013628D02*
X022031Y013628D01*
X021953Y013707D02*
X022777Y013707D01*
X022777Y013785D02*
X021874Y013785D01*
X021796Y013864D02*
X022777Y013864D01*
X022777Y013942D02*
X021717Y013942D01*
X021639Y014021D02*
X022777Y014021D01*
X022777Y014099D02*
X021560Y014099D01*
X021482Y014178D02*
X022777Y014178D01*
X022777Y014256D02*
X021403Y014256D01*
X021325Y014335D02*
X022777Y014335D01*
X022777Y014413D02*
X017604Y014413D01*
X017522Y014492D02*
X022777Y014492D01*
X022777Y014571D02*
X017086Y014571D01*
X017151Y014492D02*
X017007Y014492D01*
X017069Y014413D02*
X016929Y014413D01*
X016850Y014335D02*
X017025Y014335D01*
X016999Y014256D02*
X016771Y014256D01*
X016693Y014178D02*
X016999Y014178D01*
X017014Y014099D02*
X016614Y014099D01*
X016536Y014021D02*
X017046Y014021D01*
X017119Y013942D02*
X016457Y013942D01*
X016379Y013864D02*
X021343Y013864D01*
X021265Y013942D02*
X017554Y013942D01*
X017627Y014021D02*
X021186Y014021D01*
X021230Y014203D02*
X017337Y014203D01*
X017164Y014649D02*
X022777Y014649D01*
X022777Y014728D02*
X017243Y014728D01*
X017321Y014806D02*
X022777Y014806D01*
X022777Y014885D02*
X017400Y014885D01*
X017478Y014963D02*
X022777Y014963D01*
X022777Y015042D02*
X017557Y015042D01*
X017635Y015120D02*
X022777Y015120D01*
X022777Y015199D02*
X017714Y015199D01*
X017793Y015277D02*
X022777Y015277D01*
X022777Y015356D02*
X019816Y015356D01*
X019828Y015361D02*
X019923Y015456D01*
X019975Y015581D01*
X019975Y015715D01*
X019923Y015839D01*
X019828Y015934D01*
X019704Y015986D01*
X019569Y015986D01*
X019445Y015934D01*
X019350Y015839D01*
X019337Y015808D01*
X017870Y015808D01*
X017777Y015714D01*
X014225Y012163D01*
X010736Y012163D01*
X010723Y012194D01*
X010628Y012289D01*
X010504Y012341D01*
X010369Y012341D01*
X010245Y012289D01*
X010150Y012194D01*
X010099Y012070D01*
X010099Y011936D01*
X010150Y011811D01*
X010245Y011716D01*
X010369Y011665D01*
X010504Y011665D01*
X010628Y011716D01*
X010723Y011811D01*
X010736Y011843D01*
X014225Y011843D01*
X014358Y011843D01*
X018003Y015488D01*
X019337Y015488D01*
X019350Y015456D01*
X019445Y015361D01*
X019569Y015310D01*
X019704Y015310D01*
X019828Y015361D01*
X019902Y015435D02*
X022777Y015435D01*
X022777Y015513D02*
X019947Y015513D01*
X019975Y015592D02*
X022777Y015592D01*
X022777Y015670D02*
X019975Y015670D01*
X019961Y015749D02*
X022777Y015749D01*
X022777Y015827D02*
X019928Y015827D01*
X019857Y015906D02*
X022777Y015906D01*
X022777Y015984D02*
X019708Y015984D01*
X019566Y015984D02*
X017964Y015984D01*
X017886Y015906D02*
X019416Y015906D01*
X019345Y015827D02*
X017807Y015827D01*
X017811Y015749D02*
X017729Y015749D01*
X017733Y015670D02*
X017650Y015670D01*
X017654Y015592D02*
X017572Y015592D01*
X017576Y015513D02*
X017493Y015513D01*
X017497Y015435D02*
X017415Y015435D01*
X017419Y015356D02*
X017336Y015356D01*
X017340Y015277D02*
X017258Y015277D01*
X017261Y015199D02*
X017179Y015199D01*
X017183Y015120D02*
X017100Y015120D01*
X017104Y015042D02*
X017022Y015042D01*
X017026Y014963D02*
X016943Y014963D01*
X016947Y014885D02*
X016865Y014885D01*
X016869Y014806D02*
X016786Y014806D01*
X016790Y014728D02*
X016708Y014728D01*
X016712Y014649D02*
X016629Y014649D01*
X016633Y014571D02*
X016551Y014571D01*
X016555Y014492D02*
X016472Y014492D01*
X016476Y014413D02*
X016394Y014413D01*
X016398Y014335D02*
X016315Y014335D01*
X016319Y014256D02*
X016236Y014256D01*
X016223Y014243D02*
X016223Y014243D01*
X016240Y014178D02*
X016158Y014178D01*
X016162Y014099D02*
X016079Y014099D01*
X016083Y014021D02*
X016001Y014021D01*
X016005Y013942D02*
X015922Y013942D01*
X015926Y013864D02*
X015844Y013864D01*
X015848Y013785D02*
X015765Y013785D01*
X015657Y013903D02*
X016157Y014403D01*
X019637Y017883D01*
X019637Y017903D01*
X019893Y018105D02*
X021208Y018105D01*
X021287Y018026D02*
X019943Y018026D01*
X019975Y017948D02*
X021365Y017948D01*
X021444Y017869D02*
X019975Y017869D01*
X019964Y017791D02*
X021522Y017791D01*
X021601Y017712D02*
X019932Y017712D01*
X019866Y017634D02*
X021679Y017634D01*
X021758Y017555D02*
X019729Y017555D01*
X019544Y017555D02*
X019535Y017555D01*
X019457Y017477D02*
X021837Y017477D01*
X021915Y017398D02*
X019378Y017398D01*
X019300Y017320D02*
X021994Y017320D01*
X022072Y017241D02*
X019221Y017241D01*
X019143Y017162D02*
X022151Y017162D01*
X022229Y017084D02*
X019064Y017084D01*
X018985Y017005D02*
X022308Y017005D01*
X022386Y016927D02*
X018907Y016927D01*
X018828Y016848D02*
X022465Y016848D01*
X022543Y016770D02*
X018750Y016770D01*
X018671Y016691D02*
X022622Y016691D01*
X022701Y016613D02*
X018593Y016613D01*
X018514Y016534D02*
X022777Y016534D01*
X022777Y016456D02*
X018436Y016456D01*
X018357Y016377D02*
X022777Y016377D01*
X022777Y016299D02*
X018279Y016299D01*
X018200Y016220D02*
X022777Y016220D01*
X022777Y016141D02*
X018121Y016141D01*
X018043Y016063D02*
X022777Y016063D01*
X022937Y016603D02*
X018811Y020729D01*
X018811Y020703D01*
X019149Y020697D02*
X019599Y020697D01*
X019601Y020775D02*
X019147Y020775D01*
X019114Y020854D02*
X019633Y020854D01*
X019688Y020933D02*
X019059Y020933D01*
X018950Y021011D02*
X019797Y021011D01*
X019937Y020703D02*
X023137Y017503D01*
X023137Y008803D01*
X024137Y007803D01*
X023646Y007716D02*
X024060Y007303D01*
X025237Y007303D01*
X024837Y007803D02*
X024837Y019003D01*
X023137Y020703D01*
X023475Y020697D02*
X024125Y020697D01*
X024127Y020775D02*
X023473Y020775D01*
X023440Y020854D02*
X024159Y020854D01*
X024214Y020933D02*
X023385Y020933D01*
X023276Y021011D02*
X024323Y021011D01*
X024602Y021011D02*
X026628Y021011D01*
X026549Y020933D02*
X024711Y020933D01*
X024766Y020854D02*
X026471Y020854D01*
X026436Y020775D02*
X024799Y020775D01*
X024801Y020697D02*
X026403Y020697D01*
X026371Y020618D02*
X024794Y020618D01*
X024852Y020540D02*
X026347Y020540D01*
X026347Y020461D02*
X024930Y020461D01*
X025009Y020383D02*
X026347Y020383D01*
X026347Y020304D02*
X025088Y020304D01*
X025166Y020226D02*
X026355Y020226D01*
X026387Y020147D02*
X025197Y020147D01*
X025197Y020069D02*
X026420Y020069D01*
X026453Y019990D02*
X025197Y019990D01*
X025197Y019911D02*
X026511Y019911D01*
X026589Y019833D02*
X025197Y019833D01*
X025197Y019754D02*
X026668Y019754D01*
X026827Y019676D02*
X025197Y019676D01*
X025197Y019597D02*
X028397Y019597D01*
X028397Y019519D02*
X025197Y019519D01*
X025197Y019440D02*
X028397Y019440D01*
X028397Y019362D02*
X025197Y019362D01*
X025197Y019283D02*
X028397Y019283D01*
X028397Y019205D02*
X025197Y019205D01*
X025197Y019126D02*
X028397Y019126D01*
X028397Y019048D02*
X025197Y019048D01*
X025197Y018969D02*
X028397Y018969D01*
X028397Y018890D02*
X025197Y018890D01*
X025197Y018812D02*
X028397Y018812D01*
X028397Y018733D02*
X025197Y018733D01*
X025197Y018655D02*
X028397Y018655D01*
X028397Y018576D02*
X025197Y018576D01*
X025197Y018498D02*
X028397Y018498D01*
X028397Y018419D02*
X025197Y018419D01*
X025197Y018341D02*
X028397Y018341D01*
X028397Y018262D02*
X025197Y018262D01*
X025197Y018184D02*
X028397Y018184D01*
X028397Y018105D02*
X025197Y018105D01*
X025197Y018026D02*
X028397Y018026D01*
X028397Y017948D02*
X025197Y017948D01*
X025197Y017869D02*
X028397Y017869D01*
X028397Y017791D02*
X025197Y017791D01*
X025197Y017712D02*
X028397Y017712D01*
X028397Y017634D02*
X025197Y017634D01*
X025197Y017555D02*
X028397Y017555D01*
X028397Y017477D02*
X025197Y017477D01*
X025197Y017398D02*
X028397Y017398D01*
X028397Y017320D02*
X025197Y017320D01*
X025197Y017241D02*
X028397Y017241D01*
X028397Y017162D02*
X025197Y017162D01*
X025197Y017084D02*
X028397Y017084D01*
X028397Y017005D02*
X025197Y017005D01*
X025197Y016927D02*
X028397Y016927D01*
X028397Y016848D02*
X025197Y016848D01*
X025197Y016770D02*
X028397Y016770D01*
X028397Y016691D02*
X025197Y016691D01*
X025197Y016613D02*
X028397Y016613D01*
X028397Y016534D02*
X025197Y016534D01*
X025197Y016456D02*
X028397Y016456D01*
X028397Y016377D02*
X025197Y016377D01*
X025197Y016299D02*
X028397Y016299D01*
X028397Y016220D02*
X025197Y016220D01*
X025197Y016141D02*
X028397Y016141D01*
X028397Y016063D02*
X025197Y016063D01*
X025197Y015984D02*
X028397Y015984D01*
X028397Y015906D02*
X025197Y015906D01*
X025197Y015827D02*
X028397Y015827D01*
X028397Y015749D02*
X025197Y015749D01*
X025197Y015670D02*
X028397Y015670D01*
X028397Y015592D02*
X025197Y015592D01*
X025197Y015513D02*
X028397Y015513D01*
X028397Y015435D02*
X025197Y015435D01*
X025197Y015356D02*
X028397Y015356D01*
X028397Y015277D02*
X025197Y015277D01*
X025197Y015199D02*
X028397Y015199D01*
X028397Y015120D02*
X025197Y015120D01*
X025197Y015042D02*
X028397Y015042D01*
X028397Y014963D02*
X025197Y014963D01*
X025197Y014885D02*
X028397Y014885D01*
X028397Y014806D02*
X025197Y014806D01*
X025197Y014728D02*
X028397Y014728D01*
X028397Y014649D02*
X025197Y014649D01*
X025197Y014571D02*
X028397Y014571D01*
X028397Y014492D02*
X025197Y014492D01*
X025197Y014413D02*
X028397Y014413D01*
X028397Y014335D02*
X025197Y014335D01*
X025197Y014256D02*
X028397Y014256D01*
X028397Y014178D02*
X025197Y014178D01*
X025197Y014099D02*
X028397Y014099D01*
X028397Y014021D02*
X025197Y014021D01*
X025197Y013942D02*
X028397Y013942D01*
X028397Y013864D02*
X025197Y013864D01*
X025197Y013785D02*
X028397Y013785D01*
X028397Y013707D02*
X025197Y013707D01*
X025197Y013628D02*
X028397Y013628D01*
X028397Y013549D02*
X025197Y013549D01*
X025197Y013471D02*
X028397Y013471D01*
X028397Y013392D02*
X025197Y013392D01*
X025197Y013314D02*
X028397Y013314D01*
X028397Y013235D02*
X025197Y013235D01*
X025197Y013157D02*
X028397Y013157D01*
X028397Y013078D02*
X025197Y013078D01*
X025197Y013000D02*
X028397Y013000D01*
X028397Y012921D02*
X025197Y012921D01*
X025197Y012843D02*
X028397Y012843D01*
X028397Y012764D02*
X025197Y012764D01*
X025197Y012686D02*
X028397Y012686D01*
X028397Y012607D02*
X025197Y012607D01*
X025197Y012528D02*
X028397Y012528D01*
X023337Y008303D02*
X022937Y008712D01*
X022937Y016603D01*
X022917Y016848D02*
X022977Y016848D01*
X022977Y016927D02*
X022839Y016927D01*
X022760Y017005D02*
X022977Y017005D01*
X022977Y017084D02*
X022682Y017084D01*
X022603Y017162D02*
X022977Y017162D01*
X022977Y017241D02*
X022525Y017241D01*
X022446Y017320D02*
X022977Y017320D01*
X022977Y017398D02*
X022368Y017398D01*
X022289Y017477D02*
X022937Y017477D01*
X022858Y017555D02*
X022211Y017555D01*
X022132Y017634D02*
X022779Y017634D01*
X022701Y017712D02*
X022053Y017712D01*
X021975Y017791D02*
X022622Y017791D01*
X022544Y017869D02*
X021896Y017869D01*
X021818Y017948D02*
X022465Y017948D01*
X022387Y018026D02*
X021739Y018026D01*
X021661Y018105D02*
X022308Y018105D01*
X022230Y018184D02*
X021582Y018184D01*
X021504Y018262D02*
X022151Y018262D01*
X022073Y018341D02*
X021425Y018341D01*
X021347Y018419D02*
X021994Y018419D01*
X021916Y018498D02*
X021268Y018498D01*
X021189Y018576D02*
X021837Y018576D01*
X021758Y018655D02*
X021111Y018655D01*
X021032Y018733D02*
X021680Y018733D01*
X021601Y018812D02*
X020954Y018812D01*
X020875Y018890D02*
X021523Y018890D01*
X021444Y018969D02*
X020797Y018969D01*
X020718Y019048D02*
X021366Y019048D01*
X021287Y019126D02*
X020640Y019126D01*
X020561Y019205D02*
X021209Y019205D01*
X021130Y019283D02*
X020483Y019283D01*
X020404Y019362D02*
X021052Y019362D01*
X020973Y019440D02*
X020325Y019440D01*
X020247Y019519D02*
X020894Y019519D01*
X020816Y019597D02*
X020168Y019597D01*
X020090Y019676D02*
X020737Y019676D01*
X020659Y019754D02*
X020011Y019754D01*
X019933Y019833D02*
X020580Y019833D01*
X020502Y019911D02*
X019854Y019911D01*
X019776Y019990D02*
X020423Y019990D01*
X020345Y020069D02*
X019697Y020069D01*
X019619Y020147D02*
X020266Y020147D01*
X020188Y020226D02*
X019540Y020226D01*
X019461Y020304D02*
X020109Y020304D01*
X019826Y020383D02*
X019383Y020383D01*
X019304Y020461D02*
X019700Y020461D01*
X019638Y020540D02*
X019226Y020540D01*
X019147Y020618D02*
X019606Y020618D01*
X018930Y020383D02*
X018921Y020383D01*
X018473Y020697D02*
X012557Y020697D01*
X012636Y020775D02*
X018475Y020775D01*
X018507Y020854D02*
X012714Y020854D01*
X012793Y020933D02*
X018562Y020933D01*
X018671Y021011D02*
X012871Y021011D01*
X012576Y021168D02*
X003753Y021168D01*
X003943Y021090D02*
X012497Y021090D01*
X012419Y021011D02*
X004046Y021011D01*
X004124Y020933D02*
X012340Y020933D01*
X012262Y020854D02*
X004203Y020854D01*
X004237Y020775D02*
X012183Y020775D01*
X012105Y020697D02*
X004270Y020697D01*
X004302Y020618D02*
X012026Y020618D01*
X011947Y020540D02*
X004327Y020540D01*
X004327Y020461D02*
X011869Y020461D01*
X011790Y020383D02*
X004327Y020383D01*
X004327Y020304D02*
X011712Y020304D01*
X011633Y020226D02*
X004318Y020226D01*
X004286Y020147D02*
X011555Y020147D01*
X011476Y020069D02*
X004253Y020069D01*
X004221Y019990D02*
X011398Y019990D01*
X011319Y019911D02*
X004163Y019911D01*
X004084Y019833D02*
X011241Y019833D01*
X011162Y019754D02*
X004005Y019754D01*
X003846Y019676D02*
X011084Y019676D01*
X011005Y019597D02*
X007664Y019597D01*
X007743Y019519D02*
X010926Y019519D01*
X010848Y019440D02*
X007821Y019440D01*
X007877Y019362D02*
X010769Y019362D01*
X010691Y019283D02*
X007877Y019283D01*
X007877Y019205D02*
X010612Y019205D01*
X010534Y019126D02*
X007877Y019126D01*
X007877Y019048D02*
X010455Y019048D01*
X010377Y018969D02*
X007825Y018969D01*
X007746Y018890D02*
X010298Y018890D01*
X010220Y018812D02*
X007668Y018812D01*
X007685Y018576D02*
X009984Y018576D01*
X009905Y018498D02*
X007764Y018498D01*
X007843Y018419D02*
X009827Y018419D01*
X009748Y018341D02*
X007877Y018341D01*
X007877Y018262D02*
X009670Y018262D01*
X009591Y018184D02*
X007877Y018184D01*
X007877Y018105D02*
X009513Y018105D01*
X009434Y018026D02*
X007877Y018026D01*
X007804Y017948D02*
X009356Y017948D01*
X009277Y017869D02*
X007725Y017869D01*
X007647Y017791D02*
X009198Y017791D01*
X010751Y016613D02*
X013554Y016613D01*
X013545Y016616D02*
X013669Y016565D01*
X013804Y016565D01*
X013928Y016616D01*
X014023Y016711D01*
X014036Y016743D01*
X014637Y016743D01*
X014650Y016711D01*
X014745Y016616D01*
X014869Y016565D01*
X015004Y016565D01*
X015128Y016616D01*
X015223Y016711D01*
X015275Y016836D01*
X015275Y016970D01*
X015223Y017094D01*
X015128Y017189D01*
X015004Y017241D01*
X014869Y017241D01*
X014745Y017189D01*
X014650Y017094D01*
X014637Y017063D01*
X014036Y017063D01*
X014023Y017094D01*
X013928Y017189D01*
X013804Y017241D01*
X013669Y017241D01*
X013638Y017228D01*
X013403Y017463D01*
X013270Y017463D01*
X012736Y017463D01*
X012723Y017494D01*
X012628Y017589D01*
X012504Y017641D01*
X012369Y017641D01*
X012245Y017589D01*
X012150Y017494D01*
X012099Y017370D01*
X012099Y017236D01*
X012150Y017111D01*
X012245Y017016D01*
X012369Y016965D01*
X012504Y016965D01*
X012628Y017016D01*
X012723Y017111D01*
X012736Y017143D01*
X013270Y017143D01*
X013412Y017002D01*
X013399Y016970D01*
X013399Y016836D01*
X013450Y016711D01*
X013545Y016616D01*
X013470Y016691D02*
X010830Y016691D01*
X010908Y016770D02*
X013426Y016770D01*
X013399Y016848D02*
X010987Y016848D01*
X011065Y016927D02*
X013399Y016927D01*
X013408Y017005D02*
X012602Y017005D01*
X012696Y017084D02*
X013329Y017084D01*
X013337Y017303D02*
X013737Y016903D01*
X014937Y016903D01*
X015247Y016770D02*
X015747Y016770D01*
X015674Y016691D02*
X015203Y016691D01*
X015120Y016613D02*
X015602Y016613D01*
X015529Y016534D02*
X013820Y016534D01*
X013804Y016541D02*
X013669Y016541D01*
X013545Y016489D01*
X013450Y016394D01*
X013437Y016363D01*
X010721Y016363D01*
X010588Y016363D01*
X009320Y015095D01*
X009227Y015001D01*
X009227Y014752D01*
X009195Y014739D01*
X009100Y014644D01*
X009049Y014520D01*
X009049Y014386D01*
X009100Y014261D01*
X009195Y014166D01*
X009319Y014115D01*
X009454Y014115D01*
X009578Y014166D01*
X009673Y014261D01*
X009725Y014386D01*
X009725Y014520D01*
X009673Y014644D01*
X009578Y014739D01*
X009547Y014752D01*
X009547Y014869D01*
X010721Y016043D01*
X013437Y016043D01*
X013450Y016011D01*
X013545Y015916D01*
X013669Y015865D01*
X013804Y015865D01*
X013928Y015916D01*
X014023Y016011D01*
X014075Y016136D01*
X014075Y016270D01*
X014023Y016394D01*
X013928Y016489D01*
X013804Y016541D01*
X013920Y016613D02*
X014754Y016613D01*
X014670Y016691D02*
X014003Y016691D01*
X013962Y016456D02*
X015456Y016456D01*
X015383Y016377D02*
X014030Y016377D01*
X014063Y016299D02*
X015310Y016299D01*
X015237Y016220D02*
X014075Y016220D01*
X014075Y016141D02*
X015164Y016141D01*
X015091Y016063D02*
X014045Y016063D01*
X013996Y015984D02*
X015018Y015984D01*
X014785Y015906D02*
X013903Y015906D01*
X013590Y015827D02*
X014683Y015827D01*
X013737Y016203D02*
X010655Y016203D01*
X009387Y014935D01*
X009387Y014453D01*
X009704Y014571D02*
X010477Y014571D01*
X010477Y014649D02*
X009669Y014649D01*
X009590Y014728D02*
X010477Y014728D01*
X010477Y014806D02*
X009547Y014806D01*
X009563Y014885D02*
X010477Y014885D01*
X010477Y014963D02*
X009641Y014963D01*
X009720Y015042D02*
X010477Y015042D01*
X010441Y015120D02*
X009799Y015120D01*
X009877Y015199D02*
X010362Y015199D01*
X010323Y015277D02*
X009956Y015277D01*
X010034Y015356D02*
X010299Y015356D01*
X010299Y015435D02*
X010113Y015435D01*
X010191Y015513D02*
X010316Y015513D01*
X010349Y015592D02*
X010270Y015592D01*
X010348Y015670D02*
X010426Y015670D01*
X010427Y015749D02*
X013031Y015749D01*
X012999Y015670D02*
X012999Y015536D01*
X013008Y015513D02*
X010957Y015513D01*
X010975Y015435D02*
X013040Y015435D01*
X013105Y015356D02*
X010975Y015356D01*
X010951Y015277D02*
X013239Y015277D01*
X013276Y015120D02*
X012497Y015120D01*
X013083Y015827D02*
X010505Y015827D01*
X010584Y015906D02*
X013185Y015906D01*
X013477Y015984D02*
X010662Y015984D01*
X010446Y016220D02*
X010358Y016220D01*
X010367Y016141D02*
X010280Y016141D01*
X010289Y016063D02*
X010201Y016063D01*
X010210Y015984D02*
X010123Y015984D01*
X010131Y015906D02*
X010044Y015906D01*
X010053Y015827D02*
X009966Y015827D01*
X009974Y015749D02*
X009887Y015749D01*
X009896Y015670D02*
X009809Y015670D01*
X009817Y015592D02*
X009730Y015592D01*
X009739Y015513D02*
X009651Y015513D01*
X009660Y015435D02*
X009573Y015435D01*
X009582Y015356D02*
X009494Y015356D01*
X009503Y015277D02*
X009416Y015277D01*
X009425Y015199D02*
X009337Y015199D01*
X009346Y015120D02*
X009259Y015120D01*
X009267Y015042D02*
X009180Y015042D01*
X009227Y014963D02*
X009102Y014963D01*
X009023Y014885D02*
X009227Y014885D01*
X009227Y014806D02*
X008945Y014806D01*
X008866Y014728D02*
X009183Y014728D01*
X009105Y014649D02*
X008788Y014649D01*
X008709Y014571D02*
X009069Y014571D01*
X009049Y014492D02*
X008630Y014492D01*
X008552Y014413D02*
X009049Y014413D01*
X009070Y014335D02*
X008473Y014335D01*
X008395Y014256D02*
X009105Y014256D01*
X009184Y014178D02*
X008316Y014178D01*
X008238Y014099D02*
X010477Y014099D01*
X010477Y014021D02*
X008159Y014021D01*
X008081Y013942D02*
X010477Y013942D01*
X010550Y013864D02*
X008002Y013864D01*
X007924Y013785D02*
X010628Y013785D01*
X010707Y013707D02*
X007845Y013707D01*
X007766Y013628D02*
X010785Y013628D01*
X010864Y013549D02*
X007688Y013549D01*
X007609Y013471D02*
X010942Y013471D01*
X011021Y013392D02*
X007531Y013392D01*
X007452Y013314D02*
X011099Y013314D01*
X011155Y013235D02*
X007374Y013235D01*
X007295Y013157D02*
X011149Y013157D01*
X011152Y013078D02*
X007217Y013078D01*
X007138Y013000D02*
X011184Y013000D01*
X011240Y012921D02*
X007060Y012921D01*
X006981Y012843D02*
X011352Y012843D01*
X011621Y012843D02*
X013629Y012843D01*
X013599Y012764D02*
X006902Y012764D01*
X006824Y012686D02*
X013599Y012686D01*
X013677Y012921D02*
X011733Y012921D01*
X011789Y013000D02*
X013770Y013000D01*
X014275Y012764D02*
X014827Y012764D01*
X014748Y012686D02*
X014275Y012686D01*
X014263Y012607D02*
X014670Y012607D01*
X014591Y012528D02*
X014230Y012528D01*
X014162Y012450D02*
X014512Y012450D01*
X014434Y012371D02*
X014020Y012371D01*
X013853Y012371D02*
X013831Y012371D01*
X014277Y012214D02*
X010703Y012214D01*
X010620Y012293D02*
X014355Y012293D01*
X014292Y012003D02*
X017937Y015648D01*
X019637Y015648D01*
X019372Y015435D02*
X017950Y015435D01*
X017871Y015356D02*
X019458Y015356D01*
X021230Y014203D02*
X022237Y013197D01*
X022237Y012653D01*
X021887Y012303D01*
X021887Y008853D01*
X023437Y007303D01*
X023437Y005803D01*
X023637Y005603D01*
X023637Y004603D01*
X023646Y007716D02*
X023646Y007993D01*
X023337Y008303D01*
X025037Y008503D02*
X025037Y020129D01*
X024463Y020703D01*
X024226Y020461D02*
X023604Y020461D01*
X023526Y020540D02*
X024164Y020540D01*
X024132Y020618D02*
X023468Y020618D01*
X023683Y020383D02*
X024352Y020383D01*
X024635Y020304D02*
X023761Y020304D01*
X023840Y020226D02*
X024714Y020226D01*
X024792Y020147D02*
X023919Y020147D01*
X023997Y020069D02*
X024871Y020069D01*
X024877Y019990D02*
X024076Y019990D01*
X024154Y019911D02*
X024877Y019911D01*
X024877Y019833D02*
X024233Y019833D01*
X024311Y019754D02*
X024877Y019754D01*
X024877Y019676D02*
X024390Y019676D01*
X024468Y019597D02*
X024877Y019597D01*
X024877Y019519D02*
X024547Y019519D01*
X024625Y019440D02*
X024877Y019440D01*
X024877Y019362D02*
X024704Y019362D01*
X024783Y019283D02*
X024877Y019283D01*
X024877Y019205D02*
X024861Y019205D01*
X027446Y019676D02*
X028397Y019676D01*
X028397Y019754D02*
X027605Y019754D01*
X027684Y019833D02*
X028397Y019833D01*
X028397Y019911D02*
X027763Y019911D01*
X027821Y019990D02*
X028397Y019990D01*
X028397Y020069D02*
X027853Y020069D01*
X027886Y020147D02*
X028397Y020147D01*
X028397Y020226D02*
X027918Y020226D01*
X027927Y020304D02*
X028397Y020304D01*
X028397Y020383D02*
X027927Y020383D01*
X027927Y020461D02*
X028397Y020461D01*
X028397Y020540D02*
X027927Y020540D01*
X027902Y020618D02*
X028397Y020618D01*
X028397Y020697D02*
X027870Y020697D01*
X027837Y020775D02*
X028397Y020775D01*
X028397Y020854D02*
X027803Y020854D01*
X027724Y020933D02*
X028397Y020933D01*
X028397Y021011D02*
X027646Y021011D01*
X027543Y021090D02*
X028397Y021090D01*
X028397Y021168D02*
X027353Y021168D01*
X016648Y015120D02*
X013797Y015120D01*
X013845Y015042D02*
X016569Y015042D01*
X016491Y014963D02*
X013875Y014963D01*
X013875Y014885D02*
X016412Y014885D01*
X016334Y014806D02*
X013863Y014806D01*
X013830Y014728D02*
X016255Y014728D01*
X016177Y014649D02*
X013761Y014649D01*
X013618Y014571D02*
X016098Y014571D01*
X016020Y014492D02*
X011466Y014492D01*
X011475Y014413D02*
X015941Y014413D01*
X015997Y014469D02*
X015997Y014469D01*
X015863Y014335D02*
X011474Y014335D01*
X011509Y014256D02*
X015784Y014256D01*
X015705Y014178D02*
X011588Y014178D01*
X011666Y014099D02*
X015627Y014099D01*
X015657Y013903D02*
X011637Y013903D01*
X011137Y014403D01*
X010637Y014003D02*
X011487Y013153D01*
X010637Y014003D02*
X010637Y015403D01*
X010524Y016299D02*
X010437Y016299D01*
X010515Y016377D02*
X013443Y016377D01*
X013511Y016456D02*
X010594Y016456D01*
X010673Y016534D02*
X013653Y016534D01*
X013570Y015906D02*
X013489Y015906D01*
X014028Y017084D02*
X014646Y017084D01*
X014718Y017162D02*
X013955Y017162D01*
X013625Y017241D02*
X016037Y017241D01*
X016037Y017162D02*
X015155Y017162D01*
X015228Y017084D02*
X016037Y017084D01*
X015966Y017005D02*
X015260Y017005D01*
X015275Y016927D02*
X015893Y016927D01*
X015820Y016848D02*
X015275Y016848D01*
X016037Y017320D02*
X013546Y017320D01*
X013468Y017398D02*
X016037Y017398D01*
X016037Y017477D02*
X012731Y017477D01*
X012662Y017555D02*
X016037Y017555D01*
X016037Y017634D02*
X012521Y017634D01*
X012352Y017634D02*
X011772Y017634D01*
X011851Y017712D02*
X016037Y017712D01*
X016037Y017791D02*
X011929Y017791D01*
X012008Y017869D02*
X016037Y017869D01*
X016037Y017948D02*
X012086Y017948D01*
X012165Y018026D02*
X016037Y018026D01*
X016037Y018105D02*
X012243Y018105D01*
X012322Y018184D02*
X016037Y018184D01*
X016037Y018262D02*
X012401Y018262D01*
X012479Y018341D02*
X016037Y018341D01*
X016037Y018419D02*
X012558Y018419D01*
X012636Y018498D02*
X016037Y018498D01*
X015637Y018903D02*
X012815Y018903D01*
X012986Y019126D02*
X015382Y019126D01*
X015482Y019205D02*
X013065Y019205D01*
X013143Y019283D02*
X015125Y019283D01*
X015000Y019362D02*
X013222Y019362D01*
X013300Y019440D02*
X014938Y019440D01*
X015485Y019833D02*
X015799Y019833D01*
X015721Y019911D02*
X015375Y019911D01*
X015540Y019754D02*
X015878Y019754D01*
X015957Y019676D02*
X015572Y019676D01*
X015642Y019990D02*
X014302Y019990D01*
X012211Y017555D02*
X011694Y017555D01*
X011615Y017477D02*
X012143Y017477D01*
X012110Y017398D02*
X011537Y017398D01*
X011458Y017320D02*
X012099Y017320D01*
X012099Y017241D02*
X011379Y017241D01*
X011301Y017162D02*
X012129Y017162D01*
X012177Y017084D02*
X011222Y017084D01*
X011144Y017005D02*
X012271Y017005D01*
X012437Y017303D02*
X013337Y017303D01*
X010477Y014492D02*
X009725Y014492D01*
X009725Y014413D02*
X010477Y014413D01*
X010477Y014335D02*
X009704Y014335D01*
X009668Y014256D02*
X010477Y014256D01*
X010477Y014178D02*
X009590Y014178D01*
X007315Y012607D02*
X006745Y012607D01*
X006667Y012528D02*
X007236Y012528D01*
X007158Y012450D02*
X006588Y012450D01*
X006510Y012371D02*
X007079Y012371D01*
X006753Y012293D02*
X006520Y012293D01*
X006603Y012214D02*
X006670Y012214D01*
X007155Y011743D02*
X007318Y011743D01*
X007246Y011822D02*
X007228Y011822D01*
X007537Y012003D02*
X009356Y012003D01*
X010256Y011103D01*
X016237Y011103D01*
X017237Y012103D01*
X017551Y011979D02*
X017737Y011979D01*
X017737Y012057D02*
X017575Y012057D01*
X017575Y012136D02*
X017737Y012136D01*
X017737Y012214D02*
X017556Y012214D01*
X017524Y012293D02*
X017737Y012293D01*
X017737Y012371D02*
X017446Y012371D01*
X017737Y012450D02*
X015967Y012450D01*
X016045Y012528D02*
X021886Y012528D01*
X021856Y012607D02*
X021965Y012607D01*
X021948Y012686D02*
X022043Y012686D01*
X021973Y012711D02*
X022025Y012836D01*
X022025Y012970D01*
X021973Y013094D01*
X021878Y013189D01*
X021754Y013241D01*
X021619Y013241D01*
X021495Y013189D01*
X021409Y013103D01*
X016054Y013103D01*
X015937Y012986D01*
X014992Y012041D01*
X014869Y012041D01*
X014745Y011989D01*
X014650Y011894D01*
X014599Y011770D01*
X014599Y011636D01*
X014650Y011511D01*
X014745Y011416D01*
X014869Y011365D01*
X015004Y011365D01*
X015128Y011416D01*
X015223Y011511D01*
X015275Y011636D01*
X015275Y011758D01*
X016220Y012703D01*
X021409Y012703D01*
X021495Y012616D01*
X021619Y012565D01*
X021754Y012565D01*
X021878Y012616D01*
X021973Y012711D01*
X021995Y012764D02*
X022077Y012764D01*
X022077Y012843D02*
X022025Y012843D01*
X022025Y012921D02*
X022077Y012921D01*
X022077Y013000D02*
X022013Y013000D01*
X021980Y013078D02*
X022077Y013078D01*
X022050Y013157D02*
X021911Y013157D01*
X021972Y013235D02*
X021767Y013235D01*
X021893Y013314D02*
X015829Y013314D01*
X015908Y013392D02*
X021815Y013392D01*
X021736Y013471D02*
X015986Y013471D01*
X016065Y013549D02*
X021658Y013549D01*
X021579Y013628D02*
X016143Y013628D01*
X016222Y013707D02*
X021500Y013707D01*
X021422Y013785D02*
X016300Y013785D01*
X016029Y013078D02*
X015593Y013078D01*
X015515Y013000D02*
X015951Y013000D01*
X015872Y012921D02*
X015436Y012921D01*
X015358Y012843D02*
X015794Y012843D01*
X015715Y012764D02*
X015279Y012764D01*
X015201Y012686D02*
X015637Y012686D01*
X015558Y012607D02*
X015122Y012607D01*
X015044Y012528D02*
X015479Y012528D01*
X015401Y012450D02*
X014965Y012450D01*
X014886Y012371D02*
X015322Y012371D01*
X015244Y012293D02*
X014808Y012293D01*
X014729Y012214D02*
X015165Y012214D01*
X015087Y012136D02*
X014651Y012136D01*
X014572Y012057D02*
X015008Y012057D01*
X014734Y011979D02*
X014494Y011979D01*
X014415Y011900D02*
X014656Y011900D01*
X014620Y011822D02*
X010728Y011822D01*
X010655Y011743D02*
X014599Y011743D01*
X014599Y011664D02*
X009920Y011664D01*
X009999Y011586D02*
X014619Y011586D01*
X014654Y011507D02*
X010077Y011507D01*
X010156Y011429D02*
X014733Y011429D01*
X015141Y011429D02*
X016336Y011429D01*
X016258Y011350D02*
X010234Y011350D01*
X010313Y011272D02*
X016179Y011272D01*
X016396Y011036D02*
X017737Y011036D01*
X017737Y010958D02*
X016318Y010958D01*
X016475Y011115D02*
X017737Y011115D01*
X017737Y011193D02*
X016553Y011193D01*
X016632Y011272D02*
X017737Y011272D01*
X017737Y011350D02*
X016710Y011350D01*
X016789Y011429D02*
X017737Y011429D01*
X017737Y011507D02*
X016867Y011507D01*
X016946Y011586D02*
X017737Y011586D01*
X017737Y011664D02*
X017025Y011664D01*
X017103Y011743D02*
X017737Y011743D01*
X017737Y011822D02*
X017434Y011822D01*
X017512Y011900D02*
X017737Y011900D01*
X016949Y012293D02*
X015809Y012293D01*
X015731Y012214D02*
X016917Y012214D01*
X016899Y012136D02*
X015652Y012136D01*
X015574Y012057D02*
X016899Y012057D01*
X016886Y011979D02*
X015495Y011979D01*
X015417Y011900D02*
X016808Y011900D01*
X016729Y011822D02*
X015338Y011822D01*
X015275Y011743D02*
X016651Y011743D01*
X016572Y011664D02*
X015275Y011664D01*
X015254Y011586D02*
X016494Y011586D01*
X016415Y011507D02*
X015219Y011507D01*
X014292Y012003D02*
X010437Y012003D01*
X010126Y012136D02*
X009449Y012136D01*
X009528Y012057D02*
X010099Y012057D01*
X010099Y011979D02*
X009606Y011979D01*
X009685Y011900D02*
X010113Y011900D01*
X010146Y011822D02*
X009763Y011822D01*
X009842Y011743D02*
X010218Y011743D01*
X010170Y012214D02*
X007803Y012214D01*
X007720Y012293D02*
X010253Y012293D01*
X009389Y011743D02*
X007755Y011743D01*
X007828Y011822D02*
X009311Y011822D01*
X009395Y011350D02*
X009782Y011350D01*
X009860Y011272D02*
X009474Y011272D01*
X009552Y011193D02*
X009939Y011193D01*
X010018Y011115D02*
X009631Y011115D01*
X009709Y011036D02*
X010096Y011036D01*
X010175Y010958D02*
X009788Y010958D01*
X009866Y010879D02*
X017737Y010879D01*
X017737Y010800D02*
X009945Y010800D01*
X010024Y010722D02*
X017737Y010722D01*
X017737Y010643D02*
X015061Y010643D01*
X015179Y010565D02*
X017737Y010565D01*
X017737Y010486D02*
X015237Y010486D01*
X015270Y010408D02*
X017737Y010408D01*
X017737Y010329D02*
X015275Y010329D01*
X015270Y010251D02*
X017737Y010251D01*
X017737Y010172D02*
X015238Y010172D01*
X015180Y010094D02*
X017737Y010094D01*
X017737Y010015D02*
X015137Y010015D01*
X015137Y009936D02*
X017737Y009936D01*
X017737Y009858D02*
X015137Y009858D01*
X015137Y009779D02*
X017737Y009779D01*
X017737Y009701D02*
X015137Y009701D01*
X015137Y009622D02*
X017737Y009622D01*
X017737Y009544D02*
X015137Y009544D01*
X015137Y009465D02*
X017737Y009465D01*
X017737Y009387D02*
X015137Y009387D01*
X015137Y009308D02*
X017737Y009308D01*
X017737Y009230D02*
X015137Y009230D01*
X015137Y009151D02*
X017737Y009151D01*
X017737Y009073D02*
X015137Y009073D01*
X015137Y008994D02*
X017737Y008994D01*
X017737Y008915D02*
X015137Y008915D01*
X015137Y008837D02*
X017737Y008837D01*
X017737Y008758D02*
X015137Y008758D01*
X015137Y008680D02*
X017737Y008680D01*
X017737Y008601D02*
X015137Y008601D01*
X015137Y008523D02*
X017737Y008523D01*
X017737Y008444D02*
X015137Y008444D01*
X015137Y008366D02*
X017737Y008366D01*
X017737Y008287D02*
X015137Y008287D01*
X015137Y008209D02*
X017737Y008209D01*
X017737Y008130D02*
X015137Y008130D01*
X015137Y008051D02*
X017737Y008051D01*
X017737Y007973D02*
X015137Y007973D01*
X015137Y007894D02*
X017737Y007894D01*
X017737Y007816D02*
X015137Y007816D01*
X015137Y007737D02*
X017737Y007737D01*
X017737Y007659D02*
X015137Y007659D01*
X015137Y007580D02*
X017737Y007580D01*
X017737Y007502D02*
X015137Y007502D01*
X015137Y007423D02*
X017737Y007423D01*
X017737Y007345D02*
X015137Y007345D01*
X015137Y007266D02*
X017737Y007266D01*
X017737Y007187D02*
X015137Y007187D01*
X015137Y007109D02*
X017737Y007109D01*
X017737Y007030D02*
X015137Y007030D01*
X015137Y006952D02*
X017737Y006952D01*
X017737Y006873D02*
X015137Y006873D01*
X015137Y006795D02*
X017737Y006795D01*
X017737Y006716D02*
X015137Y006716D01*
X015137Y006638D02*
X017737Y006638D01*
X017737Y006559D02*
X015137Y006559D01*
X015107Y006481D02*
X017737Y006481D01*
X017737Y006402D02*
X015029Y006402D01*
X014950Y006324D02*
X017737Y006324D01*
X017737Y006245D02*
X014872Y006245D01*
X014793Y006166D02*
X017737Y006166D01*
X017737Y006088D02*
X014715Y006088D01*
X014636Y006009D02*
X017737Y006009D01*
X017737Y005931D02*
X014585Y005931D01*
X014585Y005852D02*
X017737Y005852D01*
X017737Y005774D02*
X014559Y005774D01*
X014517Y005695D02*
X017737Y005695D01*
X017737Y005617D02*
X014439Y005617D01*
X014463Y006402D02*
X012594Y006402D01*
X012693Y006481D02*
X014542Y006481D01*
X014620Y006559D02*
X012743Y006559D01*
X012775Y006638D02*
X014699Y006638D01*
X013057Y006003D02*
X012418Y006003D01*
X011637Y006784D01*
X011637Y008603D01*
X011477Y008523D02*
X007497Y008523D01*
X007575Y008601D02*
X007871Y008601D01*
X007938Y008601D02*
X011412Y008601D01*
X011333Y008680D02*
X008096Y008680D01*
X008155Y008758D02*
X011255Y008758D01*
X011176Y008837D02*
X008215Y008837D01*
X008276Y008915D02*
X011098Y008915D01*
X011019Y008994D02*
X008336Y008994D01*
X008396Y009073D02*
X010941Y009073D01*
X010862Y009151D02*
X008457Y009151D01*
X008517Y009230D02*
X010784Y009230D01*
X011477Y008444D02*
X005311Y008444D01*
X005311Y008366D02*
X011477Y008366D01*
X011477Y008287D02*
X005311Y008287D01*
X005311Y008209D02*
X011477Y008209D01*
X011477Y008130D02*
X005311Y008130D01*
X005311Y008051D02*
X011477Y008051D01*
X011477Y007973D02*
X005311Y007973D01*
X005311Y007894D02*
X011477Y007894D01*
X011477Y007816D02*
X005311Y007816D01*
X005311Y007737D02*
X011477Y007737D01*
X011477Y007659D02*
X005333Y007659D01*
X005403Y007580D02*
X011477Y007580D01*
X011477Y007502D02*
X005436Y007502D01*
X005449Y007423D02*
X011477Y007423D01*
X011477Y007345D02*
X005449Y007345D01*
X005420Y007266D02*
X011477Y007266D01*
X011477Y007187D02*
X005374Y007187D01*
X005285Y007109D02*
X011477Y007109D01*
X011792Y006402D02*
X010098Y006402D01*
X010194Y006324D02*
X011871Y006324D01*
X011949Y006245D02*
X010244Y006245D01*
X010275Y006166D02*
X012028Y006166D01*
X012106Y006088D02*
X010275Y006088D01*
X010264Y006009D02*
X012185Y006009D01*
X012263Y005931D02*
X010231Y005931D01*
X010164Y005852D02*
X012342Y005852D01*
X012480Y006166D02*
X012759Y006166D01*
X012821Y006245D02*
X012402Y006245D01*
X012692Y008601D02*
X014737Y008601D01*
X014737Y008680D02*
X012792Y008680D01*
X012537Y008903D02*
X013937Y008903D01*
X014337Y009303D01*
X014574Y009544D02*
X014737Y009544D01*
X014737Y009622D02*
X014449Y009622D01*
X014225Y009622D02*
X013965Y009622D01*
X013965Y009544D02*
X014099Y009544D01*
X014038Y009465D02*
X013936Y009465D01*
X013889Y009387D02*
X014005Y009387D01*
X013999Y009308D02*
X013799Y009308D01*
X014001Y009230D02*
X012631Y009230D01*
X012709Y009308D02*
X013455Y009308D01*
X013365Y009387D02*
X012799Y009387D01*
X012767Y009151D02*
X013959Y009151D01*
X013880Y009073D02*
X012832Y009073D01*
X012537Y009603D02*
X013627Y009603D01*
X013850Y009858D02*
X014737Y009858D01*
X014737Y009936D02*
X013705Y009936D01*
X013549Y009936D02*
X012615Y009936D01*
X012760Y009858D02*
X013404Y009858D01*
X013334Y009779D02*
X012829Y009779D01*
X013919Y009779D02*
X014737Y009779D01*
X014737Y009701D02*
X013952Y009701D01*
X014635Y009465D02*
X014737Y009465D01*
X014737Y009387D02*
X014668Y009387D01*
X014675Y009308D02*
X014737Y009308D01*
X014737Y009230D02*
X014672Y009230D01*
X014640Y009151D02*
X014737Y009151D01*
X014737Y009073D02*
X014585Y009073D01*
X014475Y008994D02*
X014737Y008994D01*
X014737Y008915D02*
X014176Y008915D01*
X014097Y008837D02*
X014737Y008837D01*
X014737Y008758D02*
X014018Y008758D01*
X017737Y005538D02*
X004327Y005538D01*
X004327Y005460D02*
X017737Y005460D01*
X017737Y005381D02*
X004300Y005381D01*
X004267Y005302D02*
X017737Y005302D01*
X017737Y005224D02*
X004235Y005224D01*
X004196Y005145D02*
X017737Y005145D01*
X017737Y005067D02*
X004118Y005067D01*
X004039Y004988D02*
X017737Y004988D01*
X017737Y004910D02*
X003928Y004910D01*
X003738Y004831D02*
X017737Y004831D01*
X017737Y004753D02*
X002277Y004753D01*
X002277Y004831D02*
X003335Y004831D01*
X003146Y004910D02*
X002277Y004910D01*
X002277Y004988D02*
X003034Y004988D01*
X002955Y005067D02*
X002277Y005067D01*
X002277Y005145D02*
X002877Y005145D01*
X002839Y005224D02*
X002277Y005224D01*
X002277Y005302D02*
X002806Y005302D01*
X002773Y005381D02*
X002277Y005381D01*
X002277Y005460D02*
X002747Y005460D01*
X002747Y005538D02*
X002277Y005538D01*
X002277Y005617D02*
X002747Y005617D01*
X002747Y005695D02*
X002277Y005695D01*
X002277Y005774D02*
X002752Y005774D01*
X002785Y005852D02*
X002277Y005852D01*
X002277Y005931D02*
X002817Y005931D01*
X002850Y006009D02*
X002277Y006009D01*
X002277Y006088D02*
X002905Y006088D01*
X002983Y006166D02*
X002277Y006166D01*
X002277Y006245D02*
X003062Y006245D01*
X003212Y006324D02*
X002277Y006324D01*
X002277Y004674D02*
X017737Y004674D01*
X017737Y004596D02*
X002277Y004596D01*
X002277Y004517D02*
X017737Y004517D01*
X017737Y004438D02*
X002277Y004438D01*
X002277Y004360D02*
X017737Y004360D01*
X025037Y008503D02*
X025237Y008303D01*
X021517Y012607D02*
X016124Y012607D01*
X016202Y012686D02*
X021426Y012686D01*
X021462Y013157D02*
X015672Y013157D01*
X015750Y013235D02*
X021606Y013235D01*
X017027Y012371D02*
X015888Y012371D01*
X009237Y010203D02*
X008129Y010203D01*
X007629Y010703D01*
X008069Y010722D02*
X008189Y010722D01*
X008189Y010800D02*
X008069Y010800D01*
X008069Y010879D02*
X008189Y010879D01*
X008261Y010958D02*
X007996Y010958D01*
X007918Y011036D02*
X008340Y011036D01*
X008418Y011115D02*
X007839Y011115D01*
X007418Y011115D02*
X006839Y011115D01*
X006918Y011036D02*
X007340Y011036D01*
X007261Y010958D02*
X006996Y010958D01*
X007069Y010879D02*
X007189Y010879D01*
X007189Y010800D02*
X007069Y010800D01*
X007069Y010722D02*
X007189Y010722D01*
X007189Y010643D02*
X007069Y010643D01*
X007069Y010565D02*
X007189Y010565D01*
X007223Y010486D02*
X007034Y010486D01*
X006956Y010408D02*
X007302Y010408D01*
X007380Y010329D02*
X006877Y010329D01*
X006819Y010163D02*
X006669Y010163D01*
X006669Y009743D01*
X007089Y009743D01*
X007089Y009893D01*
X006819Y010163D01*
X006889Y010094D02*
X007397Y010094D01*
X007447Y010143D02*
X007189Y009885D01*
X007189Y009521D01*
X007447Y009263D01*
X007811Y009263D01*
X008069Y009521D01*
X008069Y009885D01*
X007811Y010143D01*
X007447Y010143D01*
X007319Y010015D02*
X006967Y010015D01*
X007046Y009936D02*
X007240Y009936D01*
X007189Y009858D02*
X007089Y009858D01*
X007089Y009779D02*
X007189Y009779D01*
X007189Y009701D02*
X006669Y009701D01*
X006669Y009663D02*
X006669Y009743D01*
X006589Y009743D01*
X006589Y010163D01*
X006438Y010163D01*
X006169Y009893D01*
X006169Y009743D01*
X006589Y009743D01*
X006589Y009663D01*
X006669Y009663D01*
X007089Y009663D01*
X007089Y009512D01*
X006819Y009243D01*
X006669Y009243D01*
X006669Y009663D01*
X006669Y009622D02*
X006589Y009622D01*
X006589Y009663D02*
X006589Y009243D01*
X006438Y009243D01*
X006169Y009512D01*
X006169Y009663D01*
X006589Y009663D01*
X006589Y009701D02*
X005063Y009701D01*
X005063Y009779D02*
X006169Y009779D01*
X006169Y009858D02*
X005063Y009858D01*
X005063Y009936D02*
X006212Y009936D01*
X006291Y010015D02*
X005063Y010015D01*
X005063Y010094D02*
X006369Y010094D01*
X006589Y010094D02*
X006669Y010094D01*
X006669Y010015D02*
X006589Y010015D01*
X006589Y009936D02*
X006669Y009936D01*
X006669Y009858D02*
X006589Y009858D01*
X006589Y009779D02*
X006669Y009779D01*
X006669Y009544D02*
X006589Y009544D01*
X006589Y009465D02*
X006669Y009465D01*
X006669Y009387D02*
X006589Y009387D01*
X006589Y009308D02*
X006669Y009308D01*
X006885Y009308D02*
X007401Y009308D01*
X007323Y009387D02*
X006963Y009387D01*
X007042Y009465D02*
X007244Y009465D01*
X007189Y009544D02*
X007089Y009544D01*
X007089Y009622D02*
X007189Y009622D01*
X007090Y009073D02*
X005124Y009073D01*
X005063Y009151D02*
X007952Y009151D01*
X007892Y009073D02*
X007507Y009073D01*
X007856Y009308D02*
X008073Y009308D01*
X008013Y009230D02*
X005063Y009230D01*
X005063Y009308D02*
X006373Y009308D01*
X006294Y009387D02*
X005063Y009387D01*
X005063Y009465D02*
X006216Y009465D01*
X006169Y009544D02*
X005063Y009544D01*
X005063Y009622D02*
X006169Y009622D01*
X006380Y010329D02*
X005063Y010329D01*
X005063Y010251D02*
X007855Y010251D01*
X007933Y010172D02*
X005063Y010172D01*
X005063Y010408D02*
X006302Y010408D01*
X006223Y010486D02*
X005063Y010486D01*
X005063Y010565D02*
X006029Y010565D01*
X005951Y010643D02*
X005063Y010643D01*
X005063Y010722D02*
X005872Y010722D01*
X005794Y010800D02*
X005063Y010800D01*
X005063Y010879D02*
X005715Y010879D01*
X005637Y010958D02*
X005063Y010958D01*
X005063Y011036D02*
X005558Y011036D01*
X005480Y011115D02*
X005063Y011115D01*
X005063Y011193D02*
X005401Y011193D01*
X005323Y011272D02*
X005063Y011272D01*
X005063Y011350D02*
X005244Y011350D01*
X005177Y011429D02*
X005063Y011429D01*
X005063Y011507D02*
X005177Y011507D01*
X005177Y011586D02*
X005063Y011586D01*
X005063Y011664D02*
X005177Y011664D01*
X005177Y011743D02*
X005063Y011743D01*
X005063Y011822D02*
X005177Y011822D01*
X005177Y011900D02*
X005063Y011900D01*
X005063Y011979D02*
X005177Y011979D01*
X005177Y012057D02*
X005063Y012057D01*
X005063Y012136D02*
X005177Y012136D01*
X005177Y012214D02*
X005063Y012214D01*
X005063Y012293D02*
X005177Y012293D01*
X005177Y012371D02*
X005063Y012371D01*
X005063Y012450D02*
X005177Y012450D01*
X005177Y012528D02*
X005063Y012528D01*
X005063Y012607D02*
X005177Y012607D01*
X005177Y012686D02*
X005063Y012686D01*
X005063Y012764D02*
X005177Y012764D01*
X005177Y012843D02*
X005063Y012843D01*
X005063Y012921D02*
X005177Y012921D01*
X005177Y013000D02*
X005063Y013000D01*
X005063Y013078D02*
X005236Y013078D01*
X005314Y013157D02*
X005063Y013157D01*
X005063Y013235D02*
X005393Y013235D01*
X005471Y013314D02*
X005063Y013314D01*
X005063Y013392D02*
X005550Y013392D01*
X005629Y013471D02*
X005063Y013471D01*
X005087Y013549D02*
X005707Y013549D01*
X005786Y013628D02*
X005156Y013628D01*
X005189Y013707D02*
X005864Y013707D01*
X005943Y013785D02*
X005201Y013785D01*
X005201Y013864D02*
X006021Y013864D01*
X006100Y013942D02*
X005171Y013942D01*
X005123Y014021D02*
X006127Y014021D01*
X006127Y014099D02*
X005030Y014099D01*
X006118Y010703D02*
X006629Y010703D01*
X007860Y010094D02*
X008012Y010094D01*
X007939Y010015D02*
X008319Y010015D01*
X008240Y009936D02*
X008017Y009936D01*
X008069Y009858D02*
X008189Y009858D01*
X008189Y009779D02*
X008069Y009779D01*
X008069Y009701D02*
X008189Y009701D01*
X008189Y009622D02*
X008069Y009622D01*
X008069Y009544D02*
X008189Y009544D01*
X008194Y009465D02*
X008013Y009465D01*
X007935Y009387D02*
X008133Y009387D01*
X008939Y010015D02*
X008948Y010015D01*
X009017Y009936D02*
X009025Y009936D01*
X008963Y010408D02*
X008956Y010408D01*
X009034Y010486D02*
X009042Y010486D01*
X008302Y010408D02*
X008150Y010408D01*
X008223Y010486D02*
X008072Y010486D01*
X008069Y010565D02*
X008189Y010565D01*
X008189Y010643D02*
X008069Y010643D01*
X007022Y008601D02*
X005311Y008601D01*
X005311Y008523D02*
X007101Y008523D01*
X005477Y018655D02*
X005397Y018655D01*
D12*
X008937Y017303D03*
X007537Y015803D03*
X006287Y015803D03*
X004863Y013803D03*
X005937Y012403D03*
X006337Y012003D03*
X006937Y012003D03*
X007537Y012003D03*
X009237Y010203D03*
X011337Y010329D03*
X012537Y009603D03*
X012537Y008903D03*
X013627Y009603D03*
X014337Y009303D03*
X014937Y010329D03*
X014937Y011703D03*
X013937Y012703D03*
X011487Y013153D03*
X010437Y012003D03*
X011137Y014403D03*
X010637Y015403D03*
X009387Y014453D03*
X012237Y014903D03*
X013537Y014903D03*
X013337Y015603D03*
X013737Y016203D03*
X013737Y016903D03*
X014937Y016903D03*
X014937Y015603D03*
X017337Y014203D03*
X019637Y015648D03*
X019637Y017883D03*
X015637Y018903D03*
X015237Y019603D03*
X014037Y020203D03*
X012437Y017303D03*
X018811Y020703D03*
X019937Y020703D03*
X023137Y020703D03*
X024463Y020703D03*
X023737Y017883D03*
X021687Y012903D03*
X017237Y012103D03*
X024137Y007803D03*
X024837Y007803D03*
X025237Y008303D03*
X025237Y007303D03*
X023237Y005003D03*
X023637Y004603D03*
X014247Y005903D03*
X013057Y006003D03*
X012437Y006703D03*
X009937Y006103D03*
X007299Y008803D03*
X005111Y007403D03*
D13*
X021687Y008703D02*
X021687Y012503D01*
X021687Y008703D02*
X023237Y007153D01*
X023237Y005003D01*
D14*
X014937Y006593D02*
X014937Y010329D01*
X011337Y010329D01*
X008629Y009703D02*
X007937Y008803D01*
X007299Y008803D01*
X005111Y008803D01*
X004863Y009051D01*
X004863Y013803D01*
X005111Y008803D02*
X005111Y007403D01*
X014247Y005903D02*
X014937Y006593D01*
X014937Y011703D02*
X016137Y012903D01*
X021687Y012903D01*
X016237Y017003D02*
X016237Y019679D01*
X015712Y020203D01*
X014037Y020203D01*
X016237Y017003D02*
X014937Y015603D01*
X013337Y015603D01*
M02*
