%
M48
M72
T01C0.0236
T02C0.0400
T03C0.1300
%
T01
X9937Y6103
X12437Y6703
X13057Y6003
X14247Y5903
X12537Y8903
X12537Y9603
X13627Y9603
X14337Y9303
X14937Y10329
X14937Y11703
X13937Y12703
X11487Y13153
X10437Y12003
X11337Y10329
X9237Y10203
X7299Y8803
X5111Y7403
X6337Y12003
X5937Y12403
X6937Y12003
X7537Y12003
X4863Y13803
X6287Y15803
X7537Y15803
X9387Y14453
X10637Y15403
X11137Y14403
X12237Y14903
X13537Y14903
X13337Y15603
X13737Y16203
X13737Y16903
X14937Y16903
X14937Y15603
X17337Y14203
X19637Y15648
X19637Y17883
X15637Y18903
X15237Y19603
X14037Y20203
X12437Y17303
X8937Y17303
X17237Y12103
X21687Y12903
X25237Y8303
X24837Y7803
X25237Y7303
X24137Y7803
X23237Y5003
X23637Y4603
X23737Y17883
X23137Y20703
X24463Y20703
X19937Y20703
X18811Y20703
T02
X7437Y19203
X6437Y19203
X5437Y19203
X5437Y18203
X6437Y18203
X7437Y18203
X7629Y10703
X8629Y10703
X8629Y9703
X7629Y9703
X6629Y9703
X6629Y10703
T03
X3537Y5603
X3537Y20403
X27137Y20403
X27137Y5703
M30
