G75*
G70*
%OFA0B0*%
%FSLAX24Y24*%
%IPPOS*%
%LPD*%
%AMOC8*
5,1,8,0,0,1.08239X$1,22.5*
%
%ADD10R,0.0098X0.0256*%
%ADD11R,0.0256X0.0098*%
%ADD12R,0.0591X0.0512*%
%ADD13R,0.0512X0.0591*%
%ADD14OC8,0.0640*%
%ADD15R,0.0433X0.0748*%
%ADD16R,0.0453X0.0110*%
%ADD17R,0.0110X0.0453*%
%ADD18R,0.0260X0.0800*%
%ADD19R,0.0276X0.0394*%
%ADD20R,0.0145X0.0520*%
%ADD21R,0.0500X0.0200*%
%ADD22R,0.0200X0.0500*%
%ADD23R,0.0512X0.0098*%
%ADD24R,0.0098X0.0512*%
%ADD25R,0.0591X0.0197*%
%ADD26R,0.0197X0.0591*%
%ADD27R,0.1378X0.1378*%
%ADD28R,0.0197X0.0906*%
%ADD29R,0.0906X0.0197*%
%ADD30C,0.0080*%
%ADD31C,0.0100*%
%ADD32C,0.0120*%
%ADD33C,0.0436*%
%ADD34C,0.0160*%
D10*
X006948Y012728D03*
X007145Y012728D03*
X007341Y012728D03*
X007538Y012728D03*
X007735Y012728D03*
X007932Y012728D03*
X008129Y012728D03*
X008326Y012728D03*
X008326Y014677D03*
X008129Y014677D03*
X007932Y014677D03*
X007735Y014677D03*
X007538Y014677D03*
X007341Y014677D03*
X007145Y014677D03*
X006948Y014677D03*
D11*
X006662Y014392D03*
X006662Y014195D03*
X006662Y013998D03*
X006662Y013801D03*
X006662Y013604D03*
X006662Y013408D03*
X006662Y013211D03*
X006662Y013014D03*
X008611Y013014D03*
X008611Y013211D03*
X008611Y013408D03*
X008611Y013604D03*
X008611Y013801D03*
X008611Y013998D03*
X008611Y014195D03*
X008611Y014392D03*
D12*
X010437Y013777D03*
X010437Y013029D03*
X013837Y011277D03*
X013837Y010529D03*
X015737Y010329D03*
X016737Y010329D03*
X016737Y011077D03*
X015737Y011077D03*
X019937Y013629D03*
X020937Y013629D03*
X020937Y014377D03*
X019937Y014377D03*
X022237Y014377D03*
X023237Y014377D03*
X024237Y014377D03*
X024237Y013629D03*
X023237Y013629D03*
X022237Y013629D03*
X017037Y015329D03*
X017037Y016077D03*
X015837Y016077D03*
X015837Y015329D03*
X012037Y015729D03*
X012037Y016477D03*
X009797Y019729D03*
X009797Y020477D03*
X015337Y020329D03*
X015337Y021077D03*
X019937Y019977D03*
X019937Y019229D03*
X020937Y019229D03*
X020937Y019977D03*
X022337Y019977D03*
X022337Y019229D03*
X023337Y019229D03*
X023337Y019977D03*
X005687Y014677D03*
X005687Y013929D03*
X003984Y013929D03*
X003984Y014677D03*
X004337Y008177D03*
X003337Y008177D03*
X003337Y007429D03*
X004337Y007429D03*
X005111Y006077D03*
X005111Y005329D03*
X015137Y005129D03*
X015137Y005877D03*
X015937Y007469D03*
X016937Y007469D03*
X016937Y008217D03*
X015937Y008217D03*
D13*
X016063Y009243D03*
X016811Y009243D03*
X011511Y009303D03*
X010763Y009303D03*
X010763Y008303D03*
X011511Y008303D03*
X011511Y007303D03*
X010763Y007303D03*
X011163Y005003D03*
X011911Y005003D03*
X013063Y005003D03*
X013811Y005003D03*
X004811Y009903D03*
X004063Y009903D03*
X004813Y015803D03*
X005561Y015803D03*
X010363Y016303D03*
X011111Y016303D03*
X011111Y017303D03*
X010363Y017303D03*
X010363Y018303D03*
X011111Y018303D03*
X010823Y019603D03*
X011571Y019603D03*
X011571Y020603D03*
X010823Y020603D03*
X008211Y020503D03*
X007463Y020503D03*
X006411Y020503D03*
X005663Y020503D03*
X015763Y018103D03*
X016511Y018103D03*
X016363Y019103D03*
X017111Y019103D03*
X018063Y018883D03*
X018811Y018883D03*
X018811Y017883D03*
X018063Y017883D03*
X016511Y017103D03*
X015763Y017103D03*
X018063Y015648D03*
X018811Y015648D03*
X018811Y014648D03*
X018063Y014648D03*
X016611Y014203D03*
X015863Y014203D03*
X018063Y013648D03*
X018811Y013648D03*
X024463Y015648D03*
X025211Y015648D03*
X025211Y017883D03*
X024463Y017883D03*
X024463Y018883D03*
X025211Y018883D03*
X025211Y019883D03*
X024463Y019883D03*
X018811Y019883D03*
X018063Y019883D03*
X017111Y020103D03*
X016363Y020103D03*
D14*
X007437Y019203D03*
X006437Y019203D03*
X005437Y019203D03*
X005437Y018203D03*
X006437Y018203D03*
X007437Y018203D03*
X007629Y010703D03*
X008629Y010703D03*
X008629Y009703D03*
X007629Y009703D03*
X006629Y009703D03*
X006629Y010703D03*
D15*
X004889Y011174D03*
X003984Y011174D03*
X003984Y012631D03*
X004889Y012631D03*
D16*
X024489Y006389D03*
X024489Y006192D03*
X024489Y005995D03*
X024489Y005798D03*
X025765Y005798D03*
X025765Y005995D03*
X025765Y006192D03*
X025765Y006389D03*
D17*
X025423Y006731D03*
X025226Y006731D03*
X025029Y006731D03*
X024832Y006731D03*
X024832Y005456D03*
X025029Y005456D03*
X025226Y005456D03*
X025423Y005456D03*
D18*
X023187Y015648D03*
X022687Y015648D03*
X022187Y015648D03*
X021687Y015648D03*
X021187Y015648D03*
X020687Y015648D03*
X020187Y015648D03*
X020187Y017883D03*
X020687Y017883D03*
X021187Y017883D03*
X021687Y017883D03*
X022187Y017883D03*
X022687Y017883D03*
X023187Y017883D03*
D19*
X016611Y013115D03*
X016237Y013115D03*
X015863Y013115D03*
X015863Y012091D03*
X016237Y012091D03*
X016611Y012091D03*
D20*
X021032Y005943D03*
X021347Y005943D03*
X021662Y005943D03*
X021977Y005943D03*
X022292Y005943D03*
X022607Y005943D03*
X022922Y005943D03*
X023237Y005943D03*
D21*
X014817Y007083D03*
X014817Y007393D03*
X014817Y007703D03*
X014817Y008013D03*
X014817Y008323D03*
X013057Y008323D03*
X013057Y008013D03*
X013057Y007703D03*
X013057Y007393D03*
X013057Y007083D03*
X012957Y017883D03*
X012957Y018193D03*
X012957Y018503D03*
X012957Y018813D03*
X012957Y019123D03*
X014717Y019123D03*
X014717Y018813D03*
X014717Y018503D03*
X014717Y018193D03*
X014717Y017883D03*
D22*
X014147Y017623D03*
X013837Y017623D03*
X013527Y017623D03*
X013527Y019383D03*
X013837Y019383D03*
X014147Y019383D03*
X014247Y008583D03*
X013937Y008583D03*
X013627Y008583D03*
X013627Y006823D03*
X013937Y006823D03*
X014247Y006823D03*
D23*
X013726Y013308D03*
X013726Y013504D03*
X013726Y013701D03*
X013726Y013898D03*
X012348Y013898D03*
X012348Y013701D03*
X012348Y013504D03*
X012348Y013308D03*
D24*
X012741Y012914D03*
X012938Y012914D03*
X013135Y012914D03*
X013332Y012914D03*
X013332Y014292D03*
X013135Y014292D03*
X012938Y014292D03*
X012741Y014292D03*
D25*
X008936Y007348D03*
X008936Y007033D03*
X008936Y006718D03*
X008936Y006403D03*
X008936Y006088D03*
X008936Y005773D03*
X008936Y005458D03*
X006062Y005458D03*
X006062Y005773D03*
X006062Y006088D03*
X006062Y006403D03*
X006062Y006718D03*
X006062Y007033D03*
X006062Y007348D03*
D26*
X006554Y007840D03*
X006869Y007840D03*
X007184Y007840D03*
X007499Y007840D03*
X007814Y007840D03*
X008129Y007840D03*
X008444Y007840D03*
X008444Y004966D03*
X008129Y004966D03*
X007814Y004966D03*
X007499Y004966D03*
X007184Y004966D03*
X006869Y004966D03*
X006554Y004966D03*
D27*
X007499Y006403D03*
D28*
X016637Y006252D03*
X016637Y004953D03*
D29*
X014086Y020703D03*
X012787Y020703D03*
D30*
X002277Y021663D02*
X002277Y004343D01*
X017737Y004343D01*
X017737Y012503D01*
X018677Y012503D01*
X018677Y013233D01*
X018505Y013233D01*
X018437Y013301D01*
X018368Y013233D01*
X017757Y013233D01*
X017687Y013303D01*
X017687Y013993D01*
X017757Y014063D01*
X017903Y014063D01*
X017903Y014233D01*
X017757Y014233D01*
X017687Y014303D01*
X017687Y014993D01*
X017757Y015063D01*
X017903Y015063D01*
X017903Y015233D01*
X017757Y015233D01*
X017687Y015303D01*
X017687Y015993D01*
X017757Y016063D01*
X017903Y016063D01*
X017903Y016394D01*
X017996Y016488D01*
X018129Y016488D01*
X020753Y016488D01*
X020847Y016394D01*
X020847Y016262D01*
X020847Y016168D01*
X020866Y016168D01*
X020937Y016098D01*
X020937Y015198D01*
X021007Y015128D01*
X021027Y015128D01*
X021027Y014753D01*
X020592Y014753D01*
X020521Y014682D01*
X020521Y014537D01*
X020352Y014537D01*
X020352Y014682D01*
X020282Y014753D01*
X019592Y014753D01*
X019521Y014682D01*
X019521Y014071D01*
X019590Y014003D01*
X019521Y013934D01*
X019521Y013323D01*
X019592Y013253D01*
X019777Y013253D01*
X019777Y013163D01*
X019103Y013163D01*
X018997Y013163D01*
X018997Y013233D01*
X019116Y013233D01*
X019187Y013303D01*
X019187Y013993D01*
X019116Y014063D01*
X018505Y014063D01*
X018437Y013995D01*
X018368Y014063D01*
X018223Y014063D01*
X018223Y014233D01*
X018368Y014233D01*
X018437Y014301D01*
X018505Y014233D01*
X019116Y014233D01*
X019187Y014303D01*
X019187Y014993D01*
X019116Y015063D01*
X018971Y015063D01*
X018971Y015233D01*
X019116Y015233D01*
X019187Y015303D01*
X019187Y015488D01*
X019337Y015488D01*
X019350Y015456D01*
X019445Y015361D01*
X019569Y015310D01*
X019704Y015310D01*
X019828Y015361D01*
X019923Y015456D01*
X019936Y015488D01*
X019937Y015488D01*
X019937Y015198D01*
X020007Y015128D01*
X020366Y015128D01*
X020437Y015198D01*
X020507Y015128D01*
X020866Y015128D01*
X020937Y015198D01*
X020937Y016098D01*
X021007Y016168D01*
X021277Y016168D01*
X021277Y016637D01*
X021277Y016769D01*
X021370Y016863D01*
X021777Y016863D01*
X021777Y017343D01*
X021712Y017343D01*
X021712Y017858D01*
X021662Y017858D01*
X021662Y017343D01*
X021499Y017343D01*
X021423Y017419D01*
X021366Y017363D01*
X021007Y017363D01*
X020937Y017433D01*
X020937Y018333D01*
X021007Y018403D01*
X021027Y018403D01*
X021027Y018853D01*
X020592Y018853D01*
X020521Y018923D01*
X020521Y019069D01*
X020352Y019069D01*
X020352Y018923D01*
X020282Y018853D01*
X019592Y018853D01*
X019521Y018923D01*
X019521Y019534D01*
X019590Y019603D01*
X019521Y019671D01*
X019521Y020282D01*
X019592Y020353D01*
X019777Y020353D01*
X019777Y020403D01*
X019745Y020416D01*
X019650Y020511D01*
X019599Y020636D01*
X019599Y020770D01*
X019650Y020894D01*
X019745Y020989D01*
X019869Y021041D01*
X020004Y021041D01*
X020128Y020989D01*
X020223Y020894D01*
X020275Y020770D01*
X020275Y020636D01*
X020223Y020511D01*
X020128Y020416D01*
X020097Y020403D01*
X020097Y020353D01*
X020282Y020353D01*
X020352Y020282D01*
X020352Y019671D01*
X020284Y019603D01*
X020352Y019534D01*
X020352Y019389D01*
X020521Y019389D01*
X020521Y019534D01*
X020590Y019603D01*
X020521Y019671D01*
X020521Y020282D01*
X020592Y020353D01*
X021282Y020353D01*
X021352Y020282D01*
X021352Y020137D01*
X021570Y020137D01*
X021921Y020137D01*
X021921Y020282D01*
X021992Y020353D01*
X022682Y020353D01*
X022752Y020282D01*
X022752Y019671D01*
X022684Y019603D01*
X022752Y019534D01*
X022752Y019389D01*
X022921Y019389D01*
X022921Y019534D01*
X022990Y019603D01*
X022921Y019671D01*
X022921Y020282D01*
X022992Y020353D01*
X023177Y020353D01*
X023177Y020365D01*
X023069Y020365D01*
X022945Y020416D01*
X022850Y020511D01*
X022799Y020636D01*
X022799Y020770D01*
X022850Y020894D01*
X022945Y020989D01*
X023069Y021041D01*
X023204Y021041D01*
X023328Y020989D01*
X023423Y020894D01*
X023475Y020770D01*
X023475Y020636D01*
X023462Y020604D01*
X023497Y020569D01*
X023497Y020353D01*
X023682Y020353D01*
X023752Y020282D01*
X023752Y019671D01*
X023684Y019603D01*
X023752Y019534D01*
X023752Y018923D01*
X023682Y018853D01*
X022992Y018853D01*
X022921Y018923D01*
X022921Y019069D01*
X022752Y019069D01*
X022752Y018923D01*
X022682Y018853D01*
X022347Y018853D01*
X022347Y018403D01*
X022366Y018403D01*
X022437Y018333D01*
X022437Y017433D01*
X022507Y017363D01*
X022527Y017363D01*
X022527Y017269D01*
X022527Y017137D01*
X022620Y017043D01*
X025144Y017043D01*
X025277Y017043D01*
X025371Y017137D01*
X025371Y017468D01*
X025516Y017468D01*
X025587Y017538D01*
X025587Y018228D01*
X025516Y018298D01*
X025371Y018298D01*
X025371Y018468D01*
X025516Y018468D01*
X025587Y018538D01*
X025587Y019228D01*
X025516Y019298D01*
X025371Y019298D01*
X025371Y019468D01*
X025516Y019468D01*
X025587Y019538D01*
X025587Y020228D01*
X025516Y020298D01*
X024905Y020298D01*
X024837Y020230D01*
X024768Y020298D01*
X024623Y020298D01*
X024623Y020403D01*
X024654Y020416D01*
X024749Y020511D01*
X024801Y020636D01*
X024801Y020770D01*
X024749Y020894D01*
X024654Y020989D01*
X024530Y021041D01*
X024395Y021041D01*
X024271Y020989D01*
X024176Y020894D01*
X024125Y020770D01*
X024125Y020636D01*
X024176Y020511D01*
X024271Y020416D01*
X024303Y020403D01*
X024303Y020298D01*
X024157Y020298D01*
X024087Y020228D01*
X024087Y019538D01*
X024157Y019468D01*
X024768Y019468D01*
X024837Y019536D01*
X024905Y019468D01*
X025051Y019468D01*
X025051Y019298D01*
X024905Y019298D01*
X024837Y019230D01*
X024768Y019298D01*
X024157Y019298D01*
X024087Y019228D01*
X024087Y018538D01*
X024157Y018468D01*
X024303Y018468D01*
X024303Y018298D01*
X024157Y018298D01*
X024087Y018228D01*
X024087Y018043D01*
X024036Y018043D01*
X024023Y018074D01*
X023928Y018169D01*
X023804Y018221D01*
X023669Y018221D01*
X023545Y018169D01*
X023450Y018074D01*
X023437Y018043D01*
X023437Y018043D01*
X023437Y018333D01*
X023366Y018403D01*
X023007Y018403D01*
X022937Y018333D01*
X022937Y017433D01*
X023007Y017363D01*
X023366Y017363D01*
X023437Y017433D01*
X023437Y017723D01*
X023450Y017691D01*
X023545Y017596D01*
X023669Y017545D01*
X023804Y017545D01*
X023928Y017596D01*
X024023Y017691D01*
X024036Y017723D01*
X024087Y017723D01*
X024087Y017538D01*
X024157Y017468D01*
X024768Y017468D01*
X024837Y017536D01*
X024905Y017468D01*
X025051Y017468D01*
X025051Y017363D01*
X022847Y017363D01*
X022866Y017363D01*
X022937Y017433D01*
X022937Y018333D01*
X022866Y018403D01*
X022507Y018403D01*
X022437Y018333D01*
X022437Y017433D01*
X022366Y017363D01*
X022097Y017363D01*
X022097Y016863D01*
X022753Y016863D01*
X022847Y016769D01*
X022847Y016637D01*
X022847Y016168D01*
X022866Y016168D01*
X022937Y016098D01*
X022937Y015808D01*
X022937Y015808D01*
X022937Y016098D01*
X023007Y016168D01*
X023366Y016168D01*
X023437Y016098D01*
X023437Y015808D01*
X024087Y015808D01*
X024087Y015993D01*
X024157Y016063D01*
X024768Y016063D01*
X024823Y016009D01*
X024897Y016083D01*
X025171Y016083D01*
X025171Y015688D01*
X025251Y015688D01*
X025607Y015688D01*
X025607Y016001D01*
X025525Y016083D01*
X025251Y016083D01*
X025251Y015688D01*
X025251Y015608D01*
X025607Y015608D01*
X025607Y015295D01*
X025525Y015213D01*
X025251Y015213D01*
X025251Y015608D01*
X025171Y015608D01*
X025171Y015213D01*
X024897Y015213D01*
X024823Y015287D01*
X024768Y015233D01*
X024157Y015233D01*
X024087Y015303D01*
X024087Y015488D01*
X023437Y015488D01*
X023437Y015198D01*
X023366Y015128D01*
X023007Y015128D01*
X022937Y015198D01*
X022937Y015488D01*
X022937Y015488D01*
X022937Y015198D01*
X022866Y015128D01*
X022507Y015128D01*
X022437Y015198D01*
X022437Y016098D01*
X022507Y016168D01*
X022527Y016168D01*
X022527Y016543D01*
X021597Y016543D01*
X021597Y016168D01*
X021866Y016168D01*
X021937Y016098D01*
X021937Y015198D01*
X022007Y015128D01*
X022027Y015128D01*
X022027Y014753D01*
X021892Y014753D01*
X021887Y014748D01*
X021887Y015148D01*
X021937Y015198D01*
X021937Y016098D01*
X022007Y016168D01*
X022366Y016168D01*
X022437Y016098D01*
X022437Y015198D01*
X022366Y015128D01*
X022347Y015128D01*
X022347Y014753D01*
X022582Y014753D01*
X022652Y014682D01*
X022652Y014537D01*
X022821Y014537D01*
X022821Y014682D01*
X022892Y014753D01*
X023582Y014753D01*
X023652Y014682D01*
X023652Y014537D01*
X023821Y014537D01*
X023821Y014682D01*
X023892Y014753D01*
X024582Y014753D01*
X024652Y014682D01*
X024652Y014071D01*
X024598Y014017D01*
X024672Y013943D01*
X024672Y013669D01*
X024277Y013669D01*
X024277Y013589D01*
X024672Y013589D01*
X024672Y013315D01*
X024590Y013233D01*
X024277Y013233D01*
X024277Y013589D01*
X024197Y013589D01*
X024197Y013233D01*
X023883Y013233D01*
X023801Y013315D01*
X023801Y013589D01*
X024197Y013589D01*
X024197Y013669D01*
X023801Y013669D01*
X023801Y013943D01*
X023876Y014017D01*
X023821Y014071D01*
X023821Y014217D01*
X023652Y014217D01*
X023652Y014071D01*
X023598Y014017D01*
X023672Y013943D01*
X023672Y013669D01*
X023277Y013669D01*
X023277Y013589D01*
X023672Y013589D01*
X023672Y013315D01*
X023590Y013233D01*
X023277Y013233D01*
X023277Y013589D01*
X023197Y013589D01*
X023197Y013233D01*
X022883Y013233D01*
X022801Y013315D01*
X022801Y013589D01*
X023197Y013589D01*
X023197Y013669D01*
X022801Y013669D01*
X022801Y013943D01*
X022876Y014017D01*
X022821Y014071D01*
X022821Y014217D01*
X022652Y014217D01*
X022652Y014071D01*
X022584Y014003D01*
X022652Y013934D01*
X022652Y013323D01*
X022582Y013253D01*
X021892Y013253D01*
X021887Y013258D01*
X021887Y013181D01*
X021973Y013094D01*
X022025Y012970D01*
X022025Y012836D01*
X021973Y012711D01*
X021878Y012616D01*
X021857Y012607D01*
X028397Y012607D01*
X028397Y012686D02*
X021948Y012686D01*
X021995Y012764D02*
X028397Y012764D01*
X028397Y012843D02*
X022025Y012843D01*
X022025Y012921D02*
X028397Y012921D01*
X028397Y013000D02*
X022013Y013000D01*
X021980Y013078D02*
X028397Y013078D01*
X028397Y013157D02*
X021911Y013157D01*
X021887Y013235D02*
X022881Y013235D01*
X022802Y013314D02*
X022643Y013314D01*
X022652Y013392D02*
X022801Y013392D01*
X022801Y013471D02*
X022652Y013471D01*
X022652Y013549D02*
X022801Y013549D01*
X022801Y013707D02*
X022652Y013707D01*
X022652Y013785D02*
X022801Y013785D01*
X022801Y013864D02*
X022652Y013864D01*
X022644Y013942D02*
X022801Y013942D01*
X022872Y014021D02*
X022601Y014021D01*
X022652Y014099D02*
X022821Y014099D01*
X022821Y014178D02*
X022652Y014178D01*
X022237Y014377D02*
X022187Y014377D01*
X022187Y015648D01*
X022437Y015670D02*
X022437Y015670D01*
X022437Y015592D02*
X022437Y015592D01*
X022437Y015513D02*
X022437Y015513D01*
X022437Y015435D02*
X022437Y015435D01*
X022437Y015356D02*
X022437Y015356D01*
X022437Y015277D02*
X022437Y015277D01*
X022437Y015199D02*
X022437Y015199D01*
X022347Y015120D02*
X028397Y015120D01*
X028397Y015042D02*
X022347Y015042D01*
X022347Y014963D02*
X028397Y014963D01*
X028397Y014885D02*
X022347Y014885D01*
X022347Y014806D02*
X028397Y014806D01*
X028397Y014728D02*
X024607Y014728D01*
X024652Y014649D02*
X028397Y014649D01*
X028397Y014571D02*
X024652Y014571D01*
X024652Y014492D02*
X028397Y014492D01*
X028397Y014413D02*
X024652Y014413D01*
X024652Y014335D02*
X028397Y014335D01*
X028397Y014256D02*
X024652Y014256D01*
X024652Y014178D02*
X028397Y014178D01*
X028397Y014099D02*
X024652Y014099D01*
X024601Y014021D02*
X028397Y014021D01*
X028397Y013942D02*
X024672Y013942D01*
X024672Y013864D02*
X028397Y013864D01*
X028397Y013785D02*
X024672Y013785D01*
X024672Y013707D02*
X028397Y013707D01*
X028397Y013628D02*
X024277Y013628D01*
X024277Y013549D02*
X024197Y013549D01*
X024197Y013471D02*
X024277Y013471D01*
X024277Y013392D02*
X024197Y013392D01*
X024197Y013314D02*
X024277Y013314D01*
X024277Y013235D02*
X024197Y013235D01*
X023881Y013235D02*
X023592Y013235D01*
X023671Y013314D02*
X023802Y013314D01*
X023801Y013392D02*
X023672Y013392D01*
X023672Y013471D02*
X023801Y013471D01*
X023801Y013549D02*
X023672Y013549D01*
X023672Y013707D02*
X023801Y013707D01*
X023801Y013785D02*
X023672Y013785D01*
X023672Y013864D02*
X023801Y013864D01*
X023801Y013942D02*
X023672Y013942D01*
X023601Y014021D02*
X023872Y014021D01*
X023821Y014099D02*
X023652Y014099D01*
X023652Y014178D02*
X023821Y014178D01*
X024237Y014377D02*
X023237Y014377D01*
X022237Y014377D01*
X022652Y014571D02*
X022821Y014571D01*
X022821Y014649D02*
X022652Y014649D01*
X022607Y014728D02*
X022867Y014728D01*
X022937Y015199D02*
X022937Y015199D01*
X022937Y015277D02*
X022937Y015277D01*
X022937Y015356D02*
X022937Y015356D01*
X022937Y015435D02*
X022937Y015435D01*
X022687Y015648D02*
X023187Y015648D01*
X024463Y015648D01*
X024087Y015827D02*
X023437Y015827D01*
X023437Y015906D02*
X024087Y015906D01*
X024087Y015984D02*
X023437Y015984D01*
X023437Y016063D02*
X024157Y016063D01*
X024768Y016063D02*
X024877Y016063D01*
X025171Y016063D02*
X025251Y016063D01*
X025251Y015984D02*
X025171Y015984D01*
X025171Y015906D02*
X025251Y015906D01*
X025251Y015827D02*
X025171Y015827D01*
X025171Y015749D02*
X025251Y015749D01*
X025251Y015670D02*
X028397Y015670D01*
X028397Y015592D02*
X025607Y015592D01*
X025607Y015513D02*
X028397Y015513D01*
X028397Y015435D02*
X025607Y015435D01*
X025607Y015356D02*
X028397Y015356D01*
X028397Y015277D02*
X025589Y015277D01*
X025251Y015277D02*
X025171Y015277D01*
X025171Y015356D02*
X025251Y015356D01*
X025251Y015435D02*
X025171Y015435D01*
X025171Y015513D02*
X025251Y015513D01*
X025251Y015592D02*
X025171Y015592D01*
X024832Y015277D02*
X024813Y015277D01*
X024112Y015277D02*
X023437Y015277D01*
X023437Y015199D02*
X028397Y015199D01*
X028397Y015749D02*
X025607Y015749D01*
X025607Y015827D02*
X028397Y015827D01*
X028397Y015906D02*
X025607Y015906D01*
X025607Y015984D02*
X028397Y015984D01*
X028397Y016063D02*
X025545Y016063D01*
X024087Y015435D02*
X023437Y015435D01*
X023437Y015356D02*
X024087Y015356D01*
X023867Y014728D02*
X023607Y014728D01*
X023652Y014649D02*
X023821Y014649D01*
X023821Y014571D02*
X023652Y014571D01*
X022687Y015648D02*
X022687Y016703D01*
X021937Y016703D01*
X021937Y018703D01*
X021637Y019003D01*
X021637Y019977D01*
X022337Y019977D01*
X021921Y020147D02*
X021352Y020147D01*
X021352Y020226D02*
X021921Y020226D01*
X021943Y020304D02*
X021330Y020304D01*
X021637Y019977D02*
X020937Y019977D01*
X020521Y019990D02*
X020352Y019990D01*
X020352Y019911D02*
X020521Y019911D01*
X020521Y019833D02*
X020352Y019833D01*
X020352Y019754D02*
X020521Y019754D01*
X020521Y019676D02*
X020352Y019676D01*
X020289Y019597D02*
X020584Y019597D01*
X020521Y019519D02*
X020352Y019519D01*
X020352Y019440D02*
X020521Y019440D01*
X020937Y019229D02*
X021187Y019229D01*
X021187Y017883D01*
X020937Y017869D02*
X020937Y017869D01*
X020937Y017791D02*
X020937Y017791D01*
X020937Y017712D02*
X020937Y017712D01*
X020937Y017634D02*
X020937Y017634D01*
X020937Y017555D02*
X020937Y017555D01*
X020937Y017477D02*
X020937Y017477D01*
X020937Y017433D02*
X020937Y018333D01*
X020866Y018403D01*
X020507Y018403D01*
X020437Y018333D01*
X020437Y017433D01*
X020507Y017363D01*
X020527Y017363D01*
X020527Y017363D01*
X018223Y017363D01*
X018223Y017468D01*
X018368Y017468D01*
X018437Y017536D01*
X018505Y017468D01*
X019116Y017468D01*
X019187Y017538D01*
X019187Y017723D01*
X019337Y017723D01*
X019350Y017691D01*
X019445Y017596D01*
X019569Y017545D01*
X019704Y017545D01*
X019828Y017596D01*
X019923Y017691D01*
X019936Y017723D01*
X019937Y017723D01*
X019937Y017433D01*
X020007Y017363D01*
X020366Y017363D01*
X020437Y017433D01*
X020437Y018333D01*
X020366Y018403D01*
X020007Y018403D01*
X019937Y018333D01*
X019937Y018043D01*
X019936Y018043D01*
X019923Y018074D01*
X019828Y018169D01*
X019704Y018221D01*
X019569Y018221D01*
X019445Y018169D01*
X019350Y018074D01*
X019337Y018043D01*
X019187Y018043D01*
X019187Y018228D01*
X019116Y018298D01*
X018971Y018298D01*
X018971Y018468D01*
X019116Y018468D01*
X019187Y018538D01*
X019187Y019228D01*
X019116Y019298D01*
X018505Y019298D01*
X018437Y019230D01*
X018368Y019298D01*
X018223Y019298D01*
X018223Y019468D01*
X018368Y019468D01*
X018437Y019536D01*
X018505Y019468D01*
X019116Y019468D01*
X019187Y019538D01*
X019187Y020228D01*
X019116Y020298D01*
X018971Y020298D01*
X018971Y020403D01*
X019002Y020416D01*
X019097Y020511D01*
X019149Y020636D01*
X019149Y020770D01*
X019097Y020894D01*
X019002Y020989D01*
X018878Y021041D01*
X018743Y021041D01*
X018619Y020989D01*
X018524Y020894D01*
X018473Y020770D01*
X018473Y020636D01*
X018524Y020511D01*
X018619Y020416D01*
X018651Y020403D01*
X018651Y020298D01*
X018505Y020298D01*
X018437Y020230D01*
X018368Y020298D01*
X017757Y020298D01*
X017687Y020228D01*
X017687Y019538D01*
X017757Y019468D01*
X017903Y019468D01*
X017903Y019298D01*
X017757Y019298D01*
X017687Y019228D01*
X017687Y018538D01*
X017757Y018468D01*
X017903Y018468D01*
X017903Y018298D01*
X017757Y018298D01*
X017687Y018228D01*
X017687Y017538D01*
X017757Y017468D01*
X017903Y017468D01*
X017903Y017137D01*
X017996Y017043D01*
X018129Y017043D01*
X020753Y017043D01*
X020847Y017137D01*
X020847Y017269D01*
X020847Y017363D01*
X020866Y017363D01*
X020937Y017433D01*
X020902Y017398D02*
X020972Y017398D01*
X020847Y017320D02*
X021777Y017320D01*
X021777Y017241D02*
X020847Y017241D01*
X020847Y017162D02*
X021777Y017162D01*
X021777Y017084D02*
X020794Y017084D01*
X020687Y017203D02*
X018063Y017203D01*
X018063Y017883D01*
X018063Y018883D01*
X018063Y019883D01*
X017687Y019911D02*
X017507Y019911D01*
X017507Y019833D02*
X017687Y019833D01*
X017687Y019754D02*
X017507Y019754D01*
X017507Y019750D02*
X017507Y020063D01*
X017151Y020063D01*
X017151Y020143D01*
X017507Y020143D01*
X017507Y020456D01*
X017425Y020538D01*
X017151Y020538D01*
X017151Y020143D01*
X017071Y020143D01*
X017071Y020538D01*
X016797Y020538D01*
X016723Y020464D01*
X016668Y020518D01*
X016057Y020518D01*
X015987Y020448D01*
X015987Y019953D01*
X015796Y019763D01*
X015536Y019763D01*
X015523Y019794D01*
X015428Y019889D01*
X015304Y019941D01*
X015169Y019941D01*
X015045Y019889D01*
X014950Y019794D01*
X014899Y019670D01*
X014899Y019536D01*
X014950Y019411D01*
X015045Y019316D01*
X015067Y019307D01*
X015059Y019300D01*
X015016Y019343D01*
X014417Y019343D01*
X014367Y019292D01*
X014367Y019683D01*
X014296Y019753D01*
X013997Y019753D01*
X013992Y019747D01*
X013986Y019753D01*
X013727Y019753D01*
X013727Y020003D01*
X013759Y020003D01*
X013845Y019916D01*
X013969Y019865D01*
X014104Y019865D01*
X014228Y019916D01*
X014315Y020003D01*
X014942Y020003D01*
X014992Y019953D01*
X015682Y019953D01*
X015752Y020023D01*
X015752Y020634D01*
X015698Y020689D01*
X015772Y020763D01*
X015772Y021037D01*
X015377Y021037D01*
X015377Y021117D01*
X015772Y021117D01*
X015772Y021391D01*
X015690Y021473D01*
X015377Y021473D01*
X015377Y021117D01*
X015297Y021117D01*
X015297Y021473D01*
X014983Y021473D01*
X014901Y021391D01*
X014901Y021117D01*
X015297Y021117D01*
X015297Y021037D01*
X014901Y021037D01*
X014901Y020763D01*
X014976Y020689D01*
X014921Y020634D01*
X014921Y020403D01*
X014315Y020403D01*
X014237Y020481D01*
X014237Y020484D01*
X014589Y020484D01*
X014659Y020555D01*
X014659Y020851D01*
X014589Y020921D01*
X013584Y020921D01*
X013514Y020851D01*
X013514Y020555D01*
X013584Y020484D01*
X013837Y020484D01*
X013837Y020481D01*
X013759Y020403D01*
X013610Y020403D01*
X013444Y020403D01*
X013327Y020286D01*
X013327Y019702D01*
X013307Y019683D01*
X013307Y019321D01*
X013265Y019363D01*
X012967Y019363D01*
X012967Y019133D01*
X012947Y019133D01*
X012947Y019363D01*
X012649Y019363D01*
X012567Y019281D01*
X012567Y019133D01*
X012946Y019133D01*
X012946Y019113D01*
X012567Y019113D01*
X012567Y018973D01*
X012197Y018973D01*
X012197Y019669D01*
X012103Y019763D01*
X011970Y019763D01*
X011947Y019763D01*
X011947Y019948D01*
X011876Y020018D01*
X011731Y020018D01*
X011731Y020188D01*
X011876Y020188D01*
X011947Y020258D01*
X011947Y020948D01*
X011876Y021018D01*
X011265Y021018D01*
X011197Y020950D01*
X011128Y021018D01*
X010517Y021018D01*
X010447Y020948D01*
X010447Y020763D01*
X010212Y020763D01*
X010212Y020782D01*
X010142Y020853D01*
X009452Y020853D01*
X009381Y020782D01*
X009381Y020171D01*
X009450Y020103D01*
X009381Y020034D01*
X009381Y019423D01*
X009452Y019353D01*
X010142Y019353D01*
X010212Y019423D01*
X010212Y019443D01*
X010447Y019443D01*
X010447Y019258D01*
X010517Y019188D01*
X010663Y019188D01*
X010663Y018937D01*
X010756Y018843D01*
X010889Y018843D01*
X011577Y018843D01*
X011577Y018569D01*
X011577Y018437D01*
X011660Y018353D01*
X011487Y018353D01*
X011487Y018648D01*
X011416Y018718D01*
X010805Y018718D01*
X010737Y018650D01*
X010668Y018718D01*
X010057Y018718D01*
X009987Y018648D01*
X009987Y017958D01*
X010057Y017888D01*
X010203Y017888D01*
X010203Y017718D01*
X010057Y017718D01*
X009987Y017648D01*
X009987Y016958D01*
X010057Y016888D01*
X010203Y016888D01*
X010203Y016718D01*
X010057Y016718D01*
X009987Y016648D01*
X009987Y015958D01*
X010057Y015888D01*
X010668Y015888D01*
X010737Y015956D01*
X010805Y015888D01*
X011416Y015888D01*
X011487Y015958D01*
X011487Y016117D01*
X011676Y016117D01*
X011601Y016043D01*
X011601Y015769D01*
X011997Y015769D01*
X011997Y015689D01*
X012077Y015689D01*
X012077Y015769D01*
X012472Y015769D01*
X012472Y016043D01*
X012398Y016117D01*
X012577Y016117D01*
X012577Y014602D01*
X012572Y014597D01*
X012572Y014067D01*
X012042Y014067D01*
X012038Y014063D01*
X011686Y014063D01*
X011553Y014063D01*
X010903Y013413D01*
X010903Y013280D01*
X010903Y012910D01*
X010997Y012816D01*
X011577Y012237D01*
X011577Y011540D01*
X011670Y011447D01*
X012377Y010740D01*
X012377Y009902D01*
X012345Y009889D01*
X012250Y009794D01*
X012199Y009670D01*
X012199Y009536D01*
X012250Y009411D01*
X012345Y009316D01*
X012469Y009265D01*
X012604Y009265D01*
X012728Y009316D01*
X012823Y009411D01*
X012875Y009536D01*
X012875Y009670D01*
X012823Y009794D01*
X012728Y009889D01*
X012697Y009902D01*
X012697Y010737D01*
X012897Y010537D01*
X012897Y008543D01*
X012757Y008543D01*
X012697Y008483D01*
X011887Y008483D01*
X011887Y008648D01*
X011816Y008718D01*
X011205Y008718D01*
X011137Y008650D01*
X011068Y008718D01*
X010923Y008718D01*
X010923Y008888D01*
X011068Y008888D01*
X011137Y008956D01*
X011205Y008888D01*
X011700Y008888D01*
X011844Y008743D01*
X011977Y008743D01*
X012237Y008743D01*
X012250Y008711D01*
X012345Y008616D01*
X012469Y008565D01*
X012604Y008565D01*
X012728Y008616D01*
X012823Y008711D01*
X012875Y008836D01*
X012875Y008970D01*
X012823Y009094D01*
X012728Y009189D01*
X012604Y009241D01*
X012469Y009241D01*
X012345Y009189D01*
X012250Y009094D01*
X012237Y009063D01*
X011977Y009063D01*
X011887Y009153D01*
X011887Y009648D01*
X011816Y009718D01*
X011205Y009718D01*
X011137Y009650D01*
X011068Y009718D01*
X010457Y009718D01*
X010387Y009648D01*
X010387Y008958D01*
X010457Y008888D01*
X010603Y008888D01*
X010603Y008718D01*
X010457Y008718D01*
X010387Y008648D01*
X010387Y007958D01*
X010457Y007888D01*
X010603Y007888D01*
X010603Y007718D01*
X010457Y007718D01*
X010387Y007648D01*
X010387Y006958D01*
X010457Y006888D01*
X011068Y006888D01*
X011137Y006956D01*
X011205Y006888D01*
X011816Y006888D01*
X011887Y006958D01*
X011887Y007452D01*
X012287Y007853D01*
X012584Y007853D01*
X012500Y007769D01*
X012277Y007546D01*
X012277Y007413D01*
X012277Y007003D01*
X012245Y006989D01*
X012150Y006894D01*
X012099Y006770D01*
X012099Y006636D01*
X012150Y006511D01*
X012245Y006416D01*
X012277Y006403D01*
X012277Y005595D01*
X012100Y005418D01*
X011605Y005418D01*
X011551Y005364D01*
X011477Y005438D01*
X011203Y005438D01*
X011203Y005043D01*
X011123Y005043D01*
X011123Y005438D01*
X010849Y005438D01*
X010767Y005356D01*
X010767Y005043D01*
X011123Y005043D01*
X011123Y004963D01*
X011203Y004963D01*
X011203Y004568D01*
X011477Y004568D01*
X011551Y004642D01*
X011605Y004588D01*
X012216Y004588D01*
X012287Y004658D01*
X012287Y005152D01*
X012503Y005369D01*
X012597Y005463D01*
X012597Y006403D01*
X012628Y006416D01*
X012723Y006511D01*
X012775Y006636D01*
X012775Y006770D01*
X012723Y006894D01*
X012628Y006989D01*
X012597Y007003D01*
X012597Y007413D01*
X012667Y007483D01*
X012667Y007403D01*
X013046Y007403D01*
X013046Y007383D01*
X012667Y007383D01*
X012667Y007235D01*
X012687Y007215D01*
X012687Y006933D01*
X012757Y006863D01*
X012897Y006863D01*
X012897Y006302D01*
X012865Y006289D01*
X012770Y006194D01*
X012719Y006070D01*
X012719Y005936D01*
X012770Y005811D01*
X012865Y005716D01*
X012897Y005703D01*
X012897Y005418D01*
X012757Y005418D01*
X012687Y005348D01*
X012687Y004658D01*
X012757Y004588D01*
X013368Y004588D01*
X013423Y004642D01*
X013497Y004568D01*
X013771Y004568D01*
X013771Y004963D01*
X013851Y004963D01*
X013851Y005043D01*
X014207Y005043D01*
X014207Y005356D01*
X014125Y005438D01*
X013851Y005438D01*
X013851Y005043D01*
X013771Y005043D01*
X013771Y005438D01*
X013497Y005438D01*
X013423Y005364D01*
X013368Y005418D01*
X013217Y005418D01*
X013217Y005703D01*
X013248Y005716D01*
X013343Y005811D01*
X013395Y005936D01*
X013395Y006070D01*
X013343Y006194D01*
X013248Y006289D01*
X013217Y006302D01*
X013217Y006863D01*
X013356Y006863D01*
X013407Y006913D01*
X013407Y006523D01*
X013477Y006453D01*
X013776Y006453D01*
X013782Y006458D01*
X013787Y006453D01*
X014047Y006453D01*
X014047Y006181D01*
X013960Y006094D01*
X013909Y005970D01*
X013909Y005836D01*
X013960Y005711D01*
X014055Y005616D01*
X014179Y005565D01*
X014314Y005565D01*
X014438Y005616D01*
X014499Y005677D01*
X014721Y005677D01*
X014721Y005571D01*
X014776Y005517D01*
X014701Y005443D01*
X014701Y005169D01*
X015097Y005169D01*
X015097Y005089D01*
X015177Y005089D01*
X015177Y005169D01*
X015572Y005169D01*
X015572Y005443D01*
X015498Y005517D01*
X015552Y005571D01*
X015552Y005677D01*
X016554Y005677D01*
X016720Y005677D01*
X016722Y005680D01*
X016785Y005680D01*
X016855Y005750D01*
X016855Y006755D01*
X016785Y006825D01*
X016489Y006825D01*
X016418Y006755D01*
X016418Y006077D01*
X015552Y006077D01*
X015552Y006182D01*
X015482Y006253D01*
X014792Y006253D01*
X014721Y006182D01*
X014721Y006077D01*
X014541Y006077D01*
X014533Y006094D01*
X014447Y006181D01*
X014447Y006503D01*
X014467Y006523D01*
X014467Y006885D01*
X014509Y006843D01*
X014807Y006843D01*
X014807Y007073D01*
X014827Y007073D01*
X014827Y007093D01*
X015207Y007093D01*
X015207Y007233D01*
X015521Y007233D01*
X015521Y007163D01*
X015592Y007093D01*
X016282Y007093D01*
X016352Y007163D01*
X016352Y007309D01*
X016521Y007309D01*
X016521Y007163D01*
X016592Y007093D01*
X017282Y007093D01*
X017352Y007163D01*
X017352Y007774D01*
X017284Y007843D01*
X017352Y007911D01*
X017352Y008522D01*
X017282Y008593D01*
X017097Y008593D01*
X017097Y008828D01*
X017116Y008828D01*
X017187Y008898D01*
X017187Y009588D01*
X017116Y009658D01*
X016505Y009658D01*
X016437Y009590D01*
X016368Y009658D01*
X015757Y009658D01*
X015687Y009588D01*
X015687Y008898D01*
X015757Y008828D01*
X015777Y008828D01*
X015777Y008593D01*
X015592Y008593D01*
X015521Y008522D01*
X015521Y008377D01*
X015503Y008377D01*
X015370Y008377D01*
X015277Y008283D01*
X015277Y007863D01*
X015186Y007863D01*
X015187Y007863D01*
X015187Y008163D01*
X015181Y008168D01*
X015187Y008173D01*
X015187Y008473D01*
X015116Y008543D01*
X014517Y008543D01*
X014467Y008492D01*
X014467Y008883D01*
X014396Y008953D01*
X014213Y008953D01*
X014238Y008978D01*
X014269Y008965D01*
X014404Y008965D01*
X014528Y009016D01*
X014623Y009111D01*
X014675Y009236D01*
X014675Y009370D01*
X014623Y009494D01*
X014528Y009589D01*
X014404Y009641D01*
X014269Y009641D01*
X014145Y009589D01*
X014050Y009494D01*
X013999Y009370D01*
X013999Y009236D01*
X014012Y009204D01*
X013870Y009063D01*
X013787Y008979D01*
X013787Y009303D01*
X013818Y009316D01*
X013913Y009411D01*
X013965Y009536D01*
X013965Y009670D01*
X013913Y009794D01*
X013818Y009889D01*
X013694Y009941D01*
X013559Y009941D01*
X013435Y009889D01*
X013340Y009794D01*
X013289Y009670D01*
X013289Y009536D01*
X013340Y009411D01*
X013435Y009316D01*
X013467Y009303D01*
X013467Y008943D01*
X013407Y008883D01*
X013407Y008492D01*
X013356Y008543D01*
X013217Y008543D01*
X013217Y010443D01*
X013421Y010443D01*
X013421Y010223D01*
X013492Y010153D01*
X014182Y010153D01*
X014252Y010223D01*
X014252Y010834D01*
X014198Y010889D01*
X014272Y010963D01*
X014272Y011237D01*
X013877Y011237D01*
X013877Y011317D01*
X014272Y011317D01*
X014272Y011591D01*
X014190Y011673D01*
X013877Y011673D01*
X013877Y011317D01*
X013797Y011317D01*
X013797Y011673D01*
X013483Y011673D01*
X013401Y011591D01*
X013401Y011317D01*
X013797Y011317D01*
X013797Y011237D01*
X013401Y011237D01*
X013401Y010963D01*
X013476Y010889D01*
X013421Y010834D01*
X013421Y010763D01*
X013123Y010763D01*
X012097Y011789D01*
X012097Y013118D01*
X012347Y013118D01*
X012347Y013307D01*
X012348Y013307D01*
X012348Y013118D01*
X012572Y013118D01*
X012572Y012608D01*
X012642Y012538D01*
X012811Y012538D01*
X012831Y012518D01*
X012938Y012518D01*
X012938Y012913D01*
X012938Y012913D01*
X012938Y012518D01*
X013045Y012518D01*
X013065Y012538D01*
X013233Y012538D01*
X013431Y012538D01*
X013501Y012608D01*
X013501Y012754D01*
X013599Y012754D01*
X013599Y012636D01*
X013650Y012511D01*
X013745Y012416D01*
X013869Y012365D01*
X014004Y012365D01*
X014128Y012416D01*
X014223Y012511D01*
X014275Y012636D01*
X014275Y012770D01*
X014223Y012894D01*
X014128Y012989D01*
X014004Y013041D01*
X013886Y013041D01*
X013886Y013138D01*
X014031Y013138D01*
X014102Y013209D01*
X014102Y013344D01*
X014270Y013344D01*
X014403Y013344D01*
X014497Y013438D01*
X014497Y016043D01*
X015421Y016043D01*
X015421Y015771D01*
X015476Y015717D01*
X015401Y015643D01*
X015401Y015369D01*
X015797Y015369D01*
X015797Y015289D01*
X015877Y015289D01*
X015877Y015369D01*
X016272Y015369D01*
X016272Y015643D01*
X016198Y015717D01*
X016252Y015771D01*
X016252Y016043D01*
X016277Y016043D01*
X016277Y015263D01*
X016370Y015169D01*
X016503Y015169D01*
X016621Y015169D01*
X016621Y015023D01*
X016692Y014953D01*
X017382Y014953D01*
X017452Y015023D01*
X017452Y015634D01*
X017384Y015703D01*
X017452Y015771D01*
X017452Y016382D01*
X017382Y016453D01*
X017197Y016453D01*
X017197Y016511D01*
X017197Y016643D01*
X016887Y016953D01*
X016887Y017448D01*
X016816Y017518D01*
X016671Y017518D01*
X016671Y017688D01*
X016816Y017688D01*
X016887Y017758D01*
X016887Y018448D01*
X016816Y018518D01*
X016205Y018518D01*
X016137Y018450D01*
X016068Y018518D01*
X015478Y018518D01*
X015538Y018578D01*
X015569Y018565D01*
X015704Y018565D01*
X015828Y018616D01*
X015923Y018711D01*
X015975Y018836D01*
X015975Y018943D01*
X015987Y018943D01*
X015987Y018758D01*
X016057Y018688D01*
X016668Y018688D01*
X016723Y018742D01*
X016797Y018668D01*
X017071Y018668D01*
X017071Y019063D01*
X017151Y019063D01*
X017151Y019143D01*
X017507Y019143D01*
X017507Y019456D01*
X017425Y019538D01*
X017151Y019538D01*
X017151Y019143D01*
X017071Y019143D01*
X017071Y019538D01*
X016797Y019538D01*
X016723Y019464D01*
X016668Y019518D01*
X016057Y019518D01*
X015987Y019448D01*
X015987Y019263D01*
X015903Y019263D01*
X015770Y019263D01*
X015735Y019228D01*
X015704Y019241D01*
X015569Y019241D01*
X015445Y019189D01*
X015350Y019094D01*
X015299Y018970D01*
X015299Y018836D01*
X015312Y018804D01*
X015170Y018663D01*
X015107Y018663D01*
X015107Y018803D01*
X014727Y018803D01*
X014727Y018823D01*
X015107Y018823D01*
X015107Y018963D01*
X015175Y018963D01*
X015303Y019091D01*
X015397Y019185D01*
X015397Y019303D01*
X015428Y019316D01*
X015523Y019411D01*
X015536Y019443D01*
X015796Y019443D01*
X015929Y019443D01*
X016174Y019688D01*
X016668Y019688D01*
X016723Y019742D01*
X016797Y019668D01*
X017071Y019668D01*
X017071Y020063D01*
X017151Y020063D01*
X017151Y019668D01*
X017425Y019668D01*
X017507Y019750D01*
X017433Y019676D02*
X017687Y019676D01*
X017687Y019597D02*
X016083Y019597D01*
X016005Y019519D02*
X016778Y019519D01*
X016788Y019676D02*
X016162Y019676D01*
X015987Y019440D02*
X015535Y019440D01*
X015474Y019362D02*
X015987Y019362D01*
X015987Y019283D02*
X015397Y019283D01*
X015397Y019205D02*
X015482Y019205D01*
X015382Y019126D02*
X015338Y019126D01*
X015331Y019048D02*
X015260Y019048D01*
X015299Y018969D02*
X015181Y018969D01*
X015107Y018890D02*
X015299Y018890D01*
X015308Y018812D02*
X014727Y018812D01*
X014706Y018812D02*
X013327Y018812D01*
X013327Y018890D02*
X014327Y018890D01*
X014327Y018823D02*
X014706Y018823D01*
X014706Y018803D01*
X014327Y018803D01*
X014327Y018655D01*
X013324Y018655D01*
X013327Y018653D02*
X013321Y018658D01*
X013327Y018663D01*
X013327Y018945D01*
X013347Y018965D01*
X013347Y019043D01*
X013377Y019013D01*
X013676Y019013D01*
X013682Y019018D01*
X013687Y019013D01*
X013986Y019013D01*
X013992Y019018D01*
X013997Y019013D01*
X014296Y019013D01*
X014347Y019063D01*
X014347Y018991D01*
X014327Y018971D01*
X014327Y018823D01*
X014327Y018733D02*
X013327Y018733D01*
X013327Y018653D02*
X013327Y018353D01*
X013321Y018348D01*
X013327Y018343D01*
X013327Y018043D01*
X013321Y018038D01*
X013327Y018033D01*
X013327Y017942D01*
X013377Y017993D01*
X013676Y017993D01*
X013682Y017987D01*
X013687Y017993D01*
X013986Y017993D01*
X013992Y017987D01*
X013997Y017993D01*
X014296Y017993D01*
X014347Y017942D01*
X014347Y018033D01*
X014352Y018038D01*
X014347Y018043D01*
X014347Y018343D01*
X014352Y018348D01*
X014347Y018353D01*
X014347Y018635D01*
X014327Y018655D01*
X014347Y018576D02*
X013327Y018576D01*
X013327Y018498D02*
X014347Y018498D01*
X014347Y018419D02*
X013327Y018419D01*
X013327Y018341D02*
X014347Y018341D01*
X014347Y018262D02*
X013327Y018262D01*
X013327Y018184D02*
X014347Y018184D01*
X014347Y018105D02*
X013327Y018105D01*
X013327Y018026D02*
X014347Y018026D01*
X014341Y017948D02*
X014347Y017948D01*
X014717Y017883D02*
X014717Y017429D01*
X014337Y017049D01*
X014337Y016203D01*
X015837Y016203D01*
X015837Y016077D01*
X015837Y016203D02*
X016437Y016203D01*
X016437Y015329D01*
X017037Y015329D01*
X017452Y015356D02*
X017687Y015356D01*
X017687Y015435D02*
X017452Y015435D01*
X017452Y015513D02*
X017687Y015513D01*
X017687Y015592D02*
X017452Y015592D01*
X017416Y015670D02*
X017687Y015670D01*
X017687Y015749D02*
X017429Y015749D01*
X017452Y015827D02*
X017687Y015827D01*
X017687Y015906D02*
X017452Y015906D01*
X017452Y015984D02*
X017687Y015984D01*
X017757Y016063D02*
X017452Y016063D01*
X017452Y016141D02*
X017903Y016141D01*
X017903Y016220D02*
X017452Y016220D01*
X017452Y016299D02*
X017903Y016299D01*
X017903Y016377D02*
X017452Y016377D01*
X017197Y016456D02*
X017964Y016456D01*
X018063Y016328D02*
X018063Y015648D01*
X018063Y014648D01*
X018063Y013648D01*
X017687Y013628D02*
X016712Y013628D01*
X016677Y013663D02*
X016033Y013663D01*
X016033Y013788D01*
X016168Y013788D01*
X016237Y013856D01*
X016305Y013788D01*
X016916Y013788D01*
X016987Y013858D01*
X016987Y014043D01*
X017037Y014043D01*
X017050Y014011D01*
X017145Y013916D01*
X017269Y013865D01*
X017404Y013865D01*
X017528Y013916D01*
X017623Y014011D01*
X017675Y014136D01*
X017675Y014270D01*
X017623Y014394D01*
X017528Y014489D01*
X017404Y014541D01*
X017269Y014541D01*
X017145Y014489D01*
X017050Y014394D01*
X017037Y014363D01*
X016987Y014363D01*
X016987Y014548D01*
X016916Y014618D01*
X016305Y014618D01*
X016237Y014550D01*
X016168Y014618D01*
X015557Y014618D01*
X015487Y014548D01*
X015487Y013858D01*
X015557Y013788D01*
X015693Y013788D01*
X015693Y013532D01*
X015693Y013431D01*
X015675Y013431D01*
X015605Y013361D01*
X015605Y012868D01*
X015675Y012798D01*
X016021Y012798D01*
X016041Y012778D01*
X016208Y012778D01*
X016208Y013085D01*
X016266Y013085D01*
X016266Y012778D01*
X016432Y012778D01*
X016452Y012798D01*
X016798Y012798D01*
X016868Y012868D01*
X016868Y013361D01*
X016798Y013431D01*
X016771Y013431D01*
X016771Y013437D01*
X016771Y013569D01*
X016677Y013663D01*
X016771Y013549D02*
X017687Y013549D01*
X017687Y013471D02*
X016771Y013471D01*
X016837Y013392D02*
X017687Y013392D01*
X017687Y013314D02*
X016868Y013314D01*
X016868Y013235D02*
X017754Y013235D01*
X018371Y013235D02*
X018502Y013235D01*
X018677Y013157D02*
X016868Y013157D01*
X016868Y013078D02*
X018677Y013078D01*
X018677Y013000D02*
X016868Y013000D01*
X016868Y012921D02*
X018677Y012921D01*
X018677Y012843D02*
X016843Y012843D01*
X016677Y012663D02*
X016544Y012663D01*
X015770Y012663D01*
X015677Y012569D01*
X015677Y012437D01*
X015677Y012408D01*
X015675Y012408D01*
X015605Y012338D01*
X015605Y011844D01*
X015675Y011774D01*
X016050Y011774D01*
X016077Y011774D01*
X016077Y011453D01*
X015392Y011453D01*
X015321Y011382D01*
X015321Y010771D01*
X015390Y010703D01*
X015321Y010634D01*
X015321Y010529D01*
X015215Y010529D01*
X015137Y010607D01*
X015137Y011425D01*
X015223Y011511D01*
X015275Y011636D01*
X015275Y011770D01*
X015223Y011894D01*
X015137Y011981D01*
X015137Y015325D01*
X015223Y015411D01*
X015275Y015536D01*
X015275Y015670D01*
X015223Y015794D01*
X015128Y015889D01*
X015004Y015941D01*
X014869Y015941D01*
X014745Y015889D01*
X014650Y015794D01*
X014599Y015670D01*
X014497Y015670D01*
X014497Y015592D02*
X014599Y015592D01*
X014599Y015536D02*
X014650Y015411D01*
X014737Y015325D01*
X014737Y011981D01*
X014650Y011894D01*
X014599Y011770D01*
X014599Y011636D01*
X014650Y011511D01*
X014737Y011425D01*
X014737Y010607D01*
X014650Y010520D01*
X014599Y010396D01*
X014599Y010262D01*
X014650Y010137D01*
X014745Y010042D01*
X014869Y009991D01*
X015004Y009991D01*
X015128Y010042D01*
X015215Y010129D01*
X015321Y010129D01*
X015321Y010023D01*
X015392Y009953D01*
X016082Y009953D01*
X016152Y010023D01*
X016152Y010634D01*
X016084Y010703D01*
X016152Y010771D01*
X016152Y010917D01*
X016170Y010917D01*
X016321Y010917D01*
X016321Y010771D01*
X016376Y010717D01*
X016301Y010643D01*
X016301Y010369D01*
X016697Y010369D01*
X016697Y010289D01*
X016777Y010289D01*
X016777Y010369D01*
X017172Y010369D01*
X017172Y010643D01*
X017098Y010717D01*
X017152Y010771D01*
X017152Y011382D01*
X017082Y011453D01*
X016397Y011453D01*
X016397Y011774D01*
X016423Y011774D01*
X016798Y011774D01*
X016868Y011844D01*
X016868Y011943D01*
X016937Y011943D01*
X016950Y011911D01*
X017045Y011816D01*
X017169Y011765D01*
X017304Y011765D01*
X017428Y011816D01*
X017523Y011911D01*
X017575Y012036D01*
X017575Y012170D01*
X017523Y012294D01*
X017428Y012389D01*
X017304Y012441D01*
X017169Y012441D01*
X017045Y012389D01*
X016950Y012294D01*
X016937Y012263D01*
X016868Y012263D01*
X016868Y012338D01*
X016798Y012408D01*
X016771Y012408D01*
X016771Y012569D01*
X016677Y012663D01*
X016733Y012607D02*
X018677Y012607D01*
X018677Y012686D02*
X015137Y012686D01*
X015137Y012764D02*
X018677Y012764D01*
X018677Y012528D02*
X016771Y012528D01*
X016771Y012450D02*
X017737Y012450D01*
X017737Y012371D02*
X017446Y012371D01*
X017524Y012293D02*
X017737Y012293D01*
X017737Y012214D02*
X017556Y012214D01*
X017575Y012136D02*
X017737Y012136D01*
X017737Y012057D02*
X017575Y012057D01*
X017551Y011979D02*
X017737Y011979D01*
X017737Y011900D02*
X017512Y011900D01*
X017434Y011822D02*
X017737Y011822D01*
X017737Y011743D02*
X016397Y011743D01*
X016397Y011664D02*
X017737Y011664D01*
X017737Y011586D02*
X016397Y011586D01*
X016397Y011507D02*
X017737Y011507D01*
X017737Y011429D02*
X017106Y011429D01*
X017152Y011350D02*
X017737Y011350D01*
X017737Y011272D02*
X017152Y011272D01*
X017152Y011193D02*
X017737Y011193D01*
X017737Y011115D02*
X017152Y011115D01*
X017152Y011036D02*
X017737Y011036D01*
X017737Y010958D02*
X017152Y010958D01*
X017152Y010879D02*
X017737Y010879D01*
X017737Y010800D02*
X017152Y010800D01*
X017103Y010722D02*
X017737Y010722D01*
X017737Y010643D02*
X017171Y010643D01*
X017172Y010565D02*
X017737Y010565D01*
X017737Y010486D02*
X017172Y010486D01*
X017172Y010408D02*
X017737Y010408D01*
X017737Y010329D02*
X016777Y010329D01*
X016777Y010289D02*
X017172Y010289D01*
X017172Y010015D01*
X017737Y010015D01*
X017737Y009936D02*
X017094Y009936D01*
X017090Y009933D02*
X017172Y010015D01*
X017172Y010094D02*
X017737Y010094D01*
X017737Y010172D02*
X017172Y010172D01*
X017172Y010251D02*
X017737Y010251D01*
X017737Y009858D02*
X013850Y009858D01*
X013919Y009779D02*
X017737Y009779D01*
X017737Y009701D02*
X013952Y009701D01*
X013965Y009622D02*
X014225Y009622D01*
X014099Y009544D02*
X013965Y009544D01*
X013936Y009465D02*
X014038Y009465D01*
X014005Y009387D02*
X013889Y009387D01*
X013799Y009308D02*
X013999Y009308D01*
X014001Y009230D02*
X013787Y009230D01*
X013787Y009151D02*
X013959Y009151D01*
X013880Y009073D02*
X013787Y009073D01*
X013787Y008994D02*
X013802Y008994D01*
X013937Y008903D02*
X013937Y008583D01*
X013627Y008583D02*
X013627Y009603D01*
X013318Y009465D02*
X013217Y009465D01*
X013217Y009387D02*
X013365Y009387D01*
X013455Y009308D02*
X013217Y009308D01*
X013217Y009230D02*
X013467Y009230D01*
X013467Y009151D02*
X013217Y009151D01*
X013217Y009073D02*
X013467Y009073D01*
X013467Y008994D02*
X013217Y008994D01*
X013217Y008915D02*
X013440Y008915D01*
X013407Y008837D02*
X013217Y008837D01*
X013217Y008758D02*
X013407Y008758D01*
X013407Y008680D02*
X013217Y008680D01*
X013217Y008601D02*
X013407Y008601D01*
X013407Y008523D02*
X013376Y008523D01*
X013427Y008263D02*
X013477Y008213D01*
X013776Y008213D01*
X013782Y008218D01*
X013787Y008213D01*
X014086Y008213D01*
X014092Y008218D01*
X014097Y008213D01*
X014396Y008213D01*
X014447Y008263D01*
X014447Y008173D01*
X014452Y008168D01*
X014447Y008163D01*
X014447Y007863D01*
X014452Y007858D01*
X014447Y007853D01*
X014447Y007553D01*
X014452Y007548D01*
X014447Y007543D01*
X014447Y007261D01*
X014427Y007241D01*
X014427Y007162D01*
X014396Y007193D01*
X014097Y007193D01*
X014092Y007187D01*
X014086Y007193D01*
X013787Y007193D01*
X013782Y007187D01*
X013776Y007193D01*
X013477Y007193D01*
X013427Y007142D01*
X013427Y007215D01*
X013447Y007235D01*
X013447Y007383D01*
X013067Y007383D01*
X013067Y007403D01*
X013447Y007403D01*
X013447Y007551D01*
X013427Y007571D01*
X013427Y007853D01*
X013421Y007858D01*
X013427Y007863D01*
X013427Y008163D01*
X013421Y008168D01*
X013427Y008173D01*
X013427Y008263D01*
X013427Y008209D02*
X014447Y008209D01*
X014447Y008130D02*
X013427Y008130D01*
X013427Y008051D02*
X014447Y008051D01*
X014447Y007973D02*
X013427Y007973D01*
X013427Y007894D02*
X014447Y007894D01*
X014447Y007816D02*
X013427Y007816D01*
X013427Y007737D02*
X014447Y007737D01*
X014447Y007659D02*
X013427Y007659D01*
X013427Y007580D02*
X014447Y007580D01*
X014447Y007502D02*
X013447Y007502D01*
X013447Y007423D02*
X014447Y007423D01*
X014447Y007345D02*
X013447Y007345D01*
X013447Y007266D02*
X014447Y007266D01*
X014427Y007187D02*
X014402Y007187D01*
X014467Y006873D02*
X014478Y006873D01*
X014467Y006795D02*
X016458Y006795D01*
X016418Y006716D02*
X014467Y006716D01*
X014467Y006638D02*
X016418Y006638D01*
X016418Y006559D02*
X014467Y006559D01*
X014447Y006481D02*
X016418Y006481D01*
X016418Y006402D02*
X014447Y006402D01*
X014447Y006324D02*
X016418Y006324D01*
X016418Y006245D02*
X015489Y006245D01*
X015552Y006166D02*
X016418Y006166D01*
X016418Y006088D02*
X015552Y006088D01*
X015552Y005617D02*
X017737Y005617D01*
X017737Y005695D02*
X016800Y005695D01*
X016855Y005774D02*
X017737Y005774D01*
X017737Y005852D02*
X016855Y005852D01*
X016855Y005931D02*
X017737Y005931D01*
X017737Y006009D02*
X016855Y006009D01*
X016855Y006088D02*
X017737Y006088D01*
X017737Y006166D02*
X016855Y006166D01*
X016855Y006245D02*
X017737Y006245D01*
X017737Y006324D02*
X016855Y006324D01*
X016855Y006402D02*
X017737Y006402D01*
X017737Y006481D02*
X016855Y006481D01*
X016855Y006559D02*
X017737Y006559D01*
X017737Y006638D02*
X016855Y006638D01*
X016855Y006716D02*
X017737Y006716D01*
X017737Y006795D02*
X016815Y006795D01*
X016576Y007109D02*
X016298Y007109D01*
X016352Y007187D02*
X016521Y007187D01*
X016521Y007266D02*
X016352Y007266D01*
X015937Y007393D02*
X015937Y007469D01*
X016937Y007469D01*
X017352Y007502D02*
X017737Y007502D01*
X017737Y007580D02*
X017352Y007580D01*
X017352Y007659D02*
X017737Y007659D01*
X017737Y007737D02*
X017352Y007737D01*
X017311Y007816D02*
X017737Y007816D01*
X017737Y007894D02*
X017335Y007894D01*
X017352Y007973D02*
X017737Y007973D01*
X017737Y008051D02*
X017352Y008051D01*
X017352Y008130D02*
X017737Y008130D01*
X017737Y008209D02*
X017352Y008209D01*
X017352Y008287D02*
X017737Y008287D01*
X017737Y008366D02*
X017352Y008366D01*
X017352Y008444D02*
X017737Y008444D01*
X017737Y008523D02*
X017352Y008523D01*
X017097Y008601D02*
X017737Y008601D01*
X017737Y008680D02*
X017097Y008680D01*
X017097Y008758D02*
X017737Y008758D01*
X017737Y008837D02*
X017126Y008837D01*
X017187Y008915D02*
X017737Y008915D01*
X017737Y008994D02*
X017187Y008994D01*
X017187Y009073D02*
X017737Y009073D01*
X017737Y009151D02*
X017187Y009151D01*
X017187Y009230D02*
X017737Y009230D01*
X017737Y009308D02*
X017187Y009308D01*
X017187Y009387D02*
X017737Y009387D01*
X017737Y009465D02*
X017187Y009465D01*
X017187Y009544D02*
X017737Y009544D01*
X017737Y009622D02*
X017152Y009622D01*
X017090Y009933D02*
X016777Y009933D01*
X016777Y010289D01*
X016777Y010251D02*
X016697Y010251D01*
X016697Y010289D02*
X016697Y009933D01*
X016383Y009933D01*
X016301Y010015D01*
X016144Y010015D01*
X016152Y010094D02*
X016301Y010094D01*
X016301Y010172D02*
X016152Y010172D01*
X016152Y010251D02*
X016301Y010251D01*
X016301Y010289D02*
X016301Y010015D01*
X016380Y009936D02*
X013705Y009936D01*
X013549Y009936D02*
X013217Y009936D01*
X013217Y009858D02*
X013404Y009858D01*
X013334Y009779D02*
X013217Y009779D01*
X013217Y009701D02*
X013301Y009701D01*
X013289Y009622D02*
X013217Y009622D01*
X013217Y009544D02*
X013289Y009544D01*
X012897Y009544D02*
X012875Y009544D01*
X012875Y009622D02*
X012897Y009622D01*
X012897Y009701D02*
X012862Y009701D01*
X012829Y009779D02*
X012897Y009779D01*
X012897Y009858D02*
X012760Y009858D01*
X012697Y009936D02*
X012897Y009936D01*
X012897Y010015D02*
X012697Y010015D01*
X012697Y010094D02*
X012897Y010094D01*
X012897Y010172D02*
X012697Y010172D01*
X012697Y010251D02*
X012897Y010251D01*
X012897Y010329D02*
X012697Y010329D01*
X012697Y010408D02*
X012897Y010408D01*
X012897Y010486D02*
X012697Y010486D01*
X012697Y010565D02*
X012868Y010565D01*
X012790Y010643D02*
X012697Y010643D01*
X012697Y010722D02*
X012711Y010722D01*
X012537Y010807D02*
X011737Y011607D01*
X011737Y012303D01*
X011063Y012976D01*
X011063Y013346D01*
X011620Y013903D01*
X012446Y013903D01*
X012348Y013898D01*
X012348Y013701D02*
X011806Y013701D01*
X011487Y013382D01*
X011487Y013153D01*
X010903Y013157D02*
X010872Y013157D01*
X010872Y013235D02*
X010903Y013235D01*
X010903Y013314D02*
X010872Y013314D01*
X010872Y013343D02*
X010798Y013417D01*
X010852Y013471D01*
X010852Y014082D01*
X010782Y014153D01*
X010092Y014153D01*
X010021Y014082D01*
X010021Y013764D01*
X008879Y013764D01*
X008879Y013801D01*
X008611Y013801D01*
X008343Y013801D01*
X008343Y013694D01*
X008363Y013674D01*
X008363Y013506D01*
X008363Y013309D01*
X008363Y013113D01*
X008363Y012976D01*
X008227Y012976D01*
X008030Y012976D01*
X007833Y012976D01*
X007637Y012976D01*
X007440Y012976D01*
X007243Y012976D01*
X007047Y012976D01*
X006910Y012976D01*
X006910Y013113D01*
X006910Y013310D01*
X006910Y013477D01*
X006930Y013497D01*
X006930Y013604D01*
X006663Y013604D01*
X006663Y013605D01*
X006930Y013605D01*
X006930Y013712D01*
X006910Y013732D01*
X006910Y013871D01*
X006930Y013891D01*
X006930Y013998D01*
X006663Y013998D01*
X006663Y013998D01*
X006930Y013998D01*
X006930Y014105D01*
X006910Y014125D01*
X006910Y014293D01*
X006910Y014429D01*
X007047Y014429D01*
X007243Y014429D01*
X007440Y014429D01*
X007637Y014429D01*
X007833Y014429D01*
X008030Y014429D01*
X008227Y014429D01*
X008363Y014429D01*
X008363Y014293D01*
X008363Y014096D01*
X008363Y013928D01*
X008343Y013908D01*
X008343Y013801D01*
X008611Y013801D01*
X008611Y013801D01*
X008611Y013801D01*
X008879Y013801D01*
X008879Y013838D01*
X009520Y013838D01*
X009653Y013838D01*
X010058Y014243D01*
X010837Y014243D01*
X010850Y014211D01*
X010945Y014116D01*
X011069Y014065D01*
X011204Y014065D01*
X011328Y014116D01*
X011423Y014211D01*
X011475Y014336D01*
X011475Y014470D01*
X011423Y014594D01*
X011328Y014689D01*
X011204Y014741D01*
X011069Y014741D01*
X010945Y014689D01*
X010850Y014594D01*
X010837Y014563D01*
X009925Y014563D01*
X009831Y014469D01*
X009708Y014346D01*
X009725Y014386D01*
X009725Y014520D01*
X009673Y014644D01*
X009578Y014739D01*
X009570Y014743D01*
X011937Y014743D01*
X011950Y014711D01*
X012045Y014616D01*
X012169Y014565D01*
X012304Y014565D01*
X012428Y014616D01*
X012523Y014711D01*
X012575Y014836D01*
X012575Y014970D01*
X012523Y015094D01*
X012428Y015189D01*
X012304Y015241D01*
X012169Y015241D01*
X012045Y015189D01*
X011950Y015094D01*
X011937Y015063D01*
X009181Y015063D01*
X009088Y014969D01*
X008680Y014561D01*
X008495Y014561D01*
X008495Y014714D01*
X009024Y015243D01*
X010337Y015243D01*
X010350Y015211D01*
X010445Y015116D01*
X010569Y015065D01*
X010704Y015065D01*
X010828Y015116D01*
X010923Y015211D01*
X010975Y015336D01*
X010975Y015470D01*
X010923Y015594D01*
X010828Y015689D01*
X010704Y015741D01*
X010569Y015741D01*
X010445Y015689D01*
X010350Y015594D01*
X010337Y015563D01*
X008994Y015563D01*
X009003Y015572D01*
X009097Y015666D01*
X009097Y017003D01*
X009128Y017016D01*
X009223Y017111D01*
X009275Y017236D01*
X009275Y017370D01*
X009223Y017494D01*
X009128Y017589D01*
X009004Y017641D01*
X008869Y017641D01*
X008745Y017589D01*
X008650Y017494D01*
X008599Y017370D01*
X008599Y017236D01*
X008650Y017111D01*
X008745Y017016D01*
X008777Y017003D01*
X008777Y015798D01*
X008397Y015418D01*
X008397Y018776D01*
X008397Y018909D01*
X008036Y019269D01*
X007942Y019363D01*
X007877Y019363D01*
X007877Y019385D01*
X007619Y019643D01*
X007597Y019643D01*
X007597Y020088D01*
X007768Y020088D01*
X007837Y020156D01*
X007905Y020088D01*
X008516Y020088D01*
X008587Y020158D01*
X008587Y020848D01*
X008516Y020918D01*
X008397Y020918D01*
X008397Y021037D01*
X008397Y021169D01*
X008303Y021263D01*
X005729Y021263D01*
X005596Y021263D01*
X005503Y021169D01*
X005503Y020918D01*
X005357Y020918D01*
X005287Y020848D01*
X005287Y020158D01*
X005357Y020088D01*
X005503Y020088D01*
X005503Y019643D01*
X005254Y019643D01*
X004997Y019385D01*
X004997Y019239D01*
X004466Y018708D01*
X004466Y018542D01*
X004466Y017717D01*
X004583Y017600D01*
X004663Y017520D01*
X004663Y016218D01*
X004507Y016218D01*
X004437Y016148D01*
X004437Y015458D01*
X004507Y015388D01*
X004663Y015388D01*
X004663Y014081D01*
X004576Y013994D01*
X004525Y013870D01*
X004525Y013736D01*
X004576Y013611D01*
X004671Y013516D01*
X004795Y013465D01*
X004930Y013465D01*
X005054Y013516D01*
X005141Y013603D01*
X005292Y013603D01*
X005342Y013553D01*
X006032Y013553D01*
X006102Y013623D01*
X006102Y013631D01*
X006167Y013631D01*
X006167Y013483D01*
X006162Y013478D01*
X006162Y013371D01*
X004144Y013371D01*
X004144Y013553D01*
X004329Y013553D01*
X004399Y013623D01*
X004399Y014234D01*
X004345Y014289D01*
X004419Y014363D01*
X004419Y014637D01*
X004024Y014637D01*
X004024Y014717D01*
X003944Y014717D01*
X003944Y015073D01*
X003631Y015073D01*
X003549Y014991D01*
X003549Y014717D01*
X003944Y014717D01*
X003944Y014637D01*
X003549Y014637D01*
X003549Y014363D01*
X003623Y014289D01*
X003569Y014234D01*
X003569Y013623D01*
X003639Y013553D01*
X003824Y013553D01*
X003824Y013277D01*
X003824Y013137D01*
X003824Y013125D01*
X003718Y013125D01*
X003647Y013055D01*
X003647Y012207D01*
X003718Y012137D01*
X004250Y012137D01*
X004320Y012207D01*
X004320Y013051D01*
X004553Y013051D01*
X004553Y012207D01*
X004623Y012137D01*
X005156Y012137D01*
X005177Y012158D01*
X005177Y011688D01*
X005156Y011668D01*
X005156Y011668D01*
X004623Y011668D01*
X004553Y011598D01*
X004553Y010751D01*
X004623Y010680D01*
X004729Y010680D01*
X004729Y010318D01*
X004505Y010318D01*
X004451Y010264D01*
X004377Y010338D01*
X004103Y010338D01*
X004103Y009943D01*
X004023Y009943D01*
X004023Y010338D01*
X003749Y010338D01*
X003667Y010256D01*
X003667Y009943D01*
X004023Y009943D01*
X004023Y009863D01*
X004103Y009863D01*
X004103Y009468D01*
X004377Y009468D01*
X004451Y009542D01*
X004505Y009488D01*
X005116Y009488D01*
X005187Y009558D01*
X005187Y010248D01*
X005116Y010318D01*
X005049Y010318D01*
X005049Y010680D01*
X005156Y010680D01*
X005226Y010751D01*
X005226Y011285D01*
X005403Y011462D01*
X005497Y011555D01*
X005497Y012515D01*
X005835Y012854D01*
X006161Y012854D01*
X006035Y012728D01*
X006004Y012741D01*
X005869Y012741D01*
X005745Y012689D01*
X005650Y012594D01*
X005599Y012470D01*
X005599Y012336D01*
X005650Y012211D01*
X005745Y012116D01*
X005869Y012065D01*
X005999Y012065D01*
X005999Y011936D01*
X006050Y011811D01*
X006145Y011716D01*
X006269Y011665D01*
X006404Y011665D01*
X006528Y011716D01*
X006623Y011811D01*
X006637Y011844D01*
X006650Y011811D01*
X006745Y011716D01*
X006869Y011665D01*
X007004Y011665D01*
X007128Y011716D01*
X007223Y011811D01*
X007237Y011844D01*
X007250Y011811D01*
X007345Y011716D01*
X007469Y011665D01*
X007604Y011665D01*
X007728Y011716D01*
X007772Y011760D01*
X007772Y011463D01*
X006457Y011463D01*
X006325Y011463D01*
X005670Y010808D01*
X005577Y010715D01*
X005577Y008463D01*
X004752Y008463D01*
X004752Y008482D01*
X004682Y008553D01*
X003992Y008553D01*
X003921Y008482D01*
X003921Y007871D01*
X003990Y007803D01*
X003921Y007734D01*
X003921Y007629D01*
X003752Y007629D01*
X003752Y007734D01*
X003698Y007789D01*
X003772Y007863D01*
X003772Y008137D01*
X003377Y008137D01*
X003377Y008217D01*
X003772Y008217D01*
X003772Y008491D01*
X003690Y008573D01*
X003377Y008573D01*
X003377Y008217D01*
X003297Y008217D01*
X003297Y008573D01*
X002983Y008573D01*
X002901Y008491D01*
X002901Y008217D01*
X003297Y008217D01*
X003297Y008137D01*
X002901Y008137D01*
X002901Y007863D01*
X002976Y007789D01*
X002921Y007734D01*
X002921Y007123D01*
X002992Y007053D01*
X003682Y007053D01*
X003752Y007123D01*
X003752Y007229D01*
X003921Y007229D01*
X003921Y007123D01*
X003992Y007053D01*
X004682Y007053D01*
X004752Y007123D01*
X004752Y007203D01*
X004833Y007203D01*
X004911Y007125D01*
X004911Y006453D01*
X004766Y006453D01*
X004695Y006382D01*
X004695Y005771D01*
X004750Y005717D01*
X004675Y005643D01*
X004675Y005369D01*
X005071Y005369D01*
X005071Y005289D01*
X005151Y005289D01*
X005151Y005369D01*
X005546Y005369D01*
X005546Y005643D01*
X005472Y005717D01*
X005526Y005771D01*
X005526Y005888D01*
X005647Y005888D01*
X005647Y005625D01*
X005656Y005615D01*
X005647Y005606D01*
X005647Y005310D01*
X005717Y005240D01*
X006336Y005240D01*
X006336Y004621D01*
X006406Y004551D01*
X006702Y004551D01*
X006711Y004560D01*
X006721Y004551D01*
X007017Y004551D01*
X007026Y004560D01*
X007036Y004551D01*
X007332Y004551D01*
X007341Y004560D01*
X007351Y004551D01*
X007647Y004551D01*
X007656Y004560D01*
X007666Y004551D01*
X007962Y004551D01*
X007971Y004560D01*
X007981Y004551D01*
X008277Y004551D01*
X008286Y004560D01*
X008296Y004551D01*
X008592Y004551D01*
X008662Y004621D01*
X008662Y005240D01*
X009281Y005240D01*
X009351Y005310D01*
X009351Y005596D01*
X009371Y005616D01*
X009371Y005764D01*
X008945Y005764D01*
X008945Y005782D01*
X009371Y005782D01*
X009371Y005888D01*
X009662Y005888D01*
X009669Y005882D01*
X009678Y005883D01*
X009745Y005816D01*
X009869Y005765D01*
X010004Y005765D01*
X010128Y005816D01*
X010223Y005911D01*
X010275Y006036D01*
X010275Y006170D01*
X010223Y006294D01*
X010137Y006381D01*
X010137Y009620D01*
X010137Y009886D01*
X010137Y010129D01*
X011059Y010129D01*
X011145Y010042D01*
X011269Y009991D01*
X011404Y009991D01*
X011528Y010042D01*
X011623Y010137D01*
X011675Y010262D01*
X011675Y010396D01*
X011623Y010520D01*
X011528Y010615D01*
X011404Y010667D01*
X011269Y010667D01*
X011145Y010615D01*
X011059Y010529D01*
X010107Y010529D01*
X010107Y011916D01*
X010150Y011811D01*
X010245Y011716D01*
X010369Y011665D01*
X010504Y011665D01*
X010628Y011716D01*
X010723Y011811D01*
X010775Y011936D01*
X010775Y012070D01*
X010723Y012194D01*
X010628Y012289D01*
X010504Y012341D01*
X010369Y012341D01*
X010338Y012328D01*
X009221Y013444D01*
X010048Y013444D01*
X010076Y013417D01*
X010001Y013343D01*
X010001Y013069D01*
X010397Y013069D01*
X010397Y012989D01*
X010477Y012989D01*
X010477Y013069D01*
X010872Y013069D01*
X010872Y013343D01*
X010903Y013392D02*
X010822Y013392D01*
X010852Y013471D02*
X010962Y013471D01*
X011040Y013549D02*
X010852Y013549D01*
X010852Y013628D02*
X011119Y013628D01*
X011197Y013707D02*
X010852Y013707D01*
X010852Y013785D02*
X011276Y013785D01*
X011354Y013864D02*
X010852Y013864D01*
X010852Y013942D02*
X011433Y013942D01*
X011511Y014021D02*
X010852Y014021D01*
X010835Y014099D02*
X010986Y014099D01*
X010884Y014178D02*
X009993Y014178D01*
X010038Y014099D02*
X009914Y014099D01*
X009836Y014021D02*
X010021Y014021D01*
X010021Y013942D02*
X009757Y013942D01*
X009679Y013864D02*
X010021Y013864D01*
X010021Y013785D02*
X008879Y013785D01*
X008611Y013604D02*
X010437Y013604D01*
X010437Y013777D01*
X010051Y013392D02*
X009273Y013392D01*
X009352Y013314D02*
X010001Y013314D01*
X010001Y013235D02*
X009430Y013235D01*
X009509Y013157D02*
X010001Y013157D01*
X010001Y013078D02*
X009587Y013078D01*
X009666Y013000D02*
X010397Y013000D01*
X010397Y012989D02*
X010001Y012989D01*
X010001Y012715D01*
X010083Y012633D01*
X010397Y012633D01*
X010397Y012989D01*
X010397Y012921D02*
X010477Y012921D01*
X010477Y012989D02*
X010477Y012633D01*
X010790Y012633D01*
X010872Y012715D01*
X010872Y012989D01*
X010477Y012989D01*
X010477Y013000D02*
X010903Y013000D01*
X010903Y013078D02*
X010872Y013078D01*
X010872Y012921D02*
X010903Y012921D01*
X010872Y012843D02*
X010971Y012843D01*
X011049Y012764D02*
X010872Y012764D01*
X010843Y012686D02*
X011128Y012686D01*
X011206Y012607D02*
X010059Y012607D01*
X010031Y012686D02*
X009980Y012686D01*
X010001Y012764D02*
X009902Y012764D01*
X009823Y012843D02*
X010001Y012843D01*
X010001Y012921D02*
X009745Y012921D01*
X009237Y012584D02*
X008806Y013014D01*
X008611Y013014D01*
X008611Y013203D02*
X008611Y013211D01*
X008611Y013408D02*
X009037Y013408D01*
X009037Y013403D01*
X010437Y012003D01*
X010748Y012136D02*
X011577Y012136D01*
X011577Y012214D02*
X010703Y012214D01*
X010620Y012293D02*
X011520Y012293D01*
X011442Y012371D02*
X010294Y012371D01*
X010216Y012450D02*
X011363Y012450D01*
X011285Y012528D02*
X010137Y012528D01*
X010397Y012686D02*
X010477Y012686D01*
X010477Y012764D02*
X010397Y012764D01*
X010397Y012843D02*
X010477Y012843D01*
X009237Y012584D02*
X009237Y010203D01*
X008629Y010395D02*
X008629Y010703D01*
X008326Y011006D01*
X008326Y012728D01*
X008129Y012728D02*
X008129Y010503D01*
X007629Y010003D01*
X007629Y009703D01*
X007814Y009518D01*
X007814Y007840D01*
X008129Y007840D02*
X008129Y009895D01*
X008629Y010395D01*
X007663Y010263D02*
X007563Y010163D01*
X007563Y010163D01*
X007543Y010143D01*
X007447Y010143D01*
X007189Y009885D01*
X007189Y009521D01*
X007447Y009263D01*
X007654Y009263D01*
X007654Y008731D01*
X007637Y008748D01*
X007637Y008870D01*
X007586Y008994D01*
X007654Y008994D01*
X007586Y008994D02*
X007490Y009089D01*
X007366Y009141D01*
X007232Y009141D01*
X007107Y009089D01*
X007012Y008994D01*
X006197Y008994D01*
X006197Y009073D02*
X007090Y009073D01*
X007012Y008994D02*
X006961Y008870D01*
X006961Y008736D01*
X006996Y008650D01*
X006984Y008663D01*
X006851Y008663D01*
X006197Y008663D01*
X006197Y009484D01*
X006438Y009243D01*
X006589Y009243D01*
X006589Y009663D01*
X006669Y009663D01*
X006669Y009743D01*
X007089Y009743D01*
X007089Y009893D01*
X006939Y010043D01*
X007063Y010043D01*
X007195Y010043D01*
X007431Y010279D01*
X007447Y010263D01*
X007663Y010263D01*
X007650Y010251D02*
X007403Y010251D01*
X007324Y010172D02*
X007572Y010172D01*
X007397Y010094D02*
X007246Y010094D01*
X007319Y010015D02*
X006967Y010015D01*
X007046Y009936D02*
X007240Y009936D01*
X007189Y009858D02*
X007089Y009858D01*
X007089Y009779D02*
X007189Y009779D01*
X007189Y009701D02*
X006669Y009701D01*
X006669Y009663D02*
X007089Y009663D01*
X007089Y009512D01*
X006819Y009243D01*
X006669Y009243D01*
X006669Y009663D01*
X006669Y009622D02*
X006589Y009622D01*
X006589Y009544D02*
X006669Y009544D01*
X006669Y009465D02*
X006589Y009465D01*
X006589Y009387D02*
X006669Y009387D01*
X006669Y009308D02*
X006589Y009308D01*
X006373Y009308D02*
X006197Y009308D01*
X006197Y009230D02*
X007654Y009230D01*
X007654Y009151D02*
X006197Y009151D01*
X006197Y008915D02*
X006980Y008915D01*
X006961Y008837D02*
X006197Y008837D01*
X006197Y008758D02*
X006961Y008758D01*
X006984Y008680D02*
X006197Y008680D01*
X006037Y008503D02*
X006917Y008503D01*
X007184Y008236D01*
X007184Y007840D01*
X006869Y007840D02*
X006869Y008171D01*
X006737Y008303D01*
X005737Y008303D01*
X004399Y008303D01*
X004337Y008177D01*
X003921Y008209D02*
X003377Y008209D01*
X003377Y008287D02*
X003297Y008287D01*
X003297Y008209D02*
X002277Y008209D01*
X002277Y008287D02*
X002901Y008287D01*
X002901Y008366D02*
X002277Y008366D01*
X002277Y008444D02*
X002901Y008444D01*
X002933Y008523D02*
X002277Y008523D01*
X002277Y008601D02*
X005577Y008601D01*
X005577Y008523D02*
X004712Y008523D01*
X004752Y008143D02*
X005670Y008143D01*
X006336Y008143D01*
X006336Y007566D01*
X005717Y007566D01*
X005647Y007496D01*
X005647Y007209D01*
X005627Y007189D01*
X005627Y007042D01*
X006052Y007042D01*
X006052Y007023D01*
X005627Y007023D01*
X005627Y006876D01*
X005628Y006875D01*
X005627Y006874D01*
X005627Y006727D01*
X006052Y006727D01*
X006052Y006709D01*
X005627Y006709D01*
X005627Y006561D01*
X005647Y006541D01*
X005647Y006288D01*
X005526Y006288D01*
X005526Y006382D01*
X005456Y006453D01*
X005311Y006453D01*
X005311Y007125D01*
X005397Y007211D01*
X005449Y007336D01*
X005449Y007470D01*
X005397Y007594D01*
X005302Y007689D01*
X005178Y007741D01*
X005043Y007741D01*
X004919Y007689D01*
X004833Y007603D01*
X004752Y007603D01*
X004752Y007734D01*
X004684Y007803D01*
X004752Y007871D01*
X004752Y008143D01*
X004752Y008130D02*
X006336Y008130D01*
X006336Y008051D02*
X004752Y008051D01*
X004752Y007973D02*
X006336Y007973D01*
X006336Y007894D02*
X004752Y007894D01*
X004696Y007816D02*
X006336Y007816D01*
X006336Y007737D02*
X005187Y007737D01*
X005035Y007737D02*
X004749Y007737D01*
X004752Y007659D02*
X004888Y007659D01*
X005333Y007659D02*
X006336Y007659D01*
X006336Y007580D02*
X005403Y007580D01*
X005436Y007502D02*
X005652Y007502D01*
X005647Y007423D02*
X005449Y007423D01*
X005449Y007345D02*
X005647Y007345D01*
X005647Y007266D02*
X005420Y007266D01*
X005374Y007187D02*
X005627Y007187D01*
X005627Y007109D02*
X005311Y007109D01*
X005311Y007030D02*
X006052Y007030D01*
X006053Y007023D02*
X006071Y007023D01*
X006071Y006956D01*
X006071Y006727D01*
X006053Y006727D01*
X006053Y006956D01*
X006053Y007023D01*
X006071Y007023D02*
X006071Y007042D01*
X006497Y007042D01*
X006497Y007189D01*
X006477Y007209D01*
X006477Y007425D01*
X006702Y007425D01*
X006711Y007434D01*
X006721Y007425D01*
X007017Y007425D01*
X007026Y007434D01*
X007036Y007425D01*
X007332Y007425D01*
X007341Y007434D01*
X007351Y007425D01*
X007647Y007425D01*
X007656Y007434D01*
X007666Y007425D01*
X007962Y007425D01*
X007971Y007434D01*
X007981Y007425D01*
X008277Y007425D01*
X008286Y007434D01*
X008296Y007425D01*
X008521Y007425D01*
X008521Y007200D01*
X008530Y007190D01*
X008521Y007181D01*
X008521Y006894D01*
X008501Y006874D01*
X008501Y006727D01*
X008926Y006727D01*
X008926Y006709D01*
X008501Y006709D01*
X008501Y006561D01*
X008502Y006560D01*
X008501Y006559D01*
X008328Y006559D01*
X008328Y006481D02*
X008501Y006481D01*
X008501Y006412D02*
X008926Y006412D01*
X008926Y006394D01*
X008501Y006394D01*
X008501Y006246D01*
X008521Y006226D01*
X008521Y005949D01*
X008501Y005929D01*
X008501Y005782D01*
X008926Y005782D01*
X008926Y005764D01*
X008501Y005764D01*
X008501Y005616D01*
X008521Y005596D01*
X008521Y005381D01*
X008296Y005381D01*
X008286Y005372D01*
X008277Y005381D01*
X008296Y005381D01*
X008277Y005381D02*
X007981Y005381D01*
X007971Y005372D01*
X007962Y005381D01*
X007981Y005381D01*
X007962Y005381D02*
X007666Y005381D01*
X007656Y005372D01*
X007647Y005381D01*
X007666Y005381D01*
X007647Y005381D02*
X007351Y005381D01*
X007341Y005372D01*
X007332Y005381D01*
X007036Y005381D01*
X007026Y005372D01*
X007017Y005381D01*
X006721Y005381D01*
X006711Y005372D01*
X006702Y005381D01*
X006477Y005381D01*
X006477Y005606D01*
X006468Y005615D01*
X006477Y005625D01*
X006477Y005921D01*
X006468Y005930D01*
X006477Y005940D01*
X006477Y006236D01*
X006468Y006245D01*
X006670Y006245D01*
X006670Y006324D02*
X006477Y006324D01*
X006477Y006255D02*
X006477Y006541D01*
X006497Y006561D01*
X006497Y006709D01*
X006071Y006709D01*
X006071Y006727D01*
X006497Y006727D01*
X006497Y006874D01*
X006496Y006875D01*
X006497Y006876D01*
X006497Y007023D01*
X006071Y007023D01*
X006071Y007030D02*
X006670Y007030D01*
X006670Y006952D02*
X006497Y006952D01*
X006497Y006873D02*
X006670Y006873D01*
X006670Y006795D02*
X006497Y006795D01*
X006497Y006638D02*
X006670Y006638D01*
X006670Y006716D02*
X006071Y006716D01*
X006052Y006716D02*
X005311Y006716D01*
X005311Y006638D02*
X005627Y006638D01*
X005629Y006559D02*
X005311Y006559D01*
X005311Y006481D02*
X005647Y006481D01*
X005647Y006402D02*
X005506Y006402D01*
X005526Y006324D02*
X005647Y006324D01*
X005627Y006795D02*
X005311Y006795D01*
X005311Y006873D02*
X005627Y006873D01*
X005627Y006952D02*
X005311Y006952D01*
X004911Y006952D02*
X002277Y006952D01*
X002277Y007030D02*
X004911Y007030D01*
X004911Y007109D02*
X004738Y007109D01*
X004752Y007187D02*
X004848Y007187D01*
X004911Y006873D02*
X002277Y006873D01*
X002277Y006795D02*
X004911Y006795D01*
X004911Y006716D02*
X002277Y006716D01*
X002277Y006638D02*
X004911Y006638D01*
X004911Y006559D02*
X002277Y006559D01*
X002277Y006481D02*
X004911Y006481D01*
X004715Y006402D02*
X002277Y006402D01*
X002277Y006324D02*
X003212Y006324D01*
X003089Y006273D02*
X002867Y006050D01*
X002747Y005760D01*
X002747Y005446D01*
X002867Y005155D01*
X003089Y004933D01*
X003380Y004813D01*
X003694Y004813D01*
X003984Y004933D01*
X004206Y005155D01*
X004327Y005446D01*
X004327Y005760D01*
X004206Y006050D01*
X003984Y006273D01*
X003694Y006393D01*
X003380Y006393D01*
X003089Y006273D01*
X003062Y006245D02*
X002277Y006245D01*
X002277Y006166D02*
X002983Y006166D01*
X002905Y006088D02*
X002277Y006088D01*
X002277Y006009D02*
X002850Y006009D01*
X002817Y005931D02*
X002277Y005931D01*
X002277Y005852D02*
X002785Y005852D01*
X002752Y005774D02*
X002277Y005774D01*
X002277Y005695D02*
X002747Y005695D01*
X002747Y005617D02*
X002277Y005617D01*
X002277Y005538D02*
X002747Y005538D01*
X002747Y005460D02*
X002277Y005460D01*
X002277Y005381D02*
X002773Y005381D01*
X002806Y005302D02*
X002277Y005302D01*
X002277Y005224D02*
X002839Y005224D01*
X002877Y005145D02*
X002277Y005145D01*
X002277Y005067D02*
X002955Y005067D01*
X003034Y004988D02*
X002277Y004988D01*
X002277Y004910D02*
X003146Y004910D01*
X003335Y004831D02*
X002277Y004831D01*
X002277Y004753D02*
X006336Y004753D01*
X006336Y004831D02*
X003738Y004831D01*
X003928Y004910D02*
X006336Y004910D01*
X006336Y004988D02*
X005519Y004988D01*
X005546Y005015D02*
X005546Y005289D01*
X005151Y005289D01*
X005151Y004933D01*
X005464Y004933D01*
X005546Y005015D01*
X005546Y005067D02*
X006336Y005067D01*
X006336Y005145D02*
X005546Y005145D01*
X005546Y005224D02*
X006336Y005224D01*
X006477Y005460D02*
X008521Y005460D01*
X008521Y005538D02*
X006477Y005538D01*
X006469Y005617D02*
X006709Y005617D01*
X006670Y005656D02*
X006752Y005574D01*
X007459Y005574D01*
X007459Y006363D01*
X006670Y006363D01*
X006670Y005656D01*
X006670Y005695D02*
X006477Y005695D01*
X006477Y005774D02*
X006670Y005774D01*
X006670Y005852D02*
X006477Y005852D01*
X006468Y005931D02*
X006670Y005931D01*
X006670Y006009D02*
X006477Y006009D01*
X006477Y006088D02*
X006670Y006088D01*
X006670Y006166D02*
X006477Y006166D01*
X006468Y006245D02*
X006477Y006255D01*
X006477Y006402D02*
X007459Y006402D01*
X007459Y006363D02*
X007459Y006443D01*
X007459Y007232D01*
X006752Y007232D01*
X006670Y007150D01*
X006670Y006443D01*
X007459Y006443D01*
X007539Y006443D01*
X007539Y007232D01*
X008246Y007232D01*
X008328Y007150D01*
X008328Y006443D01*
X007539Y006443D01*
X007539Y006363D01*
X008328Y006363D01*
X008328Y005656D01*
X008246Y005574D01*
X007539Y005574D01*
X007539Y006363D01*
X007459Y006363D01*
X007459Y006324D02*
X007539Y006324D01*
X007539Y006402D02*
X008926Y006402D01*
X008927Y006412D02*
X008927Y006479D01*
X008927Y006708D01*
X008945Y006708D01*
X008945Y006479D01*
X008945Y006412D01*
X008927Y006412D01*
X008945Y006412D02*
X009371Y006412D01*
X009371Y006559D01*
X009737Y006559D01*
X009737Y006481D02*
X009371Y006481D01*
X009371Y006559D02*
X009370Y006560D01*
X009371Y006561D01*
X009371Y006709D01*
X008945Y006709D01*
X008945Y006727D01*
X009371Y006727D01*
X009371Y006874D01*
X009351Y006894D01*
X009351Y007181D01*
X009342Y007190D01*
X009351Y007200D01*
X009351Y007496D01*
X009281Y007566D01*
X008662Y007566D01*
X008662Y008185D01*
X008592Y008255D01*
X008296Y008255D01*
X008289Y008248D01*
X008289Y009421D01*
X008447Y009263D01*
X008811Y009263D01*
X009051Y009503D01*
X009737Y009503D01*
X009737Y006381D01*
X009650Y006294D01*
X009647Y006288D01*
X009371Y006288D01*
X009371Y006394D01*
X008945Y006394D01*
X008945Y006412D01*
X008945Y006402D02*
X009737Y006402D01*
X009679Y006324D02*
X009371Y006324D01*
X008945Y006481D02*
X008927Y006481D01*
X008927Y006559D02*
X008945Y006559D01*
X008945Y006638D02*
X008927Y006638D01*
X008926Y006716D02*
X008328Y006716D01*
X008328Y006638D02*
X008501Y006638D01*
X008501Y006559D02*
X008501Y006412D01*
X008501Y006324D02*
X008328Y006324D01*
X008328Y006245D02*
X008502Y006245D01*
X008521Y006166D02*
X008328Y006166D01*
X008328Y006088D02*
X008521Y006088D01*
X008521Y006009D02*
X008328Y006009D01*
X008328Y005931D02*
X008502Y005931D01*
X008501Y005852D02*
X008328Y005852D01*
X008328Y005774D02*
X008926Y005774D01*
X008945Y005774D02*
X009848Y005774D01*
X009709Y005852D02*
X009371Y005852D01*
X009371Y005695D02*
X012277Y005695D01*
X012277Y005617D02*
X009371Y005617D01*
X009351Y005538D02*
X012220Y005538D01*
X012141Y005460D02*
X009351Y005460D01*
X009351Y005381D02*
X010792Y005381D01*
X010767Y005302D02*
X009344Y005302D01*
X008662Y005224D02*
X010767Y005224D01*
X010767Y005145D02*
X008662Y005145D01*
X008662Y005067D02*
X010767Y005067D01*
X010767Y004963D02*
X010767Y004650D01*
X010849Y004568D01*
X011123Y004568D01*
X011123Y004963D01*
X010767Y004963D01*
X010767Y004910D02*
X008662Y004910D01*
X008662Y004988D02*
X011123Y004988D01*
X011123Y004910D02*
X011203Y004910D01*
X011203Y004831D02*
X011123Y004831D01*
X011123Y004753D02*
X011203Y004753D01*
X011203Y004674D02*
X011123Y004674D01*
X011123Y004596D02*
X011203Y004596D01*
X011505Y004596D02*
X011597Y004596D01*
X011911Y005003D02*
X012437Y005529D01*
X012437Y006703D01*
X012437Y007479D01*
X012660Y007703D01*
X013057Y007703D01*
X012667Y007423D02*
X012607Y007423D01*
X012597Y007345D02*
X012667Y007345D01*
X012667Y007266D02*
X012597Y007266D01*
X012597Y007187D02*
X012687Y007187D01*
X012687Y007109D02*
X012597Y007109D01*
X012597Y007030D02*
X012687Y007030D01*
X012687Y006952D02*
X012666Y006952D01*
X012732Y006873D02*
X012746Y006873D01*
X012765Y006795D02*
X012897Y006795D01*
X012897Y006716D02*
X012775Y006716D01*
X012775Y006638D02*
X012897Y006638D01*
X012897Y006559D02*
X012743Y006559D01*
X012693Y006481D02*
X012897Y006481D01*
X012897Y006402D02*
X012597Y006402D01*
X012597Y006324D02*
X012897Y006324D01*
X012821Y006245D02*
X012597Y006245D01*
X012597Y006166D02*
X012759Y006166D01*
X012726Y006088D02*
X012597Y006088D01*
X012597Y006009D02*
X012719Y006009D01*
X012721Y005931D02*
X012597Y005931D01*
X012597Y005852D02*
X012753Y005852D01*
X012808Y005774D02*
X012597Y005774D01*
X012597Y005695D02*
X012897Y005695D01*
X012897Y005617D02*
X012597Y005617D01*
X012597Y005538D02*
X012897Y005538D01*
X012897Y005460D02*
X012594Y005460D01*
X012515Y005381D02*
X012720Y005381D01*
X012687Y005302D02*
X012437Y005302D01*
X012358Y005224D02*
X012687Y005224D01*
X012687Y005145D02*
X012287Y005145D01*
X012287Y005067D02*
X012687Y005067D01*
X012687Y004988D02*
X012287Y004988D01*
X012287Y004910D02*
X012687Y004910D01*
X012687Y004831D02*
X012287Y004831D01*
X012287Y004753D02*
X012687Y004753D01*
X012687Y004674D02*
X012287Y004674D01*
X012224Y004596D02*
X012749Y004596D01*
X013057Y005003D02*
X013057Y006003D01*
X013057Y007083D01*
X013367Y006873D02*
X013407Y006873D01*
X013407Y006795D02*
X013217Y006795D01*
X013217Y006716D02*
X013407Y006716D01*
X013407Y006638D02*
X013217Y006638D01*
X013217Y006559D02*
X013407Y006559D01*
X013449Y006481D02*
X013217Y006481D01*
X013217Y006402D02*
X014047Y006402D01*
X014047Y006324D02*
X013217Y006324D01*
X013293Y006245D02*
X014047Y006245D01*
X014032Y006166D02*
X013355Y006166D01*
X013387Y006088D02*
X013957Y006088D01*
X013925Y006009D02*
X013395Y006009D01*
X013393Y005931D02*
X013909Y005931D01*
X013909Y005852D02*
X013360Y005852D01*
X013306Y005774D02*
X013934Y005774D01*
X013976Y005695D02*
X013217Y005695D01*
X013217Y005617D02*
X014055Y005617D01*
X014182Y005381D02*
X014701Y005381D01*
X014701Y005302D02*
X014207Y005302D01*
X014207Y005224D02*
X014701Y005224D01*
X014701Y005089D02*
X014701Y004815D01*
X014783Y004733D01*
X015097Y004733D01*
X015097Y005089D01*
X014701Y005089D01*
X014701Y005067D02*
X014207Y005067D01*
X014207Y005145D02*
X015097Y005145D01*
X015097Y005067D02*
X015177Y005067D01*
X015177Y005089D02*
X015177Y004733D01*
X015490Y004733D01*
X015572Y004815D01*
X015572Y005089D01*
X015177Y005089D01*
X015177Y005145D02*
X016398Y005145D01*
X016398Y005067D02*
X015572Y005067D01*
X015572Y004988D02*
X016398Y004988D01*
X016398Y004962D02*
X016398Y005464D01*
X016480Y005546D01*
X016627Y005546D01*
X016627Y004963D01*
X016646Y004963D01*
X016646Y005546D01*
X016793Y005546D01*
X016875Y005464D01*
X016875Y004962D01*
X016646Y004962D01*
X016646Y004944D01*
X016875Y004944D01*
X016875Y004442D01*
X016793Y004360D01*
X016646Y004360D01*
X016646Y004944D01*
X016627Y004944D01*
X016398Y004944D01*
X016398Y004442D01*
X016480Y004360D01*
X016627Y004360D01*
X016627Y004944D01*
X016627Y004962D01*
X016398Y004962D01*
X016398Y004910D02*
X015572Y004910D01*
X015572Y004831D02*
X016398Y004831D01*
X016398Y004753D02*
X015510Y004753D01*
X015177Y004753D02*
X015097Y004753D01*
X015097Y004831D02*
X015177Y004831D01*
X015177Y004910D02*
X015097Y004910D01*
X015097Y004988D02*
X015177Y004988D01*
X015572Y005224D02*
X016398Y005224D01*
X016398Y005302D02*
X015572Y005302D01*
X015572Y005381D02*
X016398Y005381D01*
X016398Y005460D02*
X015555Y005460D01*
X015519Y005538D02*
X016472Y005538D01*
X016627Y005538D02*
X016646Y005538D01*
X016646Y005460D02*
X016627Y005460D01*
X016627Y005381D02*
X016646Y005381D01*
X016646Y005302D02*
X016627Y005302D01*
X016627Y005224D02*
X016646Y005224D01*
X016646Y005145D02*
X016627Y005145D01*
X016627Y005067D02*
X016646Y005067D01*
X016646Y004988D02*
X016627Y004988D01*
X016627Y004910D02*
X016646Y004910D01*
X016646Y004831D02*
X016627Y004831D01*
X016627Y004753D02*
X016646Y004753D01*
X016646Y004674D02*
X016627Y004674D01*
X016627Y004596D02*
X016646Y004596D01*
X016646Y004517D02*
X016627Y004517D01*
X016627Y004438D02*
X016646Y004438D01*
X016871Y004438D02*
X017737Y004438D01*
X017737Y004360D02*
X002277Y004360D01*
X002277Y004438D02*
X016402Y004438D01*
X016398Y004517D02*
X002277Y004517D01*
X002277Y004596D02*
X006361Y004596D01*
X006336Y004674D02*
X002277Y004674D01*
X004039Y004988D02*
X004702Y004988D01*
X004675Y005015D02*
X004757Y004933D01*
X005071Y004933D01*
X005071Y005289D01*
X004675Y005289D01*
X004675Y005015D01*
X004675Y005067D02*
X004118Y005067D01*
X004196Y005145D02*
X004675Y005145D01*
X004675Y005224D02*
X004235Y005224D01*
X004267Y005302D02*
X005071Y005302D01*
X005071Y005224D02*
X005151Y005224D01*
X005151Y005302D02*
X005654Y005302D01*
X005647Y005381D02*
X005546Y005381D01*
X005546Y005460D02*
X005647Y005460D01*
X005647Y005538D02*
X005546Y005538D01*
X005546Y005617D02*
X005655Y005617D01*
X005647Y005695D02*
X005494Y005695D01*
X005526Y005774D02*
X005647Y005774D01*
X005647Y005852D02*
X005526Y005852D01*
X005151Y005145D02*
X005071Y005145D01*
X005071Y005067D02*
X005151Y005067D01*
X005151Y004988D02*
X005071Y004988D01*
X004675Y005381D02*
X004300Y005381D01*
X004327Y005460D02*
X004675Y005460D01*
X004675Y005538D02*
X004327Y005538D01*
X004327Y005617D02*
X004675Y005617D01*
X004728Y005695D02*
X004327Y005695D01*
X004321Y005774D02*
X004695Y005774D01*
X004695Y005852D02*
X004288Y005852D01*
X004256Y005931D02*
X004695Y005931D01*
X004695Y006009D02*
X004223Y006009D01*
X004169Y006088D02*
X004695Y006088D01*
X004695Y006166D02*
X004090Y006166D01*
X004012Y006245D02*
X004695Y006245D01*
X004695Y006324D02*
X003861Y006324D01*
X003936Y007109D02*
X003738Y007109D01*
X003752Y007187D02*
X003921Y007187D01*
X003921Y007659D02*
X003752Y007659D01*
X003749Y007737D02*
X003924Y007737D01*
X003977Y007816D02*
X003725Y007816D01*
X003772Y007894D02*
X003921Y007894D01*
X003921Y007973D02*
X003772Y007973D01*
X003772Y008051D02*
X003921Y008051D01*
X003921Y008130D02*
X003772Y008130D01*
X003772Y008287D02*
X003921Y008287D01*
X003921Y008366D02*
X003772Y008366D01*
X003772Y008444D02*
X003921Y008444D01*
X003962Y008523D02*
X003740Y008523D01*
X003377Y008523D02*
X003297Y008523D01*
X003297Y008444D02*
X003377Y008444D01*
X003377Y008366D02*
X003297Y008366D01*
X002901Y008130D02*
X002277Y008130D01*
X002277Y008051D02*
X002901Y008051D01*
X002901Y007973D02*
X002277Y007973D01*
X002277Y007894D02*
X002901Y007894D01*
X002949Y007816D02*
X002277Y007816D01*
X002277Y007737D02*
X002924Y007737D01*
X002921Y007659D02*
X002277Y007659D01*
X002277Y007580D02*
X002921Y007580D01*
X002921Y007502D02*
X002277Y007502D01*
X002277Y007423D02*
X002921Y007423D01*
X002921Y007345D02*
X002277Y007345D01*
X002277Y007266D02*
X002921Y007266D01*
X002921Y007187D02*
X002277Y007187D01*
X002277Y007109D02*
X002936Y007109D01*
X002277Y008680D02*
X005577Y008680D01*
X005577Y008758D02*
X002277Y008758D01*
X002277Y008837D02*
X005577Y008837D01*
X005577Y008915D02*
X002277Y008915D01*
X002277Y008994D02*
X005577Y008994D01*
X005577Y009073D02*
X002277Y009073D01*
X002277Y009151D02*
X005577Y009151D01*
X005577Y009230D02*
X002277Y009230D01*
X002277Y009308D02*
X005577Y009308D01*
X005577Y009387D02*
X002277Y009387D01*
X002277Y009465D02*
X005577Y009465D01*
X005577Y009544D02*
X005173Y009544D01*
X005187Y009622D02*
X005577Y009622D01*
X005577Y009701D02*
X005187Y009701D01*
X005187Y009779D02*
X005577Y009779D01*
X005577Y009858D02*
X005187Y009858D01*
X005187Y009936D02*
X005577Y009936D01*
X005577Y010015D02*
X005187Y010015D01*
X005187Y010094D02*
X005577Y010094D01*
X005577Y010172D02*
X005187Y010172D01*
X005184Y010251D02*
X005577Y010251D01*
X005577Y010329D02*
X005049Y010329D01*
X005049Y010408D02*
X005577Y010408D01*
X005577Y010486D02*
X005049Y010486D01*
X005049Y010565D02*
X005577Y010565D01*
X005577Y010643D02*
X005049Y010643D01*
X005197Y010722D02*
X005584Y010722D01*
X005662Y010800D02*
X005226Y010800D01*
X005226Y010879D02*
X005741Y010879D01*
X005820Y010958D02*
X005226Y010958D01*
X005226Y011036D02*
X005898Y011036D01*
X005977Y011115D02*
X005226Y011115D01*
X005226Y011193D02*
X006055Y011193D01*
X006134Y011272D02*
X005226Y011272D01*
X005291Y011350D02*
X006212Y011350D01*
X006291Y011429D02*
X005370Y011429D01*
X005449Y011507D02*
X007772Y011507D01*
X007772Y011586D02*
X005497Y011586D01*
X005497Y011664D02*
X007772Y011664D01*
X007772Y011743D02*
X007755Y011743D01*
X007538Y012003D02*
X007538Y012728D01*
X007341Y012728D02*
X007341Y012408D01*
X006937Y012003D01*
X007155Y011743D02*
X007318Y011743D01*
X007246Y011822D02*
X007228Y011822D01*
X007537Y012003D02*
X007538Y012003D01*
X007137Y012544D02*
X006995Y012403D01*
X006737Y012403D01*
X006337Y012003D01*
X006555Y011743D02*
X006718Y011743D01*
X006646Y011822D02*
X006628Y011822D01*
X006118Y011743D02*
X005497Y011743D01*
X005497Y011822D02*
X006046Y011822D01*
X006013Y011900D02*
X005497Y011900D01*
X005497Y011979D02*
X005999Y011979D01*
X005999Y012057D02*
X005497Y012057D01*
X005497Y012136D02*
X005726Y012136D01*
X005649Y012214D02*
X005497Y012214D01*
X005497Y012293D02*
X005616Y012293D01*
X005599Y012371D02*
X005497Y012371D01*
X005497Y012450D02*
X005599Y012450D01*
X005623Y012528D02*
X005510Y012528D01*
X005588Y012607D02*
X005663Y012607D01*
X005667Y012686D02*
X005741Y012686D01*
X005745Y012764D02*
X006072Y012764D01*
X006150Y012843D02*
X005824Y012843D01*
X005769Y013014D02*
X006662Y013014D01*
X006662Y013211D02*
X003984Y013211D01*
X003984Y013203D01*
X003984Y013929D01*
X004399Y013942D02*
X004554Y013942D01*
X004525Y013864D02*
X004399Y013864D01*
X004399Y013785D02*
X004525Y013785D01*
X004537Y013707D02*
X004399Y013707D01*
X004399Y013628D02*
X004569Y013628D01*
X004638Y013549D02*
X004144Y013549D01*
X004144Y013471D02*
X004780Y013471D01*
X004945Y013471D02*
X006162Y013471D01*
X006162Y013392D02*
X004144Y013392D01*
X003984Y013203D02*
X003984Y012631D01*
X004320Y012607D02*
X004553Y012607D01*
X004553Y012686D02*
X004320Y012686D01*
X004320Y012764D02*
X004553Y012764D01*
X004553Y012843D02*
X004320Y012843D01*
X004320Y012921D02*
X004553Y012921D01*
X004553Y013000D02*
X004320Y013000D01*
X003824Y013157D02*
X002277Y013157D01*
X002277Y013235D02*
X003824Y013235D01*
X003824Y013314D02*
X002277Y013314D01*
X002277Y013392D02*
X003824Y013392D01*
X003824Y013471D02*
X002277Y013471D01*
X002277Y013549D02*
X003824Y013549D01*
X003569Y013628D02*
X002277Y013628D01*
X002277Y013707D02*
X003569Y013707D01*
X003569Y013785D02*
X002277Y013785D01*
X002277Y013864D02*
X003569Y013864D01*
X003569Y013942D02*
X002277Y013942D01*
X002277Y014021D02*
X003569Y014021D01*
X003569Y014099D02*
X002277Y014099D01*
X002277Y014178D02*
X003569Y014178D01*
X003591Y014256D02*
X002277Y014256D01*
X002277Y014335D02*
X003577Y014335D01*
X003549Y014413D02*
X002277Y014413D01*
X002277Y014492D02*
X003549Y014492D01*
X003549Y014571D02*
X002277Y014571D01*
X002277Y014649D02*
X003944Y014649D01*
X003944Y014728D02*
X004024Y014728D01*
X004024Y014717D02*
X004024Y015073D01*
X004337Y015073D01*
X004419Y014991D01*
X004419Y014717D01*
X004024Y014717D01*
X004024Y014649D02*
X004663Y014649D01*
X004663Y014571D02*
X004419Y014571D01*
X004419Y014492D02*
X004663Y014492D01*
X004663Y014413D02*
X004419Y014413D01*
X004391Y014335D02*
X004663Y014335D01*
X004663Y014256D02*
X004377Y014256D01*
X004399Y014178D02*
X004663Y014178D01*
X004663Y014099D02*
X004399Y014099D01*
X004399Y014021D02*
X004602Y014021D01*
X005063Y014081D02*
X005063Y015388D01*
X005118Y015388D01*
X005187Y015456D01*
X005255Y015388D01*
X005866Y015388D01*
X005937Y015458D01*
X005937Y016148D01*
X005866Y016218D01*
X005255Y016218D01*
X005187Y016150D01*
X005118Y016218D01*
X005063Y016218D01*
X005063Y017686D01*
X004946Y017803D01*
X004945Y017803D02*
X004866Y017883D01*
X004866Y018542D01*
X005171Y018847D01*
X005254Y018763D01*
X005619Y018763D01*
X005877Y019021D01*
X005877Y019385D01*
X005823Y019439D01*
X005823Y020088D01*
X005968Y020088D01*
X006037Y020156D01*
X006105Y020088D01*
X006277Y020088D01*
X006277Y019643D01*
X006254Y019643D01*
X005997Y019385D01*
X005997Y019021D01*
X006254Y018763D01*
X006619Y018763D01*
X006635Y018779D01*
X006870Y018543D01*
X007003Y018543D01*
X007155Y018543D01*
X006997Y018385D01*
X006997Y018021D01*
X007012Y018005D01*
X006970Y017963D01*
X006937Y017929D01*
X006861Y018005D01*
X006877Y018021D01*
X006877Y018385D01*
X006619Y018643D01*
X006254Y018643D01*
X005997Y018385D01*
X005997Y018021D01*
X006254Y017763D01*
X006619Y017763D01*
X006635Y017779D01*
X006677Y017737D01*
X006677Y015344D01*
X006770Y015251D01*
X006985Y015037D01*
X006985Y014925D01*
X006849Y014925D01*
X006779Y014855D01*
X006779Y014561D01*
X006485Y014561D01*
X006414Y014491D01*
X006414Y014293D01*
X006414Y014125D01*
X006394Y014105D01*
X006394Y013998D01*
X006394Y013973D01*
X006265Y013973D01*
X006263Y013971D01*
X006102Y013971D01*
X006102Y014234D01*
X006048Y014289D01*
X006122Y014363D01*
X006122Y014637D01*
X005727Y014637D01*
X005727Y014717D01*
X006122Y014717D01*
X006122Y014991D01*
X006040Y015073D01*
X005727Y015073D01*
X005727Y014717D01*
X005647Y014717D01*
X005647Y015073D01*
X005333Y015073D01*
X005251Y014991D01*
X005251Y014717D01*
X005647Y014717D01*
X005647Y014637D01*
X005251Y014637D01*
X005251Y014363D01*
X005326Y014289D01*
X005271Y014234D01*
X005271Y014003D01*
X005141Y014003D01*
X005063Y014081D01*
X005063Y014099D02*
X005271Y014099D01*
X005271Y014021D02*
X005123Y014021D01*
X005063Y014178D02*
X005271Y014178D01*
X005293Y014256D02*
X005063Y014256D01*
X005063Y014335D02*
X005279Y014335D01*
X005251Y014413D02*
X005063Y014413D01*
X005063Y014492D02*
X005251Y014492D01*
X005251Y014571D02*
X005063Y014571D01*
X005063Y014649D02*
X005647Y014649D01*
X005647Y014728D02*
X005727Y014728D01*
X005727Y014806D02*
X005647Y014806D01*
X005647Y014885D02*
X005727Y014885D01*
X005727Y014963D02*
X005647Y014963D01*
X005647Y015042D02*
X005727Y015042D01*
X006071Y015042D02*
X006979Y015042D01*
X006985Y014963D02*
X006122Y014963D01*
X006122Y014885D02*
X006808Y014885D01*
X006779Y014806D02*
X006122Y014806D01*
X006122Y014728D02*
X006779Y014728D01*
X006779Y014649D02*
X005727Y014649D01*
X005251Y014728D02*
X005063Y014728D01*
X005063Y014806D02*
X005251Y014806D01*
X005251Y014885D02*
X005063Y014885D01*
X005063Y014963D02*
X005251Y014963D01*
X005302Y015042D02*
X005063Y015042D01*
X005063Y015120D02*
X006901Y015120D01*
X006822Y015199D02*
X005063Y015199D01*
X005063Y015277D02*
X006744Y015277D01*
X006677Y015356D02*
X005063Y015356D01*
X005165Y015435D02*
X005208Y015435D01*
X005411Y015603D02*
X005561Y015803D01*
X005937Y015827D02*
X005949Y015827D01*
X005949Y015870D02*
X005949Y015736D01*
X006000Y015611D01*
X006095Y015516D01*
X006219Y015465D01*
X006354Y015465D01*
X006478Y015516D01*
X006573Y015611D01*
X006625Y015736D01*
X006625Y015870D01*
X006573Y015994D01*
X006478Y016089D01*
X006354Y016141D01*
X006219Y016141D01*
X006095Y016089D01*
X006000Y015994D01*
X005949Y015870D01*
X005937Y015906D02*
X005963Y015906D01*
X005937Y015984D02*
X005996Y015984D01*
X005937Y016063D02*
X006069Y016063D01*
X005937Y016141D02*
X006677Y016141D01*
X006677Y016063D02*
X006505Y016063D01*
X006577Y015984D02*
X006677Y015984D01*
X006677Y015906D02*
X006610Y015906D01*
X006625Y015827D02*
X006677Y015827D01*
X006677Y015749D02*
X006625Y015749D01*
X006598Y015670D02*
X006677Y015670D01*
X006677Y015592D02*
X006554Y015592D01*
X006471Y015513D02*
X006677Y015513D01*
X006677Y015435D02*
X005913Y015435D01*
X005937Y015513D02*
X006103Y015513D01*
X006020Y015592D02*
X005937Y015592D01*
X005937Y015670D02*
X005976Y015670D01*
X005949Y015749D02*
X005937Y015749D01*
X006677Y016220D02*
X005063Y016220D01*
X005063Y016299D02*
X006677Y016299D01*
X006677Y016377D02*
X005063Y016377D01*
X005063Y016456D02*
X006677Y016456D01*
X006677Y016534D02*
X005063Y016534D01*
X005063Y016613D02*
X006677Y016613D01*
X006677Y016691D02*
X005063Y016691D01*
X005063Y016770D02*
X006677Y016770D01*
X006677Y016848D02*
X005063Y016848D01*
X005063Y016927D02*
X006677Y016927D01*
X006677Y017005D02*
X005063Y017005D01*
X005063Y017084D02*
X006677Y017084D01*
X006677Y017162D02*
X005063Y017162D01*
X005063Y017241D02*
X006677Y017241D01*
X006677Y017320D02*
X005063Y017320D01*
X005063Y017398D02*
X006677Y017398D01*
X006677Y017477D02*
X005063Y017477D01*
X005063Y017555D02*
X006677Y017555D01*
X006677Y017634D02*
X005063Y017634D01*
X005036Y017712D02*
X006677Y017712D01*
X006837Y017803D02*
X006437Y018203D01*
X006877Y018184D02*
X006997Y018184D01*
X006997Y018262D02*
X006877Y018262D01*
X006877Y018341D02*
X006997Y018341D01*
X007031Y018419D02*
X006843Y018419D01*
X006764Y018498D02*
X007109Y018498D01*
X006937Y018703D02*
X006437Y019203D01*
X006437Y020503D01*
X006411Y020503D01*
X006046Y020147D02*
X006028Y020147D01*
X005823Y020069D02*
X006277Y020069D01*
X006277Y019990D02*
X005823Y019990D01*
X005823Y019911D02*
X006277Y019911D01*
X006277Y019833D02*
X005823Y019833D01*
X005823Y019754D02*
X006277Y019754D01*
X006277Y019676D02*
X005823Y019676D01*
X005823Y019597D02*
X006209Y019597D01*
X006130Y019519D02*
X005823Y019519D01*
X005823Y019440D02*
X006052Y019440D01*
X005997Y019362D02*
X005877Y019362D01*
X005877Y019283D02*
X005997Y019283D01*
X005997Y019205D02*
X005877Y019205D01*
X005877Y019126D02*
X005997Y019126D01*
X005997Y019048D02*
X005877Y019048D01*
X005825Y018969D02*
X006048Y018969D01*
X006127Y018890D02*
X005746Y018890D01*
X005668Y018812D02*
X006205Y018812D01*
X006188Y018576D02*
X005714Y018576D01*
X005792Y018498D02*
X006109Y018498D01*
X006031Y018419D02*
X005871Y018419D01*
X005897Y018393D02*
X005627Y018663D01*
X005477Y018663D01*
X005477Y018243D01*
X005897Y018243D01*
X005897Y018393D01*
X005897Y018341D02*
X005997Y018341D01*
X005997Y018262D02*
X005897Y018262D01*
X005897Y018163D02*
X005477Y018163D01*
X005477Y018243D01*
X005397Y018243D01*
X005397Y018663D01*
X005246Y018663D01*
X004977Y018393D01*
X004977Y018243D01*
X005396Y018243D01*
X005396Y018163D01*
X004977Y018163D01*
X004977Y018012D01*
X005246Y017743D01*
X005397Y017743D01*
X005397Y018163D01*
X005477Y018163D01*
X005477Y017743D01*
X005627Y017743D01*
X005897Y018012D01*
X005897Y018163D01*
X005897Y018105D02*
X005997Y018105D01*
X005997Y018184D02*
X005477Y018184D01*
X005477Y018262D02*
X005397Y018262D01*
X005396Y018184D02*
X004866Y018184D01*
X004866Y018262D02*
X004977Y018262D01*
X004977Y018341D02*
X004866Y018341D01*
X004866Y018419D02*
X005003Y018419D01*
X005081Y018498D02*
X004866Y018498D01*
X004900Y018576D02*
X005160Y018576D01*
X005238Y018655D02*
X004979Y018655D01*
X005057Y018733D02*
X006680Y018733D01*
X006758Y018655D02*
X005635Y018655D01*
X005477Y018655D02*
X005397Y018655D01*
X005397Y018576D02*
X005477Y018576D01*
X005477Y018498D02*
X005397Y018498D01*
X005397Y018419D02*
X005477Y018419D01*
X005477Y018341D02*
X005397Y018341D01*
X005397Y018105D02*
X005477Y018105D01*
X005477Y018026D02*
X005397Y018026D01*
X005397Y017948D02*
X005477Y017948D01*
X005477Y017869D02*
X005397Y017869D01*
X005397Y017791D02*
X005477Y017791D01*
X005675Y017791D02*
X006226Y017791D01*
X006148Y017869D02*
X005754Y017869D01*
X005832Y017948D02*
X006069Y017948D01*
X005997Y018026D02*
X005897Y018026D01*
X005198Y017791D02*
X004957Y017791D01*
X004946Y017803D02*
X004945Y017803D01*
X004879Y017869D02*
X005120Y017869D01*
X005041Y017948D02*
X004866Y017948D01*
X004866Y018026D02*
X004977Y018026D01*
X004977Y018105D02*
X004866Y018105D01*
X004466Y018105D02*
X002277Y018105D01*
X002277Y018184D02*
X004466Y018184D01*
X004466Y018262D02*
X002277Y018262D01*
X002277Y018341D02*
X004466Y018341D01*
X004466Y018419D02*
X002277Y018419D01*
X002277Y018498D02*
X004466Y018498D01*
X004466Y018576D02*
X002277Y018576D01*
X002277Y018655D02*
X004466Y018655D01*
X004491Y018733D02*
X002277Y018733D01*
X002277Y018812D02*
X004570Y018812D01*
X004649Y018890D02*
X002277Y018890D01*
X002277Y018969D02*
X004727Y018969D01*
X004806Y019048D02*
X002277Y019048D01*
X002277Y019126D02*
X004884Y019126D01*
X004963Y019205D02*
X002277Y019205D01*
X002277Y019283D02*
X004997Y019283D01*
X004997Y019362D02*
X002277Y019362D01*
X002277Y019440D02*
X005052Y019440D01*
X005130Y019519D02*
X002277Y019519D01*
X002277Y019597D02*
X005209Y019597D01*
X005503Y019676D02*
X003846Y019676D01*
X003984Y019733D02*
X004206Y019955D01*
X004327Y020246D01*
X004327Y020560D01*
X004206Y020850D01*
X003984Y021073D01*
X003694Y021193D01*
X003380Y021193D01*
X003089Y021073D01*
X002867Y020850D01*
X002747Y020560D01*
X002747Y020246D01*
X002867Y019955D01*
X003089Y019733D01*
X003380Y019613D01*
X003694Y019613D01*
X003984Y019733D01*
X004005Y019754D02*
X005503Y019754D01*
X005503Y019833D02*
X004084Y019833D01*
X004163Y019911D02*
X005503Y019911D01*
X005503Y019990D02*
X004221Y019990D01*
X004253Y020069D02*
X005503Y020069D01*
X005297Y020147D02*
X004286Y020147D01*
X004318Y020226D02*
X005287Y020226D01*
X005287Y020304D02*
X004327Y020304D01*
X004327Y020383D02*
X005287Y020383D01*
X005287Y020461D02*
X004327Y020461D01*
X004327Y020540D02*
X005287Y020540D01*
X005287Y020618D02*
X004302Y020618D01*
X004270Y020697D02*
X005287Y020697D01*
X005287Y020775D02*
X004237Y020775D01*
X004203Y020854D02*
X005293Y020854D01*
X005503Y020933D02*
X004124Y020933D01*
X004046Y021011D02*
X005503Y021011D01*
X005503Y021090D02*
X003943Y021090D01*
X003753Y021168D02*
X005503Y021168D01*
X005580Y021247D02*
X002277Y021247D01*
X002277Y021325D02*
X014901Y021325D01*
X014901Y021247D02*
X008319Y021247D01*
X008397Y021168D02*
X014901Y021168D01*
X014901Y021011D02*
X011883Y021011D01*
X011947Y020933D02*
X012268Y020933D01*
X012276Y020941D02*
X012194Y020859D01*
X012194Y020712D01*
X012778Y020712D01*
X012778Y020941D01*
X012276Y020941D01*
X012194Y020854D02*
X011947Y020854D01*
X011947Y020775D02*
X012194Y020775D01*
X012194Y020694D02*
X012194Y020546D01*
X012276Y020464D01*
X012778Y020464D01*
X012778Y020693D01*
X012796Y020693D01*
X012796Y020464D01*
X013298Y020464D01*
X013380Y020546D01*
X013380Y020694D01*
X012797Y020694D01*
X012797Y020712D01*
X013380Y020712D01*
X013380Y020859D01*
X013298Y020941D01*
X012796Y020941D01*
X012796Y020712D01*
X012778Y020712D01*
X012778Y020694D01*
X012194Y020694D01*
X012194Y020618D02*
X011947Y020618D01*
X011947Y020540D02*
X012201Y020540D01*
X011947Y020461D02*
X013817Y020461D01*
X013528Y020540D02*
X013373Y020540D01*
X013380Y020618D02*
X013514Y020618D01*
X013514Y020697D02*
X012797Y020697D01*
X012778Y020697D02*
X011947Y020697D01*
X011947Y020383D02*
X013424Y020383D01*
X013345Y020304D02*
X011947Y020304D01*
X011914Y020226D02*
X013327Y020226D01*
X013327Y020147D02*
X011731Y020147D01*
X011731Y020069D02*
X013327Y020069D01*
X013327Y019990D02*
X011904Y019990D01*
X011947Y019911D02*
X013327Y019911D01*
X013327Y019833D02*
X011947Y019833D01*
X012111Y019754D02*
X013327Y019754D01*
X013307Y019676D02*
X012190Y019676D01*
X012197Y019597D02*
X013307Y019597D01*
X013307Y019519D02*
X012197Y019519D01*
X012197Y019440D02*
X013307Y019440D01*
X013307Y019362D02*
X013266Y019362D01*
X012967Y019362D02*
X012947Y019362D01*
X012947Y019283D02*
X012967Y019283D01*
X012967Y019205D02*
X012947Y019205D01*
X012946Y019126D02*
X012197Y019126D01*
X012197Y019048D02*
X012567Y019048D01*
X012567Y019205D02*
X012197Y019205D01*
X012197Y019283D02*
X012569Y019283D01*
X012648Y019362D02*
X012197Y019362D01*
X012037Y019603D02*
X012037Y018813D01*
X012957Y018813D01*
X013347Y018969D02*
X014327Y018969D01*
X014331Y019048D02*
X014347Y019048D01*
X014367Y019362D02*
X015000Y019362D01*
X014938Y019440D02*
X014367Y019440D01*
X014367Y019519D02*
X014906Y019519D01*
X014899Y019597D02*
X014367Y019597D01*
X014367Y019676D02*
X014901Y019676D01*
X014934Y019754D02*
X013727Y019754D01*
X013727Y019833D02*
X014989Y019833D01*
X015098Y019911D02*
X014217Y019911D01*
X014302Y019990D02*
X014955Y019990D01*
X015375Y019911D02*
X015945Y019911D01*
X015987Y019990D02*
X015719Y019990D01*
X015752Y020069D02*
X015987Y020069D01*
X015987Y020147D02*
X015752Y020147D01*
X015752Y020226D02*
X015987Y020226D01*
X015987Y020304D02*
X015752Y020304D01*
X015752Y020383D02*
X015987Y020383D01*
X016000Y020461D02*
X015752Y020461D01*
X015752Y020540D02*
X018512Y020540D01*
X018480Y020618D02*
X015752Y020618D01*
X015706Y020697D02*
X018473Y020697D01*
X018475Y020775D02*
X015772Y020775D01*
X015772Y020854D02*
X018507Y020854D01*
X018562Y020933D02*
X015772Y020933D01*
X015772Y021011D02*
X018671Y021011D01*
X018950Y021011D02*
X019797Y021011D01*
X019688Y020933D02*
X019059Y020933D01*
X019114Y020854D02*
X019633Y020854D01*
X019601Y020775D02*
X019147Y020775D01*
X019149Y020697D02*
X019599Y020697D01*
X019606Y020618D02*
X019142Y020618D01*
X019109Y020540D02*
X019638Y020540D01*
X019700Y020461D02*
X019047Y020461D01*
X018971Y020383D02*
X019777Y020383D01*
X019543Y020304D02*
X018971Y020304D01*
X019187Y020226D02*
X019521Y020226D01*
X019521Y020147D02*
X019187Y020147D01*
X019187Y020069D02*
X019521Y020069D01*
X019521Y019990D02*
X019187Y019990D01*
X019187Y019911D02*
X019521Y019911D01*
X019521Y019833D02*
X019187Y019833D01*
X019187Y019754D02*
X019521Y019754D01*
X019521Y019676D02*
X019187Y019676D01*
X019187Y019597D02*
X019584Y019597D01*
X019521Y019519D02*
X019168Y019519D01*
X019131Y019283D02*
X019521Y019283D01*
X019521Y019205D02*
X019187Y019205D01*
X019187Y019126D02*
X019521Y019126D01*
X019521Y019048D02*
X019187Y019048D01*
X019187Y018969D02*
X019521Y018969D01*
X019554Y018890D02*
X019187Y018890D01*
X019187Y018812D02*
X021027Y018812D01*
X021027Y018733D02*
X019187Y018733D01*
X019187Y018655D02*
X021027Y018655D01*
X021027Y018576D02*
X019187Y018576D01*
X019146Y018498D02*
X021027Y018498D01*
X021027Y018419D02*
X018971Y018419D01*
X018971Y018341D02*
X019945Y018341D01*
X019937Y018262D02*
X019152Y018262D01*
X019187Y018184D02*
X019479Y018184D01*
X019381Y018105D02*
X019187Y018105D01*
X018811Y017883D02*
X019637Y017883D01*
X020187Y017883D01*
X020437Y017869D02*
X020437Y017869D01*
X020437Y017791D02*
X020437Y017791D01*
X020437Y017712D02*
X020437Y017712D01*
X020437Y017634D02*
X020437Y017634D01*
X020437Y017555D02*
X020437Y017555D01*
X020437Y017477D02*
X020437Y017477D01*
X020402Y017398D02*
X020472Y017398D01*
X020687Y017203D02*
X020687Y017883D01*
X020937Y017948D02*
X020937Y017948D01*
X020937Y018026D02*
X020937Y018026D01*
X020937Y018105D02*
X020937Y018105D01*
X020937Y018184D02*
X020937Y018184D01*
X020937Y018262D02*
X020937Y018262D01*
X020929Y018341D02*
X020945Y018341D01*
X020445Y018341D02*
X020429Y018341D01*
X020437Y018262D02*
X020437Y018262D01*
X020437Y018184D02*
X020437Y018184D01*
X020437Y018105D02*
X020437Y018105D01*
X020437Y018026D02*
X020437Y018026D01*
X020437Y017948D02*
X020437Y017948D01*
X019937Y018105D02*
X019893Y018105D01*
X019937Y018184D02*
X019794Y018184D01*
X019932Y017712D02*
X019937Y017712D01*
X019937Y017634D02*
X019866Y017634D01*
X019937Y017555D02*
X019729Y017555D01*
X019544Y017555D02*
X019187Y017555D01*
X019187Y017634D02*
X019408Y017634D01*
X019341Y017712D02*
X019187Y017712D01*
X019125Y017477D02*
X019937Y017477D01*
X019972Y017398D02*
X018223Y017398D01*
X018377Y017477D02*
X018496Y017477D01*
X018811Y017883D02*
X018811Y018883D01*
X018490Y019283D02*
X018383Y019283D01*
X018223Y019362D02*
X019521Y019362D01*
X019521Y019440D02*
X018223Y019440D01*
X018419Y019519D02*
X018454Y019519D01*
X018811Y019883D02*
X018811Y020703D01*
X018574Y020461D02*
X017501Y020461D01*
X017507Y020383D02*
X018651Y020383D01*
X018651Y020304D02*
X017507Y020304D01*
X017507Y020226D02*
X017687Y020226D01*
X017687Y020147D02*
X017507Y020147D01*
X017507Y019990D02*
X017687Y019990D01*
X017687Y020069D02*
X017151Y020069D01*
X017151Y020147D02*
X017071Y020147D01*
X017071Y020226D02*
X017151Y020226D01*
X017151Y020304D02*
X017071Y020304D01*
X017071Y020383D02*
X017151Y020383D01*
X017151Y020461D02*
X017071Y020461D01*
X017071Y019990D02*
X017151Y019990D01*
X017151Y019911D02*
X017071Y019911D01*
X017071Y019833D02*
X017151Y019833D01*
X017151Y019754D02*
X017071Y019754D01*
X017071Y019676D02*
X017151Y019676D01*
X017151Y019519D02*
X017071Y019519D01*
X017071Y019440D02*
X017151Y019440D01*
X017151Y019362D02*
X017071Y019362D01*
X017071Y019283D02*
X017151Y019283D01*
X017151Y019205D02*
X017071Y019205D01*
X017151Y019126D02*
X017687Y019126D01*
X017687Y019048D02*
X017507Y019048D01*
X017507Y019063D02*
X017151Y019063D01*
X017151Y018668D01*
X017425Y018668D01*
X017507Y018750D01*
X017507Y019063D01*
X017507Y018969D02*
X017687Y018969D01*
X017687Y018890D02*
X017507Y018890D01*
X017507Y018812D02*
X017687Y018812D01*
X017687Y018733D02*
X017490Y018733D01*
X017687Y018655D02*
X015867Y018655D01*
X015932Y018733D02*
X016011Y018733D01*
X015987Y018812D02*
X015965Y018812D01*
X015975Y018890D02*
X015987Y018890D01*
X015837Y019103D02*
X015637Y018903D01*
X015237Y018503D01*
X014717Y018503D01*
X014717Y018193D02*
X015763Y018193D01*
X015763Y018103D01*
X016089Y018498D02*
X016185Y018498D01*
X015732Y018576D02*
X017687Y018576D01*
X017727Y018498D02*
X016837Y018498D01*
X016887Y018419D02*
X017903Y018419D01*
X017903Y018341D02*
X016887Y018341D01*
X016887Y018262D02*
X017721Y018262D01*
X017687Y018184D02*
X016887Y018184D01*
X016887Y018105D02*
X017687Y018105D01*
X017687Y018026D02*
X016887Y018026D01*
X016887Y017948D02*
X017687Y017948D01*
X017687Y017869D02*
X016887Y017869D01*
X016887Y017791D02*
X017687Y017791D01*
X017687Y017712D02*
X016841Y017712D01*
X016671Y017634D02*
X017687Y017634D01*
X017687Y017555D02*
X016671Y017555D01*
X016858Y017477D02*
X017748Y017477D01*
X017903Y017398D02*
X016887Y017398D01*
X016887Y017320D02*
X017903Y017320D01*
X017903Y017241D02*
X016887Y017241D01*
X016887Y017162D02*
X017903Y017162D01*
X017955Y017084D02*
X016887Y017084D01*
X016887Y017005D02*
X021777Y017005D01*
X021777Y016927D02*
X016913Y016927D01*
X016991Y016848D02*
X021356Y016848D01*
X021277Y016770D02*
X017070Y016770D01*
X017149Y016691D02*
X021277Y016691D01*
X021277Y016613D02*
X017197Y016613D01*
X017197Y016534D02*
X021277Y016534D01*
X021277Y016456D02*
X020785Y016456D01*
X020847Y016377D02*
X021277Y016377D01*
X021277Y016299D02*
X020847Y016299D01*
X020847Y016220D02*
X021277Y016220D01*
X020981Y016141D02*
X020893Y016141D01*
X020937Y016063D02*
X020937Y016063D01*
X020937Y015984D02*
X020937Y015984D01*
X020937Y015906D02*
X020937Y015906D01*
X020937Y015827D02*
X020937Y015827D01*
X020937Y015749D02*
X020937Y015749D01*
X020937Y015670D02*
X020937Y015670D01*
X020937Y015592D02*
X020937Y015592D01*
X020937Y015513D02*
X020937Y015513D01*
X020937Y015435D02*
X020937Y015435D01*
X020937Y015356D02*
X020937Y015356D01*
X020937Y015277D02*
X020937Y015277D01*
X020937Y015199D02*
X020937Y015199D01*
X021027Y015120D02*
X018971Y015120D01*
X018971Y015199D02*
X019937Y015199D01*
X019937Y015277D02*
X019161Y015277D01*
X019187Y015356D02*
X019458Y015356D01*
X019372Y015435D02*
X019187Y015435D01*
X019138Y015042D02*
X021027Y015042D01*
X021027Y014963D02*
X019187Y014963D01*
X019187Y014885D02*
X021027Y014885D01*
X021027Y014806D02*
X019187Y014806D01*
X019187Y014728D02*
X019567Y014728D01*
X019521Y014649D02*
X019187Y014649D01*
X019187Y014571D02*
X019521Y014571D01*
X019521Y014492D02*
X019187Y014492D01*
X019187Y014413D02*
X019521Y014413D01*
X019521Y014335D02*
X019187Y014335D01*
X019140Y014256D02*
X019521Y014256D01*
X019521Y014178D02*
X018223Y014178D01*
X018223Y014099D02*
X019521Y014099D01*
X019572Y014021D02*
X019159Y014021D01*
X019187Y013942D02*
X019529Y013942D01*
X019521Y013864D02*
X019187Y013864D01*
X019187Y013785D02*
X019521Y013785D01*
X019521Y013707D02*
X019187Y013707D01*
X019187Y013628D02*
X019521Y013628D01*
X019521Y013549D02*
X019187Y013549D01*
X019187Y013471D02*
X019521Y013471D01*
X019521Y013392D02*
X019187Y013392D01*
X019187Y013314D02*
X019531Y013314D01*
X019777Y013235D02*
X019119Y013235D01*
X019037Y013003D02*
X019037Y010603D01*
X022177Y007463D01*
X022177Y006403D01*
X022922Y006403D01*
X022922Y005943D01*
X023237Y005943D02*
X023237Y005798D01*
X024137Y005995D02*
X024137Y007803D01*
X024837Y007803D02*
X024837Y006633D01*
X024832Y006731D01*
X025029Y006731D02*
X025029Y006373D01*
X024637Y006373D01*
X024637Y006389D01*
X024489Y006389D01*
X024489Y005995D02*
X024137Y005995D01*
X025037Y006373D02*
X025417Y006373D01*
X025417Y006633D01*
X025423Y006731D01*
X025226Y006731D02*
X025226Y007103D01*
X025237Y007303D01*
X025029Y006731D02*
X025037Y006633D01*
X025037Y006373D01*
X025417Y006373D02*
X025417Y006192D01*
X025417Y005803D01*
X025237Y005803D01*
X025237Y005554D01*
X025226Y005456D01*
X025423Y005456D02*
X025423Y004603D01*
X023637Y004603D01*
X021347Y004603D01*
X021347Y005943D01*
X021637Y005943D02*
X021662Y005943D01*
X021977Y005943D02*
X021977Y007363D01*
X018837Y010503D01*
X018837Y013648D01*
X018811Y013648D01*
X018463Y014021D02*
X018411Y014021D01*
X018392Y014256D02*
X018481Y014256D01*
X018811Y014648D02*
X018811Y015648D01*
X019637Y015648D01*
X020187Y015648D01*
X020437Y015670D02*
X020437Y015670D01*
X020437Y015592D02*
X020437Y015592D01*
X020437Y015513D02*
X020437Y015513D01*
X020437Y015435D02*
X020437Y015435D01*
X020437Y015356D02*
X020437Y015356D01*
X020437Y015277D02*
X020437Y015277D01*
X020437Y015199D02*
X020437Y015199D01*
X020437Y015198D02*
X020437Y016098D01*
X020507Y016168D01*
X020527Y016168D01*
X020527Y016168D01*
X018223Y016168D01*
X018223Y016063D01*
X018368Y016063D01*
X018437Y015995D01*
X018505Y016063D01*
X019116Y016063D01*
X019187Y015993D01*
X019187Y015808D01*
X019337Y015808D01*
X019350Y015839D01*
X019445Y015934D01*
X019569Y015986D01*
X019704Y015986D01*
X019828Y015934D01*
X019923Y015839D01*
X019936Y015808D01*
X019937Y015808D01*
X019937Y016098D01*
X020007Y016168D01*
X020366Y016168D01*
X020437Y016098D01*
X020437Y015198D01*
X020307Y014728D02*
X020567Y014728D01*
X020521Y014649D02*
X020352Y014649D01*
X020352Y014571D02*
X020521Y014571D01*
X020937Y014377D02*
X021187Y014377D01*
X021187Y015648D01*
X020687Y015648D02*
X020687Y016328D01*
X018063Y016328D01*
X018223Y016141D02*
X019981Y016141D01*
X019937Y016063D02*
X019116Y016063D01*
X019187Y015984D02*
X019566Y015984D01*
X019708Y015984D02*
X019937Y015984D01*
X019937Y015906D02*
X019857Y015906D01*
X019928Y015827D02*
X019937Y015827D01*
X019416Y015906D02*
X019187Y015906D01*
X019187Y015827D02*
X019345Y015827D01*
X019816Y015356D02*
X019937Y015356D01*
X019937Y015435D02*
X019902Y015435D01*
X020437Y015749D02*
X020437Y015749D01*
X020437Y015827D02*
X020437Y015827D01*
X020437Y015906D02*
X020437Y015906D01*
X020437Y015984D02*
X020437Y015984D01*
X020437Y016063D02*
X020437Y016063D01*
X020393Y016141D02*
X020481Y016141D01*
X021437Y016703D02*
X021437Y013629D01*
X020937Y013629D01*
X019937Y013629D02*
X019937Y013003D01*
X019037Y013003D01*
X017687Y013707D02*
X016033Y013707D01*
X016033Y013785D02*
X017687Y013785D01*
X017687Y013864D02*
X016987Y013864D01*
X016987Y013942D02*
X017119Y013942D01*
X017046Y014021D02*
X016987Y014021D01*
X017337Y014203D02*
X016611Y014203D01*
X016987Y014413D02*
X017069Y014413D01*
X016987Y014492D02*
X017151Y014492D01*
X016964Y014571D02*
X017687Y014571D01*
X017687Y014649D02*
X015137Y014649D01*
X015137Y014571D02*
X015510Y014571D01*
X015487Y014492D02*
X015137Y014492D01*
X015137Y014413D02*
X015487Y014413D01*
X015487Y014335D02*
X015137Y014335D01*
X015137Y014256D02*
X015487Y014256D01*
X015487Y014178D02*
X015137Y014178D01*
X015137Y014099D02*
X015487Y014099D01*
X015487Y014021D02*
X015137Y014021D01*
X015137Y013942D02*
X015487Y013942D01*
X015487Y013864D02*
X015137Y013864D01*
X015137Y013785D02*
X015693Y013785D01*
X015693Y013707D02*
X015137Y013707D01*
X015137Y013628D02*
X015693Y013628D01*
X015693Y013549D02*
X015137Y013549D01*
X015137Y013471D02*
X015693Y013471D01*
X015636Y013392D02*
X015137Y013392D01*
X015137Y013314D02*
X015605Y013314D01*
X015605Y013235D02*
X015137Y013235D01*
X015137Y013157D02*
X015605Y013157D01*
X015605Y013078D02*
X015137Y013078D01*
X015137Y013000D02*
X015605Y013000D01*
X015605Y012921D02*
X015137Y012921D01*
X015137Y012843D02*
X015630Y012843D01*
X015715Y012607D02*
X015137Y012607D01*
X015137Y012528D02*
X015677Y012528D01*
X015677Y012450D02*
X015137Y012450D01*
X015137Y012371D02*
X015639Y012371D01*
X015605Y012293D02*
X015137Y012293D01*
X015137Y012214D02*
X015605Y012214D01*
X015605Y012136D02*
X015137Y012136D01*
X015137Y012057D02*
X015605Y012057D01*
X015605Y011979D02*
X015139Y011979D01*
X015218Y011900D02*
X015605Y011900D01*
X015628Y011822D02*
X015253Y011822D01*
X015275Y011743D02*
X016077Y011743D01*
X016077Y011664D02*
X015275Y011664D01*
X015254Y011586D02*
X016077Y011586D01*
X016077Y011507D02*
X015219Y011507D01*
X015141Y011429D02*
X015368Y011429D01*
X015321Y011350D02*
X015137Y011350D01*
X015137Y011272D02*
X015321Y011272D01*
X015321Y011193D02*
X015137Y011193D01*
X015137Y011115D02*
X015321Y011115D01*
X015321Y011036D02*
X015137Y011036D01*
X015137Y010958D02*
X015321Y010958D01*
X015321Y010879D02*
X015137Y010879D01*
X015137Y010800D02*
X015321Y010800D01*
X015371Y010722D02*
X015137Y010722D01*
X015137Y010643D02*
X015330Y010643D01*
X015321Y010565D02*
X015179Y010565D01*
X014737Y010643D02*
X014252Y010643D01*
X014252Y010565D02*
X014695Y010565D01*
X014636Y010486D02*
X014252Y010486D01*
X014252Y010408D02*
X014603Y010408D01*
X014599Y010329D02*
X014252Y010329D01*
X014252Y010251D02*
X014603Y010251D01*
X014636Y010172D02*
X014201Y010172D01*
X013837Y010529D02*
X013837Y010603D01*
X013057Y010603D01*
X011937Y011723D01*
X011937Y013503D01*
X012446Y013503D01*
X012348Y013504D01*
X012348Y013308D02*
X012744Y013308D01*
X012744Y013415D01*
X012724Y013435D01*
X012724Y013603D01*
X012724Y013799D01*
X012724Y013916D01*
X012840Y013916D01*
X013037Y013916D01*
X013234Y013916D01*
X013350Y013916D01*
X013350Y013799D01*
X013350Y013602D01*
X013350Y013405D01*
X013350Y013290D01*
X013233Y013290D01*
X013065Y013290D01*
X013045Y013310D01*
X012938Y013310D01*
X012831Y013310D01*
X012811Y013290D01*
X012744Y013290D01*
X012744Y013307D01*
X012348Y013307D01*
X012348Y013308D01*
X012347Y013235D02*
X012348Y013235D01*
X012347Y013157D02*
X012348Y013157D01*
X012572Y013078D02*
X012097Y013078D01*
X012097Y013000D02*
X012572Y013000D01*
X012572Y012921D02*
X012097Y012921D01*
X012097Y012843D02*
X012572Y012843D01*
X012572Y012764D02*
X012097Y012764D01*
X012097Y012686D02*
X012572Y012686D01*
X012573Y012607D02*
X012097Y012607D01*
X012097Y012528D02*
X012821Y012528D01*
X012938Y012528D02*
X012938Y012528D01*
X012938Y012607D02*
X012938Y012607D01*
X012938Y012686D02*
X012938Y012686D01*
X012938Y012764D02*
X012938Y012764D01*
X012938Y012843D02*
X012938Y012843D01*
X012938Y012914D02*
X012938Y013310D01*
X012938Y012914D01*
X012938Y012914D01*
X012938Y012921D02*
X012938Y012921D01*
X012938Y013000D02*
X012938Y013000D01*
X012938Y013078D02*
X012938Y013078D01*
X012938Y013157D02*
X012938Y013157D01*
X012938Y013235D02*
X012938Y013235D01*
X012744Y013314D02*
X013350Y013314D01*
X013350Y013392D02*
X012744Y013392D01*
X012724Y013471D02*
X013350Y013471D01*
X013350Y013549D02*
X012724Y013549D01*
X012724Y013628D02*
X013350Y013628D01*
X013350Y013707D02*
X012724Y013707D01*
X012724Y013785D02*
X013350Y013785D01*
X013350Y013864D02*
X012724Y013864D01*
X012572Y014099D02*
X011287Y014099D01*
X011390Y014178D02*
X012572Y014178D01*
X012572Y014256D02*
X011442Y014256D01*
X011474Y014335D02*
X012572Y014335D01*
X012572Y014413D02*
X011475Y014413D01*
X011466Y014492D02*
X012572Y014492D01*
X012572Y014571D02*
X012318Y014571D01*
X012155Y014571D02*
X011433Y014571D01*
X011369Y014649D02*
X012012Y014649D01*
X011943Y014728D02*
X011236Y014728D01*
X011037Y014728D02*
X009590Y014728D01*
X009669Y014649D02*
X010905Y014649D01*
X010840Y014571D02*
X009704Y014571D01*
X009725Y014492D02*
X009854Y014492D01*
X009776Y014413D02*
X009725Y014413D01*
X009991Y014403D02*
X011137Y014403D01*
X010832Y015120D02*
X011976Y015120D01*
X012068Y015199D02*
X010911Y015199D01*
X010951Y015277D02*
X012577Y015277D01*
X012577Y015199D02*
X012405Y015199D01*
X012497Y015120D02*
X012577Y015120D01*
X012577Y015042D02*
X012545Y015042D01*
X012575Y014963D02*
X012577Y014963D01*
X012575Y014885D02*
X012577Y014885D01*
X012577Y014806D02*
X012563Y014806D01*
X012577Y014728D02*
X012530Y014728D01*
X012577Y014649D02*
X012461Y014649D01*
X012237Y014903D02*
X009248Y014903D01*
X008737Y014392D01*
X008611Y014392D01*
X008611Y014203D02*
X008611Y014195D01*
X009129Y014195D01*
X009387Y014453D01*
X008846Y014728D02*
X008509Y014728D01*
X008495Y014649D02*
X008768Y014649D01*
X008689Y014571D02*
X008495Y014571D01*
X008326Y014677D02*
X008326Y014771D01*
X008958Y015403D01*
X010637Y015403D01*
X010957Y015513D02*
X011601Y015513D01*
X011601Y015435D02*
X010975Y015435D01*
X010975Y015356D02*
X011660Y015356D01*
X011683Y015333D02*
X011997Y015333D01*
X011997Y015689D01*
X011601Y015689D01*
X011601Y015415D01*
X011683Y015333D01*
X011601Y015592D02*
X010924Y015592D01*
X010847Y015670D02*
X011601Y015670D01*
X011601Y015827D02*
X009097Y015827D01*
X009097Y015749D02*
X011997Y015749D01*
X011997Y015670D02*
X012077Y015670D01*
X012077Y015689D02*
X012077Y015333D01*
X012390Y015333D01*
X012472Y015415D01*
X012472Y015689D01*
X012077Y015689D01*
X012077Y015749D02*
X012577Y015749D01*
X012577Y015827D02*
X012472Y015827D01*
X012472Y015906D02*
X012577Y015906D01*
X012577Y015984D02*
X012472Y015984D01*
X012452Y016063D02*
X012577Y016063D01*
X012737Y016277D02*
X012037Y016277D01*
X012037Y016477D01*
X012037Y016277D02*
X011111Y016277D01*
X011111Y016303D01*
X011487Y016063D02*
X011622Y016063D01*
X011601Y015984D02*
X011487Y015984D01*
X011435Y015906D02*
X011601Y015906D01*
X011997Y015592D02*
X012077Y015592D01*
X012077Y015513D02*
X011997Y015513D01*
X011997Y015435D02*
X012077Y015435D01*
X012077Y015356D02*
X011997Y015356D01*
X012413Y015356D02*
X012577Y015356D01*
X012577Y015435D02*
X012472Y015435D01*
X012472Y015513D02*
X012577Y015513D01*
X012577Y015592D02*
X012472Y015592D01*
X012472Y015670D02*
X012577Y015670D01*
X012737Y016277D02*
X012737Y016303D01*
X012737Y016803D01*
X012957Y017023D01*
X012957Y017883D01*
X012957Y018193D02*
X011111Y018193D01*
X011111Y018303D01*
X011487Y018419D02*
X011594Y018419D01*
X011577Y018498D02*
X011487Y018498D01*
X011487Y018576D02*
X011577Y018576D01*
X011577Y018655D02*
X011480Y018655D01*
X011577Y018733D02*
X008397Y018733D01*
X008397Y018655D02*
X009994Y018655D01*
X009987Y018576D02*
X008397Y018576D01*
X008397Y018498D02*
X009987Y018498D01*
X009987Y018419D02*
X008397Y018419D01*
X008397Y018341D02*
X009987Y018341D01*
X009987Y018262D02*
X008397Y018262D01*
X008397Y018184D02*
X009987Y018184D01*
X009987Y018105D02*
X008397Y018105D01*
X008397Y018026D02*
X009987Y018026D01*
X009997Y017948D02*
X008397Y017948D01*
X008397Y017869D02*
X010203Y017869D01*
X010203Y017791D02*
X008397Y017791D01*
X008397Y017712D02*
X010051Y017712D01*
X009987Y017634D02*
X009021Y017634D01*
X009162Y017555D02*
X009987Y017555D01*
X009987Y017477D02*
X009231Y017477D01*
X009263Y017398D02*
X009987Y017398D01*
X009987Y017320D02*
X009275Y017320D01*
X009275Y017241D02*
X009987Y017241D01*
X009987Y017162D02*
X009244Y017162D01*
X009196Y017084D02*
X009987Y017084D01*
X009987Y017005D02*
X009102Y017005D01*
X009097Y016927D02*
X010018Y016927D01*
X010203Y016848D02*
X009097Y016848D01*
X009097Y016770D02*
X010203Y016770D01*
X010030Y016691D02*
X009097Y016691D01*
X009097Y016613D02*
X009987Y016613D01*
X009987Y016534D02*
X009097Y016534D01*
X009097Y016456D02*
X009987Y016456D01*
X009987Y016377D02*
X009097Y016377D01*
X009097Y016299D02*
X009987Y016299D01*
X009987Y016220D02*
X009097Y016220D01*
X009097Y016141D02*
X009987Y016141D01*
X009987Y016063D02*
X009097Y016063D01*
X009097Y015984D02*
X009987Y015984D01*
X010039Y015906D02*
X009097Y015906D01*
X008937Y015732D02*
X008937Y017303D01*
X008629Y017162D02*
X008397Y017162D01*
X008397Y017084D02*
X008677Y017084D01*
X008771Y017005D02*
X008397Y017005D01*
X008397Y016927D02*
X008777Y016927D01*
X008777Y016848D02*
X008397Y016848D01*
X008397Y016770D02*
X008777Y016770D01*
X008777Y016691D02*
X008397Y016691D01*
X008397Y016613D02*
X008777Y016613D01*
X008777Y016534D02*
X008397Y016534D01*
X008397Y016456D02*
X008777Y016456D01*
X008777Y016377D02*
X008397Y016377D01*
X008397Y016299D02*
X008777Y016299D01*
X008777Y016220D02*
X008397Y016220D01*
X008397Y016141D02*
X008777Y016141D01*
X008777Y016063D02*
X008397Y016063D01*
X008397Y015984D02*
X008777Y015984D01*
X008777Y015906D02*
X008397Y015906D01*
X008397Y015827D02*
X008777Y015827D01*
X008727Y015749D02*
X008397Y015749D01*
X008397Y015670D02*
X008648Y015670D01*
X008570Y015592D02*
X008397Y015592D01*
X008397Y015513D02*
X008491Y015513D01*
X008413Y015435D02*
X008397Y015435D01*
X008237Y015403D02*
X008237Y018842D01*
X007876Y019203D01*
X007437Y019203D01*
X007437Y020503D01*
X007463Y020503D01*
X007828Y020147D02*
X007846Y020147D01*
X007597Y020069D02*
X009416Y020069D01*
X009406Y020147D02*
X008576Y020147D01*
X008587Y020226D02*
X009381Y020226D01*
X009381Y020304D02*
X008587Y020304D01*
X008587Y020383D02*
X009381Y020383D01*
X009381Y020461D02*
X008587Y020461D01*
X008587Y020540D02*
X009381Y020540D01*
X009381Y020618D02*
X008587Y020618D01*
X008587Y020697D02*
X009381Y020697D01*
X009381Y020775D02*
X008587Y020775D01*
X008580Y020854D02*
X010447Y020854D01*
X010447Y020933D02*
X008397Y020933D01*
X008397Y021011D02*
X010510Y021011D01*
X010447Y020775D02*
X010212Y020775D01*
X009837Y020603D02*
X010823Y020603D01*
X011135Y021011D02*
X011258Y021011D01*
X011571Y020603D02*
X011571Y019603D01*
X012037Y019603D01*
X011571Y019603D02*
X011347Y019603D01*
X011037Y019603D02*
X010823Y019603D01*
X010823Y019003D01*
X011737Y019003D01*
X011737Y018503D01*
X012957Y018503D01*
X013327Y017948D02*
X013332Y017948D01*
X013527Y017623D02*
X013527Y017293D01*
X012937Y016703D01*
X012937Y014193D01*
X012938Y014292D01*
X012741Y014292D02*
X012737Y014193D01*
X012737Y016277D01*
X013737Y016203D02*
X013937Y016003D01*
X013937Y013898D01*
X013726Y013898D01*
X013726Y013701D02*
X014147Y013701D01*
X014147Y017623D01*
X013837Y017623D02*
X013837Y017003D01*
X013737Y016903D01*
X014337Y016203D02*
X014337Y013504D01*
X013726Y013504D01*
X013726Y013308D02*
X013726Y012914D01*
X013937Y012703D01*
X013726Y012914D02*
X013332Y012914D01*
X013135Y012914D01*
X013501Y012686D02*
X013599Y012686D01*
X013610Y012607D02*
X013500Y012607D01*
X013643Y012528D02*
X013056Y012528D01*
X013711Y012450D02*
X012097Y012450D01*
X012097Y012371D02*
X013853Y012371D01*
X014020Y012371D02*
X014737Y012371D01*
X014737Y012293D02*
X012097Y012293D01*
X012097Y012214D02*
X014737Y012214D01*
X014737Y012136D02*
X012097Y012136D01*
X012097Y012057D02*
X014737Y012057D01*
X014734Y011979D02*
X012097Y011979D01*
X012097Y011900D02*
X014656Y011900D01*
X014620Y011822D02*
X012097Y011822D01*
X012143Y011743D02*
X014599Y011743D01*
X014599Y011664D02*
X014198Y011664D01*
X014272Y011586D02*
X014619Y011586D01*
X014654Y011507D02*
X014272Y011507D01*
X014272Y011429D02*
X014733Y011429D01*
X014737Y011350D02*
X014272Y011350D01*
X014272Y011193D02*
X014737Y011193D01*
X014737Y011115D02*
X014272Y011115D01*
X014272Y011036D02*
X014737Y011036D01*
X014737Y010958D02*
X014267Y010958D01*
X014207Y010879D02*
X014737Y010879D01*
X014737Y010800D02*
X014252Y010800D01*
X014252Y010722D02*
X014737Y010722D01*
X014737Y011272D02*
X013877Y011272D01*
X013877Y011350D02*
X013797Y011350D01*
X013797Y011272D02*
X012614Y011272D01*
X012535Y011350D02*
X013401Y011350D01*
X013401Y011429D02*
X012457Y011429D01*
X012378Y011507D02*
X013401Y011507D01*
X013401Y011586D02*
X012300Y011586D01*
X012221Y011664D02*
X013475Y011664D01*
X013797Y011664D02*
X013877Y011664D01*
X013877Y011586D02*
X013797Y011586D01*
X013797Y011507D02*
X013877Y011507D01*
X013877Y011429D02*
X013797Y011429D01*
X013401Y011193D02*
X012693Y011193D01*
X012771Y011115D02*
X013401Y011115D01*
X013401Y011036D02*
X012850Y011036D01*
X012928Y010958D02*
X013407Y010958D01*
X013466Y010879D02*
X013007Y010879D01*
X013085Y010800D02*
X013421Y010800D01*
X013123Y010763D02*
X013123Y010763D01*
X013057Y010603D02*
X013057Y008323D01*
X011511Y008323D01*
X011511Y008303D01*
X011887Y008523D02*
X012737Y008523D01*
X012692Y008601D02*
X012897Y008601D01*
X012897Y008680D02*
X012792Y008680D01*
X012843Y008758D02*
X012897Y008758D01*
X012897Y008837D02*
X012875Y008837D01*
X012875Y008915D02*
X012897Y008915D01*
X012897Y008994D02*
X012865Y008994D01*
X012832Y009073D02*
X012897Y009073D01*
X012897Y009151D02*
X012767Y009151D01*
X012897Y009230D02*
X012631Y009230D01*
X012709Y009308D02*
X012897Y009308D01*
X012897Y009387D02*
X012799Y009387D01*
X012846Y009465D02*
X012897Y009465D01*
X012537Y009603D02*
X012537Y010807D01*
X012377Y010722D02*
X010107Y010722D01*
X010107Y010800D02*
X012317Y010800D01*
X012238Y010879D02*
X010107Y010879D01*
X010107Y010958D02*
X012159Y010958D01*
X012081Y011036D02*
X010107Y011036D01*
X010107Y011115D02*
X012002Y011115D01*
X011924Y011193D02*
X010107Y011193D01*
X010107Y011272D02*
X011845Y011272D01*
X011767Y011350D02*
X010107Y011350D01*
X010107Y011429D02*
X011688Y011429D01*
X011610Y011507D02*
X010107Y011507D01*
X010107Y011586D02*
X011577Y011586D01*
X011577Y011664D02*
X010107Y011664D01*
X010107Y011743D02*
X010218Y011743D01*
X010146Y011822D02*
X010107Y011822D01*
X010107Y011900D02*
X010113Y011900D01*
X010655Y011743D02*
X011577Y011743D01*
X011577Y011822D02*
X010728Y011822D01*
X010760Y011900D02*
X011577Y011900D01*
X011577Y011979D02*
X010775Y011979D01*
X010775Y012057D02*
X011577Y012057D01*
X011461Y010643D02*
X012377Y010643D01*
X012377Y010565D02*
X011579Y010565D01*
X011637Y010486D02*
X012377Y010486D01*
X012377Y010408D02*
X011670Y010408D01*
X011675Y010329D02*
X012377Y010329D01*
X012377Y010251D02*
X011670Y010251D01*
X011638Y010172D02*
X012377Y010172D01*
X012377Y010094D02*
X011580Y010094D01*
X011463Y010015D02*
X012377Y010015D01*
X012377Y009936D02*
X010137Y009936D01*
X010137Y009858D02*
X012314Y009858D01*
X012244Y009779D02*
X010137Y009779D01*
X010137Y009701D02*
X010440Y009701D01*
X010387Y009622D02*
X010137Y009622D01*
X010137Y009544D02*
X010387Y009544D01*
X010387Y009465D02*
X010137Y009465D01*
X010137Y009387D02*
X010387Y009387D01*
X010387Y009308D02*
X010137Y009308D01*
X010137Y009230D02*
X010387Y009230D01*
X010387Y009151D02*
X010137Y009151D01*
X010137Y009073D02*
X010387Y009073D01*
X010387Y008994D02*
X010137Y008994D01*
X010137Y008915D02*
X010429Y008915D01*
X010603Y008837D02*
X010137Y008837D01*
X010137Y008758D02*
X010603Y008758D01*
X010419Y008680D02*
X010137Y008680D01*
X010137Y008601D02*
X010387Y008601D01*
X010387Y008523D02*
X010137Y008523D01*
X010137Y008444D02*
X010387Y008444D01*
X010387Y008366D02*
X010137Y008366D01*
X010137Y008287D02*
X010387Y008287D01*
X010387Y008209D02*
X010137Y008209D01*
X010137Y008130D02*
X010387Y008130D01*
X010387Y008051D02*
X010137Y008051D01*
X010137Y007973D02*
X010387Y007973D01*
X010450Y007894D02*
X010137Y007894D01*
X010137Y007816D02*
X010603Y007816D01*
X010603Y007737D02*
X010137Y007737D01*
X010137Y007659D02*
X010398Y007659D01*
X010387Y007580D02*
X010137Y007580D01*
X010137Y007502D02*
X010387Y007502D01*
X010387Y007423D02*
X010137Y007423D01*
X010137Y007345D02*
X010387Y007345D01*
X010387Y007266D02*
X010137Y007266D01*
X010137Y007187D02*
X010387Y007187D01*
X010387Y007109D02*
X010137Y007109D01*
X010137Y007030D02*
X010387Y007030D01*
X010393Y006952D02*
X010137Y006952D01*
X010137Y006873D02*
X012141Y006873D01*
X012109Y006795D02*
X010137Y006795D01*
X010137Y006716D02*
X012099Y006716D01*
X012099Y006638D02*
X010137Y006638D01*
X010137Y006559D02*
X012130Y006559D01*
X012181Y006481D02*
X010137Y006481D01*
X010137Y006402D02*
X012277Y006402D01*
X012277Y006324D02*
X010194Y006324D01*
X010244Y006245D02*
X012277Y006245D01*
X012277Y006166D02*
X010275Y006166D01*
X010275Y006088D02*
X012277Y006088D01*
X012277Y006009D02*
X010264Y006009D01*
X010231Y005931D02*
X012277Y005931D01*
X012277Y005852D02*
X010164Y005852D01*
X010026Y005774D02*
X012277Y005774D01*
X011568Y005381D02*
X011534Y005381D01*
X011203Y005381D02*
X011123Y005381D01*
X011123Y005302D02*
X011203Y005302D01*
X011203Y005224D02*
X011123Y005224D01*
X011123Y005145D02*
X011203Y005145D01*
X011203Y005067D02*
X011123Y005067D01*
X010767Y004831D02*
X008662Y004831D01*
X008662Y004753D02*
X010767Y004753D01*
X010767Y004674D02*
X008662Y004674D01*
X008637Y004596D02*
X010821Y004596D01*
X008501Y005617D02*
X008289Y005617D01*
X008328Y005695D02*
X008501Y005695D01*
X007539Y005695D02*
X007459Y005695D01*
X007459Y005617D02*
X007539Y005617D01*
X007539Y005774D02*
X007459Y005774D01*
X007459Y005852D02*
X007539Y005852D01*
X007539Y005931D02*
X007459Y005931D01*
X007459Y006009D02*
X007539Y006009D01*
X007539Y006088D02*
X007459Y006088D01*
X007459Y006166D02*
X007539Y006166D01*
X007539Y006245D02*
X007459Y006245D01*
X007459Y006481D02*
X007539Y006481D01*
X007539Y006559D02*
X007459Y006559D01*
X007459Y006638D02*
X007539Y006638D01*
X007539Y006716D02*
X007459Y006716D01*
X007459Y006795D02*
X007539Y006795D01*
X007539Y006873D02*
X007459Y006873D01*
X007459Y006952D02*
X007539Y006952D01*
X007539Y007030D02*
X007459Y007030D01*
X007459Y007109D02*
X007539Y007109D01*
X007539Y007187D02*
X007459Y007187D01*
X008290Y007187D02*
X008527Y007187D01*
X008521Y007109D02*
X008328Y007109D01*
X008328Y007030D02*
X008521Y007030D01*
X008521Y006952D02*
X008328Y006952D01*
X008328Y006873D02*
X008501Y006873D01*
X008501Y006795D02*
X008328Y006795D01*
X008521Y007266D02*
X006477Y007266D01*
X006477Y007345D02*
X008521Y007345D01*
X008521Y007423D02*
X006477Y007423D01*
X006497Y007187D02*
X006708Y007187D01*
X006670Y007109D02*
X006497Y007109D01*
X006071Y006952D02*
X006053Y006952D01*
X006053Y006873D02*
X006071Y006873D01*
X006071Y006795D02*
X006053Y006795D01*
X006495Y006559D02*
X006670Y006559D01*
X006670Y006481D02*
X006477Y006481D01*
X006702Y005381D02*
X006721Y005381D01*
X007017Y005381D02*
X007036Y005381D01*
X007332Y005381D02*
X007351Y005381D01*
X008945Y006716D02*
X009737Y006716D01*
X009737Y006638D02*
X009371Y006638D01*
X009371Y006795D02*
X009737Y006795D01*
X009737Y006873D02*
X009371Y006873D01*
X009351Y006952D02*
X009737Y006952D01*
X009737Y007030D02*
X009351Y007030D01*
X009351Y007109D02*
X009737Y007109D01*
X009737Y007187D02*
X009345Y007187D01*
X009351Y007266D02*
X009737Y007266D01*
X009737Y007345D02*
X009351Y007345D01*
X009351Y007423D02*
X009737Y007423D01*
X009737Y007502D02*
X009345Y007502D01*
X009737Y007580D02*
X008662Y007580D01*
X008662Y007659D02*
X009737Y007659D01*
X009737Y007737D02*
X008662Y007737D01*
X008662Y007816D02*
X009737Y007816D01*
X009737Y007894D02*
X008662Y007894D01*
X008662Y007973D02*
X009737Y007973D01*
X009737Y008051D02*
X008662Y008051D01*
X008662Y008130D02*
X009737Y008130D01*
X009737Y008209D02*
X008638Y008209D01*
X008289Y008287D02*
X009737Y008287D01*
X009737Y008366D02*
X008289Y008366D01*
X008289Y008444D02*
X009737Y008444D01*
X009737Y008523D02*
X008289Y008523D01*
X008289Y008601D02*
X009737Y008601D01*
X009737Y008680D02*
X008289Y008680D01*
X008289Y008758D02*
X009737Y008758D01*
X009737Y008837D02*
X008289Y008837D01*
X008289Y008915D02*
X009737Y008915D01*
X009737Y008994D02*
X008289Y008994D01*
X008289Y009073D02*
X009737Y009073D01*
X009737Y009151D02*
X008289Y009151D01*
X008289Y009230D02*
X009737Y009230D01*
X009737Y009308D02*
X008856Y009308D01*
X008935Y009387D02*
X009737Y009387D01*
X009737Y009465D02*
X009013Y009465D01*
X008401Y009308D02*
X008289Y009308D01*
X008289Y009387D02*
X008323Y009387D01*
X007654Y009073D02*
X007507Y009073D01*
X007618Y008915D02*
X007654Y008915D01*
X007654Y008837D02*
X007637Y008837D01*
X007637Y008758D02*
X007654Y008758D01*
X007401Y009308D02*
X006885Y009308D01*
X006963Y009387D02*
X007323Y009387D01*
X007244Y009465D02*
X007042Y009465D01*
X007089Y009544D02*
X007189Y009544D01*
X007189Y009622D02*
X007089Y009622D01*
X006294Y009387D02*
X006197Y009387D01*
X006197Y009465D02*
X006216Y009465D01*
X006037Y010203D02*
X006037Y008503D01*
X005737Y008303D02*
X005737Y010648D01*
X006391Y011303D01*
X007932Y011303D01*
X007932Y012728D01*
X008363Y013000D02*
X006910Y013000D01*
X006910Y013078D02*
X008363Y013078D01*
X008363Y013157D02*
X006910Y013157D01*
X006910Y013235D02*
X008363Y013235D01*
X008363Y013314D02*
X006910Y013314D01*
X006910Y013392D02*
X008363Y013392D01*
X008363Y013471D02*
X006910Y013471D01*
X006930Y013549D02*
X008363Y013549D01*
X008363Y013628D02*
X006930Y013628D01*
X006930Y013707D02*
X008343Y013707D01*
X008343Y013785D02*
X006910Y013785D01*
X006910Y013864D02*
X008343Y013864D01*
X008363Y013942D02*
X006930Y013942D01*
X006930Y014021D02*
X008363Y014021D01*
X008363Y014099D02*
X006930Y014099D01*
X006910Y014178D02*
X008363Y014178D01*
X008363Y014256D02*
X006910Y014256D01*
X006910Y014335D02*
X008363Y014335D01*
X008363Y014413D02*
X006910Y014413D01*
X006779Y014571D02*
X006122Y014571D01*
X006122Y014492D02*
X006416Y014492D01*
X006414Y014413D02*
X006122Y014413D01*
X006094Y014335D02*
X006414Y014335D01*
X006414Y014256D02*
X006080Y014256D01*
X006102Y014178D02*
X006414Y014178D01*
X006394Y014099D02*
X006102Y014099D01*
X006102Y014021D02*
X006394Y014021D01*
X006394Y013998D02*
X006662Y013998D01*
X006394Y013998D01*
X006662Y013998D02*
X006662Y013998D01*
X006167Y013628D02*
X006102Y013628D01*
X006167Y013549D02*
X005087Y013549D01*
X005769Y013014D02*
X005337Y012582D01*
X005337Y011622D01*
X004889Y011174D01*
X004889Y009803D01*
X004811Y009903D01*
X004729Y010329D02*
X004385Y010329D01*
X004103Y010329D02*
X004023Y010329D01*
X004023Y010251D02*
X004103Y010251D01*
X004103Y010172D02*
X004023Y010172D01*
X004023Y010094D02*
X004103Y010094D01*
X004103Y010015D02*
X004023Y010015D01*
X004023Y009936D02*
X002277Y009936D01*
X002277Y009858D02*
X003667Y009858D01*
X003667Y009863D02*
X003667Y009550D01*
X003749Y009468D01*
X004023Y009468D01*
X004023Y009863D01*
X003667Y009863D01*
X003667Y009779D02*
X002277Y009779D01*
X002277Y009701D02*
X003667Y009701D01*
X003667Y009622D02*
X002277Y009622D01*
X002277Y009544D02*
X003673Y009544D01*
X004023Y009544D02*
X004103Y009544D01*
X004103Y009622D02*
X004023Y009622D01*
X004023Y009701D02*
X004103Y009701D01*
X004103Y009779D02*
X004023Y009779D01*
X004023Y009858D02*
X004103Y009858D01*
X003667Y010015D02*
X002277Y010015D01*
X002277Y010094D02*
X003667Y010094D01*
X003667Y010172D02*
X002277Y010172D01*
X002277Y010251D02*
X003667Y010251D01*
X003740Y010329D02*
X002277Y010329D01*
X002277Y010408D02*
X004729Y010408D01*
X004729Y010486D02*
X002277Y010486D01*
X002277Y010565D02*
X004729Y010565D01*
X004729Y010643D02*
X002277Y010643D01*
X002277Y010722D02*
X003676Y010722D01*
X003647Y010751D02*
X003718Y010680D01*
X004250Y010680D01*
X004320Y010751D01*
X004320Y011598D01*
X004250Y011668D01*
X003718Y011668D01*
X003647Y011598D01*
X003647Y010751D01*
X003647Y010800D02*
X002277Y010800D01*
X002277Y010879D02*
X003647Y010879D01*
X003647Y010958D02*
X002277Y010958D01*
X002277Y011036D02*
X003647Y011036D01*
X003647Y011115D02*
X002277Y011115D01*
X002277Y011193D02*
X003647Y011193D01*
X003647Y011272D02*
X002277Y011272D01*
X002277Y011350D02*
X003647Y011350D01*
X003647Y011429D02*
X002277Y011429D01*
X002277Y011507D02*
X003647Y011507D01*
X003647Y011586D02*
X002277Y011586D01*
X002277Y011664D02*
X003714Y011664D01*
X004254Y011664D02*
X004619Y011664D01*
X004553Y011586D02*
X004320Y011586D01*
X004320Y011507D02*
X004553Y011507D01*
X004553Y011429D02*
X004320Y011429D01*
X004320Y011350D02*
X004553Y011350D01*
X004553Y011272D02*
X004320Y011272D01*
X004320Y011193D02*
X004553Y011193D01*
X004553Y011115D02*
X004320Y011115D01*
X004320Y011036D02*
X004553Y011036D01*
X004553Y010958D02*
X004320Y010958D01*
X004320Y010879D02*
X004553Y010879D01*
X004553Y010800D02*
X004320Y010800D01*
X004292Y010722D02*
X004582Y010722D01*
X006037Y010203D02*
X007129Y010203D01*
X007629Y010703D01*
X010107Y010643D02*
X011213Y010643D01*
X011095Y010565D02*
X010107Y010565D01*
X010137Y010094D02*
X011094Y010094D01*
X011211Y010015D02*
X010137Y010015D01*
X010763Y009303D02*
X010763Y008303D01*
X010763Y007303D01*
X011133Y006952D02*
X011141Y006952D01*
X011511Y007303D02*
X012137Y007929D01*
X012221Y008013D01*
X013057Y008013D01*
X012547Y007816D02*
X012250Y007816D01*
X012171Y007737D02*
X012468Y007737D01*
X012390Y007659D02*
X012093Y007659D01*
X012014Y007580D02*
X012311Y007580D01*
X012277Y007502D02*
X011936Y007502D01*
X011887Y007423D02*
X012277Y007423D01*
X012277Y007345D02*
X011887Y007345D01*
X011887Y007266D02*
X012277Y007266D01*
X012277Y007187D02*
X011887Y007187D01*
X011887Y007109D02*
X012277Y007109D01*
X012277Y007030D02*
X011887Y007030D01*
X011881Y006952D02*
X012208Y006952D01*
X013427Y007187D02*
X013472Y007187D01*
X014807Y007030D02*
X014827Y007030D01*
X014827Y007073D02*
X014827Y006843D01*
X015125Y006843D01*
X015207Y006925D01*
X015207Y007073D01*
X014827Y007073D01*
X014827Y006952D02*
X014807Y006952D01*
X014807Y006873D02*
X014827Y006873D01*
X015155Y006873D02*
X017737Y006873D01*
X017737Y006952D02*
X015207Y006952D01*
X015207Y007030D02*
X017737Y007030D01*
X017737Y007109D02*
X017298Y007109D01*
X017352Y007187D02*
X017737Y007187D01*
X017737Y007266D02*
X017352Y007266D01*
X017352Y007345D02*
X017737Y007345D01*
X017737Y007423D02*
X017352Y007423D01*
X016937Y008217D02*
X016937Y009103D01*
X016811Y009243D01*
X016469Y009622D02*
X016404Y009622D01*
X016697Y009936D02*
X016777Y009936D01*
X016777Y010015D02*
X016697Y010015D01*
X016697Y010094D02*
X016777Y010094D01*
X016777Y010172D02*
X016697Y010172D01*
X016697Y010289D02*
X016301Y010289D01*
X016301Y010408D02*
X016152Y010408D01*
X016152Y010486D02*
X016301Y010486D01*
X016301Y010565D02*
X016152Y010565D01*
X016143Y010643D02*
X016302Y010643D01*
X016371Y010722D02*
X016103Y010722D01*
X016152Y010800D02*
X016321Y010800D01*
X016321Y010879D02*
X016152Y010879D01*
X016237Y011077D02*
X015737Y011077D01*
X016237Y011077D02*
X016237Y012091D01*
X015863Y012091D02*
X015837Y012091D01*
X015837Y012503D01*
X016611Y012503D01*
X016611Y012103D01*
X016611Y012091D01*
X016611Y012103D02*
X017237Y012103D01*
X016961Y011900D02*
X016868Y011900D01*
X016846Y011822D02*
X017040Y011822D01*
X016949Y012293D02*
X016868Y012293D01*
X016835Y012371D02*
X017027Y012371D01*
X016266Y012843D02*
X016208Y012843D01*
X016208Y012921D02*
X016266Y012921D01*
X016266Y013000D02*
X016208Y013000D01*
X016208Y013078D02*
X016266Y013078D01*
X016611Y013115D02*
X016611Y013503D01*
X015863Y013503D01*
X015863Y013603D01*
X014737Y013628D02*
X014497Y013628D01*
X014497Y013549D02*
X014737Y013549D01*
X014737Y013471D02*
X014497Y013471D01*
X014451Y013392D02*
X014737Y013392D01*
X014737Y013314D02*
X014102Y013314D01*
X014102Y013235D02*
X014737Y013235D01*
X014737Y013157D02*
X014050Y013157D01*
X014104Y013000D02*
X014737Y013000D01*
X014737Y013078D02*
X013886Y013078D01*
X014196Y012921D02*
X014737Y012921D01*
X014737Y012843D02*
X014245Y012843D01*
X014275Y012764D02*
X014737Y012764D01*
X014737Y012686D02*
X014275Y012686D01*
X014263Y012607D02*
X014737Y012607D01*
X014737Y012528D02*
X014230Y012528D01*
X014162Y012450D02*
X014737Y012450D01*
X014737Y013707D02*
X014497Y013707D01*
X014497Y013785D02*
X014737Y013785D01*
X014737Y013864D02*
X014497Y013864D01*
X014497Y013942D02*
X014737Y013942D01*
X014737Y014021D02*
X014497Y014021D01*
X014497Y014099D02*
X014737Y014099D01*
X014737Y014178D02*
X014497Y014178D01*
X014497Y014256D02*
X014737Y014256D01*
X014737Y014335D02*
X014497Y014335D01*
X014497Y014413D02*
X014737Y014413D01*
X014737Y014492D02*
X014497Y014492D01*
X014497Y014571D02*
X014737Y014571D01*
X014737Y014649D02*
X014497Y014649D01*
X014497Y014728D02*
X014737Y014728D01*
X014737Y014806D02*
X014497Y014806D01*
X014497Y014885D02*
X014737Y014885D01*
X014737Y014963D02*
X014497Y014963D01*
X014497Y015042D02*
X014737Y015042D01*
X014737Y015120D02*
X014497Y015120D01*
X014497Y015199D02*
X014737Y015199D01*
X014737Y015277D02*
X014497Y015277D01*
X014497Y015356D02*
X014705Y015356D01*
X014640Y015435D02*
X014497Y015435D01*
X014497Y015513D02*
X014608Y015513D01*
X014599Y015536D02*
X014599Y015670D01*
X014631Y015749D02*
X014497Y015749D01*
X014497Y015827D02*
X014683Y015827D01*
X014785Y015906D02*
X014497Y015906D01*
X014497Y015984D02*
X015421Y015984D01*
X015421Y015906D02*
X015089Y015906D01*
X015190Y015827D02*
X015421Y015827D01*
X015444Y015749D02*
X015242Y015749D01*
X015275Y015670D02*
X015429Y015670D01*
X015401Y015592D02*
X015275Y015592D01*
X015265Y015513D02*
X015401Y015513D01*
X015401Y015435D02*
X015233Y015435D01*
X015168Y015356D02*
X015797Y015356D01*
X015797Y015289D02*
X015401Y015289D01*
X015401Y015015D01*
X015483Y014933D01*
X015797Y014933D01*
X015797Y015289D01*
X015797Y015277D02*
X015877Y015277D01*
X015877Y015289D02*
X015877Y014933D01*
X016190Y014933D01*
X016272Y015015D01*
X016272Y015289D01*
X015877Y015289D01*
X015877Y015356D02*
X016277Y015356D01*
X016272Y015435D02*
X016277Y015435D01*
X016272Y015513D02*
X016277Y015513D01*
X016272Y015592D02*
X016277Y015592D01*
X016277Y015670D02*
X016244Y015670D01*
X016229Y015749D02*
X016277Y015749D01*
X016277Y015827D02*
X016252Y015827D01*
X016252Y015906D02*
X016277Y015906D01*
X016277Y015984D02*
X016252Y015984D01*
X016272Y015277D02*
X016277Y015277D01*
X016272Y015199D02*
X016340Y015199D01*
X016272Y015120D02*
X016621Y015120D01*
X016621Y015042D02*
X016272Y015042D01*
X016220Y014963D02*
X016681Y014963D01*
X016258Y014571D02*
X016216Y014571D01*
X015877Y014963D02*
X015797Y014963D01*
X015797Y015042D02*
X015877Y015042D01*
X015877Y015120D02*
X015797Y015120D01*
X015797Y015199D02*
X015877Y015199D01*
X015401Y015199D02*
X015137Y015199D01*
X015137Y015277D02*
X015401Y015277D01*
X015401Y015120D02*
X015137Y015120D01*
X015137Y015042D02*
X015401Y015042D01*
X015453Y014963D02*
X015137Y014963D01*
X015137Y014885D02*
X017687Y014885D01*
X017687Y014963D02*
X017392Y014963D01*
X017452Y015042D02*
X017736Y015042D01*
X017903Y015120D02*
X017452Y015120D01*
X017452Y015199D02*
X017903Y015199D01*
X017712Y015277D02*
X017452Y015277D01*
X017687Y014806D02*
X015137Y014806D01*
X015137Y014728D02*
X017687Y014728D01*
X017687Y014492D02*
X017522Y014492D01*
X017604Y014413D02*
X017687Y014413D01*
X017687Y014335D02*
X017648Y014335D01*
X017675Y014256D02*
X017733Y014256D01*
X017675Y014178D02*
X017903Y014178D01*
X017903Y014099D02*
X017660Y014099D01*
X017627Y014021D02*
X017715Y014021D01*
X017687Y013942D02*
X017554Y013942D01*
X019937Y014377D02*
X020937Y014377D01*
X021887Y014806D02*
X022027Y014806D01*
X022027Y014885D02*
X021887Y014885D01*
X021887Y014963D02*
X022027Y014963D01*
X022027Y015042D02*
X021887Y015042D01*
X021887Y015120D02*
X022027Y015120D01*
X021937Y015199D02*
X021937Y015199D01*
X021937Y015277D02*
X021937Y015277D01*
X021937Y015356D02*
X021937Y015356D01*
X021937Y015435D02*
X021937Y015435D01*
X021937Y015513D02*
X021937Y015513D01*
X021937Y015592D02*
X021937Y015592D01*
X021937Y015670D02*
X021937Y015670D01*
X021937Y015749D02*
X021937Y015749D01*
X021937Y015827D02*
X021937Y015827D01*
X021937Y015906D02*
X021937Y015906D01*
X021937Y015984D02*
X021937Y015984D01*
X021937Y016063D02*
X021937Y016063D01*
X021893Y016141D02*
X021981Y016141D01*
X021597Y016220D02*
X022527Y016220D01*
X022527Y016299D02*
X021597Y016299D01*
X021597Y016377D02*
X022527Y016377D01*
X022527Y016456D02*
X021597Y016456D01*
X021597Y016534D02*
X022527Y016534D01*
X022687Y016703D02*
X021437Y016703D01*
X022097Y016927D02*
X028397Y016927D01*
X028397Y017005D02*
X022097Y017005D01*
X022097Y017084D02*
X022579Y017084D01*
X022527Y017162D02*
X022097Y017162D01*
X022097Y017241D02*
X022527Y017241D01*
X022527Y017320D02*
X022097Y017320D01*
X022402Y017398D02*
X022472Y017398D01*
X022437Y017477D02*
X022437Y017477D01*
X022437Y017555D02*
X022437Y017555D01*
X022437Y017634D02*
X022437Y017634D01*
X022437Y017712D02*
X022437Y017712D01*
X022437Y017791D02*
X022437Y017791D01*
X022437Y017869D02*
X022437Y017869D01*
X022437Y017948D02*
X022437Y017948D01*
X022437Y018026D02*
X022437Y018026D01*
X022437Y018105D02*
X022437Y018105D01*
X022437Y018184D02*
X022437Y018184D01*
X022437Y018262D02*
X022437Y018262D01*
X022429Y018341D02*
X022445Y018341D01*
X022347Y018419D02*
X024303Y018419D01*
X024303Y018341D02*
X023429Y018341D01*
X023437Y018262D02*
X024121Y018262D01*
X024087Y018184D02*
X023894Y018184D01*
X023993Y018105D02*
X024087Y018105D01*
X024127Y018498D02*
X022347Y018498D01*
X022347Y018576D02*
X024087Y018576D01*
X024087Y018655D02*
X022347Y018655D01*
X022347Y018733D02*
X024087Y018733D01*
X024087Y018812D02*
X022347Y018812D01*
X021777Y018637D02*
X021777Y018423D01*
X021712Y018423D01*
X021712Y017908D01*
X021662Y017908D01*
X021662Y018423D01*
X021499Y018423D01*
X021423Y018347D01*
X021366Y018403D01*
X021347Y018403D01*
X021347Y018918D01*
X021352Y018923D01*
X021352Y019534D01*
X021284Y019603D01*
X021352Y019671D01*
X021352Y019817D01*
X021477Y019817D01*
X021477Y018937D01*
X021570Y018843D01*
X021777Y018637D01*
X021758Y018655D02*
X021347Y018655D01*
X021347Y018733D02*
X021680Y018733D01*
X021601Y018812D02*
X021347Y018812D01*
X021347Y018890D02*
X021523Y018890D01*
X021477Y018969D02*
X021352Y018969D01*
X021352Y019048D02*
X021477Y019048D01*
X021477Y019126D02*
X021352Y019126D01*
X021352Y019205D02*
X021477Y019205D01*
X021477Y019283D02*
X021352Y019283D01*
X021352Y019362D02*
X021477Y019362D01*
X021477Y019440D02*
X021352Y019440D01*
X021352Y019519D02*
X021477Y019519D01*
X021477Y019597D02*
X021289Y019597D01*
X021352Y019676D02*
X021477Y019676D01*
X021477Y019754D02*
X021352Y019754D01*
X020937Y019229D02*
X019937Y019229D01*
X020352Y019048D02*
X020521Y019048D01*
X020521Y018969D02*
X020352Y018969D01*
X020319Y018890D02*
X020554Y018890D01*
X021347Y018576D02*
X021777Y018576D01*
X021777Y018498D02*
X021347Y018498D01*
X021347Y018419D02*
X021495Y018419D01*
X021662Y018419D02*
X021712Y018419D01*
X021712Y018341D02*
X021662Y018341D01*
X021662Y018262D02*
X021712Y018262D01*
X021712Y018184D02*
X021662Y018184D01*
X021662Y018105D02*
X021712Y018105D01*
X021712Y018026D02*
X021662Y018026D01*
X021662Y017948D02*
X021712Y017948D01*
X021712Y017791D02*
X021662Y017791D01*
X021662Y017712D02*
X021712Y017712D01*
X021712Y017634D02*
X021662Y017634D01*
X021662Y017555D02*
X021712Y017555D01*
X021712Y017477D02*
X021662Y017477D01*
X021662Y017398D02*
X021712Y017398D01*
X021443Y017398D02*
X021402Y017398D01*
X022187Y017883D02*
X022187Y019229D01*
X022337Y019229D01*
X023337Y019229D01*
X022921Y019048D02*
X022752Y019048D01*
X022752Y018969D02*
X022921Y018969D01*
X022954Y018890D02*
X022719Y018890D01*
X022929Y018341D02*
X022945Y018341D01*
X022937Y018262D02*
X022937Y018262D01*
X022937Y018184D02*
X022937Y018184D01*
X022937Y018105D02*
X022937Y018105D01*
X022937Y018026D02*
X022937Y018026D01*
X022937Y017948D02*
X022937Y017948D01*
X022937Y017869D02*
X022937Y017869D01*
X022937Y017791D02*
X022937Y017791D01*
X022937Y017712D02*
X022937Y017712D01*
X022937Y017634D02*
X022937Y017634D01*
X022937Y017555D02*
X022937Y017555D01*
X022937Y017477D02*
X022937Y017477D01*
X022902Y017398D02*
X022972Y017398D01*
X022847Y017363D02*
X022847Y017363D01*
X022687Y017203D02*
X025211Y017203D01*
X025211Y017883D01*
X025211Y018883D01*
X025211Y019883D01*
X025587Y019911D02*
X026511Y019911D01*
X026467Y019955D02*
X026689Y019733D01*
X026980Y019613D01*
X027294Y019613D01*
X027584Y019733D01*
X027806Y019955D01*
X027927Y020246D01*
X027927Y020560D01*
X027806Y020850D01*
X027584Y021073D01*
X027294Y021193D01*
X026980Y021193D01*
X026689Y021073D01*
X026467Y020850D01*
X026347Y020560D01*
X026347Y020246D01*
X026467Y019955D01*
X026453Y019990D02*
X025587Y019990D01*
X025587Y020069D02*
X026420Y020069D01*
X026387Y020147D02*
X025587Y020147D01*
X025587Y020226D02*
X026355Y020226D01*
X026347Y020304D02*
X024623Y020304D01*
X024623Y020383D02*
X026347Y020383D01*
X026347Y020461D02*
X024699Y020461D01*
X024761Y020540D02*
X026347Y020540D01*
X026371Y020618D02*
X024794Y020618D01*
X024801Y020697D02*
X026403Y020697D01*
X026436Y020775D02*
X024799Y020775D01*
X024766Y020854D02*
X026471Y020854D01*
X026549Y020933D02*
X024711Y020933D01*
X024602Y021011D02*
X026628Y021011D01*
X026731Y021090D02*
X015377Y021090D01*
X015377Y021168D02*
X015297Y021168D01*
X015297Y021090D02*
X008397Y021090D01*
X008237Y021103D02*
X005663Y021103D01*
X005663Y020503D01*
X005663Y019429D01*
X005437Y019203D01*
X005205Y018812D02*
X005136Y018812D01*
X004466Y018026D02*
X002277Y018026D01*
X002277Y017948D02*
X004466Y017948D01*
X004466Y017869D02*
X002277Y017869D01*
X002277Y017791D02*
X004466Y017791D01*
X004470Y017712D02*
X002277Y017712D01*
X002277Y017634D02*
X004549Y017634D01*
X004627Y017555D02*
X002277Y017555D01*
X002277Y017477D02*
X004663Y017477D01*
X004663Y017398D02*
X002277Y017398D01*
X002277Y017320D02*
X004663Y017320D01*
X004663Y017241D02*
X002277Y017241D01*
X002277Y017162D02*
X004663Y017162D01*
X004663Y017084D02*
X002277Y017084D01*
X002277Y017005D02*
X004663Y017005D01*
X004663Y016927D02*
X002277Y016927D01*
X002277Y016848D02*
X004663Y016848D01*
X004663Y016770D02*
X002277Y016770D01*
X002277Y016691D02*
X004663Y016691D01*
X004663Y016613D02*
X002277Y016613D01*
X002277Y016534D02*
X004663Y016534D01*
X004663Y016456D02*
X002277Y016456D01*
X002277Y016377D02*
X004663Y016377D01*
X004663Y016299D02*
X002277Y016299D01*
X002277Y016220D02*
X004663Y016220D01*
X004437Y016141D02*
X002277Y016141D01*
X002277Y016063D02*
X004437Y016063D01*
X004437Y015984D02*
X002277Y015984D01*
X002277Y015906D02*
X004437Y015906D01*
X004437Y015827D02*
X002277Y015827D01*
X002277Y015749D02*
X004437Y015749D01*
X004437Y015670D02*
X002277Y015670D01*
X002277Y015592D02*
X004437Y015592D01*
X004437Y015513D02*
X002277Y015513D01*
X002277Y015435D02*
X004460Y015435D01*
X004663Y015356D02*
X002277Y015356D01*
X002277Y015277D02*
X004663Y015277D01*
X004663Y015199D02*
X002277Y015199D01*
X002277Y015120D02*
X004663Y015120D01*
X004663Y015042D02*
X004368Y015042D01*
X004419Y014963D02*
X004663Y014963D01*
X004663Y014885D02*
X004419Y014885D01*
X004419Y014806D02*
X004663Y014806D01*
X004663Y014728D02*
X004419Y014728D01*
X004024Y014806D02*
X003944Y014806D01*
X003944Y014885D02*
X004024Y014885D01*
X004024Y014963D02*
X003944Y014963D01*
X003944Y015042D02*
X004024Y015042D01*
X003600Y015042D02*
X002277Y015042D01*
X002277Y014963D02*
X003549Y014963D01*
X003549Y014885D02*
X002277Y014885D01*
X002277Y014806D02*
X003549Y014806D01*
X003549Y014728D02*
X002277Y014728D01*
X002277Y013078D02*
X003671Y013078D01*
X003647Y013000D02*
X002277Y013000D01*
X002277Y012921D02*
X003647Y012921D01*
X003647Y012843D02*
X002277Y012843D01*
X002277Y012764D02*
X003647Y012764D01*
X003647Y012686D02*
X002277Y012686D01*
X002277Y012607D02*
X003647Y012607D01*
X003647Y012528D02*
X002277Y012528D01*
X002277Y012450D02*
X003647Y012450D01*
X003647Y012371D02*
X002277Y012371D01*
X002277Y012293D02*
X003647Y012293D01*
X003647Y012214D02*
X002277Y012214D01*
X002277Y012136D02*
X005177Y012136D01*
X005177Y012057D02*
X002277Y012057D01*
X002277Y011979D02*
X005177Y011979D01*
X005177Y011900D02*
X002277Y011900D01*
X002277Y011822D02*
X005177Y011822D01*
X005177Y011743D02*
X002277Y011743D01*
X004320Y012214D02*
X004553Y012214D01*
X004553Y012293D02*
X004320Y012293D01*
X004320Y012371D02*
X004553Y012371D01*
X004553Y012450D02*
X004320Y012450D01*
X004320Y012528D02*
X004553Y012528D01*
X005937Y012403D02*
X006262Y012728D01*
X006948Y012728D01*
X007137Y012728D02*
X007137Y012544D01*
X007137Y012728D02*
X007145Y012728D01*
X008611Y013998D02*
X009587Y013998D01*
X009991Y014403D01*
X010441Y015120D02*
X008902Y015120D01*
X008980Y015199D02*
X010362Y015199D01*
X010349Y015592D02*
X009022Y015592D01*
X009097Y015670D02*
X010426Y015670D01*
X010686Y015906D02*
X010787Y015906D01*
X010363Y016303D02*
X010363Y017303D01*
X010363Y018303D01*
X010732Y018655D02*
X010742Y018655D01*
X010709Y018890D02*
X008397Y018890D01*
X008397Y018812D02*
X011577Y018812D01*
X010663Y018969D02*
X008336Y018969D01*
X008258Y019048D02*
X010663Y019048D01*
X010663Y019126D02*
X008179Y019126D01*
X008101Y019205D02*
X010500Y019205D01*
X010447Y019283D02*
X008022Y019283D01*
X007944Y019362D02*
X009443Y019362D01*
X009381Y019440D02*
X007821Y019440D01*
X007743Y019519D02*
X009381Y019519D01*
X009381Y019597D02*
X007664Y019597D01*
X007597Y019676D02*
X009381Y019676D01*
X009381Y019754D02*
X007597Y019754D01*
X007597Y019833D02*
X009381Y019833D01*
X009381Y019911D02*
X007597Y019911D01*
X007597Y019990D02*
X009381Y019990D01*
X009797Y019729D02*
X009837Y019603D01*
X010823Y019603D01*
X010447Y019440D02*
X010212Y019440D01*
X010150Y019362D02*
X010447Y019362D01*
X009797Y020477D02*
X009837Y020603D01*
X008237Y020503D02*
X008237Y021103D01*
X008237Y020503D02*
X008211Y020503D01*
X007754Y018703D02*
X006937Y018703D01*
X006837Y018576D02*
X006685Y018576D01*
X006877Y018105D02*
X006997Y018105D01*
X006997Y018026D02*
X006877Y018026D01*
X006918Y017948D02*
X006956Y017948D01*
X007037Y017803D02*
X007037Y015553D01*
X007341Y015248D01*
X007341Y014677D01*
X007537Y014677D02*
X007537Y015803D01*
X008037Y015553D02*
X008037Y018420D01*
X007754Y018703D01*
X007437Y018203D02*
X007037Y017803D01*
X006837Y017803D02*
X006837Y015411D01*
X007145Y015103D01*
X007145Y014677D01*
X007735Y014677D02*
X007735Y015251D01*
X008037Y015553D01*
X008237Y015403D02*
X007932Y015098D01*
X007932Y014677D01*
X008129Y014677D02*
X008137Y014677D01*
X008137Y014932D01*
X008937Y015732D01*
X008823Y015042D02*
X009160Y015042D01*
X009082Y014963D02*
X008744Y014963D01*
X008666Y014885D02*
X009003Y014885D01*
X008925Y014806D02*
X008587Y014806D01*
X008599Y017241D02*
X008397Y017241D01*
X008397Y017320D02*
X008599Y017320D01*
X008610Y017398D02*
X008397Y017398D01*
X008397Y017477D02*
X008643Y017477D01*
X008711Y017555D02*
X008397Y017555D01*
X008397Y017634D02*
X008852Y017634D01*
X011111Y017303D02*
X012437Y017303D01*
X014937Y016903D02*
X015137Y017103D01*
X015763Y017103D01*
X016511Y017103D02*
X017037Y016577D01*
X017037Y016077D01*
X018368Y016063D02*
X018505Y016063D01*
X016511Y017103D02*
X016511Y018103D01*
X016714Y018733D02*
X016731Y018733D01*
X017071Y018733D02*
X017151Y018733D01*
X017151Y018812D02*
X017071Y018812D01*
X017071Y018890D02*
X017151Y018890D01*
X017151Y018969D02*
X017071Y018969D01*
X017071Y019048D02*
X017151Y019048D01*
X017507Y019205D02*
X017687Y019205D01*
X017742Y019283D02*
X017507Y019283D01*
X017507Y019362D02*
X017903Y019362D01*
X017903Y019440D02*
X017507Y019440D01*
X017444Y019519D02*
X017706Y019519D01*
X016363Y019103D02*
X015837Y019103D01*
X015863Y019603D02*
X015237Y019603D01*
X015237Y019251D01*
X015109Y019123D01*
X014717Y019123D01*
X015107Y018733D02*
X015241Y018733D01*
X015536Y018576D02*
X015542Y018576D01*
X015863Y019603D02*
X016363Y020103D01*
X015867Y019833D02*
X015485Y019833D01*
X014921Y020461D02*
X014256Y020461D01*
X014644Y020540D02*
X014921Y020540D01*
X014921Y020618D02*
X014659Y020618D01*
X014659Y020697D02*
X014967Y020697D01*
X014901Y020775D02*
X014659Y020775D01*
X014656Y020854D02*
X014901Y020854D01*
X014901Y020933D02*
X013306Y020933D01*
X013380Y020854D02*
X013517Y020854D01*
X013514Y020775D02*
X013380Y020775D01*
X012796Y020775D02*
X012778Y020775D01*
X012778Y020854D02*
X012796Y020854D01*
X012796Y020933D02*
X012778Y020933D01*
X012778Y020618D02*
X012796Y020618D01*
X012796Y020540D02*
X012778Y020540D01*
X013727Y019990D02*
X013771Y019990D01*
X013727Y019911D02*
X013856Y019911D01*
X014914Y021404D02*
X002277Y021404D01*
X002277Y021482D02*
X028397Y021482D01*
X028397Y021404D02*
X015759Y021404D01*
X015772Y021325D02*
X028397Y021325D01*
X028397Y021247D02*
X015772Y021247D01*
X015772Y021168D02*
X026920Y021168D01*
X027353Y021168D02*
X028397Y021168D01*
X028397Y021090D02*
X027543Y021090D01*
X027646Y021011D02*
X028397Y021011D01*
X028397Y020933D02*
X027724Y020933D01*
X027803Y020854D02*
X028397Y020854D01*
X028397Y020775D02*
X027837Y020775D01*
X027870Y020697D02*
X028397Y020697D01*
X028397Y020618D02*
X027902Y020618D01*
X027927Y020540D02*
X028397Y020540D01*
X028397Y020461D02*
X027927Y020461D01*
X027927Y020383D02*
X028397Y020383D01*
X028397Y020304D02*
X027927Y020304D01*
X027918Y020226D02*
X028397Y020226D01*
X028397Y020147D02*
X027886Y020147D01*
X027853Y020069D02*
X028397Y020069D01*
X028397Y019990D02*
X027821Y019990D01*
X027763Y019911D02*
X028397Y019911D01*
X028397Y019833D02*
X027684Y019833D01*
X027605Y019754D02*
X028397Y019754D01*
X028397Y019676D02*
X027446Y019676D01*
X026827Y019676D02*
X025587Y019676D01*
X025587Y019754D02*
X026668Y019754D01*
X026589Y019833D02*
X025587Y019833D01*
X025587Y019597D02*
X028397Y019597D01*
X028397Y019519D02*
X025568Y019519D01*
X025371Y019440D02*
X028397Y019440D01*
X028397Y019362D02*
X025371Y019362D01*
X025531Y019283D02*
X028397Y019283D01*
X028397Y019205D02*
X025587Y019205D01*
X025587Y019126D02*
X028397Y019126D01*
X028397Y019048D02*
X025587Y019048D01*
X025587Y018969D02*
X028397Y018969D01*
X028397Y018890D02*
X025587Y018890D01*
X025587Y018812D02*
X028397Y018812D01*
X028397Y018733D02*
X025587Y018733D01*
X025587Y018655D02*
X028397Y018655D01*
X028397Y018576D02*
X025587Y018576D01*
X025546Y018498D02*
X028397Y018498D01*
X028397Y018419D02*
X025371Y018419D01*
X025371Y018341D02*
X028397Y018341D01*
X028397Y018262D02*
X025552Y018262D01*
X025587Y018184D02*
X028397Y018184D01*
X028397Y018105D02*
X025587Y018105D01*
X025587Y018026D02*
X028397Y018026D01*
X028397Y017948D02*
X025587Y017948D01*
X025587Y017869D02*
X028397Y017869D01*
X028397Y017791D02*
X025587Y017791D01*
X025587Y017712D02*
X028397Y017712D01*
X028397Y017634D02*
X025587Y017634D01*
X025587Y017555D02*
X028397Y017555D01*
X028397Y017477D02*
X025525Y017477D01*
X025371Y017398D02*
X028397Y017398D01*
X028397Y017320D02*
X025371Y017320D01*
X025371Y017241D02*
X028397Y017241D01*
X028397Y017162D02*
X025371Y017162D01*
X025318Y017084D02*
X028397Y017084D01*
X028397Y016848D02*
X022767Y016848D01*
X022846Y016770D02*
X028397Y016770D01*
X028397Y016691D02*
X022847Y016691D01*
X022847Y016613D02*
X028397Y016613D01*
X028397Y016534D02*
X022847Y016534D01*
X022847Y016456D02*
X028397Y016456D01*
X028397Y016377D02*
X022847Y016377D01*
X022847Y016299D02*
X028397Y016299D01*
X028397Y016220D02*
X022847Y016220D01*
X022893Y016141D02*
X022981Y016141D01*
X022937Y016063D02*
X022937Y016063D01*
X022937Y015984D02*
X022937Y015984D01*
X022937Y015906D02*
X022937Y015906D01*
X022937Y015827D02*
X022937Y015827D01*
X022437Y015827D02*
X022437Y015827D01*
X022437Y015749D02*
X022437Y015749D01*
X022437Y015906D02*
X022437Y015906D01*
X022437Y015984D02*
X022437Y015984D01*
X022437Y016063D02*
X022437Y016063D01*
X022393Y016141D02*
X022481Y016141D01*
X023393Y016141D02*
X028397Y016141D01*
X025051Y017398D02*
X023402Y017398D01*
X023437Y017477D02*
X024148Y017477D01*
X024087Y017555D02*
X023829Y017555D01*
X023966Y017634D02*
X024087Y017634D01*
X024087Y017712D02*
X024032Y017712D01*
X023737Y017883D02*
X024463Y017883D01*
X024463Y018883D01*
X024087Y018890D02*
X023719Y018890D01*
X023752Y018969D02*
X024087Y018969D01*
X024087Y019048D02*
X023752Y019048D01*
X023752Y019126D02*
X024087Y019126D01*
X024087Y019205D02*
X023752Y019205D01*
X023752Y019283D02*
X024142Y019283D01*
X024106Y019519D02*
X023752Y019519D01*
X023752Y019440D02*
X025051Y019440D01*
X025051Y019362D02*
X023752Y019362D01*
X023689Y019597D02*
X024087Y019597D01*
X024087Y019676D02*
X023752Y019676D01*
X023752Y019754D02*
X024087Y019754D01*
X024087Y019833D02*
X023752Y019833D01*
X023752Y019911D02*
X024087Y019911D01*
X024087Y019990D02*
X023752Y019990D01*
X023752Y020069D02*
X024087Y020069D01*
X024087Y020147D02*
X023752Y020147D01*
X023752Y020226D02*
X024087Y020226D01*
X024303Y020304D02*
X023730Y020304D01*
X023497Y020383D02*
X024303Y020383D01*
X024226Y020461D02*
X023497Y020461D01*
X023497Y020540D02*
X024164Y020540D01*
X024132Y020618D02*
X023468Y020618D01*
X023475Y020697D02*
X024125Y020697D01*
X024127Y020775D02*
X023473Y020775D01*
X023440Y020854D02*
X024159Y020854D01*
X024214Y020933D02*
X023385Y020933D01*
X023276Y021011D02*
X024323Y021011D01*
X024463Y020703D02*
X024463Y019883D01*
X024819Y019519D02*
X024854Y019519D01*
X024890Y019283D02*
X024783Y019283D01*
X023337Y019977D02*
X023337Y020503D01*
X023137Y020703D01*
X022900Y020461D02*
X020173Y020461D01*
X020235Y020540D02*
X022838Y020540D01*
X022806Y020618D02*
X020268Y020618D01*
X020275Y020697D02*
X022799Y020697D01*
X022801Y020775D02*
X020273Y020775D01*
X020240Y020854D02*
X022833Y020854D01*
X022888Y020933D02*
X020185Y020933D01*
X020076Y021011D02*
X022997Y021011D01*
X023026Y020383D02*
X020097Y020383D01*
X020330Y020304D02*
X020543Y020304D01*
X020521Y020226D02*
X020352Y020226D01*
X020352Y020147D02*
X020521Y020147D01*
X020521Y020069D02*
X020352Y020069D01*
X019937Y019977D02*
X019937Y020703D01*
X022689Y019597D02*
X022984Y019597D01*
X022921Y019519D02*
X022752Y019519D01*
X022752Y019440D02*
X022921Y019440D01*
X022921Y019676D02*
X022752Y019676D01*
X022752Y019754D02*
X022921Y019754D01*
X022921Y019833D02*
X022752Y019833D01*
X022752Y019911D02*
X022921Y019911D01*
X022921Y019990D02*
X022752Y019990D01*
X022752Y020069D02*
X022921Y020069D01*
X022921Y020147D02*
X022752Y020147D01*
X022752Y020226D02*
X022921Y020226D01*
X022943Y020304D02*
X022730Y020304D01*
X023437Y018184D02*
X023579Y018184D01*
X023481Y018105D02*
X023437Y018105D01*
X023187Y017883D02*
X023737Y017883D01*
X023437Y017723D02*
X023437Y017723D01*
X023437Y017712D02*
X023441Y017712D01*
X023437Y017634D02*
X023508Y017634D01*
X023437Y017555D02*
X023644Y017555D01*
X022687Y017883D02*
X022687Y017203D01*
X024777Y017477D02*
X024896Y017477D01*
X024197Y013628D02*
X023277Y013628D01*
X023277Y013549D02*
X023197Y013549D01*
X023197Y013471D02*
X023277Y013471D01*
X023277Y013392D02*
X023197Y013392D01*
X023197Y013314D02*
X023277Y013314D01*
X023277Y013235D02*
X023197Y013235D01*
X023197Y013628D02*
X022652Y013628D01*
X021857Y012607D02*
X021857Y012503D01*
X028397Y012503D01*
X028397Y021663D01*
X002277Y021663D01*
X002277Y021639D02*
X028397Y021639D01*
X028397Y021561D02*
X002277Y021561D01*
X002277Y021168D02*
X003320Y021168D01*
X003131Y021090D02*
X002277Y021090D01*
X002277Y021011D02*
X003028Y021011D01*
X002949Y020933D02*
X002277Y020933D01*
X002277Y020854D02*
X002871Y020854D01*
X002836Y020775D02*
X002277Y020775D01*
X002277Y020697D02*
X002803Y020697D01*
X002771Y020618D02*
X002277Y020618D01*
X002277Y020540D02*
X002747Y020540D01*
X002747Y020461D02*
X002277Y020461D01*
X002277Y020383D02*
X002747Y020383D01*
X002747Y020304D02*
X002277Y020304D01*
X002277Y020226D02*
X002755Y020226D01*
X002787Y020147D02*
X002277Y020147D01*
X002277Y020069D02*
X002820Y020069D01*
X002853Y019990D02*
X002277Y019990D01*
X002277Y019911D02*
X002911Y019911D01*
X002989Y019833D02*
X002277Y019833D01*
X002277Y019754D02*
X003068Y019754D01*
X003227Y019676D02*
X002277Y019676D01*
X012348Y013701D02*
X012446Y013703D01*
X013137Y014193D02*
X013135Y014292D01*
X013332Y014292D02*
X013332Y014698D01*
X013537Y014903D01*
X016237Y011077D02*
X016737Y011077D01*
X016697Y010329D02*
X016152Y010329D01*
X015321Y010094D02*
X015180Y010094D01*
X015063Y010015D02*
X015330Y010015D01*
X014811Y010015D02*
X013217Y010015D01*
X013217Y010094D02*
X014694Y010094D01*
X014449Y009622D02*
X015721Y009622D01*
X015687Y009544D02*
X014574Y009544D01*
X014635Y009465D02*
X015687Y009465D01*
X015687Y009387D02*
X014668Y009387D01*
X014675Y009308D02*
X015687Y009308D01*
X015687Y009230D02*
X014672Y009230D01*
X014640Y009151D02*
X015687Y009151D01*
X015687Y009073D02*
X014585Y009073D01*
X014475Y008994D02*
X015687Y008994D01*
X015687Y008915D02*
X014434Y008915D01*
X014467Y008837D02*
X015748Y008837D01*
X015777Y008758D02*
X014467Y008758D01*
X014467Y008680D02*
X015777Y008680D01*
X015777Y008601D02*
X014467Y008601D01*
X014467Y008523D02*
X014497Y008523D01*
X015136Y008523D02*
X015522Y008523D01*
X015521Y008444D02*
X015187Y008444D01*
X015187Y008366D02*
X015359Y008366D01*
X015281Y008287D02*
X015187Y008287D01*
X015187Y008209D02*
X015277Y008209D01*
X015277Y008130D02*
X015187Y008130D01*
X015187Y008051D02*
X015277Y008051D01*
X015277Y007973D02*
X015187Y007973D01*
X015187Y007894D02*
X015277Y007894D01*
X015437Y007703D02*
X014817Y007703D01*
X014817Y007393D02*
X015937Y007393D01*
X015576Y007109D02*
X015207Y007109D01*
X015207Y007187D02*
X015521Y007187D01*
X015437Y007703D02*
X015437Y008217D01*
X015937Y008217D01*
X015937Y009103D01*
X016063Y009243D01*
X014337Y009303D02*
X013937Y008903D01*
X012537Y008903D02*
X011911Y008903D01*
X011511Y009303D01*
X011834Y009701D02*
X012211Y009701D01*
X012199Y009622D02*
X011887Y009622D01*
X011887Y009544D02*
X012199Y009544D01*
X012228Y009465D02*
X011887Y009465D01*
X011887Y009387D02*
X012275Y009387D01*
X012365Y009308D02*
X011887Y009308D01*
X011887Y009230D02*
X012442Y009230D01*
X012307Y009151D02*
X011889Y009151D01*
X011967Y009073D02*
X012241Y009073D01*
X012282Y008680D02*
X011855Y008680D01*
X011829Y008758D02*
X010923Y008758D01*
X010923Y008837D02*
X011750Y008837D01*
X011887Y008601D02*
X012381Y008601D01*
X011167Y008680D02*
X011107Y008680D01*
X011096Y008915D02*
X011177Y008915D01*
X011188Y009701D02*
X011085Y009701D01*
X013217Y010172D02*
X013472Y010172D01*
X013421Y010251D02*
X013217Y010251D01*
X013217Y010329D02*
X013421Y010329D01*
X013421Y010408D02*
X013217Y010408D01*
X014447Y006245D02*
X014784Y006245D01*
X014721Y006166D02*
X014461Y006166D01*
X014536Y006088D02*
X014721Y006088D01*
X014721Y005617D02*
X014439Y005617D01*
X014718Y005460D02*
X013217Y005460D01*
X013217Y005538D02*
X014755Y005538D01*
X014701Y004988D02*
X013851Y004988D01*
X013851Y004963D02*
X014207Y004963D01*
X014207Y004650D01*
X014125Y004568D01*
X013851Y004568D01*
X013851Y004963D01*
X013851Y004910D02*
X013771Y004910D01*
X013771Y004831D02*
X013851Y004831D01*
X013851Y004753D02*
X013771Y004753D01*
X013771Y004674D02*
X013851Y004674D01*
X013851Y004596D02*
X013771Y004596D01*
X013469Y004596D02*
X013376Y004596D01*
X013063Y005003D02*
X013057Y005003D01*
X013405Y005381D02*
X013440Y005381D01*
X013771Y005381D02*
X013851Y005381D01*
X013851Y005302D02*
X013771Y005302D01*
X013771Y005224D02*
X013851Y005224D01*
X013851Y005145D02*
X013771Y005145D01*
X013771Y005067D02*
X013851Y005067D01*
X014207Y004910D02*
X014701Y004910D01*
X014701Y004831D02*
X014207Y004831D01*
X014207Y004753D02*
X014764Y004753D01*
X014207Y004674D02*
X016398Y004674D01*
X016398Y004596D02*
X014153Y004596D01*
X016875Y004596D02*
X017737Y004596D01*
X017737Y004674D02*
X016875Y004674D01*
X016875Y004753D02*
X017737Y004753D01*
X017737Y004831D02*
X016875Y004831D01*
X016875Y004910D02*
X017737Y004910D01*
X017737Y004988D02*
X016875Y004988D01*
X016875Y005067D02*
X017737Y005067D01*
X017737Y005145D02*
X016875Y005145D01*
X016875Y005224D02*
X017737Y005224D01*
X017737Y005302D02*
X016875Y005302D01*
X016875Y005381D02*
X017737Y005381D01*
X017737Y005460D02*
X016875Y005460D01*
X016801Y005538D02*
X017737Y005538D01*
X017737Y004517D02*
X016875Y004517D01*
X025237Y008303D02*
X026137Y007403D01*
X026137Y005995D01*
X025765Y005995D01*
X025765Y006192D02*
X025417Y006192D01*
X025423Y006192D01*
X028397Y012528D02*
X021857Y012528D01*
X024592Y013235D02*
X028397Y013235D01*
X028397Y013314D02*
X024671Y013314D01*
X024672Y013392D02*
X028397Y013392D01*
X028397Y013471D02*
X024672Y013471D01*
X024672Y013549D02*
X028397Y013549D01*
X015377Y021247D02*
X015297Y021247D01*
X015297Y021325D02*
X015377Y021325D01*
X015377Y021404D02*
X015297Y021404D01*
D31*
X013337Y015603D02*
X013137Y015403D01*
X013137Y014193D01*
X015863Y014203D02*
X015863Y013603D01*
X015863Y013115D01*
X009937Y012203D02*
X009937Y010329D01*
X009937Y012203D02*
X008929Y013211D01*
X008611Y013211D01*
X006662Y013408D02*
X006337Y013408D01*
X006337Y013801D01*
X005587Y013801D01*
X005687Y013929D01*
X006335Y013803D02*
X006337Y013801D01*
X006662Y013801D01*
X006337Y013408D02*
X006332Y013408D01*
X021662Y005943D02*
X021662Y005003D01*
X022292Y005003D01*
X023237Y005003D01*
X025226Y005003D01*
X025226Y005456D01*
X025029Y005456D01*
X024489Y005798D02*
X023237Y005798D01*
X023237Y005943D02*
X023237Y007153D01*
X021687Y008703D01*
X021687Y012903D01*
X022292Y005943D02*
X022292Y005003D01*
D32*
X022292Y005943D02*
X022607Y005943D01*
D33*
X023237Y005003D03*
X023637Y004603D03*
X025237Y007303D03*
X024837Y007803D03*
X025237Y008303D03*
X024137Y007803D03*
X017237Y012103D03*
X014937Y011703D03*
X013937Y012703D03*
X011487Y013153D03*
X010437Y012003D03*
X011337Y010329D03*
X012537Y009603D03*
X012537Y008903D03*
X013627Y009603D03*
X014337Y009303D03*
X014937Y010329D03*
X012437Y006703D03*
X013057Y006003D03*
X014247Y005903D03*
X009937Y006103D03*
X007299Y008803D03*
X005111Y007403D03*
X009237Y010203D03*
X007537Y012003D03*
X006937Y012003D03*
X006337Y012003D03*
X005937Y012403D03*
X004863Y013803D03*
X006287Y015803D03*
X007537Y015803D03*
X009387Y014453D03*
X010637Y015403D03*
X011137Y014403D03*
X012237Y014903D03*
X013537Y014903D03*
X013337Y015603D03*
X013737Y016203D03*
X013737Y016903D03*
X014937Y016903D03*
X014937Y015603D03*
X017337Y014203D03*
X019637Y015648D03*
X019637Y017883D03*
X015637Y018903D03*
X015237Y019603D03*
X014037Y020203D03*
X012437Y017303D03*
X008937Y017303D03*
X018811Y020703D03*
X019937Y020703D03*
X023137Y020703D03*
X024463Y020703D03*
X023737Y017883D03*
X021687Y012903D03*
D34*
X021687Y013629D01*
X022237Y013629D01*
X021687Y013629D02*
X021687Y015648D01*
X014937Y015603D02*
X014937Y011703D01*
X014937Y010329D01*
X015737Y010329D01*
X011337Y010329D02*
X009937Y010329D01*
X009937Y009803D01*
X009937Y009703D01*
X008629Y009703D01*
X009937Y009803D02*
X009937Y006103D01*
X009737Y006088D01*
X008936Y006088D01*
X007499Y007840D02*
X007499Y008603D01*
X007299Y008803D01*
X005111Y007403D02*
X005111Y006077D01*
X005111Y006088D01*
X006062Y006088D01*
X006062Y006403D01*
X006062Y006088D02*
X006062Y005773D01*
X005137Y006088D02*
X005111Y006077D01*
X005111Y007403D02*
X004599Y007403D01*
X004337Y007429D01*
X003337Y007429D01*
X004863Y013803D02*
X005587Y013803D01*
X005687Y013929D01*
X004863Y013803D02*
X004863Y015603D01*
X004813Y015803D01*
X004863Y015803D01*
X004863Y017603D01*
X004666Y017800D01*
X004666Y018625D01*
X005244Y019203D01*
X005437Y019203D01*
X013527Y019383D02*
X013527Y020203D01*
X014037Y020203D01*
X015337Y020203D01*
X015337Y020329D01*
X014086Y020703D02*
X014037Y020703D01*
X014037Y020203D01*
X014247Y006823D02*
X014247Y005903D01*
X014247Y005877D01*
X015137Y005877D01*
X016637Y005877D01*
X016637Y006252D01*
M02*
