G75*
G70*
%OFA0B0*%
%FSLAX24Y24*%
%IPPOS*%
%LPD*%
%AMOC8*
5,1,8,0,0,1.08239X$1,22.5*
%
%ADD10C,0.0000*%
%ADD11C,0.0160*%
%ADD12C,0.0040*%
%ADD13C,0.0080*%
%ADD14C,0.0110*%
%ADD15C,0.0060*%
%ADD16C,0.0100*%
%ADD17C,0.0050*%
D10*
X002137Y004203D02*
X002137Y021803D01*
X028537Y021803D01*
X028537Y004203D01*
X002137Y004203D01*
X002887Y005603D02*
X002889Y005653D01*
X002895Y005703D01*
X002905Y005753D01*
X002918Y005801D01*
X002935Y005849D01*
X002956Y005895D01*
X002980Y005939D01*
X003008Y005981D01*
X003039Y006021D01*
X003073Y006058D01*
X003110Y006093D01*
X003149Y006124D01*
X003190Y006153D01*
X003234Y006178D01*
X003280Y006200D01*
X003327Y006218D01*
X003375Y006232D01*
X003424Y006243D01*
X003474Y006250D01*
X003524Y006253D01*
X003575Y006252D01*
X003625Y006247D01*
X003675Y006238D01*
X003723Y006226D01*
X003771Y006209D01*
X003817Y006189D01*
X003862Y006166D01*
X003905Y006139D01*
X003945Y006109D01*
X003983Y006076D01*
X004018Y006040D01*
X004051Y006001D01*
X004080Y005960D01*
X004106Y005917D01*
X004129Y005872D01*
X004148Y005825D01*
X004163Y005777D01*
X004175Y005728D01*
X004183Y005678D01*
X004187Y005628D01*
X004187Y005578D01*
X004183Y005528D01*
X004175Y005478D01*
X004163Y005429D01*
X004148Y005381D01*
X004129Y005334D01*
X004106Y005289D01*
X004080Y005246D01*
X004051Y005205D01*
X004018Y005166D01*
X003983Y005130D01*
X003945Y005097D01*
X003905Y005067D01*
X003862Y005040D01*
X003817Y005017D01*
X003771Y004997D01*
X003723Y004980D01*
X003675Y004968D01*
X003625Y004959D01*
X003575Y004954D01*
X003524Y004953D01*
X003474Y004956D01*
X003424Y004963D01*
X003375Y004974D01*
X003327Y004988D01*
X003280Y005006D01*
X003234Y005028D01*
X003190Y005053D01*
X003149Y005082D01*
X003110Y005113D01*
X003073Y005148D01*
X003039Y005185D01*
X003008Y005225D01*
X002980Y005267D01*
X002956Y005311D01*
X002935Y005357D01*
X002918Y005405D01*
X002905Y005453D01*
X002895Y005503D01*
X002889Y005553D01*
X002887Y005603D01*
X002887Y020403D02*
X002889Y020453D01*
X002895Y020503D01*
X002905Y020553D01*
X002918Y020601D01*
X002935Y020649D01*
X002956Y020695D01*
X002980Y020739D01*
X003008Y020781D01*
X003039Y020821D01*
X003073Y020858D01*
X003110Y020893D01*
X003149Y020924D01*
X003190Y020953D01*
X003234Y020978D01*
X003280Y021000D01*
X003327Y021018D01*
X003375Y021032D01*
X003424Y021043D01*
X003474Y021050D01*
X003524Y021053D01*
X003575Y021052D01*
X003625Y021047D01*
X003675Y021038D01*
X003723Y021026D01*
X003771Y021009D01*
X003817Y020989D01*
X003862Y020966D01*
X003905Y020939D01*
X003945Y020909D01*
X003983Y020876D01*
X004018Y020840D01*
X004051Y020801D01*
X004080Y020760D01*
X004106Y020717D01*
X004129Y020672D01*
X004148Y020625D01*
X004163Y020577D01*
X004175Y020528D01*
X004183Y020478D01*
X004187Y020428D01*
X004187Y020378D01*
X004183Y020328D01*
X004175Y020278D01*
X004163Y020229D01*
X004148Y020181D01*
X004129Y020134D01*
X004106Y020089D01*
X004080Y020046D01*
X004051Y020005D01*
X004018Y019966D01*
X003983Y019930D01*
X003945Y019897D01*
X003905Y019867D01*
X003862Y019840D01*
X003817Y019817D01*
X003771Y019797D01*
X003723Y019780D01*
X003675Y019768D01*
X003625Y019759D01*
X003575Y019754D01*
X003524Y019753D01*
X003474Y019756D01*
X003424Y019763D01*
X003375Y019774D01*
X003327Y019788D01*
X003280Y019806D01*
X003234Y019828D01*
X003190Y019853D01*
X003149Y019882D01*
X003110Y019913D01*
X003073Y019948D01*
X003039Y019985D01*
X003008Y020025D01*
X002980Y020067D01*
X002956Y020111D01*
X002935Y020157D01*
X002918Y020205D01*
X002905Y020253D01*
X002895Y020303D01*
X002889Y020353D01*
X002887Y020403D01*
X026487Y020403D02*
X026489Y020453D01*
X026495Y020503D01*
X026505Y020553D01*
X026518Y020601D01*
X026535Y020649D01*
X026556Y020695D01*
X026580Y020739D01*
X026608Y020781D01*
X026639Y020821D01*
X026673Y020858D01*
X026710Y020893D01*
X026749Y020924D01*
X026790Y020953D01*
X026834Y020978D01*
X026880Y021000D01*
X026927Y021018D01*
X026975Y021032D01*
X027024Y021043D01*
X027074Y021050D01*
X027124Y021053D01*
X027175Y021052D01*
X027225Y021047D01*
X027275Y021038D01*
X027323Y021026D01*
X027371Y021009D01*
X027417Y020989D01*
X027462Y020966D01*
X027505Y020939D01*
X027545Y020909D01*
X027583Y020876D01*
X027618Y020840D01*
X027651Y020801D01*
X027680Y020760D01*
X027706Y020717D01*
X027729Y020672D01*
X027748Y020625D01*
X027763Y020577D01*
X027775Y020528D01*
X027783Y020478D01*
X027787Y020428D01*
X027787Y020378D01*
X027783Y020328D01*
X027775Y020278D01*
X027763Y020229D01*
X027748Y020181D01*
X027729Y020134D01*
X027706Y020089D01*
X027680Y020046D01*
X027651Y020005D01*
X027618Y019966D01*
X027583Y019930D01*
X027545Y019897D01*
X027505Y019867D01*
X027462Y019840D01*
X027417Y019817D01*
X027371Y019797D01*
X027323Y019780D01*
X027275Y019768D01*
X027225Y019759D01*
X027175Y019754D01*
X027124Y019753D01*
X027074Y019756D01*
X027024Y019763D01*
X026975Y019774D01*
X026927Y019788D01*
X026880Y019806D01*
X026834Y019828D01*
X026790Y019853D01*
X026749Y019882D01*
X026710Y019913D01*
X026673Y019948D01*
X026639Y019985D01*
X026608Y020025D01*
X026580Y020067D01*
X026556Y020111D01*
X026535Y020157D01*
X026518Y020205D01*
X026505Y020253D01*
X026495Y020303D01*
X026489Y020353D01*
X026487Y020403D01*
X026487Y005703D02*
X026489Y005753D01*
X026495Y005803D01*
X026505Y005853D01*
X026518Y005901D01*
X026535Y005949D01*
X026556Y005995D01*
X026580Y006039D01*
X026608Y006081D01*
X026639Y006121D01*
X026673Y006158D01*
X026710Y006193D01*
X026749Y006224D01*
X026790Y006253D01*
X026834Y006278D01*
X026880Y006300D01*
X026927Y006318D01*
X026975Y006332D01*
X027024Y006343D01*
X027074Y006350D01*
X027124Y006353D01*
X027175Y006352D01*
X027225Y006347D01*
X027275Y006338D01*
X027323Y006326D01*
X027371Y006309D01*
X027417Y006289D01*
X027462Y006266D01*
X027505Y006239D01*
X027545Y006209D01*
X027583Y006176D01*
X027618Y006140D01*
X027651Y006101D01*
X027680Y006060D01*
X027706Y006017D01*
X027729Y005972D01*
X027748Y005925D01*
X027763Y005877D01*
X027775Y005828D01*
X027783Y005778D01*
X027787Y005728D01*
X027787Y005678D01*
X027783Y005628D01*
X027775Y005578D01*
X027763Y005529D01*
X027748Y005481D01*
X027729Y005434D01*
X027706Y005389D01*
X027680Y005346D01*
X027651Y005305D01*
X027618Y005266D01*
X027583Y005230D01*
X027545Y005197D01*
X027505Y005167D01*
X027462Y005140D01*
X027417Y005117D01*
X027371Y005097D01*
X027323Y005080D01*
X027275Y005068D01*
X027225Y005059D01*
X027175Y005054D01*
X027124Y005053D01*
X027074Y005056D01*
X027024Y005063D01*
X026975Y005074D01*
X026927Y005088D01*
X026880Y005106D01*
X026834Y005128D01*
X026790Y005153D01*
X026749Y005182D01*
X026710Y005213D01*
X026673Y005248D01*
X026639Y005285D01*
X026608Y005325D01*
X026580Y005367D01*
X026556Y005411D01*
X026535Y005457D01*
X026518Y005505D01*
X026505Y005553D01*
X026495Y005603D01*
X026489Y005653D01*
X026487Y005703D01*
D11*
X009057Y011203D02*
X009059Y011220D01*
X009064Y011237D01*
X009073Y011251D01*
X009085Y011264D01*
X009100Y011274D01*
X009116Y011280D01*
X009133Y011283D01*
X009150Y011282D01*
X009167Y011277D01*
X009182Y011269D01*
X009195Y011258D01*
X009206Y011244D01*
X009213Y011229D01*
X009217Y011212D01*
X009217Y011194D01*
X009213Y011177D01*
X009206Y011162D01*
X009195Y011148D01*
X009182Y011137D01*
X009167Y011129D01*
X009150Y011124D01*
X009133Y011123D01*
X009116Y011126D01*
X009100Y011132D01*
X009085Y011142D01*
X009073Y011155D01*
X009064Y011169D01*
X009059Y011186D01*
X009057Y011203D01*
X004857Y017703D02*
X004859Y017720D01*
X004864Y017737D01*
X004873Y017751D01*
X004885Y017764D01*
X004900Y017774D01*
X004916Y017780D01*
X004933Y017783D01*
X004950Y017782D01*
X004967Y017777D01*
X004982Y017769D01*
X004995Y017758D01*
X005006Y017744D01*
X005013Y017729D01*
X005017Y017712D01*
X005017Y017694D01*
X005013Y017677D01*
X005006Y017662D01*
X004995Y017648D01*
X004982Y017637D01*
X004967Y017629D01*
X004950Y017624D01*
X004933Y017623D01*
X004916Y017626D01*
X004900Y017632D01*
X004885Y017642D01*
X004873Y017655D01*
X004864Y017669D01*
X004859Y017686D01*
X004857Y017703D01*
D12*
X018057Y011783D02*
X018057Y011323D01*
X018287Y011323D01*
X018364Y011400D01*
X018364Y011476D01*
X018287Y011553D01*
X018057Y011553D01*
X018287Y011553D02*
X018364Y011630D01*
X018364Y011706D01*
X018287Y011783D01*
X018057Y011783D01*
X018517Y011783D02*
X018747Y011783D01*
X018824Y011706D01*
X018824Y011553D01*
X018747Y011476D01*
X018517Y011476D01*
X018517Y011323D02*
X018517Y011783D01*
X018670Y011476D02*
X018824Y011323D01*
X018977Y011323D02*
X019208Y011323D01*
X019284Y011400D01*
X019284Y011476D01*
X019208Y011553D01*
X018977Y011553D01*
X018977Y011323D02*
X018977Y011783D01*
X019208Y011783D01*
X019284Y011706D01*
X019284Y011630D01*
X019208Y011553D01*
X019898Y011630D02*
X019975Y011630D01*
X019975Y011323D01*
X019898Y011323D02*
X020052Y011323D01*
X020205Y011323D02*
X020205Y011630D01*
X020435Y011630D01*
X020512Y011553D01*
X020512Y011323D01*
X020665Y011400D02*
X020665Y011553D01*
X020742Y011630D01*
X020896Y011630D01*
X020972Y011553D01*
X020972Y011476D01*
X020665Y011476D01*
X020665Y011400D02*
X020742Y011323D01*
X020896Y011323D01*
X021126Y011323D02*
X021126Y011630D01*
X021279Y011630D02*
X021356Y011630D01*
X021279Y011630D02*
X021126Y011476D01*
X021509Y011630D02*
X021663Y011630D01*
X021586Y011706D02*
X021586Y011400D01*
X021663Y011323D01*
X021816Y011323D02*
X021970Y011323D01*
X021893Y011323D02*
X021893Y011630D01*
X021816Y011630D01*
X021893Y011783D02*
X021893Y011860D01*
X022200Y011630D02*
X022353Y011630D01*
X022430Y011553D01*
X022430Y011323D01*
X022200Y011323D01*
X022123Y011400D01*
X022200Y011476D01*
X022430Y011476D01*
X022583Y011323D02*
X022737Y011323D01*
X022660Y011323D02*
X022660Y011783D01*
X022583Y011783D01*
X023351Y011630D02*
X023351Y011323D01*
X023504Y011323D02*
X023504Y011553D01*
X023581Y011630D01*
X023658Y011553D01*
X023658Y011323D01*
X023811Y011400D02*
X023811Y011553D01*
X023888Y011630D01*
X024041Y011630D01*
X024118Y011553D01*
X024118Y011476D01*
X023811Y011476D01*
X023811Y011400D02*
X023888Y011323D01*
X024041Y011323D01*
X024271Y011400D02*
X024348Y011476D01*
X024578Y011476D01*
X024578Y011553D02*
X024578Y011323D01*
X024348Y011323D01*
X024271Y011400D01*
X024348Y011630D02*
X024502Y011630D01*
X024578Y011553D01*
X024732Y011553D02*
X024808Y011476D01*
X024962Y011476D01*
X025039Y011400D01*
X024962Y011323D01*
X024732Y011323D01*
X024732Y011553D02*
X024808Y011630D01*
X025039Y011630D01*
X025192Y011630D02*
X025192Y011400D01*
X025269Y011323D01*
X025499Y011323D01*
X025499Y011630D01*
X025652Y011630D02*
X025652Y011323D01*
X025652Y011476D02*
X025806Y011630D01*
X025883Y011630D01*
X026036Y011553D02*
X026113Y011630D01*
X026266Y011630D01*
X026343Y011553D01*
X026343Y011476D01*
X026036Y011476D01*
X026036Y011400D02*
X026036Y011553D01*
X026036Y011400D02*
X026113Y011323D01*
X026266Y011323D01*
X026496Y011323D02*
X026496Y011630D01*
X026573Y011630D01*
X026650Y011553D01*
X026727Y011630D01*
X026803Y011553D01*
X026803Y011323D01*
X026650Y011323D02*
X026650Y011553D01*
X026957Y011553D02*
X026957Y011400D01*
X027034Y011323D01*
X027187Y011323D01*
X027264Y011476D02*
X026957Y011476D01*
X026957Y011553D02*
X027034Y011630D01*
X027187Y011630D01*
X027264Y011553D01*
X027264Y011476D01*
X027417Y011323D02*
X027417Y011630D01*
X027647Y011630D01*
X027724Y011553D01*
X027724Y011323D01*
X027954Y011400D02*
X028031Y011323D01*
X027954Y011400D02*
X027954Y011706D01*
X027878Y011630D02*
X028031Y011630D01*
X025499Y010706D02*
X025499Y010400D01*
X025422Y010323D01*
X025269Y010323D01*
X025192Y010400D01*
X025039Y010400D02*
X024962Y010323D01*
X024809Y010323D01*
X024732Y010400D01*
X025039Y010706D01*
X025039Y010400D01*
X025192Y010630D02*
X025269Y010553D01*
X025499Y010553D01*
X025499Y010706D02*
X025422Y010783D01*
X025269Y010783D01*
X025192Y010706D01*
X025192Y010630D01*
X025039Y010706D02*
X024962Y010783D01*
X024809Y010783D01*
X024732Y010706D01*
X024732Y010400D01*
X024578Y010400D02*
X024502Y010323D01*
X024348Y010323D01*
X024271Y010400D01*
X024578Y010706D01*
X024578Y010400D01*
X024578Y010706D02*
X024502Y010783D01*
X024348Y010783D01*
X024271Y010706D01*
X024271Y010400D01*
X024118Y010323D02*
X023811Y010323D01*
X024118Y010630D01*
X024118Y010706D01*
X024041Y010783D01*
X023888Y010783D01*
X023811Y010706D01*
X023197Y010706D02*
X023197Y010400D01*
X023121Y010323D01*
X022967Y010323D01*
X022890Y010400D01*
X023197Y010706D01*
X023121Y010783D01*
X022967Y010783D01*
X022890Y010706D01*
X022890Y010400D01*
X022737Y010400D02*
X022660Y010323D01*
X022507Y010323D01*
X022430Y010400D01*
X022583Y010553D02*
X022660Y010553D01*
X022737Y010476D01*
X022737Y010400D01*
X022660Y010553D02*
X022737Y010630D01*
X022737Y010706D01*
X022660Y010783D01*
X022507Y010783D01*
X022430Y010706D01*
X021816Y010630D02*
X021739Y010630D01*
X021586Y010476D01*
X021586Y010323D02*
X021586Y010630D01*
X021433Y010553D02*
X021356Y010630D01*
X021202Y010630D01*
X021126Y010553D01*
X021126Y010400D01*
X021202Y010323D01*
X021356Y010323D01*
X021433Y010476D02*
X021126Y010476D01*
X020972Y010400D02*
X020896Y010323D01*
X020665Y010323D01*
X020665Y010783D01*
X020665Y010630D02*
X020896Y010630D01*
X020972Y010553D01*
X020972Y010400D01*
X020512Y010323D02*
X020512Y010553D01*
X020435Y010630D01*
X020358Y010553D01*
X020358Y010323D01*
X020205Y010323D02*
X020205Y010630D01*
X020282Y010630D01*
X020358Y010553D01*
X020052Y010553D02*
X020052Y010476D01*
X019745Y010476D01*
X019745Y010400D02*
X019745Y010553D01*
X019821Y010630D01*
X019975Y010630D01*
X020052Y010553D01*
X019975Y010323D02*
X019821Y010323D01*
X019745Y010400D01*
X019591Y010323D02*
X019514Y010400D01*
X019514Y010706D01*
X019438Y010630D02*
X019591Y010630D01*
X019284Y010553D02*
X019284Y010400D01*
X019208Y010323D01*
X018977Y010323D01*
X018977Y010169D02*
X018977Y010630D01*
X019208Y010630D01*
X019284Y010553D01*
X018824Y010553D02*
X018747Y010630D01*
X018594Y010630D01*
X018517Y010553D01*
X018517Y010400D01*
X018594Y010323D01*
X018747Y010323D01*
X018824Y010476D02*
X018517Y010476D01*
X018364Y010476D02*
X018364Y010400D01*
X018287Y010323D01*
X018133Y010323D01*
X018057Y010400D01*
X018133Y010553D02*
X018287Y010553D01*
X018364Y010476D01*
X018364Y010706D02*
X018287Y010783D01*
X018133Y010783D01*
X018057Y010706D01*
X018057Y010630D01*
X018133Y010553D01*
X018824Y010553D02*
X018824Y010476D01*
X019975Y011783D02*
X019975Y011860D01*
X021433Y010553D02*
X021433Y010476D01*
X023351Y011630D02*
X023427Y011630D01*
X023504Y011553D01*
X021954Y007083D02*
X022031Y007006D01*
X022031Y006930D01*
X021954Y006853D01*
X021724Y006853D01*
X021570Y006700D02*
X021494Y006700D01*
X021494Y006623D01*
X021570Y006623D01*
X021570Y006700D01*
X021570Y006623D02*
X021417Y006469D01*
X021187Y006623D02*
X021264Y006700D01*
X021264Y006930D01*
X021110Y006700D02*
X021187Y006623D01*
X021110Y006700D02*
X021033Y006623D01*
X020957Y006700D01*
X020957Y006930D01*
X021724Y007083D02*
X021724Y006623D01*
X021954Y006623D01*
X022031Y006700D01*
X022031Y006776D01*
X021954Y006853D01*
X021954Y007083D02*
X021724Y007083D01*
X019064Y006853D02*
X019064Y006623D01*
X018833Y006623D01*
X018757Y006700D01*
X018833Y006776D01*
X019064Y006776D01*
X019064Y006853D02*
X018987Y006930D01*
X018833Y006930D01*
D13*
X020687Y008603D02*
X020689Y008633D01*
X020694Y008663D01*
X020703Y008692D01*
X020716Y008719D01*
X020731Y008745D01*
X020750Y008769D01*
X020771Y008790D01*
X020795Y008809D01*
X020821Y008824D01*
X020848Y008837D01*
X020877Y008846D01*
X020907Y008851D01*
X020937Y008853D01*
X020967Y008851D01*
X020997Y008846D01*
X021026Y008837D01*
X021053Y008824D01*
X021079Y008809D01*
X021103Y008790D01*
X021124Y008769D01*
X021143Y008745D01*
X021158Y008719D01*
X021171Y008692D01*
X021180Y008663D01*
X021185Y008633D01*
X021187Y008603D01*
X021087Y008653D01*
X021187Y008603D02*
X021237Y008703D01*
X021937Y009203D02*
X021893Y009201D01*
X021850Y009195D01*
X021808Y009186D01*
X021766Y009173D01*
X021726Y009156D01*
X021687Y009136D01*
X021650Y009113D01*
X021616Y009086D01*
X021583Y009057D01*
X021554Y009024D01*
X021527Y008990D01*
X021504Y008953D01*
X021484Y008914D01*
X021467Y008874D01*
X021454Y008832D01*
X021445Y008790D01*
X021439Y008747D01*
X021437Y008703D01*
X021439Y008659D01*
X021445Y008616D01*
X021454Y008574D01*
X021467Y008532D01*
X021484Y008492D01*
X021504Y008453D01*
X021527Y008416D01*
X021554Y008382D01*
X021583Y008349D01*
X021616Y008320D01*
X021650Y008293D01*
X021687Y008270D01*
X021726Y008250D01*
X021766Y008233D01*
X021808Y008220D01*
X021850Y008211D01*
X021893Y008205D01*
X021937Y008203D01*
X021981Y008205D01*
X022024Y008211D01*
X022066Y008220D01*
X022108Y008233D01*
X022148Y008250D01*
X022187Y008270D01*
X022224Y008293D01*
X022258Y008320D01*
X022291Y008349D01*
X022320Y008382D01*
X022347Y008416D01*
X022370Y008453D01*
X022390Y008492D01*
X022407Y008532D01*
X022420Y008574D01*
X022429Y008616D01*
X022435Y008659D01*
X022437Y008703D01*
X022537Y008503D01*
X022437Y008703D02*
X022287Y008553D01*
X021837Y007953D02*
X021867Y007951D01*
X021897Y007946D01*
X021926Y007937D01*
X021953Y007924D01*
X021979Y007909D01*
X022003Y007890D01*
X022024Y007869D01*
X022043Y007845D01*
X022058Y007819D01*
X022071Y007792D01*
X022080Y007763D01*
X022085Y007733D01*
X022087Y007703D01*
X022085Y007673D01*
X022080Y007643D01*
X022071Y007614D01*
X022058Y007587D01*
X022043Y007561D01*
X022024Y007537D01*
X022003Y007516D01*
X021979Y007497D01*
X021953Y007482D01*
X021926Y007469D01*
X021897Y007460D01*
X021867Y007455D01*
X021837Y007453D01*
X021887Y007553D01*
X021837Y007453D02*
X021937Y007403D01*
X024484Y006589D02*
X024623Y006737D01*
X025560Y006763D02*
X025797Y006763D01*
X025797Y006526D01*
X025797Y005660D02*
X025797Y005424D01*
X025560Y005424D01*
X024694Y005424D02*
X024458Y005424D01*
X024458Y005660D01*
X013627Y013012D02*
X013489Y013012D01*
X013627Y013012D02*
X013627Y013150D01*
X012584Y013012D02*
X012446Y013012D01*
X012446Y013150D01*
X012446Y014056D02*
X012584Y014193D01*
X013489Y014193D02*
X013627Y014193D01*
X013627Y014056D01*
X008877Y007781D02*
X008680Y007781D01*
X008877Y007781D02*
X008877Y007584D01*
X006318Y007781D02*
X006121Y007781D01*
X006121Y007584D01*
X006121Y005222D02*
X006121Y005025D01*
X006318Y005025D01*
X008680Y005025D02*
X008877Y005222D01*
D14*
X018397Y008103D02*
X018791Y008103D01*
X018594Y008300D02*
X018594Y007906D01*
X021742Y008703D02*
X022135Y008703D01*
X021939Y008900D02*
X021939Y008506D01*
D15*
X022217Y008883D02*
X022444Y008883D01*
X022217Y008883D02*
X022217Y008940D01*
X022444Y009166D01*
X022444Y009223D01*
X022217Y009223D01*
X021044Y008173D02*
X021044Y008116D01*
X020930Y008003D01*
X020930Y007833D01*
X020930Y008003D02*
X020817Y008116D01*
X020817Y008173D01*
X021217Y007873D02*
X021444Y007533D01*
X021217Y007533D02*
X021444Y007873D01*
X019675Y009016D02*
X019675Y009073D01*
X019675Y009016D02*
X019562Y008903D01*
X019562Y008733D01*
X019562Y008903D02*
X019448Y009016D01*
X019448Y009073D01*
X019275Y008933D02*
X019048Y009273D01*
X019275Y009273D02*
X019048Y008933D01*
X018375Y007923D02*
X018148Y007923D01*
X018375Y007923D02*
X018375Y007866D01*
X018148Y007640D01*
X018148Y007583D01*
X018375Y007583D01*
D16*
X019337Y007803D02*
X019537Y007603D01*
X019737Y007803D01*
X019537Y007603D02*
X019537Y008453D01*
X018887Y009103D02*
X018037Y009103D01*
X018237Y008903D01*
X018037Y009103D02*
X018237Y009303D01*
X020737Y009003D02*
X020937Y009203D01*
X021137Y009003D01*
X020937Y009203D02*
X020937Y008353D01*
X021587Y007703D02*
X022437Y007703D01*
X022237Y007903D01*
X022437Y007703D02*
X022237Y007503D01*
D17*
X023419Y006003D02*
X023419Y005323D01*
X020849Y005323D01*
X020849Y006003D01*
X017483Y006193D02*
X017483Y004756D01*
X017030Y004756D01*
X016243Y004756D02*
X015790Y004756D01*
X015790Y006193D01*
X016047Y006449D01*
X016243Y006449D01*
X017030Y006449D02*
X017226Y006449D01*
X017483Y006193D01*
X014957Y006853D02*
X014777Y006673D01*
X014737Y006673D01*
X013087Y006683D02*
X012917Y006683D01*
X012917Y006853D01*
X012917Y008553D02*
X012917Y008723D01*
X013087Y008723D01*
X014787Y008713D02*
X014957Y008713D01*
X014957Y008543D01*
X015387Y012091D02*
X015389Y012111D01*
X015395Y012129D01*
X015404Y012147D01*
X015416Y012162D01*
X015431Y012174D01*
X015449Y012183D01*
X015467Y012189D01*
X015487Y012191D01*
X015507Y012189D01*
X015525Y012183D01*
X015543Y012174D01*
X015558Y012162D01*
X015570Y012147D01*
X015579Y012129D01*
X015585Y012111D01*
X015587Y012091D01*
X015585Y012071D01*
X015579Y012053D01*
X015570Y012035D01*
X015558Y012020D01*
X015543Y012008D01*
X015525Y011999D01*
X015507Y011993D01*
X015487Y011991D01*
X015467Y011993D01*
X015449Y011999D01*
X015431Y012008D01*
X015416Y012020D01*
X015404Y012035D01*
X015395Y012053D01*
X015389Y012071D01*
X015387Y012091D01*
X020087Y016403D02*
X020089Y016423D01*
X020095Y016441D01*
X020104Y016459D01*
X020116Y016474D01*
X020131Y016486D01*
X020149Y016495D01*
X020167Y016501D01*
X020187Y016503D01*
X020207Y016501D01*
X020225Y016495D01*
X020243Y016486D01*
X020258Y016474D01*
X020270Y016459D01*
X020279Y016441D01*
X020285Y016423D01*
X020287Y016403D01*
X020285Y016383D01*
X020279Y016365D01*
X020270Y016347D01*
X020258Y016332D01*
X020243Y016320D01*
X020225Y016311D01*
X020207Y016305D01*
X020187Y016303D01*
X020167Y016305D01*
X020149Y016311D01*
X020131Y016320D01*
X020116Y016332D01*
X020104Y016347D01*
X020095Y016365D01*
X020089Y016383D01*
X020087Y016403D01*
X014857Y017483D02*
X014687Y017483D01*
X014857Y017483D02*
X014857Y017653D01*
X012987Y017493D02*
X012817Y017493D01*
X012817Y017663D01*
X012817Y019353D02*
X012997Y019533D01*
X013037Y019533D01*
X012590Y019856D02*
X012590Y020309D01*
X012590Y019856D02*
X014026Y019856D01*
X014283Y020113D01*
X014283Y020309D01*
X014283Y021097D02*
X014283Y021293D01*
X014026Y021549D01*
X012590Y021549D01*
X012590Y021097D01*
X014687Y019523D02*
X014857Y019523D01*
X014857Y019353D01*
X008621Y014687D02*
X008463Y014687D01*
X008621Y014687D02*
X008621Y014530D01*
X006810Y014687D02*
X006652Y014530D01*
X006652Y012876D02*
X006652Y012719D01*
X006810Y012719D01*
X008463Y012719D02*
X008621Y012719D01*
X008621Y012876D01*
M02*
