%
M48
M72
T01C0.0236
T02C0.0315
T03C0.1300
%
T01
X5595Y8953
X4595Y9953
X6345Y11953
X8799Y10748
X8799Y10158
X8845Y8453
X8845Y13453
T02
X6345Y15953
X6345Y16953
X5345Y16953
X5345Y15953
X4345Y15953
X4345Y16953
X2595Y16953
X2595Y15953
X2595Y14953
X2595Y13953
X2595Y12953
X2595Y11953
X2595Y10953
X2595Y9953
X2595Y8953
X2595Y7953
X2595Y6953
X2595Y5953
X2595Y4953
X2595Y3953
X1595Y3953
X1595Y4953
X1595Y5953
X1595Y6953
X1595Y7953
X1595Y8953
X1595Y9953
X1595Y10953
X1595Y11953
X1595Y12953
X1595Y13953
X1595Y14953
X1595Y15953
X1595Y16953
T03
X1398Y1394
M30
