G75*
G70*
%OFA0B0*%
%FSLAX24Y24*%
%IPPOS*%
%LPD*%
%AMOC8*
5,1,8,0,0,1.08239X$1,22.5*
%
%ADD10R,0.0555X0.0555*%
%ADD11C,0.0555*%
%ADD12R,0.0500X0.0250*%
%ADD13C,0.0080*%
%ADD14C,0.0436*%
%ADD15C,0.0160*%
D10*
X001595Y003953D03*
X006345Y016953D03*
D11*
X006345Y015953D03*
X005345Y015953D03*
X005345Y016953D03*
X004345Y016953D03*
X004345Y015953D03*
X002595Y015953D03*
X002595Y016953D03*
X001595Y016953D03*
X001595Y015953D03*
X001595Y014953D03*
X001595Y013953D03*
X001595Y012953D03*
X001595Y011953D03*
X001595Y010953D03*
X001595Y009953D03*
X001595Y008953D03*
X001595Y007953D03*
X001595Y006953D03*
X001595Y005953D03*
X001595Y004953D03*
X002595Y004953D03*
X002595Y005953D03*
X002595Y006953D03*
X002595Y007953D03*
X002595Y008953D03*
X002595Y009953D03*
X002595Y010953D03*
X002595Y011953D03*
X002595Y012953D03*
X002595Y013953D03*
X002595Y014953D03*
X002595Y003953D03*
D12*
X009595Y010276D03*
X009595Y010630D03*
D13*
X000409Y000890D02*
X000613Y000609D01*
X000894Y000405D01*
X001224Y000298D01*
X001398Y000284D01*
X001571Y000298D01*
X001902Y000405D01*
X002183Y000609D01*
X002387Y000890D01*
X002494Y001220D01*
X002508Y001394D01*
X002508Y002501D01*
X002508Y002559D01*
X002508Y002559D01*
X002508Y002617D01*
X002508Y002617D01*
X002508Y002665D01*
X002508Y002666D01*
X002589Y002862D01*
X002589Y002862D01*
X002739Y003012D01*
X002739Y003012D01*
X002935Y003093D01*
X002935Y003093D01*
X002983Y003093D01*
X002983Y003093D01*
X010455Y003093D01*
X010455Y017813D01*
X000288Y017813D01*
X000288Y001452D01*
X000288Y001394D01*
X000301Y001220D01*
X000409Y000890D01*
X000402Y000911D02*
X000764Y000911D01*
X000728Y000946D02*
X000950Y000724D01*
X001241Y000604D01*
X001555Y000604D01*
X001845Y000724D01*
X002067Y000946D01*
X002188Y001237D01*
X002188Y001551D01*
X002067Y001841D01*
X001845Y002064D01*
X001555Y002184D01*
X001241Y002184D01*
X000950Y002064D01*
X000728Y001841D01*
X000608Y001551D01*
X000608Y001237D01*
X000728Y000946D01*
X000710Y000989D02*
X000376Y000989D01*
X000351Y001068D02*
X000678Y001068D01*
X000645Y001147D02*
X000325Y001147D01*
X000301Y001225D02*
X000613Y001225D01*
X000608Y001304D02*
X000295Y001304D01*
X000289Y001382D02*
X000608Y001382D01*
X000608Y001461D02*
X000288Y001461D01*
X000288Y001539D02*
X000608Y001539D01*
X000635Y001618D02*
X000288Y001618D01*
X000288Y001696D02*
X000668Y001696D01*
X000701Y001775D02*
X000288Y001775D01*
X000288Y001853D02*
X000740Y001853D01*
X000819Y001932D02*
X000288Y001932D01*
X000288Y002011D02*
X000897Y002011D01*
X001012Y002089D02*
X000288Y002089D01*
X000288Y002168D02*
X001201Y002168D01*
X001594Y002168D02*
X002508Y002168D01*
X002508Y002246D02*
X000288Y002246D01*
X000288Y002325D02*
X002508Y002325D01*
X002508Y002403D02*
X000288Y002403D01*
X000288Y002482D02*
X002508Y002482D01*
X002508Y002560D02*
X000288Y002560D01*
X000288Y002639D02*
X002508Y002639D01*
X002529Y002717D02*
X000288Y002717D01*
X000288Y002796D02*
X002562Y002796D01*
X002602Y002875D02*
X000288Y002875D01*
X000288Y002953D02*
X002680Y002953D01*
X002787Y003032D02*
X000288Y003032D01*
X000288Y003110D02*
X010455Y003110D01*
X010455Y003189D02*
X000288Y003189D01*
X000288Y003267D02*
X010455Y003267D01*
X010455Y003346D02*
X000288Y003346D01*
X000288Y003424D02*
X010455Y003424D01*
X010455Y003503D02*
X000288Y003503D01*
X000288Y003581D02*
X001242Y003581D01*
X001267Y003556D02*
X001922Y003556D01*
X001992Y003626D01*
X001992Y004124D01*
X002161Y004293D01*
X002255Y004387D01*
X002255Y004735D01*
X002258Y004728D01*
X002369Y004616D01*
X002516Y004556D01*
X002674Y004556D01*
X002820Y004616D01*
X002932Y004728D01*
X002992Y004874D01*
X002992Y005032D01*
X002932Y005178D01*
X002820Y005290D01*
X002674Y005351D01*
X002516Y005351D01*
X002369Y005290D01*
X002258Y005178D01*
X002255Y005171D01*
X002255Y005735D01*
X002258Y005728D01*
X002369Y005616D01*
X002516Y005556D01*
X002674Y005556D01*
X002820Y005616D01*
X002932Y005728D01*
X002992Y005874D01*
X002992Y006032D01*
X002932Y006178D01*
X002820Y006290D01*
X002674Y006351D01*
X002516Y006351D01*
X002369Y006290D01*
X002258Y006178D01*
X002255Y006171D01*
X002255Y006735D01*
X002258Y006728D01*
X002369Y006616D01*
X002516Y006556D01*
X002674Y006556D01*
X002820Y006616D01*
X002932Y006728D01*
X002992Y006874D01*
X002992Y007032D01*
X002932Y007178D01*
X002820Y007290D01*
X002812Y007293D01*
X002911Y007293D01*
X004411Y008793D01*
X005295Y008793D01*
X005308Y008762D01*
X005403Y008666D01*
X005527Y008615D01*
X005662Y008615D01*
X005786Y008666D01*
X005881Y008762D01*
X005933Y008886D01*
X005933Y009020D01*
X005881Y009145D01*
X005786Y009240D01*
X005662Y009291D01*
X005527Y009291D01*
X005403Y009240D01*
X005308Y009145D01*
X005295Y009113D01*
X004731Y009113D01*
X004755Y009137D01*
X004755Y009269D01*
X004755Y009653D01*
X004786Y009666D01*
X004881Y009762D01*
X004933Y009886D01*
X004933Y010020D01*
X004881Y010145D01*
X004786Y010240D01*
X004662Y010291D01*
X004527Y010291D01*
X004403Y010240D01*
X004308Y010145D01*
X004257Y010020D01*
X004257Y009886D01*
X004308Y009762D01*
X004403Y009666D01*
X004435Y009653D01*
X004435Y009269D01*
X004278Y009113D01*
X004185Y009019D01*
X002959Y007793D01*
X002992Y007874D01*
X002992Y008032D01*
X002932Y008178D01*
X002820Y008290D01*
X002674Y008351D01*
X002516Y008351D01*
X002369Y008290D01*
X002258Y008178D01*
X002197Y008032D01*
X002197Y007874D01*
X002258Y007728D01*
X002369Y007616D01*
X002377Y007613D01*
X002278Y007613D01*
X002185Y007519D01*
X001935Y007269D01*
X001935Y007171D01*
X001932Y007178D01*
X001820Y007290D01*
X001674Y007351D01*
X001516Y007351D01*
X001369Y007290D01*
X001258Y007178D01*
X001197Y007032D01*
X001197Y006874D01*
X001258Y006728D01*
X001369Y006616D01*
X001516Y006556D01*
X001674Y006556D01*
X001820Y006616D01*
X001932Y006728D01*
X001935Y006735D01*
X001935Y006171D01*
X001932Y006178D01*
X001820Y006290D01*
X001674Y006351D01*
X001516Y006351D01*
X001369Y006290D01*
X001258Y006178D01*
X001197Y006032D01*
X001197Y005874D01*
X001258Y005728D01*
X001369Y005616D01*
X001516Y005556D01*
X001674Y005556D01*
X001820Y005616D01*
X001932Y005728D01*
X001935Y005735D01*
X001935Y005171D01*
X001932Y005178D01*
X001820Y005290D01*
X001674Y005351D01*
X001516Y005351D01*
X001369Y005290D01*
X001258Y005178D01*
X001197Y005032D01*
X001197Y004874D01*
X001258Y004728D01*
X001369Y004616D01*
X001516Y004556D01*
X001674Y004556D01*
X001820Y004616D01*
X001932Y004728D01*
X001935Y004735D01*
X001935Y004519D01*
X001766Y004351D01*
X001267Y004351D01*
X001197Y004280D01*
X001197Y003626D01*
X001267Y003556D01*
X001197Y003660D02*
X000288Y003660D01*
X000288Y003739D02*
X001197Y003739D01*
X001197Y003817D02*
X000288Y003817D01*
X000288Y003896D02*
X001197Y003896D01*
X001197Y003974D02*
X000288Y003974D01*
X000288Y004053D02*
X001197Y004053D01*
X001197Y004131D02*
X000288Y004131D01*
X000288Y004210D02*
X001197Y004210D01*
X001205Y004288D02*
X000288Y004288D01*
X000288Y004367D02*
X001782Y004367D01*
X001861Y004445D02*
X000288Y004445D01*
X000288Y004524D02*
X001935Y004524D01*
X001935Y004602D02*
X001787Y004602D01*
X001885Y004681D02*
X001935Y004681D01*
X002095Y004453D02*
X002095Y007203D01*
X002345Y007453D01*
X002845Y007453D01*
X004345Y008953D01*
X005595Y008953D01*
X005806Y008687D02*
X010455Y008687D01*
X010455Y008765D02*
X005883Y008765D01*
X005915Y008844D02*
X010455Y008844D01*
X010455Y008922D02*
X005933Y008922D01*
X005933Y009001D02*
X010455Y009001D01*
X010455Y009079D02*
X005908Y009079D01*
X005868Y009158D02*
X010455Y009158D01*
X010455Y009237D02*
X005789Y009237D01*
X005400Y009237D02*
X004755Y009237D01*
X004755Y009315D02*
X010455Y009315D01*
X010455Y009394D02*
X004755Y009394D01*
X004755Y009472D02*
X010455Y009472D01*
X010455Y009551D02*
X004755Y009551D01*
X004755Y009629D02*
X010455Y009629D01*
X010455Y009708D02*
X004828Y009708D01*
X004891Y009786D02*
X010455Y009786D01*
X010455Y009865D02*
X008976Y009865D01*
X008991Y009871D02*
X009086Y009966D01*
X009099Y009998D01*
X009410Y009998D01*
X009543Y009998D01*
X009576Y010031D01*
X009894Y010031D01*
X009965Y010101D01*
X009965Y010451D01*
X009962Y010453D01*
X009965Y010456D01*
X009965Y010805D01*
X009894Y010875D01*
X009576Y010875D01*
X009543Y010908D01*
X009410Y010908D01*
X009099Y010908D01*
X009086Y010940D01*
X008991Y011035D01*
X008867Y011086D01*
X008732Y011086D01*
X008608Y011035D01*
X008513Y010940D01*
X008461Y010816D01*
X008461Y010681D01*
X008513Y010557D01*
X008608Y010462D01*
X008629Y010453D01*
X008608Y010444D01*
X008513Y010349D01*
X008461Y010225D01*
X008461Y010091D01*
X008513Y009966D01*
X008608Y009871D01*
X008732Y009820D01*
X008867Y009820D01*
X008991Y009871D01*
X009063Y009943D02*
X010455Y009943D01*
X010455Y010022D02*
X009567Y010022D01*
X009477Y010158D02*
X009595Y010276D01*
X009477Y010158D02*
X008799Y010158D01*
X008490Y010022D02*
X004932Y010022D01*
X004933Y009943D02*
X008536Y009943D01*
X008623Y009865D02*
X004924Y009865D01*
X004900Y010101D02*
X008461Y010101D01*
X008461Y010179D02*
X004847Y010179D01*
X004743Y010258D02*
X008475Y010258D01*
X008507Y010336D02*
X002708Y010336D01*
X002674Y010351D02*
X002820Y010290D01*
X002932Y010178D01*
X002992Y010032D01*
X002992Y009874D01*
X002932Y009728D01*
X002820Y009616D01*
X002674Y009556D01*
X002516Y009556D01*
X002369Y009616D01*
X002258Y009728D01*
X002197Y009874D01*
X002197Y010032D01*
X002258Y010178D01*
X002369Y010290D01*
X002516Y010351D01*
X002674Y010351D01*
X002481Y010336D02*
X001708Y010336D01*
X001674Y010351D02*
X001516Y010351D01*
X001369Y010290D01*
X001258Y010178D01*
X001197Y010032D01*
X001197Y009874D01*
X001258Y009728D01*
X001369Y009616D01*
X001516Y009556D01*
X001674Y009556D01*
X001820Y009616D01*
X001932Y009728D01*
X001992Y009874D01*
X001992Y010032D01*
X001932Y010178D01*
X001820Y010290D01*
X001674Y010351D01*
X001674Y010556D02*
X001516Y010556D01*
X001369Y010616D01*
X001258Y010728D01*
X001197Y010874D01*
X001197Y011032D01*
X001258Y011178D01*
X001369Y011290D01*
X001516Y011351D01*
X001674Y011351D01*
X001820Y011290D01*
X001932Y011178D01*
X001992Y011032D01*
X001992Y010874D01*
X001932Y010728D01*
X001820Y010616D01*
X001674Y010556D01*
X001713Y010572D02*
X002476Y010572D01*
X002516Y010556D02*
X002674Y010556D01*
X002820Y010616D01*
X002932Y010728D01*
X002992Y010874D01*
X002992Y011032D01*
X002932Y011178D01*
X002820Y011290D01*
X002674Y011351D01*
X002516Y011351D01*
X002369Y011290D01*
X002258Y011178D01*
X002197Y011032D01*
X002197Y010874D01*
X002258Y010728D01*
X002369Y010616D01*
X002516Y010556D01*
X002713Y010572D02*
X008506Y010572D01*
X008474Y010650D02*
X002854Y010650D01*
X002932Y010729D02*
X008461Y010729D01*
X008461Y010807D02*
X002964Y010807D01*
X002992Y010886D02*
X008490Y010886D01*
X008537Y010964D02*
X002992Y010964D01*
X002988Y011043D02*
X008627Y011043D01*
X008799Y010748D02*
X009477Y010748D01*
X009595Y010630D01*
X009565Y010886D02*
X010455Y010886D01*
X010455Y010964D02*
X009061Y010964D01*
X008971Y011043D02*
X010455Y011043D01*
X010455Y011122D02*
X002955Y011122D01*
X002910Y011200D02*
X010455Y011200D01*
X010455Y011279D02*
X002831Y011279D01*
X002674Y011556D02*
X002820Y011616D01*
X002932Y011728D01*
X002992Y011874D01*
X002992Y012032D01*
X002932Y012178D01*
X002820Y012290D01*
X002674Y012351D01*
X002516Y012351D01*
X002369Y012290D01*
X002258Y012178D01*
X002197Y012032D01*
X002197Y011874D01*
X002258Y011728D01*
X002369Y011616D01*
X002516Y011556D01*
X002674Y011556D01*
X002764Y011593D02*
X010455Y011593D01*
X010455Y011671D02*
X006541Y011671D01*
X006536Y011666D02*
X006631Y011762D01*
X006683Y011886D01*
X006683Y012020D01*
X006631Y012145D01*
X006545Y012231D01*
X006545Y015606D01*
X006570Y015616D01*
X006682Y015728D01*
X006742Y015874D01*
X006742Y016032D01*
X006682Y016178D01*
X006570Y016290D01*
X006424Y016351D01*
X006266Y016351D01*
X006119Y016290D01*
X006008Y016178D01*
X005947Y016032D01*
X005947Y015874D01*
X006008Y015728D01*
X006119Y015616D01*
X006145Y015606D01*
X006145Y012231D01*
X006058Y012145D01*
X006007Y012020D01*
X006007Y011886D01*
X006058Y011762D01*
X006153Y011666D01*
X006277Y011615D01*
X006412Y011615D01*
X006536Y011666D01*
X006620Y011750D02*
X010455Y011750D01*
X010455Y011828D02*
X006659Y011828D01*
X006683Y011907D02*
X010455Y011907D01*
X010455Y011986D02*
X006683Y011986D01*
X006665Y012064D02*
X010455Y012064D01*
X010455Y012143D02*
X006632Y012143D01*
X006555Y012221D02*
X010455Y012221D01*
X010455Y012300D02*
X006545Y012300D01*
X006545Y012378D02*
X010455Y012378D01*
X010455Y012457D02*
X006545Y012457D01*
X006545Y012535D02*
X010455Y012535D01*
X010455Y012614D02*
X006545Y012614D01*
X006545Y012692D02*
X010455Y012692D01*
X010455Y012771D02*
X006545Y012771D01*
X006545Y012850D02*
X010455Y012850D01*
X010455Y012928D02*
X006545Y012928D01*
X006545Y013007D02*
X010455Y013007D01*
X010455Y013085D02*
X006545Y013085D01*
X006545Y013164D02*
X010455Y013164D01*
X010455Y013242D02*
X006545Y013242D01*
X006545Y013321D02*
X010455Y013321D01*
X010455Y013399D02*
X006545Y013399D01*
X006545Y013478D02*
X010455Y013478D01*
X010455Y013556D02*
X006545Y013556D01*
X006545Y013635D02*
X010455Y013635D01*
X010455Y013714D02*
X006545Y013714D01*
X006545Y013792D02*
X010455Y013792D01*
X010455Y013871D02*
X006545Y013871D01*
X006545Y013949D02*
X010455Y013949D01*
X010455Y014028D02*
X006545Y014028D01*
X006545Y014106D02*
X010455Y014106D01*
X010455Y014185D02*
X006545Y014185D01*
X006545Y014263D02*
X010455Y014263D01*
X010455Y014342D02*
X006545Y014342D01*
X006545Y014420D02*
X010455Y014420D01*
X010455Y014499D02*
X006545Y014499D01*
X006545Y014577D02*
X010455Y014577D01*
X010455Y014656D02*
X006545Y014656D01*
X006545Y014735D02*
X010455Y014735D01*
X010455Y014813D02*
X006545Y014813D01*
X006545Y014892D02*
X010455Y014892D01*
X010455Y014970D02*
X006545Y014970D01*
X006545Y015049D02*
X010455Y015049D01*
X010455Y015127D02*
X006545Y015127D01*
X006545Y015206D02*
X010455Y015206D01*
X010455Y015284D02*
X006545Y015284D01*
X006545Y015363D02*
X010455Y015363D01*
X010455Y015441D02*
X006545Y015441D01*
X006545Y015520D02*
X010455Y015520D01*
X010455Y015599D02*
X006545Y015599D01*
X006631Y015677D02*
X010455Y015677D01*
X010455Y015756D02*
X006693Y015756D01*
X006726Y015834D02*
X010455Y015834D01*
X010455Y015913D02*
X006742Y015913D01*
X006742Y015991D02*
X010455Y015991D01*
X010455Y016070D02*
X006726Y016070D01*
X006694Y016148D02*
X010455Y016148D01*
X010455Y016227D02*
X006633Y016227D01*
X006533Y016305D02*
X010455Y016305D01*
X010455Y016384D02*
X000288Y016384D01*
X000288Y016463D02*
X010455Y016463D01*
X010455Y016541D02*
X006686Y016541D01*
X006680Y016536D02*
X006762Y016618D01*
X006762Y016914D01*
X006384Y016914D01*
X006384Y016992D01*
X006762Y016992D01*
X006762Y017289D01*
X006680Y017371D01*
X006383Y017371D01*
X006383Y016992D01*
X006306Y016992D01*
X006306Y017371D01*
X006009Y017371D01*
X005927Y017289D01*
X005927Y016992D01*
X006306Y016992D01*
X006306Y016914D01*
X006383Y016914D01*
X006383Y016536D01*
X006680Y016536D01*
X006762Y016620D02*
X010455Y016620D01*
X010455Y016698D02*
X006762Y016698D01*
X006762Y016777D02*
X010455Y016777D01*
X010455Y016855D02*
X006762Y016855D01*
X006762Y017012D02*
X010455Y017012D01*
X010455Y016934D02*
X006384Y016934D01*
X006383Y017012D02*
X006306Y017012D01*
X006306Y016934D02*
X005742Y016934D01*
X005742Y016874D02*
X005682Y016728D01*
X005570Y016616D01*
X005424Y016556D01*
X005266Y016556D01*
X005119Y016616D01*
X005008Y016728D01*
X004947Y016874D01*
X004947Y017032D01*
X005008Y017178D01*
X005119Y017290D01*
X005266Y017351D01*
X005424Y017351D01*
X005570Y017290D01*
X005682Y017178D01*
X005742Y017032D01*
X005742Y016874D01*
X005734Y016855D02*
X005927Y016855D01*
X005927Y016914D02*
X005927Y016618D01*
X006009Y016536D01*
X006306Y016536D01*
X006306Y016914D01*
X005927Y016914D01*
X005927Y017012D02*
X005742Y017012D01*
X005718Y017091D02*
X005927Y017091D01*
X005927Y017169D02*
X005685Y017169D01*
X005612Y017248D02*
X005927Y017248D01*
X005965Y017326D02*
X005482Y017326D01*
X005208Y017326D02*
X004482Y017326D01*
X004424Y017351D02*
X004266Y017351D01*
X004119Y017290D01*
X004008Y017178D01*
X003947Y017032D01*
X003947Y016874D01*
X004008Y016728D01*
X004119Y016616D01*
X004266Y016556D01*
X004424Y016556D01*
X004570Y016616D01*
X004682Y016728D01*
X004742Y016874D01*
X004742Y017032D01*
X004682Y017178D01*
X004570Y017290D01*
X004424Y017351D01*
X004612Y017248D02*
X005077Y017248D01*
X005004Y017169D02*
X004685Y017169D01*
X004718Y017091D02*
X004972Y017091D01*
X004947Y017012D02*
X004742Y017012D01*
X004742Y016934D02*
X004947Y016934D01*
X004955Y016855D02*
X004734Y016855D01*
X004702Y016777D02*
X004987Y016777D01*
X005037Y016698D02*
X004652Y016698D01*
X004573Y016620D02*
X005116Y016620D01*
X005266Y016351D02*
X005119Y016290D01*
X005008Y016178D01*
X004947Y016032D01*
X004947Y015874D01*
X005008Y015728D01*
X005119Y015616D01*
X005266Y015556D01*
X005424Y015556D01*
X005570Y015616D01*
X005682Y015728D01*
X005742Y015874D01*
X005742Y016032D01*
X005682Y016178D01*
X005570Y016290D01*
X005424Y016351D01*
X005266Y016351D01*
X005157Y016305D02*
X004533Y016305D01*
X004570Y016290D02*
X004424Y016351D01*
X004266Y016351D01*
X004119Y016290D01*
X004008Y016178D01*
X003947Y016032D01*
X003947Y015874D01*
X004008Y015728D01*
X004119Y015616D01*
X004266Y015556D01*
X004424Y015556D01*
X004570Y015616D01*
X004682Y015728D01*
X004742Y015874D01*
X004742Y016032D01*
X004682Y016178D01*
X004570Y016290D01*
X004633Y016227D02*
X005056Y016227D01*
X004995Y016148D02*
X004694Y016148D01*
X004726Y016070D02*
X004963Y016070D01*
X004947Y015991D02*
X004742Y015991D01*
X004742Y015913D02*
X004947Y015913D01*
X004964Y015834D02*
X004726Y015834D01*
X004693Y015756D02*
X004996Y015756D01*
X005059Y015677D02*
X004631Y015677D01*
X004527Y015599D02*
X005162Y015599D01*
X005527Y015599D02*
X006145Y015599D01*
X006145Y015520D02*
X000288Y015520D01*
X000288Y015441D02*
X006145Y015441D01*
X006145Y015363D02*
X000288Y015363D01*
X000288Y015284D02*
X001364Y015284D01*
X001369Y015290D02*
X001258Y015178D01*
X001197Y015032D01*
X001197Y014874D01*
X001258Y014728D01*
X001369Y014616D01*
X001516Y014556D01*
X001674Y014556D01*
X001820Y014616D01*
X001932Y014728D01*
X001992Y014874D01*
X001992Y015032D01*
X001932Y015178D01*
X001820Y015290D01*
X001674Y015351D01*
X001516Y015351D01*
X001369Y015290D01*
X001285Y015206D02*
X000288Y015206D01*
X000288Y015127D02*
X001237Y015127D01*
X001204Y015049D02*
X000288Y015049D01*
X000288Y014970D02*
X001197Y014970D01*
X001197Y014892D02*
X000288Y014892D01*
X000288Y014813D02*
X001222Y014813D01*
X001255Y014735D02*
X000288Y014735D01*
X000288Y014656D02*
X001330Y014656D01*
X001463Y014577D02*
X000288Y014577D01*
X000288Y014499D02*
X006145Y014499D01*
X006145Y014577D02*
X002727Y014577D01*
X002674Y014556D02*
X002820Y014616D01*
X002932Y014728D01*
X002992Y014874D01*
X002992Y015032D01*
X002932Y015178D01*
X002820Y015290D01*
X002674Y015351D01*
X002516Y015351D01*
X002369Y015290D01*
X002258Y015178D01*
X002197Y015032D01*
X002197Y014874D01*
X002258Y014728D01*
X002369Y014616D01*
X002516Y014556D01*
X002674Y014556D01*
X002674Y014351D02*
X002516Y014351D01*
X002369Y014290D01*
X002258Y014178D01*
X002197Y014032D01*
X002197Y013874D01*
X002258Y013728D01*
X002369Y013616D01*
X002516Y013556D01*
X002674Y013556D01*
X002820Y013616D01*
X002932Y013728D01*
X002992Y013874D01*
X002992Y014032D01*
X002932Y014178D01*
X002820Y014290D01*
X002674Y014351D01*
X002695Y014342D02*
X006145Y014342D01*
X006145Y014420D02*
X000288Y014420D01*
X000288Y014342D02*
X001495Y014342D01*
X001516Y014351D02*
X001369Y014290D01*
X001258Y014178D01*
X001197Y014032D01*
X001197Y013874D01*
X001258Y013728D01*
X001369Y013616D01*
X001516Y013556D01*
X001674Y013556D01*
X001820Y013616D01*
X001932Y013728D01*
X001992Y013874D01*
X001992Y014032D01*
X001932Y014178D01*
X001820Y014290D01*
X001674Y014351D01*
X001516Y014351D01*
X001695Y014342D02*
X002495Y014342D01*
X002463Y014577D02*
X001727Y014577D01*
X001860Y014656D02*
X002330Y014656D01*
X002255Y014735D02*
X001934Y014735D01*
X001967Y014813D02*
X002222Y014813D01*
X002197Y014892D02*
X001992Y014892D01*
X001992Y014970D02*
X002197Y014970D01*
X002204Y015049D02*
X001985Y015049D01*
X001953Y015127D02*
X002237Y015127D01*
X002285Y015206D02*
X001904Y015206D01*
X001825Y015284D02*
X002364Y015284D01*
X002516Y015556D02*
X002674Y015556D01*
X002820Y015616D01*
X002932Y015728D01*
X002992Y015874D01*
X002992Y016032D01*
X002932Y016178D01*
X002820Y016290D01*
X002674Y016351D01*
X002516Y016351D01*
X002369Y016290D01*
X002258Y016178D01*
X002197Y016032D01*
X002197Y015874D01*
X002258Y015728D01*
X002369Y015616D01*
X002516Y015556D01*
X002412Y015599D02*
X001777Y015599D01*
X001820Y015616D02*
X001932Y015728D01*
X001992Y015874D01*
X001992Y016032D01*
X001932Y016178D01*
X001820Y016290D01*
X001674Y016351D01*
X001516Y016351D01*
X001369Y016290D01*
X001258Y016178D01*
X001197Y016032D01*
X001197Y015874D01*
X001258Y015728D01*
X001369Y015616D01*
X001516Y015556D01*
X001674Y015556D01*
X001820Y015616D01*
X001881Y015677D02*
X002309Y015677D01*
X002246Y015756D02*
X001943Y015756D01*
X001976Y015834D02*
X002214Y015834D01*
X002197Y015913D02*
X001992Y015913D01*
X001992Y015991D02*
X002197Y015991D01*
X002213Y016070D02*
X001976Y016070D01*
X001944Y016148D02*
X002245Y016148D01*
X002306Y016227D02*
X001883Y016227D01*
X001783Y016305D02*
X002407Y016305D01*
X002498Y016541D02*
X001691Y016541D01*
X001678Y016536D02*
X001831Y016599D01*
X001949Y016717D01*
X002012Y016870D01*
X002012Y016914D01*
X001634Y016914D01*
X001634Y016992D01*
X002012Y016992D01*
X002012Y017036D01*
X001949Y017190D01*
X001831Y017307D01*
X001678Y017371D01*
X001633Y017371D01*
X001633Y016992D01*
X001556Y016992D01*
X001556Y017371D01*
X001512Y017371D01*
X001358Y017307D01*
X001241Y017190D01*
X001177Y017036D01*
X001177Y016992D01*
X001556Y016992D01*
X001556Y016914D01*
X001633Y016914D01*
X001633Y016536D01*
X001678Y016536D01*
X001633Y016541D02*
X001556Y016541D01*
X001556Y016536D02*
X001556Y016914D01*
X001177Y016914D01*
X001177Y016870D01*
X001241Y016717D01*
X001358Y016599D01*
X001512Y016536D01*
X001556Y016536D01*
X001498Y016541D02*
X000288Y016541D01*
X000288Y016620D02*
X001338Y016620D01*
X001259Y016698D02*
X000288Y016698D01*
X000288Y016777D02*
X001216Y016777D01*
X001183Y016855D02*
X000288Y016855D01*
X000288Y016934D02*
X001556Y016934D01*
X001634Y016934D02*
X002556Y016934D01*
X002556Y016914D02*
X002177Y016914D01*
X002177Y016870D01*
X002241Y016717D01*
X002358Y016599D01*
X002512Y016536D01*
X002556Y016536D01*
X002556Y016914D01*
X002633Y016914D01*
X002633Y016536D01*
X002678Y016536D01*
X002831Y016599D01*
X002949Y016717D01*
X003012Y016870D01*
X003012Y016914D01*
X002634Y016914D01*
X002634Y016992D01*
X003012Y016992D01*
X003012Y017036D01*
X002949Y017190D01*
X002831Y017307D01*
X002678Y017371D01*
X002633Y017371D01*
X002633Y016992D01*
X002556Y016992D01*
X002556Y017371D01*
X002512Y017371D01*
X002358Y017307D01*
X002241Y017190D01*
X002177Y017036D01*
X002177Y016992D01*
X002556Y016992D01*
X002556Y016914D01*
X002556Y016855D02*
X002633Y016855D01*
X002633Y016777D02*
X002556Y016777D01*
X002556Y016698D02*
X002633Y016698D01*
X002633Y016620D02*
X002556Y016620D01*
X002556Y016541D02*
X002633Y016541D01*
X002691Y016541D02*
X006004Y016541D01*
X005927Y016620D02*
X005573Y016620D01*
X005652Y016698D02*
X005927Y016698D01*
X005927Y016777D02*
X005702Y016777D01*
X005533Y016305D02*
X006157Y016305D01*
X006056Y016227D02*
X005633Y016227D01*
X005694Y016148D02*
X005995Y016148D01*
X005963Y016070D02*
X005726Y016070D01*
X005742Y015991D02*
X005947Y015991D01*
X005947Y015913D02*
X005742Y015913D01*
X005726Y015834D02*
X005964Y015834D01*
X005996Y015756D02*
X005693Y015756D01*
X005631Y015677D02*
X006059Y015677D01*
X006145Y015284D02*
X002825Y015284D01*
X002904Y015206D02*
X006145Y015206D01*
X006145Y015127D02*
X002953Y015127D01*
X002985Y015049D02*
X006145Y015049D01*
X006145Y014970D02*
X002992Y014970D01*
X002992Y014892D02*
X006145Y014892D01*
X006145Y014813D02*
X002967Y014813D01*
X002934Y014735D02*
X006145Y014735D01*
X006145Y014656D02*
X002860Y014656D01*
X002846Y014263D02*
X006145Y014263D01*
X006145Y014185D02*
X002925Y014185D01*
X002961Y014106D02*
X006145Y014106D01*
X006145Y014028D02*
X002992Y014028D01*
X002992Y013949D02*
X006145Y013949D01*
X006145Y013871D02*
X002991Y013871D01*
X002958Y013792D02*
X006145Y013792D01*
X006145Y013714D02*
X002917Y013714D01*
X002839Y013635D02*
X006145Y013635D01*
X006145Y013556D02*
X002676Y013556D01*
X002514Y013556D02*
X001676Y013556D01*
X001514Y013556D02*
X000288Y013556D01*
X000288Y013478D02*
X006145Y013478D01*
X006145Y013399D02*
X000288Y013399D01*
X000288Y013321D02*
X001444Y013321D01*
X001516Y013351D02*
X001369Y013290D01*
X001258Y013178D01*
X001197Y013032D01*
X001197Y012874D01*
X001258Y012728D01*
X001369Y012616D01*
X001516Y012556D01*
X001674Y012556D01*
X001820Y012616D01*
X001932Y012728D01*
X001992Y012874D01*
X001992Y013032D01*
X001932Y013178D01*
X001820Y013290D01*
X001674Y013351D01*
X001516Y013351D01*
X001322Y013242D02*
X000288Y013242D01*
X000288Y013164D02*
X001252Y013164D01*
X001219Y013085D02*
X000288Y013085D01*
X000288Y013007D02*
X001197Y013007D01*
X001197Y012928D02*
X000288Y012928D01*
X000288Y012850D02*
X001207Y012850D01*
X001240Y012771D02*
X000288Y012771D01*
X000288Y012692D02*
X001293Y012692D01*
X001375Y012614D02*
X000288Y012614D01*
X000288Y012535D02*
X006145Y012535D01*
X006145Y012457D02*
X000288Y012457D01*
X000288Y012378D02*
X006145Y012378D01*
X006145Y012300D02*
X002796Y012300D01*
X002889Y012221D02*
X006135Y012221D01*
X006057Y012143D02*
X002946Y012143D01*
X002979Y012064D02*
X006025Y012064D01*
X006007Y011986D02*
X002992Y011986D01*
X002992Y011907D02*
X006007Y011907D01*
X006030Y011828D02*
X002973Y011828D01*
X002941Y011750D02*
X006070Y011750D01*
X006148Y011671D02*
X002875Y011671D01*
X002426Y011593D02*
X001764Y011593D01*
X001820Y011616D02*
X001932Y011728D01*
X001992Y011874D01*
X001992Y012032D01*
X001932Y012178D01*
X001820Y012290D01*
X001674Y012351D01*
X001516Y012351D01*
X001369Y012290D01*
X001258Y012178D01*
X001197Y012032D01*
X001197Y011874D01*
X001258Y011728D01*
X001369Y011616D01*
X001516Y011556D01*
X001674Y011556D01*
X001820Y011616D01*
X001875Y011671D02*
X002314Y011671D01*
X002249Y011750D02*
X001941Y011750D01*
X001973Y011828D02*
X002216Y011828D01*
X002197Y011907D02*
X001992Y011907D01*
X001992Y011986D02*
X002197Y011986D01*
X002210Y012064D02*
X001979Y012064D01*
X001946Y012143D02*
X002243Y012143D01*
X002301Y012221D02*
X001889Y012221D01*
X001796Y012300D02*
X002393Y012300D01*
X002516Y012556D02*
X002369Y012616D01*
X002258Y012728D01*
X002197Y012874D01*
X002197Y013032D01*
X002258Y013178D01*
X002369Y013290D01*
X002516Y013351D01*
X002674Y013351D01*
X002820Y013290D01*
X002932Y013178D01*
X002992Y013032D01*
X002992Y012874D01*
X002932Y012728D01*
X002820Y012616D01*
X002674Y012556D01*
X002516Y012556D01*
X002375Y012614D02*
X001814Y012614D01*
X001896Y012692D02*
X002293Y012692D01*
X002240Y012771D02*
X001949Y012771D01*
X001982Y012850D02*
X002207Y012850D01*
X002197Y012928D02*
X001992Y012928D01*
X001992Y013007D02*
X002197Y013007D01*
X002219Y013085D02*
X001970Y013085D01*
X001938Y013164D02*
X002252Y013164D01*
X002322Y013242D02*
X001868Y013242D01*
X001745Y013321D02*
X002444Y013321D01*
X002351Y013635D02*
X001839Y013635D01*
X001917Y013714D02*
X002272Y013714D01*
X002231Y013792D02*
X001958Y013792D01*
X001991Y013871D02*
X002199Y013871D01*
X002197Y013949D02*
X001992Y013949D01*
X001992Y014028D02*
X002197Y014028D01*
X002228Y014106D02*
X001961Y014106D01*
X001925Y014185D02*
X002264Y014185D01*
X002343Y014263D02*
X001846Y014263D01*
X001343Y014263D02*
X000288Y014263D01*
X000288Y014185D02*
X001264Y014185D01*
X001228Y014106D02*
X000288Y014106D01*
X000288Y014028D02*
X001197Y014028D01*
X001197Y013949D02*
X000288Y013949D01*
X000288Y013871D02*
X001199Y013871D01*
X001231Y013792D02*
X000288Y013792D01*
X000288Y013714D02*
X001272Y013714D01*
X001351Y013635D02*
X000288Y013635D01*
X000288Y012300D02*
X001393Y012300D01*
X001301Y012221D02*
X000288Y012221D01*
X000288Y012143D02*
X001243Y012143D01*
X001210Y012064D02*
X000288Y012064D01*
X000288Y011986D02*
X001197Y011986D01*
X001197Y011907D02*
X000288Y011907D01*
X000288Y011828D02*
X001216Y011828D01*
X001249Y011750D02*
X000288Y011750D01*
X000288Y011671D02*
X001314Y011671D01*
X001426Y011593D02*
X000288Y011593D01*
X000288Y011514D02*
X010455Y011514D01*
X010455Y011436D02*
X000288Y011436D01*
X000288Y011357D02*
X010455Y011357D01*
X010455Y010807D02*
X009962Y010807D01*
X009965Y010729D02*
X010455Y010729D01*
X010455Y010650D02*
X009965Y010650D01*
X009965Y010572D02*
X010455Y010572D01*
X010455Y010493D02*
X009965Y010493D01*
X009965Y010415D02*
X010455Y010415D01*
X010455Y010336D02*
X009965Y010336D01*
X009965Y010258D02*
X010455Y010258D01*
X010455Y010179D02*
X009965Y010179D01*
X009964Y010101D02*
X010455Y010101D01*
X010455Y008608D02*
X004226Y008608D01*
X004147Y008530D02*
X010455Y008530D01*
X010455Y008451D02*
X004069Y008451D01*
X003990Y008373D02*
X010455Y008373D01*
X010455Y008294D02*
X003912Y008294D01*
X003833Y008215D02*
X010455Y008215D01*
X010455Y008137D02*
X003755Y008137D01*
X003676Y008058D02*
X010455Y008058D01*
X010455Y007980D02*
X003598Y007980D01*
X003519Y007901D02*
X010455Y007901D01*
X010455Y007823D02*
X003441Y007823D01*
X003362Y007744D02*
X010455Y007744D01*
X010455Y007666D02*
X003284Y007666D01*
X003205Y007587D02*
X010455Y007587D01*
X010455Y007509D02*
X003126Y007509D01*
X003048Y007430D02*
X010455Y007430D01*
X010455Y007351D02*
X002969Y007351D01*
X002837Y007273D02*
X010455Y007273D01*
X010455Y007194D02*
X002915Y007194D01*
X002957Y007116D02*
X010455Y007116D01*
X010455Y007037D02*
X002990Y007037D01*
X002992Y006959D02*
X010455Y006959D01*
X010455Y006880D02*
X002992Y006880D01*
X002962Y006802D02*
X010455Y006802D01*
X010455Y006723D02*
X002927Y006723D01*
X002848Y006645D02*
X010455Y006645D01*
X010455Y006566D02*
X002699Y006566D01*
X002490Y006566D02*
X002255Y006566D01*
X002255Y006488D02*
X010455Y006488D01*
X010455Y006409D02*
X002255Y006409D01*
X002255Y006330D02*
X002467Y006330D01*
X002331Y006252D02*
X002255Y006252D01*
X002255Y006173D02*
X002256Y006173D01*
X002255Y006645D02*
X002341Y006645D01*
X002262Y006723D02*
X002255Y006723D01*
X001935Y006723D02*
X001927Y006723D01*
X001935Y006645D02*
X001848Y006645D01*
X001935Y006566D02*
X001699Y006566D01*
X001490Y006566D02*
X000288Y006566D01*
X000288Y006488D02*
X001935Y006488D01*
X001935Y006409D02*
X000288Y006409D01*
X000288Y006330D02*
X001467Y006330D01*
X001331Y006252D02*
X000288Y006252D01*
X000288Y006173D02*
X001256Y006173D01*
X001223Y006095D02*
X000288Y006095D01*
X000288Y006016D02*
X001197Y006016D01*
X001197Y005938D02*
X000288Y005938D01*
X000288Y005859D02*
X001203Y005859D01*
X001236Y005781D02*
X000288Y005781D01*
X000288Y005702D02*
X001284Y005702D01*
X001362Y005624D02*
X000288Y005624D01*
X000288Y005545D02*
X001935Y005545D01*
X001935Y005466D02*
X000288Y005466D01*
X000288Y005388D02*
X001935Y005388D01*
X001935Y005309D02*
X001773Y005309D01*
X001879Y005231D02*
X001935Y005231D01*
X002255Y005231D02*
X002310Y005231D01*
X002255Y005309D02*
X002416Y005309D01*
X002255Y005388D02*
X010455Y005388D01*
X010455Y005466D02*
X002255Y005466D01*
X002255Y005545D02*
X010455Y005545D01*
X010455Y005624D02*
X002827Y005624D01*
X002906Y005702D02*
X010455Y005702D01*
X010455Y005781D02*
X002953Y005781D01*
X002986Y005859D02*
X010455Y005859D01*
X010455Y005938D02*
X002992Y005938D01*
X002992Y006016D02*
X010455Y006016D01*
X010455Y006095D02*
X002966Y006095D01*
X002934Y006173D02*
X010455Y006173D01*
X010455Y006252D02*
X002858Y006252D01*
X002722Y006330D02*
X010455Y006330D01*
X010455Y005309D02*
X002773Y005309D01*
X002879Y005231D02*
X010455Y005231D01*
X010455Y005152D02*
X002942Y005152D01*
X002975Y005074D02*
X010455Y005074D01*
X010455Y004995D02*
X002992Y004995D01*
X002992Y004917D02*
X010455Y004917D01*
X010455Y004838D02*
X002977Y004838D01*
X002945Y004760D02*
X010455Y004760D01*
X010455Y004681D02*
X002885Y004681D01*
X002787Y004602D02*
X010455Y004602D01*
X010455Y004524D02*
X002255Y004524D01*
X002255Y004602D02*
X002402Y004602D01*
X002305Y004681D02*
X002255Y004681D01*
X002255Y004445D02*
X010455Y004445D01*
X010455Y004367D02*
X002235Y004367D01*
X002156Y004288D02*
X002368Y004288D01*
X002369Y004290D02*
X002258Y004178D01*
X002197Y004032D01*
X002197Y003874D01*
X002258Y003728D01*
X002369Y003616D01*
X002516Y003556D01*
X002674Y003556D01*
X002820Y003616D01*
X002932Y003728D01*
X002992Y003874D01*
X002992Y004032D01*
X002932Y004178D01*
X002820Y004290D01*
X002674Y004351D01*
X002516Y004351D01*
X002369Y004290D01*
X002289Y004210D02*
X002078Y004210D01*
X001999Y004131D02*
X002238Y004131D01*
X002206Y004053D02*
X001992Y004053D01*
X001992Y003974D02*
X002197Y003974D01*
X002197Y003896D02*
X001992Y003896D01*
X001992Y003817D02*
X002221Y003817D01*
X002253Y003739D02*
X001992Y003739D01*
X001992Y003660D02*
X002326Y003660D01*
X002453Y003581D02*
X001948Y003581D01*
X001595Y003953D02*
X002095Y004453D01*
X001402Y004602D02*
X000288Y004602D01*
X000288Y004681D02*
X001305Y004681D01*
X001245Y004760D02*
X000288Y004760D01*
X000288Y004838D02*
X001212Y004838D01*
X001197Y004917D02*
X000288Y004917D01*
X000288Y004995D02*
X001197Y004995D01*
X001214Y005074D02*
X000288Y005074D01*
X000288Y005152D02*
X001247Y005152D01*
X001310Y005231D02*
X000288Y005231D01*
X000288Y005309D02*
X001416Y005309D01*
X001827Y005624D02*
X001935Y005624D01*
X001935Y005702D02*
X001906Y005702D01*
X002255Y005702D02*
X002284Y005702D01*
X002255Y005624D02*
X002362Y005624D01*
X001935Y006173D02*
X001934Y006173D01*
X001935Y006252D02*
X001858Y006252D01*
X001935Y006330D02*
X001722Y006330D01*
X001341Y006645D02*
X000288Y006645D01*
X000288Y006723D02*
X001262Y006723D01*
X001227Y006802D02*
X000288Y006802D01*
X000288Y006880D02*
X001197Y006880D01*
X001197Y006959D02*
X000288Y006959D01*
X000288Y007037D02*
X001199Y007037D01*
X001232Y007116D02*
X000288Y007116D01*
X000288Y007194D02*
X001274Y007194D01*
X001352Y007273D02*
X000288Y007273D01*
X000288Y007351D02*
X002017Y007351D01*
X001938Y007273D02*
X001837Y007273D01*
X001915Y007194D02*
X001935Y007194D01*
X002095Y007430D02*
X000288Y007430D01*
X000288Y007509D02*
X002174Y007509D01*
X002252Y007587D02*
X001750Y007587D01*
X001820Y007616D02*
X001932Y007728D01*
X001992Y007874D01*
X001992Y008032D01*
X001932Y008178D01*
X001820Y008290D01*
X001674Y008351D01*
X001516Y008351D01*
X001369Y008290D01*
X001258Y008178D01*
X001197Y008032D01*
X001197Y007874D01*
X001258Y007728D01*
X001369Y007616D01*
X001516Y007556D01*
X001674Y007556D01*
X001820Y007616D01*
X001869Y007666D02*
X002320Y007666D01*
X002251Y007744D02*
X001938Y007744D01*
X001971Y007823D02*
X002218Y007823D01*
X002197Y007901D02*
X001992Y007901D01*
X001992Y007980D02*
X002197Y007980D01*
X002208Y008058D02*
X001981Y008058D01*
X001949Y008137D02*
X002241Y008137D01*
X002295Y008215D02*
X001894Y008215D01*
X001810Y008294D02*
X002379Y008294D01*
X002516Y008556D02*
X002369Y008616D01*
X002258Y008728D01*
X002197Y008874D01*
X002197Y009032D01*
X002258Y009178D01*
X002369Y009290D01*
X002516Y009351D01*
X002674Y009351D01*
X002820Y009290D01*
X002932Y009178D01*
X002992Y009032D01*
X002992Y008874D01*
X002932Y008728D01*
X002820Y008616D01*
X002674Y008556D01*
X002516Y008556D01*
X002389Y008608D02*
X001801Y008608D01*
X001820Y008616D02*
X001932Y008728D01*
X001992Y008874D01*
X001992Y009032D01*
X001932Y009178D01*
X001820Y009290D01*
X001674Y009351D01*
X001516Y009351D01*
X001369Y009290D01*
X001258Y009178D01*
X001197Y009032D01*
X001197Y008874D01*
X001258Y008728D01*
X001369Y008616D01*
X001516Y008556D01*
X001674Y008556D01*
X001820Y008616D01*
X001890Y008687D02*
X002299Y008687D01*
X002242Y008765D02*
X001947Y008765D01*
X001980Y008844D02*
X002210Y008844D01*
X002197Y008922D02*
X001992Y008922D01*
X001992Y009001D02*
X002197Y009001D01*
X002217Y009079D02*
X001973Y009079D01*
X001940Y009158D02*
X002249Y009158D01*
X002316Y009237D02*
X001873Y009237D01*
X001759Y009315D02*
X002430Y009315D01*
X002356Y009629D02*
X001833Y009629D01*
X001911Y009708D02*
X002278Y009708D01*
X002233Y009786D02*
X001956Y009786D01*
X001988Y009865D02*
X002201Y009865D01*
X002197Y009943D02*
X001992Y009943D01*
X001992Y010022D02*
X002197Y010022D01*
X002226Y010101D02*
X001964Y010101D01*
X001931Y010179D02*
X002259Y010179D01*
X002337Y010258D02*
X001852Y010258D01*
X001854Y010650D02*
X002335Y010650D01*
X002257Y010729D02*
X001932Y010729D01*
X001964Y010807D02*
X002225Y010807D01*
X002197Y010886D02*
X001992Y010886D01*
X001992Y010964D02*
X002197Y010964D01*
X002202Y011043D02*
X001988Y011043D01*
X001955Y011122D02*
X002234Y011122D01*
X002280Y011200D02*
X001910Y011200D01*
X001831Y011279D02*
X002358Y011279D01*
X002852Y010258D02*
X004446Y010258D01*
X004342Y010179D02*
X002931Y010179D01*
X002964Y010101D02*
X004290Y010101D01*
X004257Y010022D02*
X002992Y010022D01*
X002992Y009943D02*
X004257Y009943D01*
X004265Y009865D02*
X002988Y009865D01*
X002956Y009786D02*
X004298Y009786D01*
X004362Y009708D02*
X002911Y009708D01*
X002833Y009629D02*
X004435Y009629D01*
X004435Y009551D02*
X000288Y009551D01*
X000288Y009629D02*
X001356Y009629D01*
X001278Y009708D02*
X000288Y009708D01*
X000288Y009786D02*
X001233Y009786D01*
X001201Y009865D02*
X000288Y009865D01*
X000288Y009943D02*
X001197Y009943D01*
X001197Y010022D02*
X000288Y010022D01*
X000288Y010101D02*
X001226Y010101D01*
X001259Y010179D02*
X000288Y010179D01*
X000288Y010258D02*
X001337Y010258D01*
X001481Y010336D02*
X000288Y010336D01*
X000288Y010415D02*
X008578Y010415D01*
X008576Y010493D02*
X000288Y010493D01*
X000288Y010572D02*
X001476Y010572D01*
X001335Y010650D02*
X000288Y010650D01*
X000288Y010729D02*
X001257Y010729D01*
X001225Y010807D02*
X000288Y010807D01*
X000288Y010886D02*
X001197Y010886D01*
X001197Y010964D02*
X000288Y010964D01*
X000288Y011043D02*
X001202Y011043D01*
X001234Y011122D02*
X000288Y011122D01*
X000288Y011200D02*
X001280Y011200D01*
X001358Y011279D02*
X000288Y011279D01*
X000288Y009472D02*
X004435Y009472D01*
X004435Y009394D02*
X000288Y009394D01*
X000288Y009315D02*
X001430Y009315D01*
X001316Y009237D02*
X000288Y009237D01*
X000288Y009158D02*
X001249Y009158D01*
X001217Y009079D02*
X000288Y009079D01*
X000288Y009001D02*
X001197Y009001D01*
X001197Y008922D02*
X000288Y008922D01*
X000288Y008844D02*
X001210Y008844D01*
X001242Y008765D02*
X000288Y008765D01*
X000288Y008687D02*
X001299Y008687D01*
X001389Y008608D02*
X000288Y008608D01*
X000288Y008530D02*
X003695Y008530D01*
X003774Y008608D02*
X002801Y008608D01*
X002890Y008687D02*
X003852Y008687D01*
X003931Y008765D02*
X002947Y008765D01*
X002980Y008844D02*
X004009Y008844D01*
X004088Y008922D02*
X002992Y008922D01*
X002992Y009001D02*
X004166Y009001D01*
X004245Y009079D02*
X002973Y009079D01*
X002940Y009158D02*
X004323Y009158D01*
X004402Y009237D02*
X002873Y009237D01*
X002759Y009315D02*
X004435Y009315D01*
X004595Y009203D02*
X004345Y008953D01*
X004383Y008765D02*
X005306Y008765D01*
X005383Y008687D02*
X004305Y008687D01*
X004595Y009203D02*
X004595Y009953D01*
X004755Y009158D02*
X005321Y009158D01*
X003616Y008451D02*
X000288Y008451D01*
X000288Y008373D02*
X003538Y008373D01*
X003459Y008294D02*
X002810Y008294D01*
X002894Y008215D02*
X003381Y008215D01*
X003302Y008137D02*
X002949Y008137D01*
X002981Y008058D02*
X003224Y008058D01*
X003145Y007980D02*
X002992Y007980D01*
X002992Y007901D02*
X003067Y007901D01*
X002988Y007823D02*
X002971Y007823D01*
X001439Y007587D02*
X000288Y007587D01*
X000288Y007666D02*
X001320Y007666D01*
X001251Y007744D02*
X000288Y007744D01*
X000288Y007823D02*
X001218Y007823D01*
X001197Y007901D02*
X000288Y007901D01*
X000288Y007980D02*
X001197Y007980D01*
X001208Y008058D02*
X000288Y008058D01*
X000288Y008137D02*
X001241Y008137D01*
X001295Y008215D02*
X000288Y008215D01*
X000288Y008294D02*
X001379Y008294D01*
X002821Y004288D02*
X010455Y004288D01*
X010455Y004210D02*
X002900Y004210D01*
X002951Y004131D02*
X010455Y004131D01*
X010455Y004053D02*
X002984Y004053D01*
X002992Y003974D02*
X010455Y003974D01*
X010455Y003896D02*
X002992Y003896D01*
X002968Y003817D02*
X010455Y003817D01*
X010455Y003739D02*
X002936Y003739D01*
X002864Y003660D02*
X010455Y003660D01*
X010455Y003581D02*
X002736Y003581D01*
X002508Y002089D02*
X001784Y002089D01*
X001898Y002011D02*
X002508Y002011D01*
X002508Y001932D02*
X001977Y001932D01*
X002056Y001853D02*
X002508Y001853D01*
X002508Y001775D02*
X002095Y001775D01*
X002128Y001696D02*
X002508Y001696D01*
X002508Y001618D02*
X002160Y001618D01*
X002188Y001539D02*
X002508Y001539D01*
X002508Y001461D02*
X002188Y001461D01*
X002188Y001382D02*
X002507Y001382D01*
X002501Y001304D02*
X002188Y001304D01*
X002183Y001225D02*
X002495Y001225D01*
X002470Y001147D02*
X002150Y001147D01*
X002118Y001068D02*
X002445Y001068D01*
X002419Y000989D02*
X002085Y000989D01*
X002032Y000911D02*
X002394Y000911D01*
X002345Y000832D02*
X001953Y000832D01*
X001875Y000754D02*
X002288Y000754D01*
X002231Y000675D02*
X001727Y000675D01*
X001767Y000361D02*
X001029Y000361D01*
X000846Y000440D02*
X001950Y000440D01*
X002058Y000518D02*
X000738Y000518D01*
X000630Y000597D02*
X002166Y000597D01*
X001069Y000675D02*
X000565Y000675D01*
X000508Y000754D02*
X000921Y000754D01*
X000842Y000832D02*
X000451Y000832D01*
X002814Y012614D02*
X006145Y012614D01*
X006145Y012692D02*
X002896Y012692D01*
X002949Y012771D02*
X006145Y012771D01*
X006145Y012850D02*
X002982Y012850D01*
X002992Y012928D02*
X006145Y012928D01*
X006145Y013007D02*
X002992Y013007D01*
X002970Y013085D02*
X006145Y013085D01*
X006145Y013164D02*
X002938Y013164D01*
X002868Y013242D02*
X006145Y013242D01*
X006145Y013321D02*
X002745Y013321D01*
X002777Y015599D02*
X004162Y015599D01*
X004059Y015677D02*
X002881Y015677D01*
X002943Y015756D02*
X003996Y015756D01*
X003964Y015834D02*
X002976Y015834D01*
X002992Y015913D02*
X003947Y015913D01*
X003947Y015991D02*
X002992Y015991D01*
X002976Y016070D02*
X003963Y016070D01*
X003995Y016148D02*
X002944Y016148D01*
X002883Y016227D02*
X004056Y016227D01*
X004157Y016305D02*
X002783Y016305D01*
X002852Y016620D02*
X004116Y016620D01*
X004037Y016698D02*
X002930Y016698D01*
X002973Y016777D02*
X003987Y016777D01*
X003955Y016855D02*
X003006Y016855D01*
X003012Y017012D02*
X003947Y017012D01*
X003947Y016934D02*
X002634Y016934D01*
X002633Y017012D02*
X002556Y017012D01*
X002556Y017091D02*
X002633Y017091D01*
X002633Y017169D02*
X002556Y017169D01*
X002556Y017248D02*
X002633Y017248D01*
X002633Y017326D02*
X002556Y017326D01*
X002405Y017326D02*
X001784Y017326D01*
X001890Y017248D02*
X002299Y017248D01*
X002232Y017169D02*
X001957Y017169D01*
X001989Y017091D02*
X002200Y017091D01*
X002177Y017012D02*
X002012Y017012D01*
X002006Y016855D02*
X002183Y016855D01*
X002216Y016777D02*
X001973Y016777D01*
X001930Y016698D02*
X002259Y016698D01*
X002338Y016620D02*
X001852Y016620D01*
X001633Y016620D02*
X001556Y016620D01*
X001556Y016698D02*
X001633Y016698D01*
X001633Y016777D02*
X001556Y016777D01*
X001556Y016855D02*
X001633Y016855D01*
X001633Y017012D02*
X001556Y017012D01*
X001556Y017091D02*
X001633Y017091D01*
X001633Y017169D02*
X001556Y017169D01*
X001556Y017248D02*
X001633Y017248D01*
X001633Y017326D02*
X001556Y017326D01*
X001405Y017326D02*
X000288Y017326D01*
X000288Y017248D02*
X001299Y017248D01*
X001232Y017169D02*
X000288Y017169D01*
X000288Y017091D02*
X001200Y017091D01*
X001177Y017012D02*
X000288Y017012D01*
X000288Y017405D02*
X010455Y017405D01*
X010455Y017326D02*
X006724Y017326D01*
X006762Y017248D02*
X010455Y017248D01*
X010455Y017169D02*
X006762Y017169D01*
X006762Y017091D02*
X010455Y017091D01*
X010455Y017484D02*
X000288Y017484D01*
X000288Y017562D02*
X010455Y017562D01*
X010455Y017641D02*
X000288Y017641D01*
X000288Y017719D02*
X010455Y017719D01*
X010455Y017798D02*
X000288Y017798D01*
X000288Y016305D02*
X001407Y016305D01*
X001306Y016227D02*
X000288Y016227D01*
X000288Y016148D02*
X001245Y016148D01*
X001213Y016070D02*
X000288Y016070D01*
X000288Y015991D02*
X001197Y015991D01*
X001197Y015913D02*
X000288Y015913D01*
X000288Y015834D02*
X001214Y015834D01*
X001246Y015756D02*
X000288Y015756D01*
X000288Y015677D02*
X001309Y015677D01*
X001412Y015599D02*
X000288Y015599D01*
X002784Y017326D02*
X004208Y017326D01*
X004077Y017248D02*
X002890Y017248D01*
X002957Y017169D02*
X004004Y017169D01*
X003972Y017091D02*
X002989Y017091D01*
X006306Y017091D02*
X006383Y017091D01*
X006383Y017169D02*
X006306Y017169D01*
X006306Y017248D02*
X006383Y017248D01*
X006383Y017326D02*
X006306Y017326D01*
X006306Y016855D02*
X006383Y016855D01*
X006383Y016777D02*
X006306Y016777D01*
X006306Y016698D02*
X006383Y016698D01*
X006383Y016620D02*
X006306Y016620D01*
X006306Y016541D02*
X006383Y016541D01*
D14*
X008845Y013453D03*
X008799Y010748D03*
X008799Y010158D03*
X008845Y008453D03*
X006345Y011953D03*
X004595Y009953D03*
X005595Y008953D03*
D15*
X006345Y011953D02*
X006345Y015953D01*
M02*
